M48
; DRILL file KiCad 10.0.0 date 2026-04-06T18:51:50
; FORMAT={-:-/ absolute / metric / decimal}
; #@! TF.CreationDate,2026-04-06T18:51:50+07:00
; #@! TF.GenerationSoftware,Kicad,Pcbnew,10.0.0
; #@! TF.FileFunction,Plated,1,2,PTH
FMAT,2
METRIC
; #@! TA.AperFunction,Plated,PTH,ComponentDrill
T1C1.000
; #@! TA.AperFunction,Plated,PTH,ComponentDrill
T2C1.190
; #@! TA.AperFunction,Plated,PTH,ComponentDrill
T3C1.200
%
G90
G05
T1
X129.995Y-76.498
X129.995Y-79.038
X129.995Y-81.578
X129.995Y-84.118
X129.995Y-86.658
X129.995Y-89.198
X129.995Y-91.738
X129.995Y-94.278
X129.995Y-96.818
X129.995Y-99.358
X129.995Y-101.898
X129.995Y-104.438
X129.995Y-106.978
X129.995Y-109.518
X129.995Y-112.058
X134.871Y-76.448
X134.871Y-78.988
X134.871Y-81.528
X134.871Y-84.068
X134.871Y-86.608
X134.871Y-89.148
X134.871Y-91.688
X134.871Y-94.228
X134.871Y-96.768
X134.871Y-99.308
X134.871Y-101.848
X134.871Y-104.388
X134.871Y-106.928
X134.871Y-109.468
X134.871Y-112.008
X160.121Y-76.448
X160.121Y-78.988
X160.121Y-81.528
X160.121Y-84.068
X160.121Y-86.608
X160.121Y-89.148
X160.121Y-91.688
X160.121Y-94.228
X160.121Y-96.768
X160.121Y-99.308
X160.121Y-101.848
X160.121Y-104.388
X160.121Y-106.928
X160.121Y-109.468
X160.121Y-112.008
X164.995Y-76.498
X164.995Y-79.038
X164.995Y-81.578
X164.995Y-84.118
X164.995Y-86.658
X164.995Y-89.198
X164.995Y-91.738
X164.995Y-94.278
X164.995Y-96.818
X164.995Y-99.358
X164.995Y-101.898
X164.995Y-104.438
X164.995Y-106.978
X164.995Y-109.518
X164.995Y-112.058
X171.221Y-118.201
X173.761Y-118.201
X176.301Y-118.201
X188.003Y-43.92
X188.003Y-46.46
X188.003Y-49.0
X188.003Y-51.54
X188.003Y-54.08
X188.003Y-56.62
X188.003Y-59.17
T2
X122.539Y-46.294
X122.539Y-48.834
X122.539Y-51.374
X122.539Y-53.914
X122.539Y-62.735
X122.539Y-65.275
X122.539Y-67.815
X122.539Y-76.636
X122.539Y-79.176
X122.539Y-81.716
X122.539Y-90.537
X122.539Y-93.077
X122.539Y-95.617
X122.539Y-98.157
X122.539Y-106.978
X122.539Y-109.518
X122.539Y-112.058
T3
X170.075Y-68.548
X170.075Y-108.178
X183.51Y-114.706
X187.01Y-114.706
X187.345Y-68.548
X187.345Y-108.178
M30
