%TF.GenerationSoftware,KiCad,Pcbnew,10.0.0*%
%TF.CreationDate,2026-04-06T18:52:01+07:00*%
%TF.ProjectId,Embedded_project_v2,456d6265-6464-4656-945f-70726f6a6563,rev?*%
%TF.SameCoordinates,Original*%
%TF.FileFunction,Copper,L2,Bot*%
%TF.FilePolarity,Positive*%
%FSLAX46Y46*%
G04 Gerber Fmt 4.6, Leading zero omitted, Abs format (unit mm)*
G04 Created by KiCad (PCBNEW 10.0.0) date 2026-04-06 18:52:01*
%MOMM*%
%LPD*%
G01*
G04 APERTURE LIST*
G04 Aperture macros list*
%AMRoundRect*
0 Rectangle with rounded corners*
0 $1 Rounding radius*
0 $2 $3 $4 $5 $6 $7 $8 $9 X,Y pos of 4 corners*
0 Add a 4 corners polygon primitive as box body*
4,1,4,$2,$3,$4,$5,$6,$7,$8,$9,$2,$3,0*
0 Add four circle primitives for the rounded corners*
1,1,$1+$1,$2,$3*
1,1,$1+$1,$4,$5*
1,1,$1+$1,$6,$7*
1,1,$1+$1,$8,$9*
0 Add four rect primitives between the rounded corners*
20,1,$1+$1,$2,$3,$4,$5,0*
20,1,$1+$1,$4,$5,$6,$7,0*
20,1,$1+$1,$6,$7,$8,$9,0*
20,1,$1+$1,$8,$9,$2,$3,0*%
G04 Aperture macros list end*
%TA.AperFunction,ComponentPad*%
%ADD10R,1.700000X1.700000*%
%TD*%
%TA.AperFunction,ComponentPad*%
%ADD11C,1.700000*%
%TD*%
%TA.AperFunction,ComponentPad*%
%ADD12RoundRect,0.250000X-0.845000X0.620000X-0.845000X-0.620000X0.845000X-0.620000X0.845000X0.620000X0*%
%TD*%
%TA.AperFunction,ComponentPad*%
%ADD13O,2.190000X1.740000*%
%TD*%
%TA.AperFunction,ComponentPad*%
%ADD14C,1.600000*%
%TD*%
%TA.AperFunction,ComponentPad*%
%ADD15R,2.540000X2.540000*%
%TD*%
%TA.AperFunction,ComponentPad*%
%ADD16RoundRect,0.250001X-0.949999X-0.949999X0.949999X-0.949999X0.949999X0.949999X-0.949999X0.949999X0*%
%TD*%
%TA.AperFunction,ComponentPad*%
%ADD17C,2.400000*%
%TD*%
%TA.AperFunction,Conductor*%
%ADD18C,1.000000*%
%TD*%
G04 APERTURE END LIST*
D10*
%TO.P,J8,1,Pin_1_1*%
%TO.N,+3V3*%
X129995300Y-76498400D03*
D11*
%TO.P,J8,2,Pin_2_2*%
%TO.N,GND*%
X129995300Y-79038400D03*
%TO.P,J8,3,Pin_3_3*%
%TO.N,Net-(J8-Pin_3)*%
X129995300Y-81578400D03*
%TO.P,J8,4,Pin_4_4*%
%TO.N,Net-(J8-Pin_4)*%
X129995300Y-84118400D03*
%TO.P,J8,5,Pin_5_5*%
%TO.N,/GPS_TX*%
X129995300Y-86658400D03*
%TO.P,J8,6,Pin_6_6*%
%TO.N,/GMS_TX*%
X129995300Y-89198400D03*
%TO.P,J8,7,Pin_7_7*%
%TO.N,/GMS_RX*%
X129995300Y-91738400D03*
%TO.P,J8,8,Pin_8_8*%
%TO.N,/GPS_RX*%
X129995300Y-94278400D03*
%TO.P,J8,9,Pin_9_9*%
%TO.N,/DHT11_DATA*%
X129995300Y-96818400D03*
%TO.P,J8,10,Pin_10_10*%
%TO.N,/WIND_DATA*%
X129995300Y-99358400D03*
%TO.P,J8,11,Pin_11_11*%
%TO.N,/BMP180_SDA*%
X129995300Y-101898400D03*
%TO.P,J8,12,Pin_12_12*%
%TO.N,/RX0*%
X129995300Y-104438400D03*
%TO.P,J8,13,Pin_13_13*%
%TO.N,/TX0*%
X129995300Y-106978400D03*
%TO.P,J8,14,Pin_14_14*%
%TO.N,/BMP180_SCL*%
X129995300Y-109518400D03*
%TO.P,J8,15,Pin_15_15*%
%TO.N,/RAIN_DATA*%
X129995300Y-112058400D03*
%TD*%
D12*
%TO.P,J6,1,Pin_1_1*%
%TO.N,+3V3*%
X122539400Y-106978400D03*
D13*
%TO.P,J6,2,Pin_2_2*%
%TO.N,GND*%
X122539400Y-109518400D03*
%TO.P,J6,3,Pin_3_3*%
%TO.N,/RAIN_DATA*%
X122539400Y-112058400D03*
%TD*%
D12*
%TO.P,J2,1,Pin_1_1*%
%TO.N,+3V3*%
X122539400Y-62735100D03*
D13*
%TO.P,J2,2,Pin_2_2*%
%TO.N,/DHT11_DATA*%
X122539400Y-65275100D03*
%TO.P,J2,3,Pin_3_3*%
%TO.N,GND*%
X122539400Y-67815100D03*
%TD*%
D14*
%TO.P,U3,1,VCC_1*%
%TO.N,+5V*%
X188003300Y-43920400D03*
%TO.P,U3,2,GND_2*%
%TO.N,GND*%
X188003300Y-46460400D03*
%TO.P,U3,3,TX_3*%
%TO.N,/GMS_TX*%
X188003300Y-49000400D03*
%TO.P,U3,4,RX_4*%
%TO.N,/GMS_RX*%
X188003300Y-51540400D03*
%TO.P,U3,5,NET_5*%
%TO.N,unconnected-(U3-NET-Pad5)*%
X188003300Y-54080400D03*
%TO.P,U3,6,PEN_6*%
%TO.N,unconnected-(U3-PEN-Pad6)*%
X188003300Y-56620400D03*
%TO.P,U3,7,DTR_7*%
%TO.N,unconnected-(U3-DTR-Pad7)*%
X188003300Y-59170400D03*
%TD*%
%TO.P,U2,1,3V3_1*%
%TO.N,+3V3*%
X134871000Y-76448400D03*
%TO.P,U2,2,GND_2*%
%TO.N,GND*%
X134871000Y-78988400D03*
%TO.P,U2,3,D15_3*%
%TO.N,Net-(J8-Pin_3)*%
X134871000Y-81528400D03*
%TO.P,U2,4,D2_4*%
%TO.N,Net-(J8-Pin_4)*%
X134871000Y-84068400D03*
%TO.P,U2,5,D4_5*%
%TO.N,/GPS_TX*%
X134871000Y-86608400D03*
%TO.P,U2,6,D16/RX2_6*%
%TO.N,/GMS_TX*%
X134871000Y-89148400D03*
%TO.P,U2,7,D17/TX2_7*%
%TO.N,/GMS_RX*%
X134871000Y-91688400D03*
%TO.P,U2,8,D5_8*%
%TO.N,/GPS_RX*%
X134871000Y-94228400D03*
%TO.P,U2,9,D18_9*%
%TO.N,/DHT11_DATA*%
X134871000Y-96768400D03*
%TO.P,U2,10,D19_10*%
%TO.N,/WIND_DATA*%
X134871000Y-99308400D03*
%TO.P,U2,11,D21_11*%
%TO.N,/BMP180_SDA*%
X134871000Y-101848400D03*
%TO.P,U2,12,D3/RX0_12*%
%TO.N,/RX0*%
X134871000Y-104388400D03*
%TO.P,U2,13,D1/TX0_13*%
%TO.N,/TX0*%
X134871000Y-106928400D03*
%TO.P,U2,14,D22_14*%
%TO.N,/BMP180_SCL*%
X134871000Y-109468400D03*
%TO.P,U2,15,D23_15*%
%TO.N,/RAIN_DATA*%
X134871000Y-112008400D03*
%TO.P,U2,16,Vin_16*%
%TO.N,+5V*%
X160121000Y-76448400D03*
%TO.P,U2,17,GND_17*%
%TO.N,GND*%
X160121000Y-78988400D03*
%TO.P,U2,18,D13_18*%
%TO.N,Net-(J9-Pin_3)*%
X160121000Y-81528400D03*
%TO.P,U2,19,D12_19*%
%TO.N,Net-(J9-Pin_4)*%
X160121000Y-84068400D03*
%TO.P,U2,20,D14_20*%
%TO.N,Net-(J9-Pin_5)*%
X160121000Y-86608400D03*
%TO.P,U2,21,D27_21*%
%TO.N,Net-(J9-Pin_6)*%
X160121000Y-89148400D03*
%TO.P,U2,22,D26_22*%
%TO.N,Net-(J9-Pin_7)*%
X160121000Y-91688400D03*
%TO.P,U2,23,D25_23*%
%TO.N,Net-(J9-Pin_8)*%
X160121000Y-94228400D03*
%TO.P,U2,24,D33_24*%
%TO.N,Net-(J9-Pin_9)*%
X160121000Y-96768400D03*
%TO.P,U2,25,D32_25*%
%TO.N,Net-(J9-Pin_10)*%
X160121000Y-99308400D03*
%TO.P,U2,26,D35_26*%
%TO.N,Net-(J9-Pin_11)*%
X160121000Y-101848400D03*
%TO.P,U2,27,D34_27*%
%TO.N,Net-(J9-Pin_12)*%
X160121000Y-104388400D03*
%TO.P,U2,28,D39/VN_28*%
%TO.N,Net-(J9-Pin_13)*%
X160121000Y-106928400D03*
%TO.P,U2,29,D36/VP_29*%
%TO.N,Net-(J9-Pin_14)*%
X160121000Y-109468400D03*
%TO.P,U2,30,EN_30*%
%TO.N,Net-(J9-Pin_15)*%
X160121000Y-112008400D03*
%TD*%
D15*
%TO.P,U1,1,IN+_1*%
%TO.N,+12V*%
X170075300Y-108178200D03*
%TO.P,U1,2,IN-_2*%
%TO.N,GND*%
X187345300Y-108178200D03*
%TO.P,U1,3,OUT+_3*%
%TO.N,+5V*%
X170075300Y-68548200D03*
%TO.P,U1,4,OUT-_4*%
%TO.N,GND*%
X187345300Y-68548200D03*
%TD*%
D16*
%TO.P,J1,1,Pin_1_1*%
%TO.N,+12V*%
X183510300Y-114705800D03*
D17*
%TO.P,J1,2,Pin_2_2*%
%TO.N,GND*%
X187010300Y-114705800D03*
%TD*%
D12*
%TO.P,J5,1,Pin_1_1*%
%TO.N,+3V3*%
X122539400Y-46294000D03*
D13*
%TO.P,J5,2,Pin_2_2*%
%TO.N,GND*%
X122539400Y-48834000D03*
%TO.P,J5,3,Pin_3_3*%
%TO.N,/GPS_TX*%
X122539400Y-51374000D03*
%TO.P,J5,4,Pin_4_4*%
%TO.N,/GPS_RX*%
X122539400Y-53914000D03*
%TD*%
D10*
%TO.P,J9,1,Pin_1_1*%
%TO.N,+5V*%
X164995300Y-76498400D03*
D11*
%TO.P,J9,2,Pin_2_2*%
%TO.N,GND*%
X164995300Y-79038400D03*
%TO.P,J9,3,Pin_3_3*%
%TO.N,Net-(J9-Pin_3)*%
X164995300Y-81578400D03*
%TO.P,J9,4,Pin_4_4*%
%TO.N,Net-(J9-Pin_4)*%
X164995300Y-84118400D03*
%TO.P,J9,5,Pin_5_5*%
%TO.N,Net-(J9-Pin_5)*%
X164995300Y-86658400D03*
%TO.P,J9,6,Pin_6_6*%
%TO.N,Net-(J9-Pin_6)*%
X164995300Y-89198400D03*
%TO.P,J9,7,Pin_7_7*%
%TO.N,Net-(J9-Pin_7)*%
X164995300Y-91738400D03*
%TO.P,J9,8,Pin_8_8*%
%TO.N,Net-(J9-Pin_8)*%
X164995300Y-94278400D03*
%TO.P,J9,9,Pin_9_9*%
%TO.N,Net-(J9-Pin_9)*%
X164995300Y-96818400D03*
%TO.P,J9,10,Pin_10_10*%
%TO.N,Net-(J9-Pin_10)*%
X164995300Y-99358400D03*
%TO.P,J9,11,Pin_11_11*%
%TO.N,Net-(J9-Pin_11)*%
X164995300Y-101898400D03*
%TO.P,J9,12,Pin_12_12*%
%TO.N,Net-(J9-Pin_12)*%
X164995300Y-104438400D03*
%TO.P,J9,13,Pin_13_13*%
%TO.N,Net-(J9-Pin_13)*%
X164995300Y-106978400D03*
%TO.P,J9,14,Pin_14_14*%
%TO.N,Net-(J9-Pin_14)*%
X164995300Y-109518400D03*
%TO.P,J9,15,Pin_15_15*%
%TO.N,Net-(J9-Pin_15)*%
X164995300Y-112058400D03*
%TD*%
D12*
%TO.P,J3,1,Pin_1_1*%
%TO.N,+3V3*%
X122539400Y-90537300D03*
D13*
%TO.P,J3,2,Pin_2_2*%
%TO.N,GND*%
X122539400Y-93077300D03*
%TO.P,J3,3,Pin_3_3*%
%TO.N,/BMP180_SCL*%
X122539400Y-95617300D03*
%TO.P,J3,4,Pin_4_4*%
%TO.N,/BMP180_SDA*%
X122539400Y-98157300D03*
%TD*%
D12*
%TO.P,J4,1,Pin_1_1*%
%TO.N,+3V3*%
X122539400Y-76636200D03*
D13*
%TO.P,J4,2,Pin_2_2*%
%TO.N,GND*%
X122539400Y-79176200D03*
%TO.P,J4,3,Pin_3_3*%
%TO.N,/WIND_DATA*%
X122539400Y-81716200D03*
%TD*%
D10*
%TO.P,J10,1,Pin_1_1*%
%TO.N,GND*%
X176300800Y-118200800D03*
D11*
%TO.P,J10,2,Pin_2_2*%
%TO.N,/RX0*%
X173760800Y-118200800D03*
%TO.P,J10,3,Pin_3_3*%
%TO.N,/TX0*%
X171220800Y-118200800D03*
%TD*%
%TO.N,+5V*%
D18*
X164995300Y-70786700D02*
X164995300Y-76498400D01*
X185130600Y-43920400D02*
X188003300Y-43920400D01*
X170075300Y-68548200D02*
X167233800Y-68548200D01*
X174726000Y-54325000D02*
X185130600Y-43920400D01*
X174726000Y-65882000D02*
X174726000Y-54325000D01*
X172059800Y-68548200D02*
X174726000Y-65882000D01*
X170075300Y-68548200D02*
X172059800Y-68548200D01*
X167233800Y-68548200D02*
X164995300Y-70786700D01*
%TD*%
%TA.AperFunction,Conductor*%
%TO.N,GND*%
G36*
X194934110Y-34911086D02*
G01*
X194978107Y-34911085D01*
X195002555Y-34914600D01*
X195002666Y-34913951D01*
X195009846Y-34915170D01*
X195047756Y-34917101D01*
X195240066Y-34926897D01*
X195248996Y-34927677D01*
X195257982Y-34928793D01*
X195266836Y-34930222D01*
X195492611Y-34975132D01*
X195500490Y-34976969D01*
X195508327Y-34979068D01*
X195516105Y-34981427D01*
X195734520Y-35055568D01*
X195742086Y-35058415D01*
X195749622Y-35061537D01*
X195756958Y-35064861D01*
X195851514Y-35111491D01*
X195930679Y-35150531D01*
X195963827Y-35166877D01*
X195970971Y-35170695D01*
X195977987Y-35174745D01*
X195984870Y-35179025D01*
X196176654Y-35307170D01*
X196183257Y-35311902D01*
X196189677Y-35316829D01*
X196195942Y-35321971D01*
X196302175Y-35415135D01*
X196369348Y-35474044D01*
X196375270Y-35479591D01*
X196380992Y-35485313D01*
X196386539Y-35491235D01*
X196538613Y-35664641D01*
X196543756Y-35670908D01*
X196548685Y-35677331D01*
X196553410Y-35683925D01*
X196649297Y-35827429D01*
X196649298Y-35827431D01*
X196681549Y-35875699D01*
X196685834Y-35882591D01*
X196689892Y-35889620D01*
X196693716Y-35896775D01*
X196795712Y-36103605D01*
X196799058Y-36110988D01*
X196802154Y-36118461D01*
X196805015Y-36126063D01*
X196879156Y-36344478D01*
X196881515Y-36352256D01*
X196883614Y-36360093D01*
X196885453Y-36367982D01*
X196930444Y-36594165D01*
X196931766Y-36602169D01*
X196932822Y-36610189D01*
X196933618Y-36618266D01*
X196949102Y-36854509D01*
X196949302Y-36858598D01*
X196949433Y-36862636D01*
X196949498Y-36866681D01*
X196933114Y-120925559D01*
X196933114Y-120925680D01*
X196933113Y-120926536D01*
X196933100Y-120926760D01*
X196933100Y-120993903D01*
X196933033Y-120997978D01*
X196932900Y-121002023D01*
X196932702Y-121006058D01*
X196917316Y-121240803D01*
X196916521Y-121248873D01*
X196915466Y-121256889D01*
X196914143Y-121264901D01*
X196869445Y-121489609D01*
X196867603Y-121497510D01*
X196865505Y-121505340D01*
X196863149Y-121513106D01*
X196789503Y-121730057D01*
X196786651Y-121737637D01*
X196783550Y-121745126D01*
X196780195Y-121752531D01*
X196678858Y-121958021D01*
X196675034Y-121965176D01*
X196670984Y-121972191D01*
X196666698Y-121979083D01*
X196539416Y-122169574D01*
X196534699Y-122176158D01*
X196529754Y-122182604D01*
X196524597Y-122188888D01*
X196373533Y-122361142D01*
X196367986Y-122367064D01*
X196362264Y-122372786D01*
X196356342Y-122378333D01*
X196184088Y-122529397D01*
X196177804Y-122534554D01*
X196171358Y-122539499D01*
X196164774Y-122544216D01*
X196068027Y-122608859D01*
X195974273Y-122671503D01*
X195967401Y-122675777D01*
X195960376Y-122679834D01*
X195953221Y-122683658D01*
X195747731Y-122784995D01*
X195740326Y-122788350D01*
X195732837Y-122791451D01*
X195725257Y-122794303D01*
X195551589Y-122853256D01*
X195508299Y-122867950D01*
X195500542Y-122870304D01*
X195496625Y-122871354D01*
X195492710Y-122872403D01*
X195484809Y-122874245D01*
X195260101Y-122918943D01*
X195252102Y-122920263D01*
X195246892Y-122920949D01*
X195244073Y-122921321D01*
X195236003Y-122922115D01*
X195001261Y-122937501D01*
X194997223Y-122937700D01*
X194993175Y-122937833D01*
X194989103Y-122937900D01*
X117836097Y-122937900D01*
X117832026Y-122937833D01*
X117827977Y-122937700D01*
X117823938Y-122937501D01*
X117589198Y-122922115D01*
X117581120Y-122921320D01*
X117573108Y-122920265D01*
X117565105Y-122918943D01*
X117537027Y-122913358D01*
X117340393Y-122874245D01*
X117332503Y-122872406D01*
X117325848Y-122870623D01*
X117324665Y-122870306D01*
X117316907Y-122867953D01*
X117206604Y-122830510D01*
X117099941Y-122794303D01*
X117092361Y-122791451D01*
X117088565Y-122789879D01*
X117084861Y-122788345D01*
X117077467Y-122784995D01*
X116871977Y-122683658D01*
X116864837Y-122679842D01*
X116857783Y-122675769D01*
X116850938Y-122671512D01*
X116660419Y-122544212D01*
X116653840Y-122539499D01*
X116647394Y-122534554D01*
X116641119Y-122529405D01*
X116468856Y-122378333D01*
X116462934Y-122372786D01*
X116457212Y-122367064D01*
X116451665Y-122361142D01*
X116416589Y-122321146D01*
X116300591Y-122188875D01*
X116295452Y-122182614D01*
X116290499Y-122176158D01*
X116285790Y-122169585D01*
X116158480Y-121979052D01*
X116154234Y-121972224D01*
X116150150Y-121965150D01*
X116146340Y-121958021D01*
X116109047Y-121882398D01*
X116044996Y-121752517D01*
X116041659Y-121745151D01*
X116038545Y-121737632D01*
X116035695Y-121730057D01*
X116028857Y-121709913D01*
X115962038Y-121513072D01*
X115959694Y-121505340D01*
X115957592Y-121497495D01*
X115955753Y-121489605D01*
X115921456Y-121317183D01*
X115911055Y-121264893D01*
X115909735Y-121256904D01*
X115909733Y-121256889D01*
X115908677Y-121248873D01*
X115907883Y-121240824D01*
X115892496Y-121006048D01*
X115892298Y-121001991D01*
X115892166Y-120997942D01*
X115892100Y-120993902D01*
X115892100Y-120923411D01*
X115892087Y-120922828D01*
X115892083Y-120893399D01*
X116475500Y-120893399D01*
X116475500Y-121106600D01*
X116500571Y-121264893D01*
X116507326Y-121307538D01*
X116507327Y-121307546D01*
X116508853Y-121317183D01*
X116574734Y-121519945D01*
X116577080Y-121524789D01*
X116578025Y-121526403D01*
X116671528Y-121709913D01*
X116796846Y-121882397D01*
X116947603Y-122033154D01*
X117120087Y-122158472D01*
X117310053Y-122255264D01*
X117310055Y-122255265D01*
X117499179Y-122316714D01*
X117499182Y-122316716D01*
X117499182Y-122316715D01*
X117512821Y-122321147D01*
X117723399Y-122354500D01*
X117723400Y-122354500D01*
X117936600Y-122354500D01*
X117936601Y-122354500D01*
X118147179Y-122321147D01*
X118147182Y-122321146D01*
X118147183Y-122321146D01*
X118349944Y-122255265D01*
X118349944Y-122255264D01*
X118359225Y-122252249D01*
X118359226Y-122252248D01*
X118359231Y-122252247D01*
X118367216Y-122249652D01*
X118376465Y-122241752D01*
X118539913Y-122158472D01*
X118712397Y-122033154D01*
X118863154Y-121882397D01*
X118988472Y-121709913D01*
X119085264Y-121519947D01*
X119151147Y-121317179D01*
X119184500Y-121106601D01*
X119184500Y-120893399D01*
X193645500Y-120893399D01*
X193645500Y-121106600D01*
X193670571Y-121264893D01*
X193677326Y-121307538D01*
X193677327Y-121307546D01*
X193678853Y-121317183D01*
X193744734Y-121519945D01*
X193747080Y-121524789D01*
X193748025Y-121526403D01*
X193841528Y-121709913D01*
X193966846Y-121882397D01*
X194117603Y-122033154D01*
X194290087Y-122158472D01*
X194480053Y-122255264D01*
X194480055Y-122255265D01*
X194669179Y-122316714D01*
X194669182Y-122316716D01*
X194669182Y-122316715D01*
X194682821Y-122321147D01*
X194893399Y-122354500D01*
X194893400Y-122354500D01*
X195106600Y-122354500D01*
X195106601Y-122354500D01*
X195317179Y-122321147D01*
X195317182Y-122321146D01*
X195317183Y-122321146D01*
X195519944Y-122255265D01*
X195519944Y-122255264D01*
X195529225Y-122252249D01*
X195529226Y-122252248D01*
X195529231Y-122252247D01*
X195537216Y-122249652D01*
X195546465Y-122241752D01*
X195709913Y-122158472D01*
X195882397Y-122033154D01*
X196033154Y-121882397D01*
X196158472Y-121709913D01*
X196255264Y-121519947D01*
X196321147Y-121317179D01*
X196354500Y-121106601D01*
X196354500Y-120893399D01*
X196321147Y-120682821D01*
X196321146Y-120682817D01*
X196321146Y-120682816D01*
X196255265Y-120480055D01*
X196255264Y-120480053D01*
X196252919Y-120475211D01*
X196251973Y-120473595D01*
X196158470Y-120290085D01*
X196033154Y-120117603D01*
X195882397Y-119966846D01*
X195709913Y-119841528D01*
X195526403Y-119748025D01*
X195524789Y-119747080D01*
X195519945Y-119744734D01*
X195317182Y-119678852D01*
X195176793Y-119656617D01*
X195106605Y-119645500D01*
X195106601Y-119645500D01*
X194893399Y-119645500D01*
X194893395Y-119645500D01*
X194823206Y-119656616D01*
X194823206Y-119656617D01*
X194692460Y-119677326D01*
X194692452Y-119677326D01*
X194692453Y-119677327D01*
X194682812Y-119678853D01*
X194480053Y-119744734D01*
X194475209Y-119747080D01*
X194473595Y-119748025D01*
X194290085Y-119841528D01*
X194117599Y-119966848D01*
X193966848Y-120117599D01*
X193841528Y-120290085D01*
X193748025Y-120473595D01*
X193747080Y-120475209D01*
X193744734Y-120480053D01*
X193678853Y-120682812D01*
X193677327Y-120692453D01*
X193645500Y-120893399D01*
X119184500Y-120893399D01*
X119151147Y-120682821D01*
X119151146Y-120682817D01*
X119151146Y-120682816D01*
X119085265Y-120480055D01*
X119085264Y-120480053D01*
X119082919Y-120475211D01*
X119081973Y-120473595D01*
X118988470Y-120290085D01*
X118863154Y-120117603D01*
X118712397Y-119966846D01*
X118539913Y-119841528D01*
X118356403Y-119748025D01*
X118354789Y-119747080D01*
X118349945Y-119744734D01*
X118147182Y-119678852D01*
X118006793Y-119656617D01*
X117936605Y-119645500D01*
X117936601Y-119645500D01*
X117723399Y-119645500D01*
X117723395Y-119645500D01*
X117653206Y-119656616D01*
X117653206Y-119656617D01*
X117522460Y-119677326D01*
X117522452Y-119677326D01*
X117522453Y-119677327D01*
X117512812Y-119678853D01*
X117310053Y-119744734D01*
X117305209Y-119747080D01*
X117303595Y-119748025D01*
X117120085Y-119841528D01*
X116947599Y-119966848D01*
X116796848Y-120117599D01*
X116671528Y-120290085D01*
X116578025Y-120473595D01*
X116577080Y-120475209D01*
X116574734Y-120480053D01*
X116508853Y-120682812D01*
X116507327Y-120692453D01*
X116475500Y-120893399D01*
X115892083Y-120893399D01*
X115891697Y-118094507D01*
X169870300Y-118094507D01*
X169870300Y-118307091D01*
X169903552Y-118517039D01*
X169969245Y-118719218D01*
X170061286Y-118899856D01*
X170065751Y-118908620D01*
X170190690Y-119080586D01*
X170190692Y-119080588D01*
X170341016Y-119230912D01*
X170512969Y-119355842D01*
X170512977Y-119355847D01*
X170512979Y-119355848D01*
X170512981Y-119355849D01*
X170512982Y-119355850D01*
X170513000Y-119355860D01*
X170513242Y-119355982D01*
X170702388Y-119452357D01*
X170904557Y-119518046D01*
X171114513Y-119551300D01*
X171114514Y-119551300D01*
X171327086Y-119551300D01*
X171327087Y-119551300D01*
X171537043Y-119518046D01*
X171739212Y-119452357D01*
X171928616Y-119355851D01*
X171950589Y-119339886D01*
X172100586Y-119230909D01*
X172100586Y-119230908D01*
X172100644Y-119230866D01*
X172101405Y-119230090D01*
X172250904Y-119080592D01*
X172250906Y-119080588D01*
X172250909Y-119080586D01*
X172375848Y-118908620D01*
X172375847Y-118908620D01*
X172375851Y-118908616D01*
X172375853Y-118908611D01*
X172383866Y-118897582D01*
X172383871Y-118897578D01*
X172394029Y-118885331D01*
X172401447Y-118877478D01*
X172436366Y-118857094D01*
X172439194Y-118854914D01*
X172440258Y-118854822D01*
X172461785Y-118842257D01*
X172531591Y-118845247D01*
X172585303Y-118881412D01*
X172591507Y-118888571D01*
X172603529Y-118904993D01*
X172605749Y-118908617D01*
X172605751Y-118908620D01*
X172730690Y-119080586D01*
X172730692Y-119080588D01*
X172881016Y-119230912D01*
X173052969Y-119355842D01*
X173052977Y-119355847D01*
X173052979Y-119355848D01*
X173052981Y-119355849D01*
X173052982Y-119355850D01*
X173053000Y-119355860D01*
X173053242Y-119355982D01*
X173242388Y-119452357D01*
X173444557Y-119518046D01*
X173654513Y-119551300D01*
X173654514Y-119551300D01*
X173867086Y-119551300D01*
X173867087Y-119551300D01*
X174077043Y-119518046D01*
X174279212Y-119452357D01*
X174468616Y-119355851D01*
X174490589Y-119339886D01*
X174640586Y-119230909D01*
X174640586Y-119230908D01*
X174640644Y-119230866D01*
X174641405Y-119230090D01*
X174790904Y-119080592D01*
X174790906Y-119080588D01*
X174790909Y-119080586D01*
X174915848Y-118908620D01*
X174915847Y-118908620D01*
X174915851Y-118908616D01*
X174915853Y-118908610D01*
X174936245Y-118880544D01*
X174944530Y-118852329D01*
X175012357Y-118719212D01*
X175078046Y-118517043D01*
X175111300Y-118307087D01*
X175111300Y-118094513D01*
X175078046Y-117884557D01*
X175012357Y-117682388D01*
X174915851Y-117492984D01*
X174915849Y-117492981D01*
X174915848Y-117492979D01*
X174915502Y-117492503D01*
X174915500Y-117492499D01*
X174790912Y-117321016D01*
X174640588Y-117170692D01*
X174640586Y-117170690D01*
X174468620Y-117045751D01*
X174454967Y-117038794D01*
X174301045Y-116960367D01*
X174301040Y-116960365D01*
X174279214Y-116949244D01*
X174279213Y-116949243D01*
X174279212Y-116949243D01*
X174167739Y-116913023D01*
X174085874Y-116886423D01*
X174081352Y-116884570D01*
X174072162Y-116882400D01*
X174067399Y-116882026D01*
X173915757Y-116858008D01*
X173896289Y-116854924D01*
X173867090Y-116850300D01*
X173867087Y-116850300D01*
X173654513Y-116850300D01*
X173654509Y-116850300D01*
X173615576Y-116856466D01*
X173605842Y-116858008D01*
X173568454Y-116863929D01*
X173444563Y-116883552D01*
X173242382Y-116949245D01*
X173052982Y-117045749D01*
X172881010Y-117170692D01*
X172730692Y-117321010D01*
X172730690Y-117321013D01*
X172605752Y-117492979D01*
X172605745Y-117492988D01*
X172605434Y-117493496D01*
X172604299Y-117494977D01*
X172602885Y-117496925D01*
X172602836Y-117496889D01*
X172589860Y-117513841D01*
X172580153Y-117524119D01*
X172519811Y-117559342D01*
X172450005Y-117556350D01*
X172396288Y-117520178D01*
X172390085Y-117513019D01*
X172378074Y-117496611D01*
X172375853Y-117492987D01*
X172375851Y-117492984D01*
X172375850Y-117492982D01*
X172250909Y-117321013D01*
X172100586Y-117170690D01*
X171928620Y-117045751D01*
X171914967Y-117038794D01*
X171761045Y-116960367D01*
X171761040Y-116960365D01*
X171739214Y-116949244D01*
X171739213Y-116949243D01*
X171739212Y-116949243D01*
X171627739Y-116913023D01*
X171545874Y-116886423D01*
X171541352Y-116884570D01*
X171532162Y-116882400D01*
X171527399Y-116882026D01*
X171375757Y-116858008D01*
X171356289Y-116854924D01*
X171327090Y-116850300D01*
X171327087Y-116850300D01*
X171114513Y-116850300D01*
X171114509Y-116850300D01*
X171075576Y-116856466D01*
X171065842Y-116858008D01*
X171028454Y-116863929D01*
X170904563Y-116883552D01*
X170702382Y-116949245D01*
X170512982Y-117045749D01*
X170341010Y-117170692D01*
X170190692Y-117321010D01*
X170065749Y-117492982D01*
X169969245Y-117682380D01*
X169903552Y-117884559D01*
X169870300Y-118094507D01*
X115891697Y-118094507D01*
X115890851Y-111950533D01*
X120943900Y-111950533D01*
X120943900Y-112166265D01*
X120976902Y-112374635D01*
X120977644Y-112379318D01*
X120977645Y-112379322D01*
X120977646Y-112379326D01*
X121044308Y-112584489D01*
X121142243Y-112776699D01*
X121269041Y-112951221D01*
X121421579Y-113103759D01*
X121596101Y-113230557D01*
X121686914Y-113276828D01*
X121788306Y-113328490D01*
X121788308Y-113328490D01*
X121788311Y-113328492D01*
X121993474Y-113395154D01*
X122012703Y-113398199D01*
X122073212Y-113407783D01*
X122073311Y-113407798D01*
X122073373Y-113407808D01*
X122206534Y-113428900D01*
X122206539Y-113428900D01*
X122872265Y-113428900D01*
X122872266Y-113428900D01*
X122990630Y-113410152D01*
X123085326Y-113395154D01*
X123290489Y-113328492D01*
X123482699Y-113230557D01*
X123657221Y-113103759D01*
X123809759Y-112951221D01*
X123936557Y-112776699D01*
X124034492Y-112584489D01*
X124101154Y-112379326D01*
X124101155Y-112379322D01*
X124101156Y-112379318D01*
X124116152Y-112284632D01*
X124116152Y-112284630D01*
X124134900Y-112166264D01*
X124134900Y-111950534D01*
X124101896Y-111742160D01*
X124101896Y-111742159D01*
X124101154Y-111737474D01*
X124034492Y-111532311D01*
X123936557Y-111340101D01*
X123809759Y-111165579D01*
X123657221Y-111013041D01*
X123482699Y-110886243D01*
X123466044Y-110877757D01*
X123290493Y-110788309D01*
X123098852Y-110726040D01*
X123098841Y-110726037D01*
X123085326Y-110721646D01*
X123085324Y-110721645D01*
X123085322Y-110721645D01*
X123070925Y-110719364D01*
X123070918Y-110719363D01*
X122910079Y-110693889D01*
X122872266Y-110687900D01*
X122872265Y-110687900D01*
X122206535Y-110687900D01*
X122206534Y-110687900D01*
X122168721Y-110693889D01*
X121993480Y-110721644D01*
X121788305Y-110788310D01*
X121596099Y-110886243D01*
X121496529Y-110958586D01*
X121433450Y-111004416D01*
X121426069Y-111008549D01*
X121264549Y-111170069D01*
X121260416Y-111177450D01*
X121214586Y-111240529D01*
X121142243Y-111340099D01*
X121044310Y-111532305D01*
X120977644Y-111737480D01*
X120943900Y-111950533D01*
X115890851Y-111950533D01*
X115887990Y-91189181D01*
X115887807Y-89864151D01*
X115886837Y-82829957D01*
X115881902Y-47035763D01*
X117222900Y-47035763D01*
X117222900Y-106165840D01*
X117225797Y-106219888D01*
X117225797Y-106219889D01*
X117228629Y-106246222D01*
X117228632Y-106246249D01*
X117237285Y-106299645D01*
X117237285Y-106299647D01*
X117285599Y-106429178D01*
X117287568Y-106434457D01*
X117321053Y-106495780D01*
X117407277Y-106610961D01*
X117407281Y-106610965D01*
X117407286Y-106610971D01*
X118406317Y-107610001D01*
X119214239Y-108417923D01*
X119214255Y-108417937D01*
X119214262Y-108417944D01*
X119254480Y-108454071D01*
X119254492Y-108454081D01*
X119254500Y-108454088D01*
X119269778Y-108466400D01*
X119275143Y-108470723D01*
X119297084Y-108486544D01*
X119319026Y-108502367D01*
X119449903Y-108562138D01*
X119516942Y-108581823D01*
X119516946Y-108581824D01*
X119659362Y-108602300D01*
X119659365Y-108602300D01*
X123366638Y-108602300D01*
X123366640Y-108602300D01*
X123376786Y-108601755D01*
X123420678Y-108599403D01*
X123420686Y-108599402D01*
X123420688Y-108599402D01*
X123420689Y-108599402D01*
X123427682Y-108598649D01*
X123447036Y-108596569D01*
X123447046Y-108596567D01*
X123447049Y-108596567D01*
X123456648Y-108595011D01*
X123500448Y-108587914D01*
X123635257Y-108537632D01*
X123696580Y-108504147D01*
X123811761Y-108417923D01*
X124145523Y-108084161D01*
X124181688Y-108043900D01*
X124198322Y-108023258D01*
X124229967Y-107979374D01*
X124289738Y-107848497D01*
X124309423Y-107781458D01*
X124309424Y-107781454D01*
X124329900Y-107639038D01*
X124329900Y-106217762D01*
X124327003Y-106163722D01*
X124324169Y-106137364D01*
X124315514Y-106083952D01*
X124265232Y-105949143D01*
X124231747Y-105887820D01*
X124145523Y-105772639D01*
X124145518Y-105772634D01*
X124145513Y-105772628D01*
X123811776Y-105438892D01*
X123811761Y-105438877D01*
X123811737Y-105438855D01*
X123771519Y-105402728D01*
X123771507Y-105402718D01*
X123750856Y-105386076D01*
X123706974Y-105354433D01*
X123576100Y-105294663D01*
X123509055Y-105274976D01*
X123461582Y-105268150D01*
X123366638Y-105254500D01*
X123366636Y-105254500D01*
X123170746Y-105254500D01*
X123103707Y-105234815D01*
X123083065Y-105218181D01*
X121419819Y-103554935D01*
X121386334Y-103493612D01*
X121383500Y-103467254D01*
X121383500Y-99418357D01*
X121403185Y-99351318D01*
X121455989Y-99305563D01*
X121525147Y-99295619D01*
X121580387Y-99318040D01*
X121596099Y-99329456D01*
X121788306Y-99427390D01*
X121788308Y-99427390D01*
X121788311Y-99427392D01*
X121993474Y-99494054D01*
X122012703Y-99497099D01*
X122073212Y-99506683D01*
X122073311Y-99506698D01*
X122073373Y-99506708D01*
X122206534Y-99527800D01*
X122206539Y-99527800D01*
X122872265Y-99527800D01*
X122872266Y-99527800D01*
X122990630Y-99509052D01*
X123085326Y-99494054D01*
X123290489Y-99427392D01*
X123482699Y-99329457D01*
X123657221Y-99202659D01*
X123809759Y-99050121D01*
X123936557Y-98875599D01*
X124034492Y-98683389D01*
X124101154Y-98478226D01*
X124116152Y-98383530D01*
X124134900Y-98265166D01*
X124134900Y-98049433D01*
X124120355Y-97957603D01*
X124102681Y-97846016D01*
X124102680Y-97846010D01*
X124102680Y-97846011D01*
X124101154Y-97836377D01*
X124101154Y-97836374D01*
X124034492Y-97631211D01*
X124034490Y-97631208D01*
X124034490Y-97631206D01*
X123980995Y-97526216D01*
X123936557Y-97439001D01*
X123809759Y-97264479D01*
X123657221Y-97111941D01*
X123500526Y-96998095D01*
X123475220Y-96973502D01*
X123474860Y-96973035D01*
X123466744Y-96962510D01*
X123441394Y-96897403D01*
X123455265Y-96828931D01*
X123458532Y-96822739D01*
X123495309Y-96780294D01*
X123657221Y-96662659D01*
X123809759Y-96510121D01*
X123936557Y-96335599D01*
X124034492Y-96143389D01*
X124101154Y-95938226D01*
X124116152Y-95843530D01*
X124134900Y-95725166D01*
X124134900Y-95509433D01*
X124120355Y-95417603D01*
X124102681Y-95306016D01*
X124102680Y-95306010D01*
X124102680Y-95306011D01*
X124101154Y-95296377D01*
X124101154Y-95296374D01*
X124034492Y-95091211D01*
X124034490Y-95091208D01*
X124034490Y-95091206D01*
X123980995Y-94986216D01*
X123936557Y-94899001D01*
X123809759Y-94724479D01*
X123657221Y-94571941D01*
X123482699Y-94445143D01*
X123290493Y-94347209D01*
X123098852Y-94284940D01*
X123098841Y-94284937D01*
X123085326Y-94280546D01*
X123085324Y-94280545D01*
X123085322Y-94280545D01*
X123070925Y-94278264D01*
X123070918Y-94278263D01*
X122913001Y-94253251D01*
X122872266Y-94246800D01*
X122872265Y-94246800D01*
X122206535Y-94246800D01*
X122206534Y-94246800D01*
X122157145Y-94254622D01*
X121993480Y-94280544D01*
X121788305Y-94347210D01*
X121596094Y-94445146D01*
X121580382Y-94456561D01*
X121514575Y-94480039D01*
X121446522Y-94464212D01*
X121397829Y-94414104D01*
X121383500Y-94356241D01*
X121383500Y-92742745D01*
X121403185Y-92675706D01*
X121419819Y-92655064D01*
X121895464Y-92179419D01*
X121956787Y-92145934D01*
X121983145Y-92143100D01*
X123265040Y-92143100D01*
X123275186Y-92142555D01*
X123319078Y-92140203D01*
X123319086Y-92140202D01*
X123319088Y-92140202D01*
X123319089Y-92140202D01*
X123326082Y-92139449D01*
X123345436Y-92137369D01*
X123345446Y-92137367D01*
X123345449Y-92137367D01*
X123355048Y-92135811D01*
X123398848Y-92128714D01*
X123533657Y-92078432D01*
X123594980Y-92044947D01*
X123710161Y-91958723D01*
X124094723Y-91574161D01*
X124130888Y-91533900D01*
X124147522Y-91513258D01*
X124179167Y-91469374D01*
X124238938Y-91338497D01*
X124258623Y-91271458D01*
X124258624Y-91271454D01*
X124279100Y-91129038D01*
X124279100Y-89758562D01*
X124276203Y-89704522D01*
X124273369Y-89678164D01*
X124264714Y-89624752D01*
X124214432Y-89489943D01*
X124180947Y-89428620D01*
X124094723Y-89313439D01*
X124094718Y-89313434D01*
X124094713Y-89313428D01*
X123811776Y-89030492D01*
X123811761Y-89030477D01*
X123811737Y-89030455D01*
X123771519Y-88994328D01*
X123771507Y-88994318D01*
X123750856Y-88977676D01*
X123706974Y-88946033D01*
X123576100Y-88886263D01*
X123509055Y-88866576D01*
X123461582Y-88859750D01*
X123366638Y-88846100D01*
X123366636Y-88846100D01*
X122002346Y-88846100D01*
X121935307Y-88826415D01*
X121914665Y-88809781D01*
X121419819Y-88314935D01*
X121386334Y-88253612D01*
X121383500Y-88227254D01*
X121383500Y-82977257D01*
X121403185Y-82910218D01*
X121455989Y-82864463D01*
X121525147Y-82854519D01*
X121580386Y-82876939D01*
X121582736Y-82878646D01*
X121596099Y-82888356D01*
X121788306Y-82986290D01*
X121788308Y-82986290D01*
X121788311Y-82986292D01*
X121993474Y-83052954D01*
X122012703Y-83055999D01*
X122073212Y-83065583D01*
X122073311Y-83065598D01*
X122073373Y-83065608D01*
X122206534Y-83086700D01*
X122206539Y-83086700D01*
X122872265Y-83086700D01*
X122872266Y-83086700D01*
X122990630Y-83067952D01*
X123085326Y-83052954D01*
X123290489Y-82986292D01*
X123482699Y-82888357D01*
X123657221Y-82761559D01*
X123809759Y-82609021D01*
X123936557Y-82434499D01*
X124034492Y-82242289D01*
X124101154Y-82037126D01*
X124102658Y-82027634D01*
X124133495Y-81832934D01*
X124133497Y-81832934D01*
X124133497Y-81832921D01*
X124134900Y-81824066D01*
X124134900Y-81608333D01*
X124115625Y-81486639D01*
X124113323Y-81472107D01*
X128644800Y-81472107D01*
X128644800Y-81684690D01*
X128666875Y-81824065D01*
X128678053Y-81894641D01*
X128724347Y-82037121D01*
X128743741Y-82096806D01*
X128743743Y-82096812D01*
X128825945Y-82258144D01*
X128840251Y-82286220D01*
X128965190Y-82458186D01*
X129115513Y-82608509D01*
X129287482Y-82733450D01*
X129287490Y-82733454D01*
X129287993Y-82733763D01*
X129289474Y-82734896D01*
X129291422Y-82736312D01*
X129291386Y-82736360D01*
X129308334Y-82749334D01*
X129318615Y-82759043D01*
X129353841Y-82819383D01*
X129350852Y-82889189D01*
X129314683Y-82942907D01*
X129307527Y-82949108D01*
X129291114Y-82961123D01*
X129287490Y-82963343D01*
X129115510Y-83088292D01*
X128965192Y-83238610D01*
X128965190Y-83238613D01*
X128857530Y-83386797D01*
X128840249Y-83410582D01*
X128743745Y-83599980D01*
X128678052Y-83802159D01*
X128644800Y-84012107D01*
X128644800Y-84224691D01*
X128678052Y-84434639D01*
X128743745Y-84636818D01*
X128836832Y-84819511D01*
X128840251Y-84826220D01*
X128965190Y-84998186D01*
X129115513Y-85148509D01*
X129287482Y-85273450D01*
X129287490Y-85273454D01*
X129287993Y-85273763D01*
X129289474Y-85274896D01*
X129291422Y-85276312D01*
X129291386Y-85276360D01*
X129308334Y-85289334D01*
X129318615Y-85299043D01*
X129353841Y-85359383D01*
X129350852Y-85429189D01*
X129314683Y-85482907D01*
X129307527Y-85489108D01*
X129291114Y-85501123D01*
X129287490Y-85503343D01*
X129115510Y-85628292D01*
X128965192Y-85778610D01*
X128965190Y-85778613D01*
X128857530Y-85926797D01*
X128840249Y-85950582D01*
X128743745Y-86139980D01*
X128678052Y-86342159D01*
X128644800Y-86552107D01*
X128644800Y-86764691D01*
X128678052Y-86974639D01*
X128743745Y-87176818D01*
X128836832Y-87359511D01*
X128840251Y-87366220D01*
X128965190Y-87538186D01*
X129115513Y-87688509D01*
X129287482Y-87813450D01*
X129287490Y-87813454D01*
X129287993Y-87813763D01*
X129289474Y-87814896D01*
X129291422Y-87816312D01*
X129291386Y-87816360D01*
X129308334Y-87829334D01*
X129318615Y-87839043D01*
X129353841Y-87899383D01*
X129350852Y-87969189D01*
X129314683Y-88022907D01*
X129307527Y-88029108D01*
X129291114Y-88041123D01*
X129287490Y-88043343D01*
X129115510Y-88168292D01*
X128965192Y-88318610D01*
X128965190Y-88318613D01*
X128857530Y-88466797D01*
X128840249Y-88490582D01*
X128743745Y-88679980D01*
X128678053Y-88882159D01*
X128654566Y-89030455D01*
X128652096Y-89046048D01*
X128644800Y-89092113D01*
X128644800Y-89304687D01*
X128646186Y-89313439D01*
X128678054Y-89514644D01*
X128705127Y-89597965D01*
X128743745Y-89716818D01*
X128836832Y-89899511D01*
X128840251Y-89906220D01*
X128965190Y-90078186D01*
X129115513Y-90228509D01*
X129287482Y-90353450D01*
X129287490Y-90353454D01*
X129287993Y-90353763D01*
X129289474Y-90354896D01*
X129291422Y-90356312D01*
X129291386Y-90356360D01*
X129308334Y-90369334D01*
X129318615Y-90379043D01*
X129353841Y-90439383D01*
X129350852Y-90509189D01*
X129314683Y-90562907D01*
X129307527Y-90569108D01*
X129291114Y-90581123D01*
X129287490Y-90583343D01*
X129115510Y-90708292D01*
X128965192Y-90858610D01*
X128965190Y-90858613D01*
X128857530Y-91006797D01*
X128840249Y-91030582D01*
X128743745Y-91219980D01*
X128678052Y-91422159D01*
X128644800Y-91632107D01*
X128644800Y-91844691D01*
X128678052Y-92054639D01*
X128743745Y-92256818D01*
X128836832Y-92439511D01*
X128840251Y-92446220D01*
X128965190Y-92618186D01*
X129115513Y-92768509D01*
X129287482Y-92893450D01*
X129287490Y-92893454D01*
X129287993Y-92893763D01*
X129289474Y-92894896D01*
X129291422Y-92896312D01*
X129291386Y-92896360D01*
X129308334Y-92909334D01*
X129318615Y-92919043D01*
X129353841Y-92979383D01*
X129350852Y-93049189D01*
X129314683Y-93102907D01*
X129307527Y-93109108D01*
X129291114Y-93121123D01*
X129287490Y-93123343D01*
X129115510Y-93248292D01*
X128965192Y-93398610D01*
X128965190Y-93398613D01*
X128857530Y-93546797D01*
X128840249Y-93570582D01*
X128743745Y-93759980D01*
X128678052Y-93962159D01*
X128644800Y-94172107D01*
X128644800Y-94384691D01*
X128674458Y-94571943D01*
X128678052Y-94594634D01*
X128678055Y-94594646D01*
X128720239Y-94724478D01*
X128743741Y-94796807D01*
X128743743Y-94796812D01*
X128743744Y-94796814D01*
X128840251Y-94986220D01*
X128965190Y-95158186D01*
X129115513Y-95308509D01*
X129287482Y-95433450D01*
X129287490Y-95433454D01*
X129287993Y-95433763D01*
X129289474Y-95434896D01*
X129291422Y-95436312D01*
X129291386Y-95436360D01*
X129308334Y-95449334D01*
X129318615Y-95459043D01*
X129353841Y-95519383D01*
X129350852Y-95589189D01*
X129314683Y-95642907D01*
X129307527Y-95649108D01*
X129291114Y-95661123D01*
X129287490Y-95663343D01*
X129115510Y-95788292D01*
X128965192Y-95938610D01*
X128965190Y-95938613D01*
X128857530Y-96086797D01*
X128840249Y-96110582D01*
X128743745Y-96299980D01*
X128678052Y-96502159D01*
X128644800Y-96712107D01*
X128644800Y-96924691D01*
X128674458Y-97111943D01*
X128678052Y-97134634D01*
X128678055Y-97134646D01*
X128720239Y-97264478D01*
X128743741Y-97336807D01*
X128743743Y-97336812D01*
X128743744Y-97336814D01*
X128840251Y-97526220D01*
X128965190Y-97698186D01*
X129115513Y-97848509D01*
X129287482Y-97973450D01*
X129287490Y-97973454D01*
X129287993Y-97973763D01*
X129289474Y-97974896D01*
X129291422Y-97976312D01*
X129291386Y-97976360D01*
X129308334Y-97989334D01*
X129318615Y-97999043D01*
X129353841Y-98059383D01*
X129350852Y-98129189D01*
X129314683Y-98182907D01*
X129307527Y-98189108D01*
X129291114Y-98201123D01*
X129287490Y-98203343D01*
X129115510Y-98328292D01*
X128965192Y-98478610D01*
X128965190Y-98478613D01*
X128857530Y-98626797D01*
X128840249Y-98650582D01*
X128743745Y-98839980D01*
X128678052Y-99042159D01*
X128644800Y-99252107D01*
X128644800Y-99464691D01*
X128678052Y-99674639D01*
X128743745Y-99876818D01*
X128836832Y-100059511D01*
X128840251Y-100066220D01*
X128965190Y-100238186D01*
X129115513Y-100388509D01*
X129287482Y-100513450D01*
X129287490Y-100513454D01*
X129287993Y-100513763D01*
X129289474Y-100514896D01*
X129291422Y-100516312D01*
X129291386Y-100516360D01*
X129308334Y-100529334D01*
X129318615Y-100539043D01*
X129353841Y-100599383D01*
X129350852Y-100669189D01*
X129314683Y-100722907D01*
X129307527Y-100729108D01*
X129291114Y-100741123D01*
X129287490Y-100743343D01*
X129115510Y-100868292D01*
X128965192Y-101018610D01*
X128965190Y-101018613D01*
X128857530Y-101166797D01*
X128840249Y-101190582D01*
X128743745Y-101379980D01*
X128678052Y-101582159D01*
X128644800Y-101792107D01*
X128644800Y-102004691D01*
X128678052Y-102214639D01*
X128743745Y-102416818D01*
X128836832Y-102599511D01*
X128840251Y-102606220D01*
X128965190Y-102778186D01*
X129115513Y-102928509D01*
X129287482Y-103053450D01*
X129287490Y-103053454D01*
X129287993Y-103053763D01*
X129289474Y-103054896D01*
X129291422Y-103056312D01*
X129291386Y-103056360D01*
X129308334Y-103069334D01*
X129318615Y-103079043D01*
X129353841Y-103139383D01*
X129350852Y-103209189D01*
X129314683Y-103262907D01*
X129307527Y-103269108D01*
X129291114Y-103281123D01*
X129287490Y-103283343D01*
X129115510Y-103408292D01*
X128965192Y-103558610D01*
X128965190Y-103558613D01*
X128857530Y-103706797D01*
X128840249Y-103730582D01*
X128743745Y-103919980D01*
X128678052Y-104122159D01*
X128644800Y-104332107D01*
X128644800Y-104544691D01*
X128678052Y-104754639D01*
X128743745Y-104956818D01*
X128836832Y-105139511D01*
X128840251Y-105146220D01*
X128965190Y-105318186D01*
X129115513Y-105468509D01*
X129287482Y-105593450D01*
X129287490Y-105593454D01*
X129287993Y-105593763D01*
X129289474Y-105594896D01*
X129291422Y-105596312D01*
X129291386Y-105596360D01*
X129308334Y-105609334D01*
X129318615Y-105619043D01*
X129353841Y-105679383D01*
X129350852Y-105749189D01*
X129314683Y-105802907D01*
X129307527Y-105809108D01*
X129291114Y-105821123D01*
X129287490Y-105823343D01*
X129115510Y-105948292D01*
X128965192Y-106098610D01*
X128965190Y-106098613D01*
X128857530Y-106246797D01*
X128840249Y-106270582D01*
X128743717Y-106460037D01*
X128743245Y-106460980D01*
X128742163Y-106464846D01*
X128714284Y-106550651D01*
X128714284Y-106550652D01*
X128678052Y-106662159D01*
X128644800Y-106872107D01*
X128644800Y-107084691D01*
X128678052Y-107294639D01*
X128743745Y-107496818D01*
X128836832Y-107679511D01*
X128840251Y-107686220D01*
X128965190Y-107858186D01*
X129115513Y-108008509D01*
X129287482Y-108133450D01*
X129287490Y-108133454D01*
X129287993Y-108133763D01*
X129289474Y-108134896D01*
X129291422Y-108136312D01*
X129291386Y-108136360D01*
X129308334Y-108149334D01*
X129318615Y-108159043D01*
X129353841Y-108219383D01*
X129350852Y-108289189D01*
X129314683Y-108342907D01*
X129307527Y-108349108D01*
X129291114Y-108361123D01*
X129287490Y-108363343D01*
X129115510Y-108488292D01*
X128965192Y-108638610D01*
X128965190Y-108638613D01*
X128857530Y-108786797D01*
X128840249Y-108810582D01*
X128743745Y-108999980D01*
X128678053Y-109202159D01*
X128652096Y-109366048D01*
X128644800Y-109412113D01*
X128644800Y-109624686D01*
X128678054Y-109834644D01*
X128678054Y-109834647D01*
X128715112Y-109948698D01*
X128715113Y-109948698D01*
X128715113Y-109948699D01*
X128743743Y-110036812D01*
X128743746Y-110036819D01*
X128804127Y-110155322D01*
X128840251Y-110226220D01*
X128965190Y-110398186D01*
X129115513Y-110548509D01*
X129287482Y-110673450D01*
X129287490Y-110673454D01*
X129287993Y-110673763D01*
X129289474Y-110674896D01*
X129291422Y-110676312D01*
X129291386Y-110676360D01*
X129308334Y-110689334D01*
X129318615Y-110699043D01*
X129353841Y-110759383D01*
X129350852Y-110829189D01*
X129314683Y-110882907D01*
X129307527Y-110889108D01*
X129291114Y-110901123D01*
X129287490Y-110903343D01*
X129115510Y-111028292D01*
X128965192Y-111178610D01*
X128965190Y-111178613D01*
X128857530Y-111326797D01*
X128840249Y-111350582D01*
X128743745Y-111539980D01*
X128678056Y-111742151D01*
X128678053Y-111742160D01*
X128652096Y-111906048D01*
X128644800Y-111952113D01*
X128644800Y-112164687D01*
X128678054Y-112374639D01*
X128678054Y-112374642D01*
X128678055Y-112374647D01*
X128679572Y-112379318D01*
X128679573Y-112379318D01*
X128679574Y-112379322D01*
X128711659Y-112478068D01*
X128743745Y-112576818D01*
X128811567Y-112709924D01*
X128840251Y-112766220D01*
X128965190Y-112938186D01*
X128965192Y-112938188D01*
X129115516Y-113088512D01*
X129287469Y-113213442D01*
X129287500Y-113213460D01*
X129287742Y-113213582D01*
X129476888Y-113309957D01*
X129679057Y-113375646D01*
X129889013Y-113408900D01*
X129889014Y-113408900D01*
X130101586Y-113408900D01*
X130101587Y-113408900D01*
X130311543Y-113375646D01*
X130513712Y-113309957D01*
X130703116Y-113213451D01*
X130830800Y-113120684D01*
X130875086Y-113088509D01*
X130875086Y-113088507D01*
X130875145Y-113088465D01*
X130875905Y-113087690D01*
X131025404Y-112938192D01*
X131025406Y-112938188D01*
X131025409Y-112938186D01*
X131085400Y-112855615D01*
X131145599Y-112772758D01*
X131148057Y-112769372D01*
X131150348Y-112766220D01*
X131150347Y-112766220D01*
X131150351Y-112766216D01*
X131246857Y-112576812D01*
X131312546Y-112374643D01*
X131345800Y-112164687D01*
X131345800Y-111952113D01*
X131312546Y-111742157D01*
X131246857Y-111539988D01*
X131150351Y-111350584D01*
X131150349Y-111350581D01*
X131150348Y-111350579D01*
X131150002Y-111350103D01*
X131150000Y-111350099D01*
X131025412Y-111178616D01*
X130875082Y-111028286D01*
X130703124Y-110903353D01*
X130702558Y-110903006D01*
X130700927Y-110901757D01*
X130699201Y-110900503D01*
X130699232Y-110900459D01*
X130682260Y-110887462D01*
X130671983Y-110877757D01*
X130636757Y-110817417D01*
X130639745Y-110747612D01*
X130675913Y-110693893D01*
X130683083Y-110687681D01*
X130699487Y-110675675D01*
X130703116Y-110673451D01*
X130706579Y-110670935D01*
X130725089Y-110657486D01*
X130875086Y-110548509D01*
X130875087Y-110548506D01*
X130875090Y-110548505D01*
X130875092Y-110548504D01*
X130875093Y-110548502D01*
X130875147Y-110548463D01*
X130875905Y-110547690D01*
X131025404Y-110398192D01*
X131025406Y-110398188D01*
X131025409Y-110398186D01*
X131150348Y-110226220D01*
X131150347Y-110226220D01*
X131150351Y-110226216D01*
X131150353Y-110226210D01*
X131170745Y-110198144D01*
X131179030Y-110169929D01*
X131246857Y-110036812D01*
X131312546Y-109834643D01*
X131345800Y-109624687D01*
X131345800Y-109412113D01*
X131312546Y-109202157D01*
X131246857Y-108999988D01*
X131150351Y-108810584D01*
X131150349Y-108810581D01*
X131150348Y-108810579D01*
X131150002Y-108810103D01*
X131150000Y-108810099D01*
X131025412Y-108638616D01*
X130875082Y-108488286D01*
X130703124Y-108363353D01*
X130702558Y-108363006D01*
X130700927Y-108361757D01*
X130699201Y-108360503D01*
X130699232Y-108360459D01*
X130682260Y-108347462D01*
X130671983Y-108337757D01*
X130636757Y-108277417D01*
X130639745Y-108207612D01*
X130675913Y-108153893D01*
X130683083Y-108147681D01*
X130699487Y-108135675D01*
X130703116Y-108133451D01*
X130706579Y-108130935D01*
X130725089Y-108117486D01*
X130875086Y-108008509D01*
X130875087Y-108008506D01*
X130875090Y-108008505D01*
X130875092Y-108008504D01*
X130875093Y-108008502D01*
X130875147Y-108008463D01*
X130875905Y-108007690D01*
X131025404Y-107858192D01*
X131025406Y-107858188D01*
X131025409Y-107858186D01*
X131150348Y-107686220D01*
X131150347Y-107686220D01*
X131150351Y-107686216D01*
X131150353Y-107686210D01*
X131170745Y-107658144D01*
X131179030Y-107629929D01*
X131246857Y-107496812D01*
X131312546Y-107294643D01*
X131345800Y-107084687D01*
X131345800Y-106872113D01*
X131312546Y-106662157D01*
X131246857Y-106459988D01*
X131150351Y-106270584D01*
X131150349Y-106270581D01*
X131150348Y-106270579D01*
X131150002Y-106270103D01*
X131150000Y-106270099D01*
X131025412Y-106098616D01*
X130875082Y-105948286D01*
X130703124Y-105823353D01*
X130702558Y-105823006D01*
X130700927Y-105821757D01*
X130699201Y-105820503D01*
X130699232Y-105820459D01*
X130682260Y-105807462D01*
X130671983Y-105797757D01*
X130636757Y-105737417D01*
X130639745Y-105667612D01*
X130675913Y-105613893D01*
X130683083Y-105607681D01*
X130699487Y-105595675D01*
X130703116Y-105593451D01*
X130706579Y-105590935D01*
X130725089Y-105577486D01*
X130875086Y-105468509D01*
X130875087Y-105468506D01*
X130875090Y-105468505D01*
X130875092Y-105468504D01*
X130875093Y-105468502D01*
X130875147Y-105468463D01*
X130875905Y-105467690D01*
X131025404Y-105318192D01*
X131025406Y-105318188D01*
X131025409Y-105318186D01*
X131150348Y-105146220D01*
X131150347Y-105146220D01*
X131150351Y-105146216D01*
X131150353Y-105146210D01*
X131170745Y-105118144D01*
X131179030Y-105089929D01*
X131246857Y-104956812D01*
X131312546Y-104754643D01*
X131345800Y-104544687D01*
X131345800Y-104332113D01*
X131312546Y-104122157D01*
X131246857Y-103919988D01*
X131150351Y-103730584D01*
X131150349Y-103730581D01*
X131150348Y-103730579D01*
X131150002Y-103730103D01*
X131150000Y-103730099D01*
X131025412Y-103558616D01*
X130875082Y-103408286D01*
X130703124Y-103283353D01*
X130702558Y-103283006D01*
X130700927Y-103281757D01*
X130699201Y-103280503D01*
X130699232Y-103280459D01*
X130682260Y-103267462D01*
X130671983Y-103257757D01*
X130636757Y-103197417D01*
X130639745Y-103127612D01*
X130675913Y-103073893D01*
X130683083Y-103067681D01*
X130699487Y-103055675D01*
X130703116Y-103053451D01*
X130706579Y-103050935D01*
X130725089Y-103037486D01*
X130875086Y-102928509D01*
X130875087Y-102928506D01*
X130875090Y-102928505D01*
X130875092Y-102928504D01*
X130875093Y-102928502D01*
X130875147Y-102928463D01*
X130875905Y-102927690D01*
X131025404Y-102778192D01*
X131025406Y-102778188D01*
X131025409Y-102778186D01*
X131150348Y-102606220D01*
X131150347Y-102606220D01*
X131150351Y-102606216D01*
X131150353Y-102606210D01*
X131170745Y-102578144D01*
X131179030Y-102549929D01*
X131246857Y-102416812D01*
X131312546Y-102214643D01*
X131345800Y-102004687D01*
X131345800Y-101792113D01*
X131312546Y-101582157D01*
X131246857Y-101379988D01*
X131150351Y-101190584D01*
X131150349Y-101190581D01*
X131150348Y-101190579D01*
X131150002Y-101190103D01*
X131150000Y-101190099D01*
X131025412Y-101018616D01*
X130875082Y-100868286D01*
X130703124Y-100743353D01*
X130702558Y-100743006D01*
X130700927Y-100741757D01*
X130699201Y-100740503D01*
X130699232Y-100740459D01*
X130682260Y-100727462D01*
X130671983Y-100717757D01*
X130636757Y-100657417D01*
X130639745Y-100587612D01*
X130675913Y-100533893D01*
X130683083Y-100527681D01*
X130699487Y-100515675D01*
X130703116Y-100513451D01*
X130706579Y-100510935D01*
X130725089Y-100497486D01*
X130875086Y-100388509D01*
X130875087Y-100388506D01*
X130875090Y-100388505D01*
X130875092Y-100388504D01*
X130875093Y-100388502D01*
X130875147Y-100388463D01*
X130875905Y-100387690D01*
X131025404Y-100238192D01*
X131025406Y-100238188D01*
X131025409Y-100238186D01*
X131150348Y-100066220D01*
X131150347Y-100066220D01*
X131150351Y-100066216D01*
X131150353Y-100066210D01*
X131170745Y-100038144D01*
X131179030Y-100009929D01*
X131246857Y-99876812D01*
X131312546Y-99674643D01*
X131345800Y-99464687D01*
X131345800Y-99252113D01*
X131312546Y-99042157D01*
X131246857Y-98839988D01*
X131150351Y-98650584D01*
X131150349Y-98650581D01*
X131150348Y-98650579D01*
X131150002Y-98650103D01*
X131150000Y-98650099D01*
X131025412Y-98478616D01*
X130875082Y-98328286D01*
X130703124Y-98203353D01*
X130702558Y-98203006D01*
X130700927Y-98201757D01*
X130699201Y-98200503D01*
X130699232Y-98200459D01*
X130682260Y-98187462D01*
X130671983Y-98177757D01*
X130636757Y-98117417D01*
X130639745Y-98047612D01*
X130675913Y-97993893D01*
X130683083Y-97987681D01*
X130699487Y-97975675D01*
X130703116Y-97973451D01*
X130706579Y-97970935D01*
X130725089Y-97957486D01*
X130875086Y-97848509D01*
X130875087Y-97848506D01*
X130875090Y-97848505D01*
X130875092Y-97848504D01*
X130875093Y-97848502D01*
X130875147Y-97848463D01*
X130875905Y-97847690D01*
X131025404Y-97698192D01*
X131025406Y-97698188D01*
X131025409Y-97698186D01*
X131150348Y-97526220D01*
X131150347Y-97526220D01*
X131150351Y-97526216D01*
X131150353Y-97526210D01*
X131170745Y-97498144D01*
X131179030Y-97469929D01*
X131246857Y-97336812D01*
X131312546Y-97134643D01*
X131345800Y-96924687D01*
X131345800Y-96712113D01*
X131312546Y-96502157D01*
X131246857Y-96299988D01*
X131150351Y-96110584D01*
X131150349Y-96110581D01*
X131150348Y-96110579D01*
X131150002Y-96110103D01*
X131150000Y-96110099D01*
X131025412Y-95938616D01*
X130875082Y-95788286D01*
X130703124Y-95663353D01*
X130702558Y-95663006D01*
X130700927Y-95661757D01*
X130699201Y-95660503D01*
X130699232Y-95660459D01*
X130682260Y-95647462D01*
X130671983Y-95637757D01*
X130636757Y-95577417D01*
X130639745Y-95507612D01*
X130675913Y-95453893D01*
X130683083Y-95447681D01*
X130699487Y-95435675D01*
X130703116Y-95433451D01*
X130706579Y-95430935D01*
X130725089Y-95417486D01*
X130875086Y-95308509D01*
X130875087Y-95308506D01*
X130875090Y-95308505D01*
X130875092Y-95308504D01*
X130875093Y-95308502D01*
X130875147Y-95308463D01*
X130875905Y-95307690D01*
X131025404Y-95158192D01*
X131025406Y-95158188D01*
X131025409Y-95158186D01*
X131150348Y-94986220D01*
X131150347Y-94986220D01*
X131150351Y-94986216D01*
X131150353Y-94986210D01*
X131170745Y-94958144D01*
X131179030Y-94929929D01*
X131246857Y-94796812D01*
X131312546Y-94594643D01*
X131345800Y-94384687D01*
X131345800Y-94172113D01*
X131312546Y-93962157D01*
X131246857Y-93759988D01*
X131150351Y-93570584D01*
X131150349Y-93570581D01*
X131150348Y-93570579D01*
X131150002Y-93570103D01*
X131150000Y-93570099D01*
X131025412Y-93398616D01*
X130875082Y-93248286D01*
X130703124Y-93123353D01*
X130702558Y-93123006D01*
X130700927Y-93121757D01*
X130699201Y-93120503D01*
X130699232Y-93120459D01*
X130682260Y-93107462D01*
X130671983Y-93097757D01*
X130636757Y-93037417D01*
X130639745Y-92967612D01*
X130675913Y-92913893D01*
X130683083Y-92907681D01*
X130699487Y-92895675D01*
X130703116Y-92893451D01*
X130706579Y-92890935D01*
X130725089Y-92877486D01*
X130875086Y-92768509D01*
X130875087Y-92768506D01*
X130875090Y-92768505D01*
X130875092Y-92768504D01*
X130875093Y-92768502D01*
X130875147Y-92768463D01*
X130875905Y-92767690D01*
X131025404Y-92618192D01*
X131025406Y-92618188D01*
X131025409Y-92618186D01*
X131150348Y-92446220D01*
X131150347Y-92446220D01*
X131150351Y-92446216D01*
X131150353Y-92446210D01*
X131170745Y-92418144D01*
X131179030Y-92389929D01*
X131246857Y-92256812D01*
X131312546Y-92054643D01*
X131345800Y-91844687D01*
X131345800Y-91632113D01*
X131312546Y-91422157D01*
X131246857Y-91219988D01*
X131150351Y-91030584D01*
X131150349Y-91030581D01*
X131150348Y-91030579D01*
X131150002Y-91030103D01*
X131150000Y-91030099D01*
X131025412Y-90858616D01*
X130875082Y-90708286D01*
X130703124Y-90583353D01*
X130702558Y-90583006D01*
X130700927Y-90581757D01*
X130699201Y-90580503D01*
X130699232Y-90580459D01*
X130682260Y-90567462D01*
X130671983Y-90557757D01*
X130636757Y-90497417D01*
X130639745Y-90427612D01*
X130675913Y-90373893D01*
X130683083Y-90367681D01*
X130699487Y-90355675D01*
X130703116Y-90353451D01*
X130706579Y-90350935D01*
X130725089Y-90337486D01*
X130875086Y-90228509D01*
X130875087Y-90228506D01*
X130875090Y-90228505D01*
X130875092Y-90228504D01*
X130875093Y-90228502D01*
X130875147Y-90228463D01*
X130875905Y-90227690D01*
X131025404Y-90078192D01*
X131025406Y-90078188D01*
X131025409Y-90078186D01*
X131150348Y-89906220D01*
X131150347Y-89906220D01*
X131150351Y-89906216D01*
X131150353Y-89906210D01*
X131170745Y-89878144D01*
X131179030Y-89849929D01*
X131246857Y-89716812D01*
X131312546Y-89514643D01*
X131345800Y-89304687D01*
X131345800Y-89092113D01*
X131312546Y-88882157D01*
X131246857Y-88679988D01*
X131150351Y-88490584D01*
X131150349Y-88490581D01*
X131150348Y-88490579D01*
X131150002Y-88490103D01*
X131150000Y-88490099D01*
X131025412Y-88318616D01*
X130875082Y-88168286D01*
X130703124Y-88043353D01*
X130702558Y-88043006D01*
X130700927Y-88041757D01*
X130699201Y-88040503D01*
X130699232Y-88040459D01*
X130682260Y-88027462D01*
X130671983Y-88017757D01*
X130636757Y-87957417D01*
X130639745Y-87887612D01*
X130675913Y-87833893D01*
X130683083Y-87827681D01*
X130699487Y-87815675D01*
X130703116Y-87813451D01*
X130706579Y-87810935D01*
X130725089Y-87797486D01*
X130875086Y-87688509D01*
X130875087Y-87688506D01*
X130875090Y-87688505D01*
X130875092Y-87688504D01*
X130875093Y-87688502D01*
X130875147Y-87688463D01*
X130875905Y-87687690D01*
X131025404Y-87538192D01*
X131025406Y-87538188D01*
X131025409Y-87538186D01*
X131150348Y-87366220D01*
X131150347Y-87366220D01*
X131150351Y-87366216D01*
X131150353Y-87366210D01*
X131170745Y-87338144D01*
X131179030Y-87309929D01*
X131246857Y-87176812D01*
X131312546Y-86974643D01*
X131345800Y-86764687D01*
X131345800Y-86552113D01*
X131312546Y-86342157D01*
X131246857Y-86139988D01*
X131150351Y-85950584D01*
X131150349Y-85950581D01*
X131150348Y-85950579D01*
X131150002Y-85950103D01*
X131150000Y-85950099D01*
X131025412Y-85778616D01*
X130875082Y-85628286D01*
X130703124Y-85503353D01*
X130702558Y-85503006D01*
X130700927Y-85501757D01*
X130699201Y-85500503D01*
X130699232Y-85500459D01*
X130682260Y-85487462D01*
X130671983Y-85477757D01*
X130636757Y-85417417D01*
X130639745Y-85347612D01*
X130675913Y-85293893D01*
X130683083Y-85287681D01*
X130699487Y-85275675D01*
X130703116Y-85273451D01*
X130706579Y-85270935D01*
X130725089Y-85257486D01*
X130875086Y-85148509D01*
X130875087Y-85148506D01*
X130875090Y-85148505D01*
X130875092Y-85148504D01*
X130875093Y-85148502D01*
X130875147Y-85148463D01*
X130875905Y-85147690D01*
X131025404Y-84998192D01*
X131025406Y-84998188D01*
X131025409Y-84998186D01*
X131150348Y-84826220D01*
X131150347Y-84826220D01*
X131150351Y-84826216D01*
X131150353Y-84826210D01*
X131170745Y-84798144D01*
X131179030Y-84769929D01*
X131246857Y-84636812D01*
X131312546Y-84434643D01*
X131345800Y-84224687D01*
X131345800Y-84012113D01*
X131312546Y-83802157D01*
X131246857Y-83599988D01*
X131150351Y-83410584D01*
X131150349Y-83410581D01*
X131150348Y-83410579D01*
X131150002Y-83410103D01*
X131150000Y-83410099D01*
X131025412Y-83238616D01*
X130875082Y-83088286D01*
X130703124Y-82963353D01*
X130702558Y-82963006D01*
X130700927Y-82961757D01*
X130699201Y-82960503D01*
X130699232Y-82960459D01*
X130682260Y-82947462D01*
X130671983Y-82937757D01*
X130636757Y-82877417D01*
X130639745Y-82807612D01*
X130675913Y-82753893D01*
X130683083Y-82747681D01*
X130699487Y-82735675D01*
X130703116Y-82733451D01*
X130703117Y-82733450D01*
X130725089Y-82717486D01*
X130875086Y-82608509D01*
X130875087Y-82608506D01*
X130875090Y-82608505D01*
X130875092Y-82608504D01*
X130875093Y-82608502D01*
X130875147Y-82608463D01*
X130875905Y-82607690D01*
X131025404Y-82458192D01*
X131025406Y-82458188D01*
X131025409Y-82458186D01*
X131150348Y-82286220D01*
X131150347Y-82286220D01*
X131150351Y-82286216D01*
X131150353Y-82286210D01*
X131170745Y-82258144D01*
X131179030Y-82229929D01*
X131246857Y-82096812D01*
X131312546Y-81894643D01*
X131345800Y-81684687D01*
X131345800Y-81472113D01*
X131338503Y-81426042D01*
X133570500Y-81426042D01*
X133570500Y-81630756D01*
X133602521Y-81832930D01*
X133665780Y-82027621D01*
X133665786Y-82027634D01*
X133758708Y-82210001D01*
X133758709Y-82210002D01*
X133758715Y-82210013D01*
X133879028Y-82375613D01*
X134023786Y-82520371D01*
X134178749Y-82632956D01*
X134189390Y-82640687D01*
X134267878Y-82680678D01*
X134269506Y-82681571D01*
X134271463Y-82683534D01*
X134295045Y-82700160D01*
X134304459Y-82709052D01*
X134315146Y-82727363D01*
X134318829Y-82731058D01*
X134319724Y-82735206D01*
X134339679Y-82769396D01*
X134336683Y-82839201D01*
X134300521Y-82892905D01*
X134293519Y-82898973D01*
X134268606Y-82915750D01*
X134189387Y-82956114D01*
X134189385Y-82956115D01*
X134023787Y-83076427D01*
X134023784Y-83076429D01*
X133879029Y-83221184D01*
X133879027Y-83221187D01*
X133758715Y-83386785D01*
X133758708Y-83386797D01*
X133665786Y-83569164D01*
X133665780Y-83569177D01*
X133602521Y-83763868D01*
X133570500Y-83966042D01*
X133570500Y-84170756D01*
X133602521Y-84372930D01*
X133665780Y-84567621D01*
X133665786Y-84567634D01*
X133758708Y-84750001D01*
X133758709Y-84750002D01*
X133758715Y-84750013D01*
X133879028Y-84915613D01*
X134023786Y-85060371D01*
X134145100Y-85148509D01*
X134189390Y-85180687D01*
X134269680Y-85221596D01*
X134273050Y-85223591D01*
X134275948Y-85226696D01*
X134295045Y-85240160D01*
X134304459Y-85249052D01*
X134317231Y-85270935D01*
X134320719Y-85274673D01*
X134321309Y-85277921D01*
X134339679Y-85309396D01*
X134336683Y-85379201D01*
X134300521Y-85432905D01*
X134293519Y-85438973D01*
X134268606Y-85455750D01*
X134189387Y-85496114D01*
X134189385Y-85496115D01*
X134023787Y-85616427D01*
X134023784Y-85616429D01*
X133879029Y-85761184D01*
X133879027Y-85761187D01*
X133758715Y-85926785D01*
X133758708Y-85926797D01*
X133665786Y-86109164D01*
X133665780Y-86109177D01*
X133602521Y-86303868D01*
X133570500Y-86506042D01*
X133570500Y-86710756D01*
X133602521Y-86912930D01*
X133665780Y-87107621D01*
X133665786Y-87107634D01*
X133758708Y-87290001D01*
X133758709Y-87290002D01*
X133758715Y-87290013D01*
X133879028Y-87455613D01*
X134023786Y-87600371D01*
X134145100Y-87688509D01*
X134189390Y-87720687D01*
X134269680Y-87761596D01*
X134273050Y-87763591D01*
X134275948Y-87766696D01*
X134295045Y-87780160D01*
X134304459Y-87789052D01*
X134317231Y-87810935D01*
X134320719Y-87814673D01*
X134321309Y-87817921D01*
X134339679Y-87849396D01*
X134336683Y-87919201D01*
X134300521Y-87972905D01*
X134293519Y-87978973D01*
X134268606Y-87995750D01*
X134189387Y-88036114D01*
X134189385Y-88036115D01*
X134023787Y-88156427D01*
X134023784Y-88156429D01*
X133879029Y-88301184D01*
X133879027Y-88301187D01*
X133758715Y-88466785D01*
X133758708Y-88466797D01*
X133665786Y-88649164D01*
X133665780Y-88649177D01*
X133602521Y-88843868D01*
X133570500Y-89046042D01*
X133570500Y-89250756D01*
X133598671Y-89428620D01*
X133602522Y-89452934D01*
X133622571Y-89514639D01*
X133665780Y-89647621D01*
X133665786Y-89647634D01*
X133758708Y-89830001D01*
X133758709Y-89830002D01*
X133758715Y-89830013D01*
X133879028Y-89995613D01*
X134023786Y-90140371D01*
X134145100Y-90228509D01*
X134189390Y-90260687D01*
X134269680Y-90301596D01*
X134273050Y-90303591D01*
X134275948Y-90306696D01*
X134295045Y-90320160D01*
X134304459Y-90329052D01*
X134317231Y-90350935D01*
X134320719Y-90354673D01*
X134321309Y-90357921D01*
X134339679Y-90389396D01*
X134336683Y-90459201D01*
X134300521Y-90512905D01*
X134293519Y-90518973D01*
X134268606Y-90535750D01*
X134189387Y-90576114D01*
X134189385Y-90576115D01*
X134023787Y-90696427D01*
X134023784Y-90696429D01*
X133879029Y-90841184D01*
X133879027Y-90841187D01*
X133758715Y-91006785D01*
X133758708Y-91006797D01*
X133665786Y-91189164D01*
X133665780Y-91189177D01*
X133602521Y-91383868D01*
X133570500Y-91586042D01*
X133570500Y-91790756D01*
X133602521Y-91992930D01*
X133665780Y-92187621D01*
X133665786Y-92187634D01*
X133758708Y-92370001D01*
X133758709Y-92370002D01*
X133758715Y-92370013D01*
X133879028Y-92535613D01*
X134023786Y-92680371D01*
X134145100Y-92768509D01*
X134189390Y-92800687D01*
X134269680Y-92841596D01*
X134273050Y-92843591D01*
X134275948Y-92846696D01*
X134295045Y-92860160D01*
X134304459Y-92869052D01*
X134317231Y-92890935D01*
X134320719Y-92894673D01*
X134321309Y-92897921D01*
X134339679Y-92929396D01*
X134336683Y-92999201D01*
X134300521Y-93052905D01*
X134293519Y-93058973D01*
X134268606Y-93075750D01*
X134189387Y-93116114D01*
X134189385Y-93116115D01*
X134023787Y-93236427D01*
X134023784Y-93236429D01*
X133879029Y-93381184D01*
X133879027Y-93381187D01*
X133758715Y-93546785D01*
X133758708Y-93546797D01*
X133665786Y-93729164D01*
X133665780Y-93729177D01*
X133602521Y-93923868D01*
X133570500Y-94126042D01*
X133570500Y-94330756D01*
X133602521Y-94532930D01*
X133665780Y-94727621D01*
X133665786Y-94727634D01*
X133758708Y-94910001D01*
X133758709Y-94910002D01*
X133758715Y-94910013D01*
X133879028Y-95075613D01*
X134023786Y-95220371D01*
X134145100Y-95308509D01*
X134189390Y-95340687D01*
X134269680Y-95381596D01*
X134273050Y-95383591D01*
X134275948Y-95386696D01*
X134295045Y-95400160D01*
X134304459Y-95409052D01*
X134317231Y-95430935D01*
X134320719Y-95434673D01*
X134321309Y-95437921D01*
X134339679Y-95469396D01*
X134336683Y-95539201D01*
X134300521Y-95592905D01*
X134293519Y-95598973D01*
X134268606Y-95615750D01*
X134189387Y-95656114D01*
X134189385Y-95656115D01*
X134023787Y-95776427D01*
X134023784Y-95776429D01*
X133879029Y-95921184D01*
X133879027Y-95921187D01*
X133758715Y-96086785D01*
X133758708Y-96086797D01*
X133665786Y-96269164D01*
X133665780Y-96269177D01*
X133602521Y-96463868D01*
X133570500Y-96666042D01*
X133570500Y-96870756D01*
X133602521Y-97072930D01*
X133665780Y-97267621D01*
X133665786Y-97267634D01*
X133758708Y-97450001D01*
X133758709Y-97450002D01*
X133758715Y-97450013D01*
X133879028Y-97615613D01*
X134023786Y-97760371D01*
X134145100Y-97848509D01*
X134189390Y-97880687D01*
X134269680Y-97921596D01*
X134273050Y-97923591D01*
X134275948Y-97926696D01*
X134295045Y-97940160D01*
X134304459Y-97949052D01*
X134317231Y-97970935D01*
X134320719Y-97974673D01*
X134321309Y-97977921D01*
X134339679Y-98009396D01*
X134336683Y-98079201D01*
X134300521Y-98132905D01*
X134293519Y-98138973D01*
X134268606Y-98155750D01*
X134189387Y-98196114D01*
X134189385Y-98196115D01*
X134023787Y-98316427D01*
X134023784Y-98316429D01*
X133879029Y-98461184D01*
X133879027Y-98461187D01*
X133758715Y-98626785D01*
X133758708Y-98626797D01*
X133665786Y-98809164D01*
X133665780Y-98809177D01*
X133602521Y-99003868D01*
X133570500Y-99206042D01*
X133570500Y-99410756D01*
X133602521Y-99612930D01*
X133665780Y-99807621D01*
X133665786Y-99807634D01*
X133758708Y-99990001D01*
X133758709Y-99990002D01*
X133758715Y-99990013D01*
X133879028Y-100155613D01*
X134023786Y-100300371D01*
X134145100Y-100388509D01*
X134189390Y-100420687D01*
X134269680Y-100461596D01*
X134273050Y-100463591D01*
X134275948Y-100466696D01*
X134295045Y-100480160D01*
X134304459Y-100489052D01*
X134317231Y-100510935D01*
X134320719Y-100514673D01*
X134321309Y-100517921D01*
X134339679Y-100549396D01*
X134336683Y-100619201D01*
X134300521Y-100672905D01*
X134293519Y-100678973D01*
X134268606Y-100695750D01*
X134189387Y-100736114D01*
X134189385Y-100736115D01*
X134023787Y-100856427D01*
X134023784Y-100856429D01*
X133879029Y-101001184D01*
X133879027Y-101001187D01*
X133758715Y-101166785D01*
X133758708Y-101166797D01*
X133665786Y-101349164D01*
X133665780Y-101349177D01*
X133602521Y-101543868D01*
X133570500Y-101746042D01*
X133570500Y-101950756D01*
X133602521Y-102152930D01*
X133665780Y-102347621D01*
X133665786Y-102347634D01*
X133758708Y-102530001D01*
X133758709Y-102530002D01*
X133758715Y-102530013D01*
X133879028Y-102695613D01*
X134023786Y-102840371D01*
X134145100Y-102928509D01*
X134189390Y-102960687D01*
X134269680Y-103001596D01*
X134273050Y-103003591D01*
X134275948Y-103006696D01*
X134295045Y-103020160D01*
X134304459Y-103029052D01*
X134317231Y-103050935D01*
X134320719Y-103054673D01*
X134321309Y-103057921D01*
X134339679Y-103089396D01*
X134336683Y-103159201D01*
X134300521Y-103212905D01*
X134293519Y-103218973D01*
X134268606Y-103235750D01*
X134189387Y-103276114D01*
X134189385Y-103276115D01*
X134023787Y-103396427D01*
X134023784Y-103396429D01*
X133879029Y-103541184D01*
X133879027Y-103541187D01*
X133758715Y-103706785D01*
X133758708Y-103706797D01*
X133665786Y-103889164D01*
X133665780Y-103889177D01*
X133602521Y-104083868D01*
X133570500Y-104286042D01*
X133570500Y-104490756D01*
X133602521Y-104692930D01*
X133665780Y-104887621D01*
X133665786Y-104887634D01*
X133758708Y-105070001D01*
X133758709Y-105070002D01*
X133758715Y-105070013D01*
X133879028Y-105235613D01*
X134023786Y-105380371D01*
X134145100Y-105468509D01*
X134189390Y-105500687D01*
X134269680Y-105541596D01*
X134273050Y-105543591D01*
X134275948Y-105546696D01*
X134295045Y-105560160D01*
X134304459Y-105569052D01*
X134317231Y-105590935D01*
X134320719Y-105594673D01*
X134321309Y-105597921D01*
X134339679Y-105629396D01*
X134336683Y-105699201D01*
X134300521Y-105752905D01*
X134293519Y-105758973D01*
X134268606Y-105775750D01*
X134189387Y-105816114D01*
X134189385Y-105816115D01*
X134023787Y-105936427D01*
X134023784Y-105936429D01*
X133879029Y-106081184D01*
X133879027Y-106081187D01*
X133758715Y-106246785D01*
X133758708Y-106246797D01*
X133665786Y-106429164D01*
X133665780Y-106429177D01*
X133602521Y-106623868D01*
X133570500Y-106826042D01*
X133570500Y-107030756D01*
X133602521Y-107232930D01*
X133665780Y-107427621D01*
X133665786Y-107427634D01*
X133758708Y-107610001D01*
X133758709Y-107610002D01*
X133758715Y-107610013D01*
X133879028Y-107775613D01*
X134023786Y-107920371D01*
X134145100Y-108008509D01*
X134189390Y-108040687D01*
X134269680Y-108081596D01*
X134273050Y-108083591D01*
X134275948Y-108086696D01*
X134295045Y-108100160D01*
X134304459Y-108109052D01*
X134317231Y-108130935D01*
X134320719Y-108134673D01*
X134321309Y-108137921D01*
X134339679Y-108169396D01*
X134336683Y-108239201D01*
X134300521Y-108292905D01*
X134293519Y-108298973D01*
X134268606Y-108315750D01*
X134189387Y-108356114D01*
X134189385Y-108356115D01*
X134023787Y-108476427D01*
X134023784Y-108476429D01*
X133879029Y-108621184D01*
X133879027Y-108621187D01*
X133758715Y-108786785D01*
X133758708Y-108786797D01*
X133665786Y-108969164D01*
X133665780Y-108969177D01*
X133602521Y-109163868D01*
X133570500Y-109366042D01*
X133570500Y-109570756D01*
X133602521Y-109772930D01*
X133665780Y-109967621D01*
X133665786Y-109967634D01*
X133758708Y-110150001D01*
X133758709Y-110150002D01*
X133758715Y-110150013D01*
X133879028Y-110315613D01*
X134023786Y-110460371D01*
X134145100Y-110548509D01*
X134189390Y-110580687D01*
X134269680Y-110621596D01*
X134273050Y-110623591D01*
X134275948Y-110626696D01*
X134295045Y-110640160D01*
X134304459Y-110649052D01*
X134317231Y-110670935D01*
X134320719Y-110674673D01*
X134321309Y-110677921D01*
X134339679Y-110709396D01*
X134336683Y-110779201D01*
X134300521Y-110832905D01*
X134293519Y-110838973D01*
X134268606Y-110855750D01*
X134189387Y-110896114D01*
X134189385Y-110896115D01*
X134023787Y-111016427D01*
X134023784Y-111016429D01*
X133879029Y-111161184D01*
X133879027Y-111161187D01*
X133758715Y-111326785D01*
X133758708Y-111326797D01*
X133665786Y-111509164D01*
X133665780Y-111509177D01*
X133602521Y-111703868D01*
X133570500Y-111906042D01*
X133570500Y-112110756D01*
X133602521Y-112312930D01*
X133665780Y-112507621D01*
X133665786Y-112507634D01*
X133758708Y-112690001D01*
X133758713Y-112690010D01*
X133758715Y-112690013D01*
X133879028Y-112855613D01*
X134023786Y-113000371D01*
X134145100Y-113088509D01*
X134189390Y-113120687D01*
X134305607Y-113179903D01*
X134365327Y-113210332D01*
X134365326Y-113210332D01*
X134372649Y-113214063D01*
X134376401Y-113215121D01*
X134423905Y-113230556D01*
X134566465Y-113276877D01*
X134631313Y-113287148D01*
X134768648Y-113308900D01*
X134768649Y-113308900D01*
X134973351Y-113308900D01*
X134973352Y-113308900D01*
X135175534Y-113276877D01*
X135370219Y-113213620D01*
X135552610Y-113120687D01*
X135645590Y-113053132D01*
X135718213Y-113000371D01*
X135718213Y-113000369D01*
X135718272Y-113000327D01*
X135719031Y-112999553D01*
X135862966Y-112855619D01*
X135862968Y-112855615D01*
X135862971Y-112855613D01*
X135920304Y-112776699D01*
X135983287Y-112690010D01*
X136076220Y-112507619D01*
X136139477Y-112312934D01*
X136171500Y-112110752D01*
X136171500Y-111906048D01*
X136139477Y-111703866D01*
X136139476Y-111703862D01*
X136139476Y-111703861D01*
X136078833Y-111517223D01*
X136076220Y-111509181D01*
X136076218Y-111509178D01*
X136076218Y-111509176D01*
X136073977Y-111504778D01*
X136073667Y-111503983D01*
X136072932Y-111502727D01*
X136042503Y-111443007D01*
X135996472Y-111352667D01*
X135983287Y-111326790D01*
X135975556Y-111316149D01*
X135862971Y-111161186D01*
X135718213Y-111016428D01*
X135552614Y-110896115D01*
X135533239Y-110886243D01*
X135481435Y-110859847D01*
X135475801Y-110856976D01*
X135446956Y-110836642D01*
X135437544Y-110827753D01*
X135402321Y-110767412D01*
X135405313Y-110697606D01*
X135441474Y-110643898D01*
X135448479Y-110637827D01*
X135473386Y-110621052D01*
X135552610Y-110580687D01*
X135585279Y-110556951D01*
X135596902Y-110548508D01*
X135635962Y-110520129D01*
X135718213Y-110460371D01*
X135718215Y-110460368D01*
X135718219Y-110460366D01*
X135718222Y-110460362D01*
X135718274Y-110460325D01*
X135719019Y-110459565D01*
X135862966Y-110315619D01*
X135862968Y-110315615D01*
X135862971Y-110315613D01*
X135915730Y-110242993D01*
X135915732Y-110242991D01*
X135940627Y-110208725D01*
X135983287Y-110150010D01*
X136076220Y-109967619D01*
X136139477Y-109772934D01*
X136171500Y-109570752D01*
X136171500Y-109366048D01*
X136139477Y-109163866D01*
X136139476Y-109163862D01*
X136139476Y-109163861D01*
X136078833Y-108977223D01*
X136076220Y-108969181D01*
X136076218Y-108969178D01*
X136076218Y-108969176D01*
X136073977Y-108964778D01*
X136073667Y-108963983D01*
X136072932Y-108962727D01*
X136042503Y-108903007D01*
X135996472Y-108812667D01*
X135983287Y-108786790D01*
X135975556Y-108776149D01*
X135862971Y-108621186D01*
X135718213Y-108476428D01*
X135552614Y-108356115D01*
X135517842Y-108338398D01*
X135475799Y-108316975D01*
X135446956Y-108296642D01*
X135437544Y-108287753D01*
X135402321Y-108227412D01*
X135405313Y-108157606D01*
X135441474Y-108103898D01*
X135448479Y-108097827D01*
X135473386Y-108081052D01*
X135552610Y-108040687D01*
X135585279Y-108016951D01*
X135596902Y-108008508D01*
X135637001Y-107979374D01*
X135718213Y-107920371D01*
X135718215Y-107920368D01*
X135718219Y-107920366D01*
X135718222Y-107920362D01*
X135718274Y-107920325D01*
X135719019Y-107919565D01*
X135862966Y-107775619D01*
X135862968Y-107775615D01*
X135862971Y-107775613D01*
X135915730Y-107702993D01*
X135915732Y-107702991D01*
X135948315Y-107658144D01*
X135983287Y-107610010D01*
X136076220Y-107427619D01*
X136139477Y-107232934D01*
X136171500Y-107030752D01*
X136171500Y-106826048D01*
X136139477Y-106623866D01*
X136139476Y-106623862D01*
X136139476Y-106623861D01*
X136078833Y-106437223D01*
X136076220Y-106429181D01*
X136076218Y-106429178D01*
X136076218Y-106429176D01*
X136073977Y-106424778D01*
X136073667Y-106423983D01*
X136072932Y-106422727D01*
X136042503Y-106363007D01*
X135983287Y-106246790D01*
X135953361Y-106205600D01*
X135862971Y-106081186D01*
X135718213Y-105936428D01*
X135718212Y-105936427D01*
X135718209Y-105936424D01*
X135552616Y-105816116D01*
X135552337Y-105815974D01*
X135546006Y-105812748D01*
X135475799Y-105776975D01*
X135446956Y-105756642D01*
X135437538Y-105747747D01*
X135402320Y-105687405D01*
X135405315Y-105617600D01*
X135441474Y-105563898D01*
X135445787Y-105560160D01*
X135448481Y-105557825D01*
X135473386Y-105541052D01*
X135552610Y-105500687D01*
X135585279Y-105476951D01*
X135596902Y-105468508D01*
X135623679Y-105449052D01*
X135718213Y-105380371D01*
X135718215Y-105380368D01*
X135718219Y-105380366D01*
X135718222Y-105380362D01*
X135718274Y-105380325D01*
X135719019Y-105379565D01*
X135862966Y-105235619D01*
X135862968Y-105235615D01*
X135862971Y-105235613D01*
X135915730Y-105162993D01*
X135915732Y-105162991D01*
X135948315Y-105118144D01*
X135983287Y-105070010D01*
X136076220Y-104887619D01*
X136139477Y-104692934D01*
X136171500Y-104490752D01*
X136171500Y-104286048D01*
X136139477Y-104083866D01*
X136139476Y-104083862D01*
X136139476Y-104083861D01*
X136078833Y-103897223D01*
X136076220Y-103889181D01*
X136076218Y-103889178D01*
X136076218Y-103889176D01*
X136073977Y-103884778D01*
X136073667Y-103883983D01*
X136072932Y-103882727D01*
X136042503Y-103823007D01*
X135996472Y-103732667D01*
X135983287Y-103706790D01*
X135975556Y-103696149D01*
X135862971Y-103541186D01*
X135718213Y-103396428D01*
X135718212Y-103396427D01*
X135718209Y-103396424D01*
X135552616Y-103276116D01*
X135552337Y-103275974D01*
X135546006Y-103272748D01*
X135475799Y-103236975D01*
X135446956Y-103216642D01*
X135437538Y-103207747D01*
X135402320Y-103147405D01*
X135405315Y-103077600D01*
X135441474Y-103023898D01*
X135448479Y-103017827D01*
X135473386Y-103001052D01*
X135552610Y-102960687D01*
X135585279Y-102936951D01*
X135596902Y-102928508D01*
X135623679Y-102909052D01*
X135718213Y-102840371D01*
X135718215Y-102840368D01*
X135718219Y-102840366D01*
X135718222Y-102840362D01*
X135718274Y-102840325D01*
X135719019Y-102839565D01*
X135862966Y-102695619D01*
X135862968Y-102695615D01*
X135862971Y-102695613D01*
X135915730Y-102622993D01*
X135915732Y-102622991D01*
X135948315Y-102578144D01*
X135983287Y-102530010D01*
X136076220Y-102347619D01*
X136139477Y-102152934D01*
X136171500Y-101950752D01*
X136171500Y-101746048D01*
X136139477Y-101543866D01*
X136139476Y-101543862D01*
X136139476Y-101543861D01*
X136078833Y-101357223D01*
X136076220Y-101349181D01*
X136076218Y-101349178D01*
X136076218Y-101349176D01*
X136073977Y-101344778D01*
X136073667Y-101343983D01*
X136072932Y-101342727D01*
X136042503Y-101283007D01*
X135996472Y-101192667D01*
X135983287Y-101166790D01*
X135975556Y-101156149D01*
X135862971Y-101001186D01*
X135718213Y-100856428D01*
X135718212Y-100856427D01*
X135718209Y-100856424D01*
X135552616Y-100736116D01*
X135552337Y-100735974D01*
X135546006Y-100732748D01*
X135475799Y-100696975D01*
X135446956Y-100676642D01*
X135437538Y-100667747D01*
X135402320Y-100607405D01*
X135405315Y-100537600D01*
X135441474Y-100483898D01*
X135448479Y-100477827D01*
X135473386Y-100461052D01*
X135552610Y-100420687D01*
X135585279Y-100396951D01*
X135596902Y-100388508D01*
X135623679Y-100369052D01*
X135718213Y-100300371D01*
X135718215Y-100300368D01*
X135718219Y-100300366D01*
X135718222Y-100300362D01*
X135718274Y-100300325D01*
X135719019Y-100299565D01*
X135862966Y-100155619D01*
X135862968Y-100155615D01*
X135862971Y-100155613D01*
X135915730Y-100082993D01*
X135915732Y-100082991D01*
X135948315Y-100038144D01*
X135983287Y-99990010D01*
X136076220Y-99807619D01*
X136139477Y-99612934D01*
X136171500Y-99410752D01*
X136171500Y-99206048D01*
X136139477Y-99003866D01*
X136139476Y-99003862D01*
X136139476Y-99003861D01*
X136078833Y-98817223D01*
X136076220Y-98809181D01*
X136076218Y-98809178D01*
X136076218Y-98809176D01*
X136073977Y-98804778D01*
X136073667Y-98803983D01*
X136072932Y-98802727D01*
X136042503Y-98743007D01*
X135996472Y-98652667D01*
X135983287Y-98626790D01*
X135975556Y-98616149D01*
X135862971Y-98461186D01*
X135718213Y-98316428D01*
X135718212Y-98316427D01*
X135718209Y-98316424D01*
X135552616Y-98196116D01*
X135552337Y-98195974D01*
X135546006Y-98192748D01*
X135475799Y-98156975D01*
X135446956Y-98136642D01*
X135437538Y-98127747D01*
X135402320Y-98067405D01*
X135405315Y-97997600D01*
X135441474Y-97943898D01*
X135448479Y-97937827D01*
X135473386Y-97921052D01*
X135552610Y-97880687D01*
X135585279Y-97856951D01*
X135596902Y-97848508D01*
X135623679Y-97829052D01*
X135718213Y-97760371D01*
X135718215Y-97760368D01*
X135718219Y-97760366D01*
X135718222Y-97760362D01*
X135718274Y-97760325D01*
X135719019Y-97759565D01*
X135862966Y-97615619D01*
X135862968Y-97615615D01*
X135862971Y-97615613D01*
X135915730Y-97542993D01*
X135915732Y-97542991D01*
X135948315Y-97498144D01*
X135983287Y-97450010D01*
X136076220Y-97267619D01*
X136139477Y-97072934D01*
X136171500Y-96870752D01*
X136171500Y-96666048D01*
X136139477Y-96463866D01*
X136139476Y-96463862D01*
X136139476Y-96463861D01*
X136078833Y-96277223D01*
X136076220Y-96269181D01*
X136076218Y-96269178D01*
X136076218Y-96269176D01*
X136073977Y-96264778D01*
X136073667Y-96263983D01*
X136072932Y-96262727D01*
X136042503Y-96203007D01*
X135996472Y-96112667D01*
X135983287Y-96086790D01*
X135975556Y-96076149D01*
X135862971Y-95921186D01*
X135718213Y-95776428D01*
X135718212Y-95776427D01*
X135718209Y-95776424D01*
X135552616Y-95656116D01*
X135552337Y-95655974D01*
X135546006Y-95652748D01*
X135475799Y-95616975D01*
X135446956Y-95596642D01*
X135437538Y-95587747D01*
X135402320Y-95527405D01*
X135405315Y-95457600D01*
X135441474Y-95403898D01*
X135448479Y-95397827D01*
X135473386Y-95381052D01*
X135552610Y-95340687D01*
X135585279Y-95316951D01*
X135596902Y-95308508D01*
X135623679Y-95289052D01*
X135718213Y-95220371D01*
X135718215Y-95220368D01*
X135718219Y-95220366D01*
X135718222Y-95220362D01*
X135718274Y-95220325D01*
X135719019Y-95219565D01*
X135862966Y-95075619D01*
X135862968Y-95075615D01*
X135862971Y-95075613D01*
X135915730Y-95002993D01*
X135915732Y-95002991D01*
X135948315Y-94958144D01*
X135983287Y-94910010D01*
X136076220Y-94727619D01*
X136139477Y-94532934D01*
X136171500Y-94330752D01*
X136171500Y-94126048D01*
X136139477Y-93923866D01*
X136139476Y-93923862D01*
X136139476Y-93923861D01*
X136078833Y-93737223D01*
X136076220Y-93729181D01*
X136076218Y-93729178D01*
X136076218Y-93729176D01*
X136073977Y-93724778D01*
X136073667Y-93723983D01*
X136072932Y-93722727D01*
X136042503Y-93663007D01*
X135996472Y-93572667D01*
X135983287Y-93546790D01*
X135975556Y-93536149D01*
X135862971Y-93381186D01*
X135718213Y-93236428D01*
X135718212Y-93236427D01*
X135718209Y-93236424D01*
X135552616Y-93116116D01*
X135552337Y-93115974D01*
X135546006Y-93112748D01*
X135475799Y-93076975D01*
X135446956Y-93056642D01*
X135437538Y-93047747D01*
X135402320Y-92987405D01*
X135405315Y-92917600D01*
X135441474Y-92863898D01*
X135448479Y-92857827D01*
X135473386Y-92841052D01*
X135552610Y-92800687D01*
X135585279Y-92776951D01*
X135596902Y-92768508D01*
X135623679Y-92749052D01*
X135718213Y-92680371D01*
X135718215Y-92680368D01*
X135718219Y-92680366D01*
X135718222Y-92680362D01*
X135718274Y-92680325D01*
X135719019Y-92679565D01*
X135862966Y-92535619D01*
X135862968Y-92535615D01*
X135862971Y-92535613D01*
X135915730Y-92462993D01*
X135915732Y-92462991D01*
X135948315Y-92418144D01*
X135983287Y-92370010D01*
X136076220Y-92187619D01*
X136139477Y-91992934D01*
X136171500Y-91790752D01*
X136171500Y-91586048D01*
X136139477Y-91383866D01*
X136139476Y-91383862D01*
X136139476Y-91383861D01*
X136078833Y-91197223D01*
X136076220Y-91189181D01*
X136076218Y-91189178D01*
X136076218Y-91189176D01*
X136073977Y-91184778D01*
X136073667Y-91183983D01*
X136072932Y-91182727D01*
X136042503Y-91123007D01*
X135996472Y-91032667D01*
X135983287Y-91006790D01*
X135975556Y-90996149D01*
X135862971Y-90841186D01*
X135718213Y-90696428D01*
X135718212Y-90696427D01*
X135718209Y-90696424D01*
X135552616Y-90576116D01*
X135552337Y-90575974D01*
X135546006Y-90572748D01*
X135475799Y-90536975D01*
X135446956Y-90516642D01*
X135437538Y-90507747D01*
X135402320Y-90447405D01*
X135405315Y-90377600D01*
X135441474Y-90323898D01*
X135448479Y-90317827D01*
X135473386Y-90301052D01*
X135552610Y-90260687D01*
X135585279Y-90236951D01*
X135596902Y-90228508D01*
X135623679Y-90209052D01*
X135718213Y-90140371D01*
X135718215Y-90140368D01*
X135718219Y-90140366D01*
X135718222Y-90140362D01*
X135718274Y-90140325D01*
X135719019Y-90139565D01*
X135862966Y-89995619D01*
X135862968Y-89995615D01*
X135862971Y-89995613D01*
X135915730Y-89922993D01*
X135915732Y-89922991D01*
X135948315Y-89878144D01*
X135983287Y-89830010D01*
X136076220Y-89647619D01*
X136139477Y-89452934D01*
X136171500Y-89250752D01*
X136171500Y-89046048D01*
X136139477Y-88843866D01*
X136139476Y-88843862D01*
X136139476Y-88843861D01*
X136078833Y-88657223D01*
X136076220Y-88649181D01*
X136076218Y-88649178D01*
X136076218Y-88649176D01*
X136073977Y-88644778D01*
X136073667Y-88643983D01*
X136072932Y-88642727D01*
X136042503Y-88583007D01*
X135996472Y-88492667D01*
X135983287Y-88466790D01*
X135975556Y-88456149D01*
X135862971Y-88301186D01*
X135718213Y-88156428D01*
X135718212Y-88156427D01*
X135718209Y-88156424D01*
X135552616Y-88036116D01*
X135552337Y-88035974D01*
X135546006Y-88032748D01*
X135475799Y-87996975D01*
X135446956Y-87976642D01*
X135437538Y-87967747D01*
X135402320Y-87907405D01*
X135405315Y-87837600D01*
X135441474Y-87783898D01*
X135448479Y-87777827D01*
X135473386Y-87761052D01*
X135552610Y-87720687D01*
X135585279Y-87696951D01*
X135596902Y-87688508D01*
X135623679Y-87669052D01*
X135718213Y-87600371D01*
X135718215Y-87600368D01*
X135718219Y-87600366D01*
X135718222Y-87600362D01*
X135718274Y-87600325D01*
X135719019Y-87599565D01*
X135862966Y-87455619D01*
X135862968Y-87455615D01*
X135862971Y-87455613D01*
X135915730Y-87382993D01*
X135915732Y-87382991D01*
X135948315Y-87338144D01*
X135983287Y-87290010D01*
X136076220Y-87107619D01*
X136139477Y-86912934D01*
X136171500Y-86710752D01*
X136171500Y-86506048D01*
X136139477Y-86303866D01*
X136139476Y-86303862D01*
X136139476Y-86303861D01*
X136078833Y-86117223D01*
X136076220Y-86109181D01*
X136076218Y-86109178D01*
X136076218Y-86109176D01*
X136073977Y-86104778D01*
X136073667Y-86103983D01*
X136072932Y-86102727D01*
X136042503Y-86043007D01*
X135996472Y-85952667D01*
X135983287Y-85926790D01*
X135975556Y-85916149D01*
X135862971Y-85761186D01*
X135718213Y-85616428D01*
X135718212Y-85616427D01*
X135718209Y-85616424D01*
X135552616Y-85496116D01*
X135552337Y-85495974D01*
X135546006Y-85492748D01*
X135475799Y-85456975D01*
X135446956Y-85436642D01*
X135437538Y-85427747D01*
X135402320Y-85367405D01*
X135405315Y-85297600D01*
X135441474Y-85243898D01*
X135448479Y-85237827D01*
X135473386Y-85221052D01*
X135552610Y-85180687D01*
X135585279Y-85156951D01*
X135596902Y-85148508D01*
X135623679Y-85129052D01*
X135718213Y-85060371D01*
X135718215Y-85060368D01*
X135718219Y-85060366D01*
X135718222Y-85060362D01*
X135718274Y-85060325D01*
X135719019Y-85059565D01*
X135862966Y-84915619D01*
X135862968Y-84915615D01*
X135862971Y-84915613D01*
X135915730Y-84842993D01*
X135915732Y-84842991D01*
X135948315Y-84798144D01*
X135983287Y-84750010D01*
X136076220Y-84567619D01*
X136139477Y-84372934D01*
X136171500Y-84170752D01*
X136171500Y-83966048D01*
X136139477Y-83763866D01*
X136139476Y-83763862D01*
X136139476Y-83763861D01*
X136078833Y-83577223D01*
X136076220Y-83569181D01*
X136076218Y-83569178D01*
X136076218Y-83569176D01*
X136073977Y-83564778D01*
X136073667Y-83563983D01*
X136072932Y-83562727D01*
X136042503Y-83503007D01*
X135996472Y-83412667D01*
X135983287Y-83386790D01*
X135975556Y-83376149D01*
X135862971Y-83221186D01*
X135718213Y-83076428D01*
X135718212Y-83076427D01*
X135718209Y-83076424D01*
X135552616Y-82956116D01*
X135552337Y-82955974D01*
X135546006Y-82952748D01*
X135475799Y-82916975D01*
X135446956Y-82896642D01*
X135437538Y-82887747D01*
X135402320Y-82827405D01*
X135405315Y-82757600D01*
X135441474Y-82703898D01*
X135448479Y-82697827D01*
X135473386Y-82681052D01*
X135552610Y-82640687D01*
X135596192Y-82609023D01*
X135718213Y-82520371D01*
X135718213Y-82520369D01*
X135718274Y-82520326D01*
X135719036Y-82519548D01*
X135862966Y-82375619D01*
X135862968Y-82375615D01*
X135862971Y-82375613D01*
X135915730Y-82302993D01*
X135915732Y-82302991D01*
X135948315Y-82258144D01*
X135983287Y-82210010D01*
X136076220Y-82027619D01*
X136139477Y-81832934D01*
X136171500Y-81630752D01*
X136171500Y-81426048D01*
X136171499Y-81426042D01*
X158820500Y-81426042D01*
X158820500Y-81630756D01*
X158852521Y-81832930D01*
X158915780Y-82027621D01*
X158915786Y-82027634D01*
X159008708Y-82210001D01*
X159008709Y-82210002D01*
X159008715Y-82210013D01*
X159129028Y-82375613D01*
X159273786Y-82520371D01*
X159428749Y-82632956D01*
X159439390Y-82640687D01*
X159517878Y-82680678D01*
X159519506Y-82681571D01*
X159521463Y-82683534D01*
X159545045Y-82700160D01*
X159554459Y-82709052D01*
X159565146Y-82727363D01*
X159568829Y-82731058D01*
X159569724Y-82735206D01*
X159589679Y-82769396D01*
X159586683Y-82839201D01*
X159550521Y-82892905D01*
X159543519Y-82898973D01*
X159518606Y-82915750D01*
X159439387Y-82956114D01*
X159439385Y-82956115D01*
X159273787Y-83076427D01*
X159273784Y-83076429D01*
X159129029Y-83221184D01*
X159129027Y-83221187D01*
X159008715Y-83386785D01*
X159008708Y-83386797D01*
X158915786Y-83569164D01*
X158915780Y-83569177D01*
X158852521Y-83763868D01*
X158820500Y-83966042D01*
X158820500Y-84170756D01*
X158852521Y-84372930D01*
X158915780Y-84567621D01*
X158915786Y-84567634D01*
X159008708Y-84750001D01*
X159008709Y-84750002D01*
X159008715Y-84750013D01*
X159129028Y-84915613D01*
X159273786Y-85060371D01*
X159395100Y-85148509D01*
X159439390Y-85180687D01*
X159519680Y-85221596D01*
X159523050Y-85223591D01*
X159525948Y-85226696D01*
X159545045Y-85240160D01*
X159554459Y-85249052D01*
X159567231Y-85270935D01*
X159570719Y-85274673D01*
X159571309Y-85277921D01*
X159589679Y-85309396D01*
X159586683Y-85379201D01*
X159550521Y-85432905D01*
X159543519Y-85438973D01*
X159518606Y-85455750D01*
X159439387Y-85496114D01*
X159439385Y-85496115D01*
X159273787Y-85616427D01*
X159273784Y-85616429D01*
X159129029Y-85761184D01*
X159129027Y-85761187D01*
X159008715Y-85926785D01*
X159008708Y-85926797D01*
X158915786Y-86109164D01*
X158915780Y-86109177D01*
X158852521Y-86303868D01*
X158820500Y-86506042D01*
X158820500Y-86710756D01*
X158852521Y-86912930D01*
X158915780Y-87107621D01*
X158915786Y-87107634D01*
X159008708Y-87290001D01*
X159008709Y-87290002D01*
X159008715Y-87290013D01*
X159129028Y-87455613D01*
X159273786Y-87600371D01*
X159395100Y-87688509D01*
X159439390Y-87720687D01*
X159519680Y-87761596D01*
X159523050Y-87763591D01*
X159525948Y-87766696D01*
X159545045Y-87780160D01*
X159554459Y-87789052D01*
X159567231Y-87810935D01*
X159570719Y-87814673D01*
X159571309Y-87817921D01*
X159589679Y-87849396D01*
X159586683Y-87919201D01*
X159550521Y-87972905D01*
X159543519Y-87978973D01*
X159518606Y-87995750D01*
X159439387Y-88036114D01*
X159439385Y-88036115D01*
X159273787Y-88156427D01*
X159273784Y-88156429D01*
X159129029Y-88301184D01*
X159129027Y-88301187D01*
X159008715Y-88466785D01*
X159008708Y-88466797D01*
X158915786Y-88649164D01*
X158915780Y-88649177D01*
X158852521Y-88843868D01*
X158820500Y-89046042D01*
X158820500Y-89250756D01*
X158848671Y-89428620D01*
X158852522Y-89452934D01*
X158872571Y-89514639D01*
X158915780Y-89647621D01*
X158915786Y-89647634D01*
X159008708Y-89830001D01*
X159008709Y-89830002D01*
X159008715Y-89830013D01*
X159129028Y-89995613D01*
X159273786Y-90140371D01*
X159395100Y-90228509D01*
X159439390Y-90260687D01*
X159519680Y-90301596D01*
X159523050Y-90303591D01*
X159525948Y-90306696D01*
X159545045Y-90320160D01*
X159554459Y-90329052D01*
X159567231Y-90350935D01*
X159570719Y-90354673D01*
X159571309Y-90357921D01*
X159589679Y-90389396D01*
X159586683Y-90459201D01*
X159550521Y-90512905D01*
X159543519Y-90518973D01*
X159518606Y-90535750D01*
X159439387Y-90576114D01*
X159439385Y-90576115D01*
X159273787Y-90696427D01*
X159273784Y-90696429D01*
X159129029Y-90841184D01*
X159129027Y-90841187D01*
X159008715Y-91006785D01*
X159008708Y-91006797D01*
X158915786Y-91189164D01*
X158915780Y-91189177D01*
X158852521Y-91383868D01*
X158820500Y-91586042D01*
X158820500Y-91790756D01*
X158852521Y-91992930D01*
X158915780Y-92187621D01*
X158915786Y-92187634D01*
X159008708Y-92370001D01*
X159008709Y-92370002D01*
X159008715Y-92370013D01*
X159129028Y-92535613D01*
X159273786Y-92680371D01*
X159395100Y-92768509D01*
X159439390Y-92800687D01*
X159519680Y-92841596D01*
X159523050Y-92843591D01*
X159525948Y-92846696D01*
X159545045Y-92860160D01*
X159554459Y-92869052D01*
X159567231Y-92890935D01*
X159570719Y-92894673D01*
X159571309Y-92897921D01*
X159589679Y-92929396D01*
X159586683Y-92999201D01*
X159550521Y-93052905D01*
X159543519Y-93058973D01*
X159518606Y-93075750D01*
X159439387Y-93116114D01*
X159439385Y-93116115D01*
X159273787Y-93236427D01*
X159273784Y-93236429D01*
X159129029Y-93381184D01*
X159129027Y-93381187D01*
X159008715Y-93546785D01*
X159008708Y-93546797D01*
X158915786Y-93729164D01*
X158915780Y-93729177D01*
X158852521Y-93923868D01*
X158820500Y-94126042D01*
X158820500Y-94330756D01*
X158852521Y-94532930D01*
X158915780Y-94727621D01*
X158915786Y-94727634D01*
X159008708Y-94910001D01*
X159008709Y-94910002D01*
X159008715Y-94910013D01*
X159129028Y-95075613D01*
X159273786Y-95220371D01*
X159395100Y-95308509D01*
X159439390Y-95340687D01*
X159519680Y-95381596D01*
X159523050Y-95383591D01*
X159525948Y-95386696D01*
X159545045Y-95400160D01*
X159554459Y-95409052D01*
X159567231Y-95430935D01*
X159570719Y-95434673D01*
X159571309Y-95437921D01*
X159589679Y-95469396D01*
X159586683Y-95539201D01*
X159550521Y-95592905D01*
X159543519Y-95598973D01*
X159518606Y-95615750D01*
X159439387Y-95656114D01*
X159439385Y-95656115D01*
X159273787Y-95776427D01*
X159273784Y-95776429D01*
X159129029Y-95921184D01*
X159129027Y-95921187D01*
X159008715Y-96086785D01*
X159008708Y-96086797D01*
X158915786Y-96269164D01*
X158915780Y-96269177D01*
X158852521Y-96463868D01*
X158820500Y-96666042D01*
X158820500Y-96870756D01*
X158852521Y-97072930D01*
X158915780Y-97267621D01*
X158915786Y-97267634D01*
X159008708Y-97450001D01*
X159008709Y-97450002D01*
X159008715Y-97450013D01*
X159129028Y-97615613D01*
X159273786Y-97760371D01*
X159395100Y-97848509D01*
X159439390Y-97880687D01*
X159519680Y-97921596D01*
X159523050Y-97923591D01*
X159525948Y-97926696D01*
X159545045Y-97940160D01*
X159554459Y-97949052D01*
X159567231Y-97970935D01*
X159570719Y-97974673D01*
X159571309Y-97977921D01*
X159589679Y-98009396D01*
X159586683Y-98079201D01*
X159550521Y-98132905D01*
X159543519Y-98138973D01*
X159518606Y-98155750D01*
X159439387Y-98196114D01*
X159439385Y-98196115D01*
X159273787Y-98316427D01*
X159273784Y-98316429D01*
X159129029Y-98461184D01*
X159129027Y-98461187D01*
X159008715Y-98626785D01*
X159008708Y-98626797D01*
X158915786Y-98809164D01*
X158915780Y-98809177D01*
X158852521Y-99003868D01*
X158820500Y-99206042D01*
X158820500Y-99410756D01*
X158852521Y-99612930D01*
X158915780Y-99807621D01*
X158915786Y-99807634D01*
X159008708Y-99990001D01*
X159008709Y-99990002D01*
X159008715Y-99990013D01*
X159129028Y-100155613D01*
X159273786Y-100300371D01*
X159395100Y-100388509D01*
X159439390Y-100420687D01*
X159519680Y-100461596D01*
X159523050Y-100463591D01*
X159525948Y-100466696D01*
X159545045Y-100480160D01*
X159554459Y-100489052D01*
X159567231Y-100510935D01*
X159570719Y-100514673D01*
X159571309Y-100517921D01*
X159589679Y-100549396D01*
X159586683Y-100619201D01*
X159550521Y-100672905D01*
X159543519Y-100678973D01*
X159518606Y-100695750D01*
X159439387Y-100736114D01*
X159439385Y-100736115D01*
X159273787Y-100856427D01*
X159273784Y-100856429D01*
X159129029Y-101001184D01*
X159129027Y-101001187D01*
X159008715Y-101166785D01*
X159008708Y-101166797D01*
X158915786Y-101349164D01*
X158915780Y-101349177D01*
X158852521Y-101543868D01*
X158820500Y-101746042D01*
X158820500Y-101950756D01*
X158852521Y-102152930D01*
X158915780Y-102347621D01*
X158915786Y-102347634D01*
X159008708Y-102530001D01*
X159008709Y-102530002D01*
X159008715Y-102530013D01*
X159129028Y-102695613D01*
X159273786Y-102840371D01*
X159395100Y-102928509D01*
X159439390Y-102960687D01*
X159519680Y-103001596D01*
X159523050Y-103003591D01*
X159525948Y-103006696D01*
X159545045Y-103020160D01*
X159554459Y-103029052D01*
X159567231Y-103050935D01*
X159570719Y-103054673D01*
X159571309Y-103057921D01*
X159589679Y-103089396D01*
X159586683Y-103159201D01*
X159550521Y-103212905D01*
X159543519Y-103218973D01*
X159518606Y-103235750D01*
X159439387Y-103276114D01*
X159439385Y-103276115D01*
X159273787Y-103396427D01*
X159273784Y-103396429D01*
X159129029Y-103541184D01*
X159129027Y-103541187D01*
X159008715Y-103706785D01*
X159008708Y-103706797D01*
X158915786Y-103889164D01*
X158915780Y-103889177D01*
X158852521Y-104083868D01*
X158820500Y-104286042D01*
X158820500Y-104490756D01*
X158852521Y-104692930D01*
X158915780Y-104887621D01*
X158915786Y-104887634D01*
X159008708Y-105070001D01*
X159008709Y-105070002D01*
X159008715Y-105070013D01*
X159129028Y-105235613D01*
X159273786Y-105380371D01*
X159395100Y-105468509D01*
X159439390Y-105500687D01*
X159519680Y-105541596D01*
X159523050Y-105543591D01*
X159525948Y-105546696D01*
X159545045Y-105560160D01*
X159554459Y-105569052D01*
X159567231Y-105590935D01*
X159570719Y-105594673D01*
X159571309Y-105597921D01*
X159589679Y-105629396D01*
X159586683Y-105699201D01*
X159550521Y-105752905D01*
X159543519Y-105758973D01*
X159518606Y-105775750D01*
X159439387Y-105816114D01*
X159439385Y-105816115D01*
X159273787Y-105936427D01*
X159273784Y-105936429D01*
X159129029Y-106081184D01*
X159129027Y-106081187D01*
X159008715Y-106246785D01*
X159008708Y-106246797D01*
X158915786Y-106429164D01*
X158915780Y-106429177D01*
X158852521Y-106623868D01*
X158820500Y-106826042D01*
X158820500Y-107030756D01*
X158852521Y-107232930D01*
X158915780Y-107427621D01*
X158915786Y-107427634D01*
X159008708Y-107610001D01*
X159008709Y-107610002D01*
X159008715Y-107610013D01*
X159129028Y-107775613D01*
X159273786Y-107920371D01*
X159395100Y-108008509D01*
X159439390Y-108040687D01*
X159519680Y-108081596D01*
X159523050Y-108083591D01*
X159525948Y-108086696D01*
X159545045Y-108100160D01*
X159554459Y-108109052D01*
X159567231Y-108130935D01*
X159570719Y-108134673D01*
X159571309Y-108137921D01*
X159589679Y-108169396D01*
X159586683Y-108239201D01*
X159550521Y-108292905D01*
X159543519Y-108298973D01*
X159518606Y-108315750D01*
X159439387Y-108356114D01*
X159439385Y-108356115D01*
X159273787Y-108476427D01*
X159273784Y-108476429D01*
X159129029Y-108621184D01*
X159129027Y-108621187D01*
X159008715Y-108786785D01*
X159008708Y-108786797D01*
X158915786Y-108969164D01*
X158915780Y-108969177D01*
X158852521Y-109163868D01*
X158820500Y-109366042D01*
X158820500Y-109570756D01*
X158852521Y-109772930D01*
X158915780Y-109967621D01*
X158915786Y-109967634D01*
X159008708Y-110150001D01*
X159008709Y-110150002D01*
X159008715Y-110150013D01*
X159129028Y-110315613D01*
X159273786Y-110460371D01*
X159395100Y-110548509D01*
X159439390Y-110580687D01*
X159519680Y-110621596D01*
X159523050Y-110623591D01*
X159525948Y-110626696D01*
X159545045Y-110640160D01*
X159554459Y-110649052D01*
X159567231Y-110670935D01*
X159570719Y-110674673D01*
X159571309Y-110677921D01*
X159589679Y-110709396D01*
X159586683Y-110779201D01*
X159550521Y-110832905D01*
X159543519Y-110838973D01*
X159518606Y-110855750D01*
X159439387Y-110896114D01*
X159439385Y-110896115D01*
X159273787Y-111016427D01*
X159273784Y-111016429D01*
X159129029Y-111161184D01*
X159129027Y-111161187D01*
X159008715Y-111326785D01*
X159008708Y-111326797D01*
X158915786Y-111509164D01*
X158915780Y-111509177D01*
X158852521Y-111703868D01*
X158820500Y-111906042D01*
X158820500Y-112110756D01*
X158852521Y-112312930D01*
X158915780Y-112507621D01*
X158915786Y-112507634D01*
X159008708Y-112690001D01*
X159008713Y-112690010D01*
X159008715Y-112690013D01*
X159129028Y-112855613D01*
X159273786Y-113000371D01*
X159395100Y-113088509D01*
X159439390Y-113120687D01*
X159555607Y-113179903D01*
X159615327Y-113210332D01*
X159615326Y-113210332D01*
X159622649Y-113214063D01*
X159626401Y-113215121D01*
X159673905Y-113230556D01*
X159816465Y-113276877D01*
X159881313Y-113287148D01*
X160018648Y-113308900D01*
X160018649Y-113308900D01*
X160223351Y-113308900D01*
X160223352Y-113308900D01*
X160425534Y-113276877D01*
X160620219Y-113213620D01*
X160802610Y-113120687D01*
X160895590Y-113053132D01*
X160968213Y-113000371D01*
X160968213Y-113000369D01*
X160968272Y-113000327D01*
X160969031Y-112999553D01*
X161112966Y-112855619D01*
X161112968Y-112855615D01*
X161112971Y-112855613D01*
X161170304Y-112776699D01*
X161233287Y-112690010D01*
X161326220Y-112507619D01*
X161389477Y-112312934D01*
X161421500Y-112110752D01*
X161421500Y-111906048D01*
X161389477Y-111703866D01*
X161389476Y-111703862D01*
X161389476Y-111703861D01*
X161328833Y-111517223D01*
X161326220Y-111509181D01*
X161326218Y-111509178D01*
X161326218Y-111509176D01*
X161323977Y-111504778D01*
X161323667Y-111503983D01*
X161322932Y-111502727D01*
X161292503Y-111443007D01*
X161246472Y-111352667D01*
X161233287Y-111326790D01*
X161225556Y-111316149D01*
X161112971Y-111161186D01*
X160968213Y-111016428D01*
X160802614Y-110896115D01*
X160783239Y-110886243D01*
X160731435Y-110859847D01*
X160725801Y-110856976D01*
X160696956Y-110836642D01*
X160687544Y-110827753D01*
X160652321Y-110767412D01*
X160655313Y-110697606D01*
X160691474Y-110643898D01*
X160698479Y-110637827D01*
X160723386Y-110621052D01*
X160802610Y-110580687D01*
X160835279Y-110556951D01*
X160846902Y-110548508D01*
X160885962Y-110520129D01*
X160968213Y-110460371D01*
X160968215Y-110460368D01*
X160968219Y-110460366D01*
X160968222Y-110460362D01*
X160968274Y-110460325D01*
X160969019Y-110459565D01*
X161112966Y-110315619D01*
X161112968Y-110315615D01*
X161112971Y-110315613D01*
X161165730Y-110242993D01*
X161165732Y-110242991D01*
X161190627Y-110208725D01*
X161233287Y-110150010D01*
X161326220Y-109967619D01*
X161389477Y-109772934D01*
X161421500Y-109570752D01*
X161421500Y-109366048D01*
X161389477Y-109163866D01*
X161389476Y-109163862D01*
X161389476Y-109163861D01*
X161328833Y-108977223D01*
X161326220Y-108969181D01*
X161326218Y-108969178D01*
X161326218Y-108969176D01*
X161323977Y-108964778D01*
X161323667Y-108963983D01*
X161322932Y-108962727D01*
X161292503Y-108903007D01*
X161246472Y-108812667D01*
X161233287Y-108786790D01*
X161225556Y-108776149D01*
X161112971Y-108621186D01*
X160968213Y-108476428D01*
X160802614Y-108356115D01*
X160767842Y-108338398D01*
X160725799Y-108316975D01*
X160696956Y-108296642D01*
X160687544Y-108287753D01*
X160652321Y-108227412D01*
X160655313Y-108157606D01*
X160691474Y-108103898D01*
X160698479Y-108097827D01*
X160723386Y-108081052D01*
X160802610Y-108040687D01*
X160835279Y-108016951D01*
X160846902Y-108008508D01*
X160887001Y-107979374D01*
X160968213Y-107920371D01*
X160968215Y-107920368D01*
X160968219Y-107920366D01*
X160968222Y-107920362D01*
X160968274Y-107920325D01*
X160969019Y-107919565D01*
X161112966Y-107775619D01*
X161112968Y-107775615D01*
X161112971Y-107775613D01*
X161165730Y-107702993D01*
X161165732Y-107702991D01*
X161198315Y-107658144D01*
X161233287Y-107610010D01*
X161326220Y-107427619D01*
X161389477Y-107232934D01*
X161421500Y-107030752D01*
X161421500Y-106826048D01*
X161389477Y-106623866D01*
X161389476Y-106623862D01*
X161389476Y-106623861D01*
X161328833Y-106437223D01*
X161326220Y-106429181D01*
X161326218Y-106429178D01*
X161326218Y-106429176D01*
X161323977Y-106424778D01*
X161323667Y-106423983D01*
X161322932Y-106422727D01*
X161292503Y-106363007D01*
X161233287Y-106246790D01*
X161203361Y-106205600D01*
X161112971Y-106081186D01*
X160968213Y-105936428D01*
X160968212Y-105936427D01*
X160968209Y-105936424D01*
X160802616Y-105816116D01*
X160802337Y-105815974D01*
X160796006Y-105812748D01*
X160725799Y-105776975D01*
X160696956Y-105756642D01*
X160687538Y-105747747D01*
X160652320Y-105687405D01*
X160655315Y-105617600D01*
X160691474Y-105563898D01*
X160695787Y-105560160D01*
X160698481Y-105557825D01*
X160723386Y-105541052D01*
X160802610Y-105500687D01*
X160835279Y-105476951D01*
X160846902Y-105468508D01*
X160873679Y-105449052D01*
X160968213Y-105380371D01*
X160968215Y-105380368D01*
X160968219Y-105380366D01*
X160968222Y-105380362D01*
X160968274Y-105380325D01*
X160969019Y-105379565D01*
X161112966Y-105235619D01*
X161112968Y-105235615D01*
X161112971Y-105235613D01*
X161165730Y-105162993D01*
X161165732Y-105162991D01*
X161198315Y-105118144D01*
X161233287Y-105070010D01*
X161326220Y-104887619D01*
X161389477Y-104692934D01*
X161421500Y-104490752D01*
X161421500Y-104286048D01*
X161389477Y-104083866D01*
X161389476Y-104083862D01*
X161389476Y-104083861D01*
X161328833Y-103897223D01*
X161326220Y-103889181D01*
X161326218Y-103889178D01*
X161326218Y-103889176D01*
X161323977Y-103884778D01*
X161323667Y-103883983D01*
X161322932Y-103882727D01*
X161292503Y-103823007D01*
X161246472Y-103732667D01*
X161233287Y-103706790D01*
X161225556Y-103696149D01*
X161112971Y-103541186D01*
X160968213Y-103396428D01*
X160968212Y-103396427D01*
X160968209Y-103396424D01*
X160802616Y-103276116D01*
X160802337Y-103275974D01*
X160796006Y-103272748D01*
X160725799Y-103236975D01*
X160696956Y-103216642D01*
X160687538Y-103207747D01*
X160652320Y-103147405D01*
X160655315Y-103077600D01*
X160691474Y-103023898D01*
X160698479Y-103017827D01*
X160723386Y-103001052D01*
X160802610Y-102960687D01*
X160835279Y-102936951D01*
X160846902Y-102928508D01*
X160873679Y-102909052D01*
X160968213Y-102840371D01*
X160968215Y-102840368D01*
X160968219Y-102840366D01*
X160968222Y-102840362D01*
X160968274Y-102840325D01*
X160969019Y-102839565D01*
X161112966Y-102695619D01*
X161112968Y-102695615D01*
X161112971Y-102695613D01*
X161165730Y-102622993D01*
X161165732Y-102622991D01*
X161198315Y-102578144D01*
X161233287Y-102530010D01*
X161326220Y-102347619D01*
X161389477Y-102152934D01*
X161421500Y-101950752D01*
X161421500Y-101746048D01*
X161389477Y-101543866D01*
X161389476Y-101543862D01*
X161389476Y-101543861D01*
X161328833Y-101357223D01*
X161326220Y-101349181D01*
X161326218Y-101349178D01*
X161326218Y-101349176D01*
X161323977Y-101344778D01*
X161323667Y-101343983D01*
X161322932Y-101342727D01*
X161292503Y-101283007D01*
X161246472Y-101192667D01*
X161233287Y-101166790D01*
X161225556Y-101156149D01*
X161112971Y-101001186D01*
X160968213Y-100856428D01*
X160968212Y-100856427D01*
X160968209Y-100856424D01*
X160802616Y-100736116D01*
X160802337Y-100735974D01*
X160796006Y-100732748D01*
X160725799Y-100696975D01*
X160696956Y-100676642D01*
X160687538Y-100667747D01*
X160652320Y-100607405D01*
X160655315Y-100537600D01*
X160691474Y-100483898D01*
X160698479Y-100477827D01*
X160723386Y-100461052D01*
X160802610Y-100420687D01*
X160835279Y-100396951D01*
X160846902Y-100388508D01*
X160873679Y-100369052D01*
X160968213Y-100300371D01*
X160968215Y-100300368D01*
X160968219Y-100300366D01*
X160968222Y-100300362D01*
X160968274Y-100300325D01*
X160969019Y-100299565D01*
X161112966Y-100155619D01*
X161112968Y-100155615D01*
X161112971Y-100155613D01*
X161165730Y-100082993D01*
X161165732Y-100082991D01*
X161198315Y-100038144D01*
X161233287Y-99990010D01*
X161326220Y-99807619D01*
X161389477Y-99612934D01*
X161421500Y-99410752D01*
X161421500Y-99206048D01*
X161389477Y-99003866D01*
X161389476Y-99003862D01*
X161389476Y-99003861D01*
X161328833Y-98817223D01*
X161326220Y-98809181D01*
X161326218Y-98809178D01*
X161326218Y-98809176D01*
X161323977Y-98804778D01*
X161323667Y-98803983D01*
X161322932Y-98802727D01*
X161292503Y-98743007D01*
X161246472Y-98652667D01*
X161233287Y-98626790D01*
X161225556Y-98616149D01*
X161112971Y-98461186D01*
X160968213Y-98316428D01*
X160968212Y-98316427D01*
X160968209Y-98316424D01*
X160802616Y-98196116D01*
X160802337Y-98195974D01*
X160796006Y-98192748D01*
X160725799Y-98156975D01*
X160696956Y-98136642D01*
X160687538Y-98127747D01*
X160652320Y-98067405D01*
X160655315Y-97997600D01*
X160691474Y-97943898D01*
X160698479Y-97937827D01*
X160723386Y-97921052D01*
X160802610Y-97880687D01*
X160835279Y-97856951D01*
X160846902Y-97848508D01*
X160873679Y-97829052D01*
X160968213Y-97760371D01*
X160968215Y-97760368D01*
X160968219Y-97760366D01*
X160968222Y-97760362D01*
X160968274Y-97760325D01*
X160969019Y-97759565D01*
X161112966Y-97615619D01*
X161112968Y-97615615D01*
X161112971Y-97615613D01*
X161165730Y-97542993D01*
X161165732Y-97542991D01*
X161198315Y-97498144D01*
X161233287Y-97450010D01*
X161326220Y-97267619D01*
X161389477Y-97072934D01*
X161421500Y-96870752D01*
X161421500Y-96666048D01*
X161389477Y-96463866D01*
X161389476Y-96463862D01*
X161389476Y-96463861D01*
X161328833Y-96277223D01*
X161326220Y-96269181D01*
X161326218Y-96269178D01*
X161326218Y-96269176D01*
X161323977Y-96264778D01*
X161323667Y-96263983D01*
X161322932Y-96262727D01*
X161292503Y-96203007D01*
X161246472Y-96112667D01*
X161233287Y-96086790D01*
X161225556Y-96076149D01*
X161112971Y-95921186D01*
X160968213Y-95776428D01*
X160968212Y-95776427D01*
X160968209Y-95776424D01*
X160802616Y-95656116D01*
X160802337Y-95655974D01*
X160796006Y-95652748D01*
X160725799Y-95616975D01*
X160696956Y-95596642D01*
X160687538Y-95587747D01*
X160652320Y-95527405D01*
X160655315Y-95457600D01*
X160691474Y-95403898D01*
X160698479Y-95397827D01*
X160723386Y-95381052D01*
X160802610Y-95340687D01*
X160835279Y-95316951D01*
X160846902Y-95308508D01*
X160873679Y-95289052D01*
X160968213Y-95220371D01*
X160968215Y-95220368D01*
X160968219Y-95220366D01*
X160968222Y-95220362D01*
X160968274Y-95220325D01*
X160969019Y-95219565D01*
X161112966Y-95075619D01*
X161112968Y-95075615D01*
X161112971Y-95075613D01*
X161165730Y-95002993D01*
X161165732Y-95002991D01*
X161198315Y-94958144D01*
X161233287Y-94910010D01*
X161326220Y-94727619D01*
X161389477Y-94532934D01*
X161421500Y-94330752D01*
X161421500Y-94126048D01*
X161389477Y-93923866D01*
X161389476Y-93923862D01*
X161389476Y-93923861D01*
X161328833Y-93737223D01*
X161326220Y-93729181D01*
X161326218Y-93729178D01*
X161326218Y-93729176D01*
X161323977Y-93724778D01*
X161323667Y-93723983D01*
X161322932Y-93722727D01*
X161292503Y-93663007D01*
X161246472Y-93572667D01*
X161233287Y-93546790D01*
X161225556Y-93536149D01*
X161112971Y-93381186D01*
X160968213Y-93236428D01*
X160968212Y-93236427D01*
X160968209Y-93236424D01*
X160802616Y-93116116D01*
X160802337Y-93115974D01*
X160796006Y-93112748D01*
X160725799Y-93076975D01*
X160696956Y-93056642D01*
X160687538Y-93047747D01*
X160652320Y-92987405D01*
X160655315Y-92917600D01*
X160691474Y-92863898D01*
X160698479Y-92857827D01*
X160723386Y-92841052D01*
X160802610Y-92800687D01*
X160835279Y-92776951D01*
X160846902Y-92768508D01*
X160873679Y-92749052D01*
X160968213Y-92680371D01*
X160968215Y-92680368D01*
X160968219Y-92680366D01*
X160968222Y-92680362D01*
X160968274Y-92680325D01*
X160969019Y-92679565D01*
X161112966Y-92535619D01*
X161112968Y-92535615D01*
X161112971Y-92535613D01*
X161165730Y-92462993D01*
X161165732Y-92462991D01*
X161198315Y-92418144D01*
X161233287Y-92370010D01*
X161326220Y-92187619D01*
X161389477Y-91992934D01*
X161421500Y-91790752D01*
X161421500Y-91586048D01*
X161389477Y-91383866D01*
X161389476Y-91383862D01*
X161389476Y-91383861D01*
X161328833Y-91197223D01*
X161326220Y-91189181D01*
X161326218Y-91189178D01*
X161326218Y-91189176D01*
X161323977Y-91184778D01*
X161323667Y-91183983D01*
X161322932Y-91182727D01*
X161292503Y-91123007D01*
X161246472Y-91032667D01*
X161233287Y-91006790D01*
X161225556Y-90996149D01*
X161112971Y-90841186D01*
X160968213Y-90696428D01*
X160968212Y-90696427D01*
X160968209Y-90696424D01*
X160802616Y-90576116D01*
X160802337Y-90575974D01*
X160796006Y-90572748D01*
X160725799Y-90536975D01*
X160696956Y-90516642D01*
X160687538Y-90507747D01*
X160652320Y-90447405D01*
X160655315Y-90377600D01*
X160691474Y-90323898D01*
X160698479Y-90317827D01*
X160723386Y-90301052D01*
X160802610Y-90260687D01*
X160835279Y-90236951D01*
X160846902Y-90228508D01*
X160873679Y-90209052D01*
X160968213Y-90140371D01*
X160968215Y-90140368D01*
X160968219Y-90140366D01*
X160968222Y-90140362D01*
X160968274Y-90140325D01*
X160969019Y-90139565D01*
X161112966Y-89995619D01*
X161112968Y-89995615D01*
X161112971Y-89995613D01*
X161165730Y-89922993D01*
X161165732Y-89922991D01*
X161198315Y-89878144D01*
X161233287Y-89830010D01*
X161326220Y-89647619D01*
X161389477Y-89452934D01*
X161421500Y-89250752D01*
X161421500Y-89046048D01*
X161389477Y-88843866D01*
X161389476Y-88843862D01*
X161389476Y-88843861D01*
X161328833Y-88657223D01*
X161326220Y-88649181D01*
X161326218Y-88649178D01*
X161326218Y-88649176D01*
X161323977Y-88644778D01*
X161323667Y-88643983D01*
X161322932Y-88642727D01*
X161292503Y-88583007D01*
X161246472Y-88492667D01*
X161233287Y-88466790D01*
X161225556Y-88456149D01*
X161112971Y-88301186D01*
X160968213Y-88156428D01*
X160968212Y-88156427D01*
X160968209Y-88156424D01*
X160802616Y-88036116D01*
X160802337Y-88035974D01*
X160796006Y-88032748D01*
X160725799Y-87996975D01*
X160696956Y-87976642D01*
X160687538Y-87967747D01*
X160652320Y-87907405D01*
X160655315Y-87837600D01*
X160691474Y-87783898D01*
X160698479Y-87777827D01*
X160723386Y-87761052D01*
X160802610Y-87720687D01*
X160835279Y-87696951D01*
X160846902Y-87688508D01*
X160873679Y-87669052D01*
X160968213Y-87600371D01*
X160968215Y-87600368D01*
X160968219Y-87600366D01*
X160968222Y-87600362D01*
X160968274Y-87600325D01*
X160969019Y-87599565D01*
X161112966Y-87455619D01*
X161112968Y-87455615D01*
X161112971Y-87455613D01*
X161165730Y-87382993D01*
X161165732Y-87382991D01*
X161198315Y-87338144D01*
X161233287Y-87290010D01*
X161326220Y-87107619D01*
X161389477Y-86912934D01*
X161421500Y-86710752D01*
X161421500Y-86506048D01*
X161389477Y-86303866D01*
X161389476Y-86303862D01*
X161389476Y-86303861D01*
X161328833Y-86117223D01*
X161326220Y-86109181D01*
X161326218Y-86109178D01*
X161326218Y-86109176D01*
X161323977Y-86104778D01*
X161323667Y-86103983D01*
X161322932Y-86102727D01*
X161292503Y-86043007D01*
X161246472Y-85952667D01*
X161233287Y-85926790D01*
X161225556Y-85916149D01*
X161112971Y-85761186D01*
X160968213Y-85616428D01*
X160968212Y-85616427D01*
X160968209Y-85616424D01*
X160802616Y-85496116D01*
X160802337Y-85495974D01*
X160796006Y-85492748D01*
X160725799Y-85456975D01*
X160696956Y-85436642D01*
X160687538Y-85427747D01*
X160652320Y-85367405D01*
X160655315Y-85297600D01*
X160691474Y-85243898D01*
X160698479Y-85237827D01*
X160723386Y-85221052D01*
X160802610Y-85180687D01*
X160835279Y-85156951D01*
X160846902Y-85148508D01*
X160873679Y-85129052D01*
X160968213Y-85060371D01*
X160968215Y-85060368D01*
X160968219Y-85060366D01*
X160968222Y-85060362D01*
X160968274Y-85060325D01*
X160969019Y-85059565D01*
X161112966Y-84915619D01*
X161112968Y-84915615D01*
X161112971Y-84915613D01*
X161165730Y-84842993D01*
X161165732Y-84842991D01*
X161198315Y-84798144D01*
X161233287Y-84750010D01*
X161326220Y-84567619D01*
X161389477Y-84372934D01*
X161421500Y-84170752D01*
X161421500Y-83966048D01*
X161389477Y-83763866D01*
X161389476Y-83763862D01*
X161389476Y-83763861D01*
X161328833Y-83577223D01*
X161326220Y-83569181D01*
X161326218Y-83569178D01*
X161326218Y-83569176D01*
X161323977Y-83564778D01*
X161323667Y-83563983D01*
X161322932Y-83562727D01*
X161292503Y-83503007D01*
X161246472Y-83412667D01*
X161233287Y-83386790D01*
X161225556Y-83376149D01*
X161112971Y-83221186D01*
X160968213Y-83076428D01*
X160968212Y-83076427D01*
X160968209Y-83076424D01*
X160802616Y-82956116D01*
X160802337Y-82955974D01*
X160796006Y-82952748D01*
X160725799Y-82916975D01*
X160696956Y-82896642D01*
X160687538Y-82887747D01*
X160652320Y-82827405D01*
X160655315Y-82757600D01*
X160691474Y-82703898D01*
X160698479Y-82697827D01*
X160723386Y-82681052D01*
X160802610Y-82640687D01*
X160846192Y-82609023D01*
X160968213Y-82520371D01*
X160968213Y-82520369D01*
X160968274Y-82520326D01*
X160969036Y-82519548D01*
X161112966Y-82375619D01*
X161112968Y-82375615D01*
X161112971Y-82375613D01*
X161165730Y-82302993D01*
X161165732Y-82302991D01*
X161198315Y-82258144D01*
X161233287Y-82210010D01*
X161326220Y-82027619D01*
X161389477Y-81832934D01*
X161421500Y-81630752D01*
X161421500Y-81472107D01*
X163644800Y-81472107D01*
X163644800Y-81684690D01*
X163666875Y-81824065D01*
X163678053Y-81894641D01*
X163724347Y-82037121D01*
X163743741Y-82096806D01*
X163743743Y-82096812D01*
X163825945Y-82258144D01*
X163840251Y-82286220D01*
X163965190Y-82458186D01*
X164115513Y-82608509D01*
X164287482Y-82733450D01*
X164287490Y-82733454D01*
X164287993Y-82733763D01*
X164289474Y-82734896D01*
X164291422Y-82736312D01*
X164291386Y-82736360D01*
X164308334Y-82749334D01*
X164318615Y-82759043D01*
X164353841Y-82819383D01*
X164350852Y-82889189D01*
X164314683Y-82942907D01*
X164307527Y-82949108D01*
X164291114Y-82961123D01*
X164287490Y-82963343D01*
X164115510Y-83088292D01*
X163965192Y-83238610D01*
X163965190Y-83238613D01*
X163857530Y-83386797D01*
X163840249Y-83410582D01*
X163743745Y-83599980D01*
X163678052Y-83802159D01*
X163644800Y-84012107D01*
X163644800Y-84224691D01*
X163678052Y-84434639D01*
X163743745Y-84636818D01*
X163836832Y-84819511D01*
X163840251Y-84826220D01*
X163965190Y-84998186D01*
X164115513Y-85148509D01*
X164287482Y-85273450D01*
X164287490Y-85273454D01*
X164287993Y-85273763D01*
X164289474Y-85274896D01*
X164291422Y-85276312D01*
X164291386Y-85276360D01*
X164308334Y-85289334D01*
X164318615Y-85299043D01*
X164353841Y-85359383D01*
X164350852Y-85429189D01*
X164314683Y-85482907D01*
X164307527Y-85489108D01*
X164291114Y-85501123D01*
X164287490Y-85503343D01*
X164115510Y-85628292D01*
X163965192Y-85778610D01*
X163965190Y-85778613D01*
X163857530Y-85926797D01*
X163840249Y-85950582D01*
X163743745Y-86139980D01*
X163678052Y-86342159D01*
X163644800Y-86552107D01*
X163644800Y-86764691D01*
X163678052Y-86974639D01*
X163743745Y-87176818D01*
X163836832Y-87359511D01*
X163840251Y-87366220D01*
X163965190Y-87538186D01*
X164115513Y-87688509D01*
X164287482Y-87813450D01*
X164287490Y-87813454D01*
X164287993Y-87813763D01*
X164289474Y-87814896D01*
X164291422Y-87816312D01*
X164291386Y-87816360D01*
X164308334Y-87829334D01*
X164318615Y-87839043D01*
X164353841Y-87899383D01*
X164350852Y-87969189D01*
X164314683Y-88022907D01*
X164307527Y-88029108D01*
X164291114Y-88041123D01*
X164287490Y-88043343D01*
X164115510Y-88168292D01*
X163965192Y-88318610D01*
X163965190Y-88318613D01*
X163857530Y-88466797D01*
X163840249Y-88490582D01*
X163743745Y-88679980D01*
X163678053Y-88882159D01*
X163654566Y-89030455D01*
X163652096Y-89046048D01*
X163644800Y-89092113D01*
X163644800Y-89304687D01*
X163646186Y-89313439D01*
X163678054Y-89514644D01*
X163705127Y-89597965D01*
X163743745Y-89716818D01*
X163836832Y-89899511D01*
X163840251Y-89906220D01*
X163965190Y-90078186D01*
X164115513Y-90228509D01*
X164287482Y-90353450D01*
X164287490Y-90353454D01*
X164287993Y-90353763D01*
X164289474Y-90354896D01*
X164291422Y-90356312D01*
X164291386Y-90356360D01*
X164308334Y-90369334D01*
X164318615Y-90379043D01*
X164353841Y-90439383D01*
X164350852Y-90509189D01*
X164314683Y-90562907D01*
X164307527Y-90569108D01*
X164291114Y-90581123D01*
X164287490Y-90583343D01*
X164115510Y-90708292D01*
X163965192Y-90858610D01*
X163965190Y-90858613D01*
X163857530Y-91006797D01*
X163840249Y-91030582D01*
X163743745Y-91219980D01*
X163678052Y-91422159D01*
X163644800Y-91632107D01*
X163644800Y-91844691D01*
X163678052Y-92054639D01*
X163743745Y-92256818D01*
X163836832Y-92439511D01*
X163840251Y-92446220D01*
X163965190Y-92618186D01*
X164115513Y-92768509D01*
X164287482Y-92893450D01*
X164287490Y-92893454D01*
X164287993Y-92893763D01*
X164289474Y-92894896D01*
X164291422Y-92896312D01*
X164291386Y-92896360D01*
X164308334Y-92909334D01*
X164318615Y-92919043D01*
X164353841Y-92979383D01*
X164350852Y-93049189D01*
X164314683Y-93102907D01*
X164307527Y-93109108D01*
X164291114Y-93121123D01*
X164287490Y-93123343D01*
X164115510Y-93248292D01*
X163965192Y-93398610D01*
X163965190Y-93398613D01*
X163857530Y-93546797D01*
X163840249Y-93570582D01*
X163743745Y-93759980D01*
X163678052Y-93962159D01*
X163644800Y-94172107D01*
X163644800Y-94384691D01*
X163674458Y-94571943D01*
X163678052Y-94594634D01*
X163678055Y-94594646D01*
X163720239Y-94724478D01*
X163743741Y-94796807D01*
X163743743Y-94796812D01*
X163743744Y-94796814D01*
X163840251Y-94986220D01*
X163965190Y-95158186D01*
X164115513Y-95308509D01*
X164287482Y-95433450D01*
X164287490Y-95433454D01*
X164287993Y-95433763D01*
X164289474Y-95434896D01*
X164291422Y-95436312D01*
X164291386Y-95436360D01*
X164308334Y-95449334D01*
X164318615Y-95459043D01*
X164353841Y-95519383D01*
X164350852Y-95589189D01*
X164314683Y-95642907D01*
X164307527Y-95649108D01*
X164291114Y-95661123D01*
X164287490Y-95663343D01*
X164115510Y-95788292D01*
X163965192Y-95938610D01*
X163965190Y-95938613D01*
X163857530Y-96086797D01*
X163840249Y-96110582D01*
X163743745Y-96299980D01*
X163678052Y-96502159D01*
X163644800Y-96712107D01*
X163644800Y-96924691D01*
X163674458Y-97111943D01*
X163678052Y-97134634D01*
X163678055Y-97134646D01*
X163720239Y-97264478D01*
X163743741Y-97336807D01*
X163743743Y-97336812D01*
X163743744Y-97336814D01*
X163840251Y-97526220D01*
X163965190Y-97698186D01*
X164115513Y-97848509D01*
X164287482Y-97973450D01*
X164287490Y-97973454D01*
X164287993Y-97973763D01*
X164289474Y-97974896D01*
X164291422Y-97976312D01*
X164291386Y-97976360D01*
X164308334Y-97989334D01*
X164318615Y-97999043D01*
X164353841Y-98059383D01*
X164350852Y-98129189D01*
X164314683Y-98182907D01*
X164307527Y-98189108D01*
X164291114Y-98201123D01*
X164287490Y-98203343D01*
X164115510Y-98328292D01*
X163965192Y-98478610D01*
X163965190Y-98478613D01*
X163857530Y-98626797D01*
X163840249Y-98650582D01*
X163743745Y-98839980D01*
X163678052Y-99042159D01*
X163644800Y-99252107D01*
X163644800Y-99464691D01*
X163678052Y-99674639D01*
X163743745Y-99876818D01*
X163836832Y-100059511D01*
X163840251Y-100066220D01*
X163965190Y-100238186D01*
X164115513Y-100388509D01*
X164287482Y-100513450D01*
X164287490Y-100513454D01*
X164287993Y-100513763D01*
X164289474Y-100514896D01*
X164291422Y-100516312D01*
X164291386Y-100516360D01*
X164308334Y-100529334D01*
X164318615Y-100539043D01*
X164353841Y-100599383D01*
X164350852Y-100669189D01*
X164314683Y-100722907D01*
X164307527Y-100729108D01*
X164291114Y-100741123D01*
X164287490Y-100743343D01*
X164115510Y-100868292D01*
X163965192Y-101018610D01*
X163965190Y-101018613D01*
X163857530Y-101166797D01*
X163840249Y-101190582D01*
X163743745Y-101379980D01*
X163678052Y-101582159D01*
X163644800Y-101792107D01*
X163644800Y-102004691D01*
X163678052Y-102214639D01*
X163743745Y-102416818D01*
X163836832Y-102599511D01*
X163840251Y-102606220D01*
X163965190Y-102778186D01*
X164115513Y-102928509D01*
X164287482Y-103053450D01*
X164287490Y-103053454D01*
X164287993Y-103053763D01*
X164289474Y-103054896D01*
X164291422Y-103056312D01*
X164291386Y-103056360D01*
X164308334Y-103069334D01*
X164318615Y-103079043D01*
X164353841Y-103139383D01*
X164350852Y-103209189D01*
X164314683Y-103262907D01*
X164307527Y-103269108D01*
X164291114Y-103281123D01*
X164287490Y-103283343D01*
X164115510Y-103408292D01*
X163965192Y-103558610D01*
X163965190Y-103558613D01*
X163857530Y-103706797D01*
X163840249Y-103730582D01*
X163743745Y-103919980D01*
X163678052Y-104122159D01*
X163644800Y-104332107D01*
X163644800Y-104544691D01*
X163678052Y-104754639D01*
X163743745Y-104956818D01*
X163836832Y-105139511D01*
X163840251Y-105146220D01*
X163965190Y-105318186D01*
X164115513Y-105468509D01*
X164287482Y-105593450D01*
X164287490Y-105593454D01*
X164287993Y-105593763D01*
X164289474Y-105594896D01*
X164291422Y-105596312D01*
X164291386Y-105596360D01*
X164308334Y-105609334D01*
X164318615Y-105619043D01*
X164353841Y-105679383D01*
X164350852Y-105749189D01*
X164314683Y-105802907D01*
X164307527Y-105809108D01*
X164291114Y-105821123D01*
X164287490Y-105823343D01*
X164115510Y-105948292D01*
X163965192Y-106098610D01*
X163965190Y-106098613D01*
X163857530Y-106246797D01*
X163840249Y-106270582D01*
X163743717Y-106460037D01*
X163743245Y-106460980D01*
X163742163Y-106464846D01*
X163714284Y-106550651D01*
X163714284Y-106550652D01*
X163678052Y-106662159D01*
X163644800Y-106872107D01*
X163644800Y-107084691D01*
X163678052Y-107294639D01*
X163743745Y-107496818D01*
X163836832Y-107679511D01*
X163840251Y-107686220D01*
X163965190Y-107858186D01*
X164115513Y-108008509D01*
X164287482Y-108133450D01*
X164287490Y-108133454D01*
X164287993Y-108133763D01*
X164289474Y-108134896D01*
X164291422Y-108136312D01*
X164291386Y-108136360D01*
X164308334Y-108149334D01*
X164318615Y-108159043D01*
X164353841Y-108219383D01*
X164350852Y-108289189D01*
X164314683Y-108342907D01*
X164307527Y-108349108D01*
X164291114Y-108361123D01*
X164287490Y-108363343D01*
X164115510Y-108488292D01*
X163965192Y-108638610D01*
X163965190Y-108638613D01*
X163857530Y-108786797D01*
X163840249Y-108810582D01*
X163743745Y-108999980D01*
X163678053Y-109202159D01*
X163652096Y-109366048D01*
X163644800Y-109412113D01*
X163644800Y-109624686D01*
X163678054Y-109834644D01*
X163678054Y-109834647D01*
X163715112Y-109948698D01*
X163715113Y-109948698D01*
X163715113Y-109948699D01*
X163743743Y-110036812D01*
X163743746Y-110036819D01*
X163804127Y-110155322D01*
X163840251Y-110226220D01*
X163965190Y-110398186D01*
X164115513Y-110548509D01*
X164287482Y-110673450D01*
X164287490Y-110673454D01*
X164287993Y-110673763D01*
X164289474Y-110674896D01*
X164291422Y-110676312D01*
X164291386Y-110676360D01*
X164308334Y-110689334D01*
X164318615Y-110699043D01*
X164353841Y-110759383D01*
X164350852Y-110829189D01*
X164314683Y-110882907D01*
X164307527Y-110889108D01*
X164291114Y-110901123D01*
X164287490Y-110903343D01*
X164115510Y-111028292D01*
X163965192Y-111178610D01*
X163965190Y-111178613D01*
X163857530Y-111326797D01*
X163840249Y-111350582D01*
X163743745Y-111539980D01*
X163678056Y-111742151D01*
X163678053Y-111742160D01*
X163652096Y-111906048D01*
X163644800Y-111952113D01*
X163644800Y-112164687D01*
X163678054Y-112374639D01*
X163678054Y-112374642D01*
X163678055Y-112374647D01*
X163679572Y-112379318D01*
X163679573Y-112379318D01*
X163679574Y-112379322D01*
X163711659Y-112478068D01*
X163743745Y-112576818D01*
X163811567Y-112709924D01*
X163840251Y-112766220D01*
X163965190Y-112938186D01*
X163965192Y-112938188D01*
X164115516Y-113088512D01*
X164287469Y-113213442D01*
X164287500Y-113213460D01*
X164287742Y-113213582D01*
X164476888Y-113309957D01*
X164679057Y-113375646D01*
X164889013Y-113408900D01*
X164889014Y-113408900D01*
X165101586Y-113408900D01*
X165101587Y-113408900D01*
X165311543Y-113375646D01*
X165513712Y-113309957D01*
X165703116Y-113213451D01*
X165830800Y-113120684D01*
X165875086Y-113088509D01*
X165875086Y-113088507D01*
X165875145Y-113088465D01*
X165875905Y-113087690D01*
X166025404Y-112938192D01*
X166025406Y-112938188D01*
X166025409Y-112938186D01*
X166085400Y-112855615D01*
X166145599Y-112772758D01*
X166148057Y-112769372D01*
X166150348Y-112766220D01*
X166150347Y-112766220D01*
X166150351Y-112766216D01*
X166246857Y-112576812D01*
X166312546Y-112374643D01*
X166345800Y-112164687D01*
X166345800Y-111952113D01*
X166312546Y-111742157D01*
X166246857Y-111539988D01*
X166150351Y-111350584D01*
X166150349Y-111350581D01*
X166150348Y-111350579D01*
X166150002Y-111350103D01*
X166150000Y-111350099D01*
X166025412Y-111178616D01*
X165875082Y-111028286D01*
X165703124Y-110903353D01*
X165702558Y-110903006D01*
X165700927Y-110901757D01*
X165699201Y-110900503D01*
X165699232Y-110900459D01*
X165682260Y-110887462D01*
X165671983Y-110877757D01*
X165636757Y-110817417D01*
X165639745Y-110747612D01*
X165675913Y-110693893D01*
X165683083Y-110687681D01*
X165699487Y-110675675D01*
X165703116Y-110673451D01*
X165706579Y-110670935D01*
X165725089Y-110657486D01*
X165875086Y-110548509D01*
X165875087Y-110548506D01*
X165875090Y-110548505D01*
X165875092Y-110548504D01*
X165875093Y-110548502D01*
X165875147Y-110548463D01*
X165875905Y-110547690D01*
X166025404Y-110398192D01*
X166025406Y-110398188D01*
X166025409Y-110398186D01*
X166150348Y-110226220D01*
X166150347Y-110226220D01*
X166150351Y-110226216D01*
X166150352Y-110226212D01*
X166170635Y-110198296D01*
X166178598Y-110170784D01*
X166178753Y-110170472D01*
X166227443Y-110074914D01*
X167513143Y-110074914D01*
X167516013Y-110128961D01*
X167516014Y-110128973D01*
X167518835Y-110155331D01*
X167518838Y-110155350D01*
X167527459Y-110208725D01*
X167527461Y-110208733D01*
X167577667Y-110343555D01*
X167577670Y-110343560D01*
X167577672Y-110343565D01*
X167593403Y-110372411D01*
X167611122Y-110404901D01*
X167611125Y-110404905D01*
X167697287Y-110520129D01*
X167697289Y-110520131D01*
X168083633Y-110906881D01*
X168083642Y-110906889D01*
X168083643Y-110906890D01*
X168123989Y-110943159D01*
X168144677Y-110959839D01*
X168188664Y-110991567D01*
X168319541Y-111051338D01*
X168386580Y-111071023D01*
X168386584Y-111071024D01*
X168529000Y-111091500D01*
X178376854Y-111091500D01*
X178443893Y-111111185D01*
X178464535Y-111127819D01*
X181070319Y-113733603D01*
X181103804Y-113794926D01*
X181106631Y-113819979D01*
X181128794Y-115925512D01*
X181131955Y-115976884D01*
X181134779Y-116001916D01*
X181134784Y-116001947D01*
X181143145Y-116052706D01*
X181143146Y-116052708D01*
X181193428Y-116187517D01*
X181226913Y-116248840D01*
X181313137Y-116364021D01*
X181313141Y-116364025D01*
X181313146Y-116364031D01*
X181698223Y-116749107D01*
X181698239Y-116749123D01*
X181698255Y-116749137D01*
X181698262Y-116749144D01*
X181738480Y-116785271D01*
X181738492Y-116785281D01*
X181738500Y-116785288D01*
X181759142Y-116801922D01*
X181803026Y-116833567D01*
X181933903Y-116893338D01*
X182000942Y-116913023D01*
X182000946Y-116913024D01*
X182143362Y-116933500D01*
X182143365Y-116933500D01*
X184682238Y-116933500D01*
X184682240Y-116933500D01*
X184692386Y-116932955D01*
X184736278Y-116930603D01*
X184736286Y-116930602D01*
X184736288Y-116930602D01*
X184736289Y-116930602D01*
X184743282Y-116929849D01*
X184762636Y-116927769D01*
X184762646Y-116927767D01*
X184762649Y-116927767D01*
X184772248Y-116926211D01*
X184816048Y-116919114D01*
X184950857Y-116868832D01*
X185012180Y-116835347D01*
X185127361Y-116749123D01*
X185562723Y-116313761D01*
X185598888Y-116273500D01*
X185615522Y-116252858D01*
X185647167Y-116208974D01*
X185706938Y-116078097D01*
X185726623Y-116011058D01*
X185726624Y-116011054D01*
X185747100Y-115868638D01*
X185747100Y-110383362D01*
X185744203Y-110329322D01*
X185741369Y-110302964D01*
X185732714Y-110249552D01*
X185682432Y-110114743D01*
X185648947Y-110053420D01*
X185562723Y-109938239D01*
X185562718Y-109938234D01*
X185562713Y-109938228D01*
X181317582Y-105693098D01*
X181317574Y-105693090D01*
X181289152Y-105667612D01*
X181276519Y-105656287D01*
X181276369Y-105656167D01*
X181263564Y-105645891D01*
X181255436Y-105639368D01*
X181255428Y-105639362D01*
X181225051Y-105617600D01*
X181210584Y-105607236D01*
X181210583Y-105607235D01*
X181210580Y-105607233D01*
X181079465Y-105548011D01*
X181079453Y-105548007D01*
X181012340Y-105528603D01*
X181012331Y-105528601D01*
X180869841Y-105508718D01*
X180869839Y-105508718D01*
X168729759Y-105559092D01*
X168729749Y-105559092D01*
X168676769Y-105562098D01*
X168676757Y-105562099D01*
X168650937Y-105564930D01*
X168650932Y-105564931D01*
X168625668Y-105569052D01*
X168598569Y-105573472D01*
X168598568Y-105573472D01*
X168598564Y-105573473D01*
X168463759Y-105623752D01*
X168463752Y-105623755D01*
X168404393Y-105656167D01*
X168402919Y-105656937D01*
X168402436Y-105657235D01*
X168287254Y-105743460D01*
X168287242Y-105743471D01*
X167699243Y-106331471D01*
X167699230Y-106331485D01*
X167663161Y-106371629D01*
X167663158Y-106371633D01*
X167646555Y-106392227D01*
X167614989Y-106435965D01*
X167614986Y-106435970D01*
X167614985Y-106435973D01*
X167603980Y-106460037D01*
X167555144Y-106566821D01*
X167535425Y-106633845D01*
X167535425Y-106633847D01*
X167514872Y-106776263D01*
X167513143Y-110074914D01*
X166227443Y-110074914D01*
X166246857Y-110036812D01*
X166312546Y-109834643D01*
X166345800Y-109624687D01*
X166345800Y-109412113D01*
X166312546Y-109202157D01*
X166246857Y-108999988D01*
X166150351Y-108810584D01*
X166150349Y-108810581D01*
X166150348Y-108810579D01*
X166150002Y-108810103D01*
X166150000Y-108810099D01*
X166025412Y-108638616D01*
X165875082Y-108488286D01*
X165703124Y-108363353D01*
X165702558Y-108363006D01*
X165700927Y-108361757D01*
X165699201Y-108360503D01*
X165699232Y-108360459D01*
X165682260Y-108347462D01*
X165671983Y-108337757D01*
X165636757Y-108277417D01*
X165639745Y-108207612D01*
X165675913Y-108153893D01*
X165683083Y-108147681D01*
X165699487Y-108135675D01*
X165703116Y-108133451D01*
X165706579Y-108130935D01*
X165725089Y-108117486D01*
X165875086Y-108008509D01*
X165875087Y-108008506D01*
X165875090Y-108008505D01*
X165875092Y-108008504D01*
X165875093Y-108008502D01*
X165875147Y-108008463D01*
X165875905Y-108007690D01*
X166025404Y-107858192D01*
X166025406Y-107858188D01*
X166025409Y-107858186D01*
X166150348Y-107686220D01*
X166150347Y-107686220D01*
X166150351Y-107686216D01*
X166150353Y-107686210D01*
X166170745Y-107658144D01*
X166179030Y-107629929D01*
X166246857Y-107496812D01*
X166312546Y-107294643D01*
X166345800Y-107084687D01*
X166345800Y-106872113D01*
X166312546Y-106662157D01*
X166246857Y-106459988D01*
X166150351Y-106270584D01*
X166150349Y-106270581D01*
X166150348Y-106270579D01*
X166150002Y-106270103D01*
X166150000Y-106270099D01*
X166025412Y-106098616D01*
X165875082Y-105948286D01*
X165703124Y-105823353D01*
X165702558Y-105823006D01*
X165700927Y-105821757D01*
X165699201Y-105820503D01*
X165699232Y-105820459D01*
X165682260Y-105807462D01*
X165671983Y-105797757D01*
X165636757Y-105737417D01*
X165639745Y-105667612D01*
X165675913Y-105613893D01*
X165683083Y-105607681D01*
X165699487Y-105595675D01*
X165703116Y-105593451D01*
X165706579Y-105590935D01*
X165725089Y-105577486D01*
X165875086Y-105468509D01*
X165875087Y-105468506D01*
X165875090Y-105468505D01*
X165875092Y-105468504D01*
X165875093Y-105468502D01*
X165875147Y-105468463D01*
X165875905Y-105467690D01*
X166025404Y-105318192D01*
X166025406Y-105318188D01*
X166025409Y-105318186D01*
X166150348Y-105146220D01*
X166150347Y-105146220D01*
X166150351Y-105146216D01*
X166150353Y-105146210D01*
X166170745Y-105118144D01*
X166179030Y-105089929D01*
X166246857Y-104956812D01*
X166312546Y-104754643D01*
X166345800Y-104544687D01*
X166345800Y-104332113D01*
X166312546Y-104122157D01*
X166246857Y-103919988D01*
X166150351Y-103730584D01*
X166150349Y-103730581D01*
X166150348Y-103730579D01*
X166150002Y-103730103D01*
X166150000Y-103730099D01*
X166025412Y-103558616D01*
X165875082Y-103408286D01*
X165703124Y-103283353D01*
X165702558Y-103283006D01*
X165700927Y-103281757D01*
X165699201Y-103280503D01*
X165699232Y-103280459D01*
X165682260Y-103267462D01*
X165671983Y-103257757D01*
X165636757Y-103197417D01*
X165639745Y-103127612D01*
X165675913Y-103073893D01*
X165683083Y-103067681D01*
X165699487Y-103055675D01*
X165703116Y-103053451D01*
X165706579Y-103050935D01*
X165725089Y-103037486D01*
X165875086Y-102928509D01*
X165875087Y-102928506D01*
X165875090Y-102928505D01*
X165875092Y-102928504D01*
X165875093Y-102928502D01*
X165875147Y-102928463D01*
X165875905Y-102927690D01*
X166025404Y-102778192D01*
X166025406Y-102778188D01*
X166025409Y-102778186D01*
X166150348Y-102606220D01*
X166150347Y-102606220D01*
X166150351Y-102606216D01*
X166150353Y-102606210D01*
X166170745Y-102578144D01*
X166179030Y-102549929D01*
X166246857Y-102416812D01*
X166312546Y-102214643D01*
X166345800Y-102004687D01*
X166345800Y-101792113D01*
X166312546Y-101582157D01*
X166246857Y-101379988D01*
X166150351Y-101190584D01*
X166150349Y-101190581D01*
X166150348Y-101190579D01*
X166150002Y-101190103D01*
X166150000Y-101190099D01*
X166025412Y-101018616D01*
X165875082Y-100868286D01*
X165703124Y-100743353D01*
X165702558Y-100743006D01*
X165700927Y-100741757D01*
X165699201Y-100740503D01*
X165699232Y-100740459D01*
X165682260Y-100727462D01*
X165671983Y-100717757D01*
X165636757Y-100657417D01*
X165639745Y-100587612D01*
X165675913Y-100533893D01*
X165683083Y-100527681D01*
X165699487Y-100515675D01*
X165703116Y-100513451D01*
X165706579Y-100510935D01*
X165725089Y-100497486D01*
X165875086Y-100388509D01*
X165875087Y-100388506D01*
X165875090Y-100388505D01*
X165875092Y-100388504D01*
X165875093Y-100388502D01*
X165875147Y-100388463D01*
X165875905Y-100387690D01*
X166025404Y-100238192D01*
X166025406Y-100238188D01*
X166025409Y-100238186D01*
X166150348Y-100066220D01*
X166150347Y-100066220D01*
X166150351Y-100066216D01*
X166150353Y-100066210D01*
X166170745Y-100038144D01*
X166179030Y-100009929D01*
X166246857Y-99876812D01*
X166312546Y-99674643D01*
X166345800Y-99464687D01*
X166345800Y-99252113D01*
X166312546Y-99042157D01*
X166246857Y-98839988D01*
X166150351Y-98650584D01*
X166150349Y-98650581D01*
X166150348Y-98650579D01*
X166150002Y-98650103D01*
X166150000Y-98650099D01*
X166025412Y-98478616D01*
X165875082Y-98328286D01*
X165703124Y-98203353D01*
X165702558Y-98203006D01*
X165700927Y-98201757D01*
X165699201Y-98200503D01*
X165699232Y-98200459D01*
X165682260Y-98187462D01*
X165671983Y-98177757D01*
X165636757Y-98117417D01*
X165639745Y-98047612D01*
X165675913Y-97993893D01*
X165683083Y-97987681D01*
X165699487Y-97975675D01*
X165703116Y-97973451D01*
X165706579Y-97970935D01*
X165725089Y-97957486D01*
X165875086Y-97848509D01*
X165875087Y-97848506D01*
X165875090Y-97848505D01*
X165875092Y-97848504D01*
X165875093Y-97848502D01*
X165875147Y-97848463D01*
X165875905Y-97847690D01*
X166025404Y-97698192D01*
X166025406Y-97698188D01*
X166025409Y-97698186D01*
X166150348Y-97526220D01*
X166150347Y-97526220D01*
X166150351Y-97526216D01*
X166150353Y-97526210D01*
X166170745Y-97498144D01*
X166179030Y-97469929D01*
X166246857Y-97336812D01*
X166312546Y-97134643D01*
X166345800Y-96924687D01*
X166345800Y-96712113D01*
X166312546Y-96502157D01*
X166246857Y-96299988D01*
X166150351Y-96110584D01*
X166150349Y-96110581D01*
X166150348Y-96110579D01*
X166150002Y-96110103D01*
X166150000Y-96110099D01*
X166025412Y-95938616D01*
X165875082Y-95788286D01*
X165703124Y-95663353D01*
X165702558Y-95663006D01*
X165700927Y-95661757D01*
X165699201Y-95660503D01*
X165699232Y-95660459D01*
X165682260Y-95647462D01*
X165671983Y-95637757D01*
X165636757Y-95577417D01*
X165639745Y-95507612D01*
X165675913Y-95453893D01*
X165683083Y-95447681D01*
X165699487Y-95435675D01*
X165703116Y-95433451D01*
X165706579Y-95430935D01*
X165725089Y-95417486D01*
X165875086Y-95308509D01*
X165875087Y-95308506D01*
X165875090Y-95308505D01*
X165875092Y-95308504D01*
X165875093Y-95308502D01*
X165875147Y-95308463D01*
X165875905Y-95307690D01*
X166025404Y-95158192D01*
X166025406Y-95158188D01*
X166025409Y-95158186D01*
X166150348Y-94986220D01*
X166150347Y-94986220D01*
X166150351Y-94986216D01*
X166150353Y-94986210D01*
X166170745Y-94958144D01*
X166179030Y-94929929D01*
X166246857Y-94796812D01*
X166312546Y-94594643D01*
X166345800Y-94384687D01*
X166345800Y-94172113D01*
X166312546Y-93962157D01*
X166246857Y-93759988D01*
X166150351Y-93570584D01*
X166150349Y-93570581D01*
X166150348Y-93570579D01*
X166150002Y-93570103D01*
X166150000Y-93570099D01*
X166025412Y-93398616D01*
X165875082Y-93248286D01*
X165703124Y-93123353D01*
X165702558Y-93123006D01*
X165700927Y-93121757D01*
X165699201Y-93120503D01*
X165699232Y-93120459D01*
X165682260Y-93107462D01*
X165671983Y-93097757D01*
X165636757Y-93037417D01*
X165639745Y-92967612D01*
X165675913Y-92913893D01*
X165683083Y-92907681D01*
X165699487Y-92895675D01*
X165703116Y-92893451D01*
X165706579Y-92890935D01*
X165725089Y-92877486D01*
X165875086Y-92768509D01*
X165875087Y-92768506D01*
X165875090Y-92768505D01*
X165875092Y-92768504D01*
X165875093Y-92768502D01*
X165875147Y-92768463D01*
X165875905Y-92767690D01*
X166025404Y-92618192D01*
X166025406Y-92618188D01*
X166025409Y-92618186D01*
X166150348Y-92446220D01*
X166150347Y-92446220D01*
X166150351Y-92446216D01*
X166150353Y-92446210D01*
X166170745Y-92418144D01*
X166179030Y-92389929D01*
X166246857Y-92256812D01*
X166312546Y-92054643D01*
X166345800Y-91844687D01*
X166345800Y-91632113D01*
X166312546Y-91422157D01*
X166246857Y-91219988D01*
X166150351Y-91030584D01*
X166150349Y-91030581D01*
X166150348Y-91030579D01*
X166150002Y-91030103D01*
X166150000Y-91030099D01*
X166025412Y-90858616D01*
X165875082Y-90708286D01*
X165703124Y-90583353D01*
X165702558Y-90583006D01*
X165700927Y-90581757D01*
X165699201Y-90580503D01*
X165699232Y-90580459D01*
X165682260Y-90567462D01*
X165671983Y-90557757D01*
X165636757Y-90497417D01*
X165639745Y-90427612D01*
X165675913Y-90373893D01*
X165683083Y-90367681D01*
X165699487Y-90355675D01*
X165703116Y-90353451D01*
X165706579Y-90350935D01*
X165725089Y-90337486D01*
X165875086Y-90228509D01*
X165875087Y-90228506D01*
X165875090Y-90228505D01*
X165875092Y-90228504D01*
X165875093Y-90228502D01*
X165875147Y-90228463D01*
X165875905Y-90227690D01*
X166025404Y-90078192D01*
X166025406Y-90078188D01*
X166025409Y-90078186D01*
X166150348Y-89906220D01*
X166150347Y-89906220D01*
X166150351Y-89906216D01*
X166150353Y-89906210D01*
X166170745Y-89878144D01*
X166179030Y-89849929D01*
X166246857Y-89716812D01*
X166312546Y-89514643D01*
X166345800Y-89304687D01*
X166345800Y-89092113D01*
X166312546Y-88882157D01*
X166246857Y-88679988D01*
X166150351Y-88490584D01*
X166150349Y-88490581D01*
X166150348Y-88490579D01*
X166150002Y-88490103D01*
X166150000Y-88490099D01*
X166025412Y-88318616D01*
X165875082Y-88168286D01*
X165703124Y-88043353D01*
X165702558Y-88043006D01*
X165700927Y-88041757D01*
X165699201Y-88040503D01*
X165699232Y-88040459D01*
X165682260Y-88027462D01*
X165671983Y-88017757D01*
X165636757Y-87957417D01*
X165639745Y-87887612D01*
X165675913Y-87833893D01*
X165683083Y-87827681D01*
X165699487Y-87815675D01*
X165703116Y-87813451D01*
X165706579Y-87810935D01*
X165725089Y-87797486D01*
X165875086Y-87688509D01*
X165875087Y-87688506D01*
X165875090Y-87688505D01*
X165875092Y-87688504D01*
X165875093Y-87688502D01*
X165875147Y-87688463D01*
X165875905Y-87687690D01*
X166025404Y-87538192D01*
X166025406Y-87538188D01*
X166025409Y-87538186D01*
X166150348Y-87366220D01*
X166150347Y-87366220D01*
X166150351Y-87366216D01*
X166150353Y-87366210D01*
X166170745Y-87338144D01*
X166179030Y-87309929D01*
X166246857Y-87176812D01*
X166312546Y-86974643D01*
X166345800Y-86764687D01*
X166345800Y-86552113D01*
X166312546Y-86342157D01*
X166246857Y-86139988D01*
X166150351Y-85950584D01*
X166150349Y-85950581D01*
X166150348Y-85950579D01*
X166150002Y-85950103D01*
X166150000Y-85950099D01*
X166025412Y-85778616D01*
X165875082Y-85628286D01*
X165703124Y-85503353D01*
X165702558Y-85503006D01*
X165700927Y-85501757D01*
X165699201Y-85500503D01*
X165699232Y-85500459D01*
X165682260Y-85487462D01*
X165671983Y-85477757D01*
X165636757Y-85417417D01*
X165639745Y-85347612D01*
X165675913Y-85293893D01*
X165683083Y-85287681D01*
X165699487Y-85275675D01*
X165703116Y-85273451D01*
X165706579Y-85270935D01*
X165725089Y-85257486D01*
X165875086Y-85148509D01*
X165875087Y-85148506D01*
X165875090Y-85148505D01*
X165875092Y-85148504D01*
X165875093Y-85148502D01*
X165875147Y-85148463D01*
X165875905Y-85147690D01*
X166025404Y-84998192D01*
X166025406Y-84998188D01*
X166025409Y-84998186D01*
X166150348Y-84826220D01*
X166150347Y-84826220D01*
X166150351Y-84826216D01*
X166150353Y-84826210D01*
X166170745Y-84798144D01*
X166179030Y-84769929D01*
X166246857Y-84636812D01*
X166312546Y-84434643D01*
X166345800Y-84224687D01*
X166345800Y-84012113D01*
X166312546Y-83802157D01*
X166246857Y-83599988D01*
X166150351Y-83410584D01*
X166150349Y-83410581D01*
X166150348Y-83410579D01*
X166150002Y-83410103D01*
X166150000Y-83410099D01*
X166025412Y-83238616D01*
X165875082Y-83088286D01*
X165703124Y-82963353D01*
X165702558Y-82963006D01*
X165700927Y-82961757D01*
X165699201Y-82960503D01*
X165699232Y-82960459D01*
X165682260Y-82947462D01*
X165671983Y-82937757D01*
X165636757Y-82877417D01*
X165639745Y-82807612D01*
X165675913Y-82753893D01*
X165683083Y-82747681D01*
X165699487Y-82735675D01*
X165703116Y-82733451D01*
X165703117Y-82733450D01*
X165725089Y-82717486D01*
X165875086Y-82608509D01*
X165875087Y-82608506D01*
X165875090Y-82608505D01*
X165875092Y-82608504D01*
X165875093Y-82608502D01*
X165875147Y-82608463D01*
X165875905Y-82607690D01*
X166025404Y-82458192D01*
X166025406Y-82458188D01*
X166025409Y-82458186D01*
X166150348Y-82286220D01*
X166150347Y-82286220D01*
X166150351Y-82286216D01*
X166150353Y-82286210D01*
X166170745Y-82258144D01*
X166179030Y-82229929D01*
X166246857Y-82096812D01*
X166312546Y-81894643D01*
X166345800Y-81684687D01*
X166345800Y-81472113D01*
X166312546Y-81262157D01*
X166246857Y-81059988D01*
X166150351Y-80870584D01*
X166150349Y-80870581D01*
X166150348Y-80870579D01*
X166150002Y-80870103D01*
X166150000Y-80870099D01*
X166025412Y-80698616D01*
X165875088Y-80548292D01*
X165875086Y-80548290D01*
X165703120Y-80423351D01*
X165682836Y-80413016D01*
X165535545Y-80337967D01*
X165535540Y-80337965D01*
X165513714Y-80326844D01*
X165513713Y-80326843D01*
X165513712Y-80326843D01*
X165416850Y-80295370D01*
X165320374Y-80264023D01*
X165315852Y-80262170D01*
X165306662Y-80260000D01*
X165301899Y-80259626D01*
X165150257Y-80235608D01*
X165129231Y-80232278D01*
X165101590Y-80227900D01*
X165101587Y-80227900D01*
X164889013Y-80227900D01*
X164889009Y-80227900D01*
X164850076Y-80234066D01*
X164840342Y-80235608D01*
X164802954Y-80241529D01*
X164679063Y-80261152D01*
X164679060Y-80261153D01*
X164488159Y-80323181D01*
X164476882Y-80326845D01*
X164287482Y-80423349D01*
X164115510Y-80548292D01*
X163965192Y-80698610D01*
X163965190Y-80698613D01*
X163857530Y-80846797D01*
X163840249Y-80870582D01*
X163743745Y-81059980D01*
X163678052Y-81262159D01*
X163644800Y-81472107D01*
X161421500Y-81472107D01*
X161421500Y-81426048D01*
X161389477Y-81223866D01*
X161378509Y-81190111D01*
X161326218Y-81029176D01*
X161326216Y-81029173D01*
X161326216Y-81029171D01*
X161292503Y-80963007D01*
X161246472Y-80872667D01*
X161233287Y-80846790D01*
X161233284Y-80846786D01*
X161233283Y-80846784D01*
X161216279Y-80823379D01*
X161216275Y-80823375D01*
X161112971Y-80681186D01*
X160968213Y-80536428D01*
X160968212Y-80536427D01*
X160968211Y-80536426D01*
X160813202Y-80423808D01*
X160813199Y-80423806D01*
X160802613Y-80416115D01*
X160802612Y-80416114D01*
X160802610Y-80416113D01*
X160730645Y-80379445D01*
X160730645Y-80379444D01*
X160730643Y-80379444D01*
X160620228Y-80323183D01*
X160620221Y-80323180D01*
X160438155Y-80264023D01*
X160425534Y-80259922D01*
X160425532Y-80259921D01*
X160425530Y-80259921D01*
X160425529Y-80259920D01*
X160250995Y-80232278D01*
X160234409Y-80229651D01*
X160223354Y-80227900D01*
X160223352Y-80227900D01*
X160018648Y-80227900D01*
X160018647Y-80227900D01*
X159994327Y-80231751D01*
X159994326Y-80231750D01*
X159816468Y-80259921D01*
X159621777Y-80323180D01*
X159621764Y-80323186D01*
X159439397Y-80416108D01*
X159439385Y-80416115D01*
X159273787Y-80536427D01*
X159273784Y-80536429D01*
X159129029Y-80681184D01*
X159129027Y-80681187D01*
X159008715Y-80846785D01*
X159008708Y-80846797D01*
X158915786Y-81029164D01*
X158915780Y-81029177D01*
X158852521Y-81223868D01*
X158820500Y-81426042D01*
X136171499Y-81426042D01*
X136139477Y-81223866D01*
X136128509Y-81190111D01*
X136076218Y-81029176D01*
X136076216Y-81029173D01*
X136076216Y-81029171D01*
X136042503Y-80963007D01*
X135996472Y-80872667D01*
X135983287Y-80846790D01*
X135983284Y-80846786D01*
X135983283Y-80846784D01*
X135966279Y-80823379D01*
X135966275Y-80823375D01*
X135862971Y-80681186D01*
X135718213Y-80536428D01*
X135718212Y-80536427D01*
X135718211Y-80536426D01*
X135563202Y-80423808D01*
X135563199Y-80423806D01*
X135552613Y-80416115D01*
X135552612Y-80416114D01*
X135552610Y-80416113D01*
X135480645Y-80379445D01*
X135480645Y-80379444D01*
X135480643Y-80379444D01*
X135370228Y-80323183D01*
X135370221Y-80323180D01*
X135188155Y-80264023D01*
X135175534Y-80259922D01*
X135175532Y-80259921D01*
X135175530Y-80259921D01*
X135175529Y-80259920D01*
X135000995Y-80232278D01*
X134984409Y-80229651D01*
X134973354Y-80227900D01*
X134973352Y-80227900D01*
X134768648Y-80227900D01*
X134768647Y-80227900D01*
X134744327Y-80231751D01*
X134744326Y-80231750D01*
X134566468Y-80259921D01*
X134371777Y-80323180D01*
X134371764Y-80323186D01*
X134189397Y-80416108D01*
X134189385Y-80416115D01*
X134023787Y-80536427D01*
X134023784Y-80536429D01*
X133879029Y-80681184D01*
X133879027Y-80681187D01*
X133758715Y-80846785D01*
X133758708Y-80846797D01*
X133665786Y-81029164D01*
X133665780Y-81029177D01*
X133602521Y-81223868D01*
X133570500Y-81426042D01*
X131338503Y-81426042D01*
X131312546Y-81262157D01*
X131246857Y-81059988D01*
X131150351Y-80870584D01*
X131150349Y-80870581D01*
X131150348Y-80870579D01*
X131150002Y-80870103D01*
X131150000Y-80870099D01*
X131025412Y-80698616D01*
X130875088Y-80548292D01*
X130875086Y-80548290D01*
X130703120Y-80423351D01*
X130682836Y-80413016D01*
X130535545Y-80337967D01*
X130535540Y-80337965D01*
X130513714Y-80326844D01*
X130513713Y-80326843D01*
X130513712Y-80326843D01*
X130416850Y-80295370D01*
X130320374Y-80264023D01*
X130315852Y-80262170D01*
X130306662Y-80260000D01*
X130301899Y-80259626D01*
X130150257Y-80235608D01*
X130129231Y-80232278D01*
X130101590Y-80227900D01*
X130101587Y-80227900D01*
X129889013Y-80227900D01*
X129889009Y-80227900D01*
X129850076Y-80234066D01*
X129840342Y-80235608D01*
X129802954Y-80241529D01*
X129679063Y-80261152D01*
X129679060Y-80261153D01*
X129488159Y-80323181D01*
X129476882Y-80326845D01*
X129287482Y-80423349D01*
X129115510Y-80548292D01*
X128965192Y-80698610D01*
X128965190Y-80698613D01*
X128857530Y-80846797D01*
X128840249Y-80870582D01*
X128743745Y-81059980D01*
X128678052Y-81262159D01*
X128644800Y-81472107D01*
X124113323Y-81472107D01*
X124101154Y-81395277D01*
X124101154Y-81395274D01*
X124034492Y-81190111D01*
X124034490Y-81190108D01*
X124034490Y-81190106D01*
X123982828Y-81088714D01*
X123936557Y-80997901D01*
X123809759Y-80823379D01*
X123657221Y-80670841D01*
X123482699Y-80544043D01*
X123467750Y-80536426D01*
X123290493Y-80446109D01*
X123098852Y-80383840D01*
X123098841Y-80383837D01*
X123085326Y-80379446D01*
X123085324Y-80379445D01*
X123085322Y-80379445D01*
X123070925Y-80377164D01*
X123070918Y-80377163D01*
X122913001Y-80352151D01*
X122872266Y-80345700D01*
X122872265Y-80345700D01*
X122206535Y-80345700D01*
X122206534Y-80345700D01*
X122166439Y-80352050D01*
X121993479Y-80379444D01*
X121993480Y-80379444D01*
X121993477Y-80379445D01*
X121858356Y-80423349D01*
X121788305Y-80446110D01*
X121596094Y-80544046D01*
X121580382Y-80555461D01*
X121514575Y-80578939D01*
X121446522Y-80563112D01*
X121397829Y-80513004D01*
X121383500Y-80455141D01*
X121383500Y-78872744D01*
X121403185Y-78805705D01*
X121419815Y-78785067D01*
X121944955Y-78259926D01*
X122006276Y-78226443D01*
X122032637Y-78223609D01*
X129686408Y-78223939D01*
X129726090Y-78222381D01*
X129745493Y-78220854D01*
X129784910Y-78216188D01*
X129919147Y-78194927D01*
X129938545Y-78193400D01*
X130052044Y-78193400D01*
X130071442Y-78194927D01*
X130205856Y-78216216D01*
X130245253Y-78220879D01*
X130264646Y-78222406D01*
X130298174Y-78223724D01*
X130304301Y-78223966D01*
X130304853Y-78223966D01*
X134564714Y-78224150D01*
X134604396Y-78222592D01*
X134623799Y-78221065D01*
X134663216Y-78216400D01*
X134798793Y-78194927D01*
X134818191Y-78193400D01*
X134923818Y-78193400D01*
X134943216Y-78194927D01*
X135078948Y-78216425D01*
X135118346Y-78221089D01*
X135137739Y-78222616D01*
X135173088Y-78224006D01*
X135177395Y-78224176D01*
X135177433Y-78224176D01*
X135609102Y-78224195D01*
X135663145Y-78221300D01*
X135689503Y-78218467D01*
X135742912Y-78209814D01*
X135877723Y-78159539D01*
X135939047Y-78126057D01*
X136054233Y-78039838D01*
X136439104Y-77655001D01*
X136475277Y-77614733D01*
X136491915Y-77594087D01*
X136523567Y-77550194D01*
X136583338Y-77419317D01*
X136603023Y-77352278D01*
X136603024Y-77352274D01*
X136623500Y-77209858D01*
X136623500Y-75331362D01*
X136620603Y-75277322D01*
X136617769Y-75250964D01*
X136609114Y-75197552D01*
X136558832Y-75062743D01*
X136525347Y-75001420D01*
X136439123Y-74886239D01*
X136439118Y-74886234D01*
X136439113Y-74886228D01*
X136003776Y-74450892D01*
X136003761Y-74450877D01*
X136003737Y-74450855D01*
X135963519Y-74414728D01*
X135963507Y-74414718D01*
X135942856Y-74398076D01*
X135898974Y-74366433D01*
X135768100Y-74306663D01*
X135701055Y-74286976D01*
X135653582Y-74280150D01*
X135558638Y-74266500D01*
X135558636Y-74266500D01*
X122103946Y-74266500D01*
X122036907Y-74246815D01*
X122016265Y-74230181D01*
X121847447Y-74061363D01*
X158218500Y-74061363D01*
X158218500Y-76753298D01*
X158221413Y-76807470D01*
X158224266Y-76833918D01*
X158224269Y-76833944D01*
X158232974Y-76887489D01*
X158232976Y-76887496D01*
X158283348Y-77022275D01*
X158315782Y-77081579D01*
X158316561Y-77083068D01*
X158316873Y-77083573D01*
X158316876Y-77083579D01*
X158403178Y-77198702D01*
X159218629Y-78013046D01*
X159258792Y-78049084D01*
X159279375Y-78065658D01*
X159279387Y-78065666D01*
X159279391Y-78065670D01*
X159299298Y-78080019D01*
X159323115Y-78097187D01*
X159453992Y-78156958D01*
X159521031Y-78176643D01*
X159521035Y-78176644D01*
X159663451Y-78197120D01*
X159663454Y-78197120D01*
X159985404Y-78197120D01*
X159985414Y-78197120D01*
X160010199Y-78196145D01*
X160025076Y-78195561D01*
X160044473Y-78194034D01*
X160044478Y-78194033D01*
X160046897Y-78193843D01*
X160046909Y-78194002D01*
X160057139Y-78193400D01*
X160184861Y-78193400D01*
X160195090Y-78194002D01*
X160195103Y-78193843D01*
X160197521Y-78194033D01*
X160197527Y-78194034D01*
X160216924Y-78195561D01*
X160230148Y-78196080D01*
X160256586Y-78197120D01*
X164855769Y-78197120D01*
X164855779Y-78197120D01*
X164880564Y-78196145D01*
X164895441Y-78195561D01*
X164914838Y-78194034D01*
X164914843Y-78194033D01*
X164917262Y-78193843D01*
X164917274Y-78194002D01*
X164927504Y-78193400D01*
X165063096Y-78193400D01*
X165073325Y-78194002D01*
X165073338Y-78193843D01*
X165075756Y-78194033D01*
X165075762Y-78194034D01*
X165095159Y-78195561D01*
X165108383Y-78196080D01*
X165134821Y-78197120D01*
X166166246Y-78197120D01*
X166166251Y-78197120D01*
X166208863Y-78194836D01*
X166220243Y-78194227D01*
X166220252Y-78194227D01*
X166220260Y-78194226D01*
X166220262Y-78194226D01*
X166223826Y-78193843D01*
X166246590Y-78191397D01*
X166246604Y-78191394D01*
X166246613Y-78191394D01*
X166300018Y-78182742D01*
X166300020Y-78182741D01*
X166300025Y-78182740D01*
X166362243Y-78159538D01*
X166434830Y-78132470D01*
X166496155Y-78098989D01*
X166611342Y-78012772D01*
X178857096Y-65768546D01*
X178893281Y-65728264D01*
X178909920Y-65707616D01*
X178941567Y-65663730D01*
X179001338Y-65532853D01*
X179021023Y-65465814D01*
X179021024Y-65465810D01*
X179041500Y-65323394D01*
X179041500Y-54202762D01*
X179061185Y-54135723D01*
X179077830Y-54115070D01*
X184296171Y-48898042D01*
X186702800Y-48898042D01*
X186702800Y-49102756D01*
X186734821Y-49304930D01*
X186798080Y-49499621D01*
X186798086Y-49499634D01*
X186891008Y-49682001D01*
X186891009Y-49682002D01*
X186891015Y-49682013D01*
X187011328Y-49847613D01*
X187156086Y-49992371D01*
X187309607Y-50103908D01*
X187321690Y-50112687D01*
X187400282Y-50152732D01*
X187402010Y-50153683D01*
X187404050Y-50155737D01*
X187427345Y-50172160D01*
X187436759Y-50181052D01*
X187447558Y-50199555D01*
X187451240Y-50203263D01*
X187452117Y-50207366D01*
X187471979Y-50241396D01*
X187468983Y-50311201D01*
X187432821Y-50364905D01*
X187425819Y-50370973D01*
X187400906Y-50387750D01*
X187321687Y-50428114D01*
X187321685Y-50428115D01*
X187156087Y-50548427D01*
X187156084Y-50548429D01*
X187011329Y-50693184D01*
X187011327Y-50693187D01*
X186891015Y-50858785D01*
X186891008Y-50858797D01*
X186798086Y-51041164D01*
X186798080Y-51041177D01*
X186734821Y-51235868D01*
X186702800Y-51438042D01*
X186702800Y-51642756D01*
X186734821Y-51844930D01*
X186734822Y-51844934D01*
X186763994Y-51934716D01*
X186798080Y-52039621D01*
X186798086Y-52039634D01*
X186891008Y-52222001D01*
X186891009Y-52222002D01*
X186891015Y-52222013D01*
X187011328Y-52387613D01*
X187156086Y-52532371D01*
X187275838Y-52619374D01*
X187321690Y-52652687D01*
X187392935Y-52688988D01*
X187398496Y-52691821D01*
X187399995Y-52692878D01*
X187400184Y-52692991D01*
X187400238Y-52693049D01*
X187427340Y-52712156D01*
X187431303Y-52715898D01*
X187436760Y-52721052D01*
X187471979Y-52781396D01*
X187468983Y-52851202D01*
X187432821Y-52904905D01*
X187425819Y-52910973D01*
X187400906Y-52927750D01*
X187321687Y-52968114D01*
X187321685Y-52968115D01*
X187156087Y-53088427D01*
X187156084Y-53088429D01*
X187011329Y-53233184D01*
X187011327Y-53233187D01*
X186891015Y-53398785D01*
X186891008Y-53398797D01*
X186798086Y-53581164D01*
X186798080Y-53581177D01*
X186734821Y-53775868D01*
X186702800Y-53978042D01*
X186702800Y-54182756D01*
X186734821Y-54384930D01*
X186734822Y-54384934D01*
X186763994Y-54474716D01*
X186798080Y-54579621D01*
X186798086Y-54579634D01*
X186891008Y-54762001D01*
X186891009Y-54762002D01*
X186891015Y-54762013D01*
X186958565Y-54854990D01*
X187011327Y-54927611D01*
X187011329Y-54927614D01*
X187156087Y-55072372D01*
X187175060Y-55086156D01*
X187309857Y-55184090D01*
X187321690Y-55192687D01*
X187398496Y-55231821D01*
X187427345Y-55252160D01*
X187436759Y-55261052D01*
X187471979Y-55321396D01*
X187468983Y-55391201D01*
X187432821Y-55444905D01*
X187425819Y-55450973D01*
X187400906Y-55467750D01*
X187321687Y-55508114D01*
X187321685Y-55508115D01*
X187156087Y-55628427D01*
X187156084Y-55628429D01*
X187011329Y-55773184D01*
X187011327Y-55773187D01*
X186891015Y-55938785D01*
X186891008Y-55938797D01*
X186798086Y-56121164D01*
X186798080Y-56121177D01*
X186734821Y-56315868D01*
X186702800Y-56518042D01*
X186702800Y-56722756D01*
X186734821Y-56924930D01*
X186798080Y-57119621D01*
X186798086Y-57119634D01*
X186891008Y-57302001D01*
X186891009Y-57302002D01*
X186891015Y-57302013D01*
X187011328Y-57467613D01*
X187156086Y-57612371D01*
X187311049Y-57724956D01*
X187321690Y-57732687D01*
X187409826Y-57777594D01*
X187411338Y-57778418D01*
X187413176Y-57780253D01*
X187437152Y-57797155D01*
X187446568Y-57806048D01*
X187457107Y-57824104D01*
X187460788Y-57827778D01*
X187461706Y-57831983D01*
X187481790Y-57866390D01*
X187478798Y-57936195D01*
X187442634Y-57989905D01*
X187435632Y-57995973D01*
X187410719Y-58012750D01*
X187321687Y-58058114D01*
X187321685Y-58058115D01*
X187156087Y-58178427D01*
X187156084Y-58178429D01*
X187011329Y-58323184D01*
X187011327Y-58323187D01*
X186891015Y-58488785D01*
X186891008Y-58488797D01*
X186798086Y-58671164D01*
X186798080Y-58671177D01*
X186734821Y-58865868D01*
X186702800Y-59068042D01*
X186702800Y-59272756D01*
X186734821Y-59474930D01*
X186798080Y-59669621D01*
X186798086Y-59669634D01*
X186891008Y-59852001D01*
X186891009Y-59852002D01*
X186891015Y-59852013D01*
X187011328Y-60017613D01*
X187156086Y-60162371D01*
X187311049Y-60274956D01*
X187321690Y-60282687D01*
X187437907Y-60341903D01*
X187498454Y-60372753D01*
X187499343Y-60373224D01*
X187499549Y-60373425D01*
X187502929Y-60375062D01*
X187504937Y-60376060D01*
X187508703Y-60377122D01*
X187548788Y-60390146D01*
X187608435Y-60409526D01*
X187608436Y-60409527D01*
X187651912Y-60423653D01*
X187698765Y-60438877D01*
X187799857Y-60454888D01*
X187900948Y-60470900D01*
X187900949Y-60470900D01*
X188105651Y-60470900D01*
X188105652Y-60470900D01*
X188307834Y-60438877D01*
X188502519Y-60375620D01*
X188684910Y-60282687D01*
X188777890Y-60215132D01*
X188850513Y-60162371D01*
X188850513Y-60162369D01*
X188850572Y-60162327D01*
X188851331Y-60161553D01*
X188995266Y-60017619D01*
X188995268Y-60017615D01*
X188995271Y-60017613D01*
X189048030Y-59944993D01*
X189048032Y-59944991D01*
X189071472Y-59912727D01*
X189115587Y-59852010D01*
X189208520Y-59669619D01*
X189271777Y-59474934D01*
X189303800Y-59272752D01*
X189303800Y-59068048D01*
X189271777Y-58865866D01*
X189271776Y-58865862D01*
X189271776Y-58865861D01*
X189211133Y-58679223D01*
X189208520Y-58671181D01*
X189208518Y-58671178D01*
X189208518Y-58671176D01*
X189206277Y-58666778D01*
X189205967Y-58665983D01*
X189205232Y-58664727D01*
X189174803Y-58605007D01*
X189115587Y-58488790D01*
X189107856Y-58478149D01*
X188995271Y-58323186D01*
X188850513Y-58178428D01*
X188850512Y-58178427D01*
X188850509Y-58178424D01*
X188684923Y-58058121D01*
X188684912Y-58058114D01*
X188677339Y-58054254D01*
X188677339Y-58054255D01*
X188598288Y-58013976D01*
X188569443Y-57993641D01*
X188560032Y-57984753D01*
X188524808Y-57924412D01*
X188527800Y-57854606D01*
X188563968Y-57800891D01*
X188568280Y-57797155D01*
X188570974Y-57794819D01*
X188595883Y-57778048D01*
X188684910Y-57732687D01*
X188706070Y-57717313D01*
X188850513Y-57612371D01*
X188850514Y-57612369D01*
X188850574Y-57612326D01*
X188851336Y-57611548D01*
X188995266Y-57467619D01*
X188995268Y-57467615D01*
X188995271Y-57467613D01*
X189048030Y-57394993D01*
X189048032Y-57394991D01*
X189071472Y-57362727D01*
X189115587Y-57302010D01*
X189208520Y-57119619D01*
X189271777Y-56924934D01*
X189303800Y-56722752D01*
X189303800Y-56518048D01*
X189271777Y-56315866D01*
X189271776Y-56315862D01*
X189271776Y-56315861D01*
X189211133Y-56129223D01*
X189208520Y-56121181D01*
X189208518Y-56121178D01*
X189208518Y-56121176D01*
X189206277Y-56116778D01*
X189205967Y-56115983D01*
X189205232Y-56114727D01*
X189174803Y-56055007D01*
X189115587Y-55938790D01*
X189107856Y-55928149D01*
X188995271Y-55773186D01*
X188850513Y-55628428D01*
X188850512Y-55628427D01*
X188850509Y-55628424D01*
X188684916Y-55508116D01*
X188684637Y-55507974D01*
X188678306Y-55504748D01*
X188608099Y-55468975D01*
X188579256Y-55448642D01*
X188569838Y-55439747D01*
X188534620Y-55379405D01*
X188537615Y-55309600D01*
X188573781Y-55255891D01*
X188579710Y-55250754D01*
X188580787Y-55249819D01*
X188605696Y-55233048D01*
X188608106Y-55231820D01*
X188684910Y-55192687D01*
X188706070Y-55177313D01*
X188850513Y-55072371D01*
X188850514Y-55072369D01*
X188850574Y-55072326D01*
X188851336Y-55071548D01*
X188995266Y-54927619D01*
X188995268Y-54927615D01*
X188995271Y-54927613D01*
X189048030Y-54854993D01*
X189048032Y-54854991D01*
X189083028Y-54806823D01*
X189115587Y-54762010D01*
X189208520Y-54579619D01*
X189271777Y-54384934D01*
X189303800Y-54182752D01*
X189303800Y-53978048D01*
X189271777Y-53775866D01*
X189271776Y-53775862D01*
X189271776Y-53775861D01*
X189211133Y-53589223D01*
X189208520Y-53581181D01*
X189208518Y-53581178D01*
X189208518Y-53581176D01*
X189206277Y-53576778D01*
X189205967Y-53575983D01*
X189205232Y-53574727D01*
X189174803Y-53515007D01*
X189115587Y-53398790D01*
X189107681Y-53387908D01*
X189076466Y-53344944D01*
X188995272Y-53233187D01*
X188850509Y-53088424D01*
X188684916Y-52968116D01*
X188684637Y-52967974D01*
X188678306Y-52964748D01*
X188608099Y-52928975D01*
X188579256Y-52908642D01*
X188569838Y-52899747D01*
X188534620Y-52839405D01*
X188537615Y-52769600D01*
X188573774Y-52715898D01*
X188580779Y-52709827D01*
X188605686Y-52693052D01*
X188684910Y-52652687D01*
X188815815Y-52557580D01*
X188850513Y-52532371D01*
X188850515Y-52532368D01*
X188850519Y-52532366D01*
X188850521Y-52532363D01*
X188850575Y-52532324D01*
X188851332Y-52531552D01*
X188995266Y-52387619D01*
X188995268Y-52387615D01*
X188995271Y-52387613D01*
X189048030Y-52314993D01*
X189048032Y-52314991D01*
X189083028Y-52266823D01*
X189115587Y-52222010D01*
X189208520Y-52039619D01*
X189271777Y-51844934D01*
X189303800Y-51642752D01*
X189303800Y-51438048D01*
X189271777Y-51235866D01*
X189271776Y-51235862D01*
X189271776Y-51235861D01*
X189211133Y-51049223D01*
X189208520Y-51041181D01*
X189208518Y-51041178D01*
X189208518Y-51041176D01*
X189206277Y-51036778D01*
X189205967Y-51035983D01*
X189205232Y-51034727D01*
X189174803Y-50975007D01*
X189115587Y-50858790D01*
X189107681Y-50847908D01*
X188995271Y-50693186D01*
X188850513Y-50548428D01*
X188850512Y-50548427D01*
X188850509Y-50548424D01*
X188684916Y-50428116D01*
X188684637Y-50427974D01*
X188678306Y-50424748D01*
X188608099Y-50388975D01*
X188579256Y-50368642D01*
X188569838Y-50359747D01*
X188534620Y-50299405D01*
X188537615Y-50229600D01*
X188573781Y-50175891D01*
X188580786Y-50169821D01*
X188605696Y-50153048D01*
X188684910Y-50112687D01*
X188706070Y-50097313D01*
X188850513Y-49992371D01*
X188850514Y-49992369D01*
X188850574Y-49992326D01*
X188851336Y-49991548D01*
X188995266Y-49847619D01*
X188995268Y-49847615D01*
X188995271Y-49847613D01*
X189048030Y-49774993D01*
X189048032Y-49774991D01*
X189071472Y-49742727D01*
X189115587Y-49682010D01*
X189208520Y-49499619D01*
X189271777Y-49304934D01*
X189303800Y-49102752D01*
X189303800Y-48898048D01*
X189271777Y-48695866D01*
X189271776Y-48695862D01*
X189271776Y-48695861D01*
X189211133Y-48509223D01*
X189208520Y-48501181D01*
X189208518Y-48501178D01*
X189208518Y-48501176D01*
X189206277Y-48496778D01*
X189205967Y-48495983D01*
X189205232Y-48494727D01*
X189174803Y-48435007D01*
X189170960Y-48427464D01*
X189115587Y-48318790D01*
X189107856Y-48308149D01*
X188995271Y-48153186D01*
X188850513Y-48008428D01*
X188850512Y-48008427D01*
X188850511Y-48008426D01*
X188695509Y-47895813D01*
X188695505Y-47895810D01*
X188684913Y-47888115D01*
X188684912Y-47888114D01*
X188684910Y-47888113D01*
X188656471Y-47873622D01*
X188627954Y-47859091D01*
X188627953Y-47859091D01*
X188502523Y-47795181D01*
X188307834Y-47731922D01*
X188307832Y-47731921D01*
X188307830Y-47731921D01*
X188307829Y-47731920D01*
X188133295Y-47704278D01*
X188116709Y-47701651D01*
X188105654Y-47699900D01*
X188105652Y-47699900D01*
X187900948Y-47699900D01*
X187900947Y-47699900D01*
X187876627Y-47703751D01*
X187876626Y-47703750D01*
X187698768Y-47731921D01*
X187504077Y-47795180D01*
X187504064Y-47795186D01*
X187321697Y-47888108D01*
X187321685Y-47888115D01*
X187156087Y-48008427D01*
X187156084Y-48008429D01*
X187011329Y-48153184D01*
X187011327Y-48153187D01*
X186891015Y-48318785D01*
X186891008Y-48318797D01*
X186798086Y-48501164D01*
X186798080Y-48501177D01*
X186734821Y-48695868D01*
X186702800Y-48898042D01*
X184296171Y-48898042D01*
X187599490Y-45595554D01*
X187660816Y-45562078D01*
X187687174Y-45559248D01*
X189406556Y-45559492D01*
X189460630Y-45556599D01*
X189487006Y-45553765D01*
X189540455Y-45545106D01*
X189675264Y-45494824D01*
X189736587Y-45461339D01*
X189851768Y-45375115D01*
X190160124Y-45066759D01*
X190196276Y-45026515D01*
X190212909Y-45005876D01*
X190244563Y-44961981D01*
X190304336Y-44831104D01*
X190324022Y-44764065D01*
X190333707Y-44696718D01*
X190344500Y-44621658D01*
X190344501Y-44621650D01*
X190344503Y-44548500D01*
X190344540Y-42946393D01*
X190341653Y-42892436D01*
X190338828Y-42866115D01*
X190330198Y-42812769D01*
X190300839Y-42733978D01*
X190279962Y-42677945D01*
X190279961Y-42677943D01*
X190246497Y-42616612D01*
X190246496Y-42616610D01*
X190160311Y-42501402D01*
X190160308Y-42501399D01*
X190160306Y-42501396D01*
X189852091Y-42192978D01*
X189852088Y-42192975D01*
X189811819Y-42156784D01*
X189811818Y-42156783D01*
X189811807Y-42156774D01*
X189811798Y-42156766D01*
X189791130Y-42140104D01*
X189747175Y-42108401D01*
X189616299Y-42048626D01*
X189567955Y-42034429D01*
X189551409Y-42029570D01*
X189549814Y-42029070D01*
X189549253Y-42028937D01*
X189406848Y-42008459D01*
X189406840Y-42008458D01*
X182398178Y-42008317D01*
X182397474Y-42008317D01*
X182397473Y-42008317D01*
X182397469Y-42008317D01*
X182343462Y-42011210D01*
X182343448Y-42011211D01*
X182317059Y-42014048D01*
X182317041Y-42014051D01*
X182263659Y-42022701D01*
X182263653Y-42022702D01*
X182128857Y-42072977D01*
X182128844Y-42072983D01*
X182072688Y-42103645D01*
X182070917Y-42104506D01*
X182067515Y-42106470D01*
X181952341Y-42192690D01*
X181952337Y-42192693D01*
X171102869Y-53042244D01*
X171066692Y-53082521D01*
X171050071Y-53103149D01*
X171050056Y-53103168D01*
X171018433Y-53147025D01*
X171018430Y-53147029D01*
X170958664Y-53277896D01*
X170938976Y-53344944D01*
X170918500Y-53487363D01*
X170918500Y-61049254D01*
X170898815Y-61116293D01*
X170882181Y-61136935D01*
X158402892Y-73616223D01*
X158402855Y-73616262D01*
X158366728Y-73656480D01*
X158366718Y-73656492D01*
X158350076Y-73677143D01*
X158318433Y-73721025D01*
X158258663Y-73851899D01*
X158238976Y-73918944D01*
X158218500Y-74061363D01*
X121847447Y-74061363D01*
X121419819Y-73633735D01*
X121386334Y-73572412D01*
X121383500Y-73546054D01*
X121383500Y-66536157D01*
X121403185Y-66469118D01*
X121455989Y-66423363D01*
X121525147Y-66413419D01*
X121580387Y-66435840D01*
X121596099Y-66447256D01*
X121788306Y-66545190D01*
X121788308Y-66545190D01*
X121788311Y-66545192D01*
X121993474Y-66611854D01*
X122012703Y-66614899D01*
X122073212Y-66624483D01*
X122073311Y-66624498D01*
X122073373Y-66624508D01*
X122206534Y-66645600D01*
X122206539Y-66645600D01*
X122872265Y-66645600D01*
X122872266Y-66645600D01*
X122990630Y-66626852D01*
X123085326Y-66611854D01*
X123290489Y-66545192D01*
X123482699Y-66447257D01*
X123657221Y-66320459D01*
X123809759Y-66167921D01*
X123936557Y-65993399D01*
X124034492Y-65801189D01*
X124101154Y-65596026D01*
X124129633Y-65416217D01*
X124134900Y-65382966D01*
X124134900Y-65167233D01*
X124101154Y-64954177D01*
X124101154Y-64954174D01*
X124034492Y-64749011D01*
X124034490Y-64749008D01*
X124034490Y-64749006D01*
X123936556Y-64556800D01*
X123867680Y-64462000D01*
X123844201Y-64396197D01*
X123860026Y-64328143D01*
X123908571Y-64280285D01*
X123950580Y-64257347D01*
X124065761Y-64171123D01*
X124374123Y-63862761D01*
X124410288Y-63822500D01*
X124426922Y-63801858D01*
X124458567Y-63757974D01*
X124518338Y-63627097D01*
X124538023Y-63560058D01*
X124538024Y-63560054D01*
X124558500Y-63417638D01*
X124558500Y-62123362D01*
X124555603Y-62069322D01*
X124552769Y-62042964D01*
X124544114Y-61989552D01*
X124493832Y-61854743D01*
X124460347Y-61793420D01*
X124374123Y-61678239D01*
X124374118Y-61678234D01*
X124374113Y-61678228D01*
X123938776Y-61242892D01*
X123938761Y-61242877D01*
X123938737Y-61242855D01*
X123898519Y-61206728D01*
X123898507Y-61206718D01*
X123877856Y-61190076D01*
X123833974Y-61158433D01*
X123703100Y-61098663D01*
X123636055Y-61078976D01*
X123588582Y-61072150D01*
X123493638Y-61058500D01*
X123493636Y-61058500D01*
X122154746Y-61058500D01*
X122087707Y-61038815D01*
X122067065Y-61022181D01*
X121419819Y-60374935D01*
X121386334Y-60313612D01*
X121383500Y-60287254D01*
X121383500Y-55175057D01*
X121403185Y-55108018D01*
X121455989Y-55062263D01*
X121525147Y-55052319D01*
X121580387Y-55074740D01*
X121596099Y-55086156D01*
X121788306Y-55184090D01*
X121788308Y-55184090D01*
X121788311Y-55184092D01*
X121993474Y-55250754D01*
X122002352Y-55252160D01*
X122073212Y-55263383D01*
X122073311Y-55263398D01*
X122073373Y-55263408D01*
X122206534Y-55284500D01*
X122206539Y-55284500D01*
X122872265Y-55284500D01*
X122872266Y-55284500D01*
X122990630Y-55265752D01*
X123085326Y-55250754D01*
X123290489Y-55184092D01*
X123482699Y-55086157D01*
X123657221Y-54959359D01*
X123809759Y-54806821D01*
X123936557Y-54632299D01*
X124034492Y-54440089D01*
X124101154Y-54234926D01*
X124109418Y-54182751D01*
X124116152Y-54140232D01*
X124116152Y-54140230D01*
X124134900Y-54021864D01*
X124134900Y-53806134D01*
X124102681Y-53602716D01*
X124102680Y-53602710D01*
X124102680Y-53602711D01*
X124101154Y-53593077D01*
X124101154Y-53593074D01*
X124034492Y-53387911D01*
X124034490Y-53387908D01*
X124034490Y-53387906D01*
X123936556Y-53195700D01*
X123809759Y-53021179D01*
X123657221Y-52868641D01*
X123500526Y-52754795D01*
X123475220Y-52730202D01*
X123468164Y-52721052D01*
X123466744Y-52719210D01*
X123441394Y-52654103D01*
X123455265Y-52585631D01*
X123458532Y-52579439D01*
X123495309Y-52536994D01*
X123657221Y-52419359D01*
X123809759Y-52266821D01*
X123936557Y-52092299D01*
X124034492Y-51900089D01*
X124101154Y-51694926D01*
X124116152Y-51600230D01*
X124134900Y-51481866D01*
X124134900Y-51266133D01*
X124101154Y-51053077D01*
X124101154Y-51053074D01*
X124034492Y-50847911D01*
X124034490Y-50847908D01*
X124034490Y-50847906D01*
X123936556Y-50655700D01*
X123809759Y-50481179D01*
X123657221Y-50328641D01*
X123482699Y-50201843D01*
X123431765Y-50175891D01*
X123290493Y-50103909D01*
X123098852Y-50041640D01*
X123098841Y-50041637D01*
X123085326Y-50037246D01*
X123085324Y-50037245D01*
X123085322Y-50037245D01*
X123070925Y-50034964D01*
X123070918Y-50034963D01*
X122913001Y-50009951D01*
X122872266Y-50003500D01*
X122872265Y-50003500D01*
X122206535Y-50003500D01*
X122206534Y-50003500D01*
X122157145Y-50011322D01*
X121993480Y-50037244D01*
X121788305Y-50103910D01*
X121596099Y-50201843D01*
X121580386Y-50213260D01*
X121514579Y-50236740D01*
X121446525Y-50220915D01*
X121397830Y-50170809D01*
X121383500Y-50112942D01*
X121383500Y-48515145D01*
X121403185Y-48448106D01*
X121419819Y-48427464D01*
X121863864Y-47983419D01*
X121925187Y-47949934D01*
X121951545Y-47947100D01*
X123417440Y-47947100D01*
X123427586Y-47946555D01*
X123471478Y-47944203D01*
X123471486Y-47944202D01*
X123471488Y-47944202D01*
X123471489Y-47944202D01*
X123478482Y-47943449D01*
X123497836Y-47941369D01*
X123497846Y-47941367D01*
X123497849Y-47941367D01*
X123507448Y-47939811D01*
X123551248Y-47932714D01*
X123686057Y-47882432D01*
X123747380Y-47848947D01*
X123862561Y-47762723D01*
X124145523Y-47479761D01*
X124181688Y-47439500D01*
X124198322Y-47418858D01*
X124229967Y-47374974D01*
X124289738Y-47244097D01*
X124309423Y-47177058D01*
X124309424Y-47177054D01*
X124329900Y-47034638D01*
X124329900Y-45460962D01*
X124327003Y-45406922D01*
X124324169Y-45380564D01*
X124323284Y-45375105D01*
X124315514Y-45327154D01*
X124315514Y-45327152D01*
X124265233Y-45192347D01*
X124265232Y-45192343D01*
X124231747Y-45131020D01*
X124145523Y-45015839D01*
X124145518Y-45015834D01*
X124145513Y-45015828D01*
X123862576Y-44732892D01*
X123862570Y-44732886D01*
X123862561Y-44732877D01*
X123862537Y-44732855D01*
X123822319Y-44696728D01*
X123822307Y-44696718D01*
X123801656Y-44680076D01*
X123757774Y-44648433D01*
X123626900Y-44588663D01*
X123559855Y-44568976D01*
X123512382Y-44562150D01*
X123417438Y-44548500D01*
X123417436Y-44548500D01*
X119710160Y-44548500D01*
X119656111Y-44551397D01*
X119656110Y-44551397D01*
X119629777Y-44554229D01*
X119629750Y-44554232D01*
X119576354Y-44562885D01*
X119576352Y-44562885D01*
X119441547Y-44613166D01*
X119380222Y-44646651D01*
X119265040Y-44732876D01*
X119265028Y-44732886D01*
X117407292Y-46590623D01*
X117407255Y-46590662D01*
X117371128Y-46630880D01*
X117371118Y-46630892D01*
X117354476Y-46651543D01*
X117322833Y-46695425D01*
X117263063Y-46826299D01*
X117243376Y-46893344D01*
X117222900Y-47035763D01*
X115881902Y-47035763D01*
X115880500Y-36866644D01*
X115880565Y-36862636D01*
X115880701Y-36858477D01*
X115880895Y-36854547D01*
X115887488Y-36753984D01*
X116475500Y-36753984D01*
X116475500Y-36967184D01*
X116507326Y-37168123D01*
X116507327Y-37168131D01*
X116508853Y-37177771D01*
X116574734Y-37380530D01*
X116577080Y-37385374D01*
X116578025Y-37386988D01*
X116671528Y-37570498D01*
X116796846Y-37742982D01*
X116947603Y-37893739D01*
X117120087Y-38019057D01*
X117310053Y-38115849D01*
X117310055Y-38115850D01*
X117499179Y-38177299D01*
X117499182Y-38177301D01*
X117499182Y-38177300D01*
X117512821Y-38181732D01*
X117723399Y-38215085D01*
X117723400Y-38215085D01*
X117936600Y-38215085D01*
X117936601Y-38215085D01*
X118147179Y-38181732D01*
X118147182Y-38181731D01*
X118147183Y-38181731D01*
X118349944Y-38115850D01*
X118349944Y-38115849D01*
X118359225Y-38112834D01*
X118359226Y-38112833D01*
X118359231Y-38112832D01*
X118367216Y-38110237D01*
X118376465Y-38102337D01*
X118539913Y-38019057D01*
X118712397Y-37893739D01*
X118863154Y-37742982D01*
X118988472Y-37570498D01*
X119085264Y-37380532D01*
X119151147Y-37177764D01*
X119184500Y-36967186D01*
X119184500Y-36753984D01*
X193645500Y-36753984D01*
X193645500Y-36967184D01*
X193677326Y-37168123D01*
X193677327Y-37168131D01*
X193678853Y-37177771D01*
X193744734Y-37380530D01*
X193747080Y-37385374D01*
X193748025Y-37386988D01*
X193841528Y-37570498D01*
X193966846Y-37742982D01*
X194117603Y-37893739D01*
X194290087Y-38019057D01*
X194480053Y-38115849D01*
X194480055Y-38115850D01*
X194669179Y-38177299D01*
X194669182Y-38177301D01*
X194669182Y-38177300D01*
X194682821Y-38181732D01*
X194893399Y-38215085D01*
X194893400Y-38215085D01*
X195106600Y-38215085D01*
X195106601Y-38215085D01*
X195317179Y-38181732D01*
X195317182Y-38181731D01*
X195317183Y-38181731D01*
X195519944Y-38115850D01*
X195519944Y-38115849D01*
X195529225Y-38112834D01*
X195529226Y-38112833D01*
X195529231Y-38112832D01*
X195537216Y-38110237D01*
X195546465Y-38102337D01*
X195709913Y-38019057D01*
X195882397Y-37893739D01*
X196033154Y-37742982D01*
X196158472Y-37570498D01*
X196255264Y-37380532D01*
X196321147Y-37177764D01*
X196354500Y-36967186D01*
X196354500Y-36753984D01*
X196321147Y-36543406D01*
X196321146Y-36543402D01*
X196321146Y-36543401D01*
X196255265Y-36340640D01*
X196255264Y-36340638D01*
X196252919Y-36335796D01*
X196251973Y-36334180D01*
X196158471Y-36150671D01*
X196156106Y-36147416D01*
X196137819Y-36122245D01*
X196137819Y-36122246D01*
X196033154Y-35978188D01*
X195882397Y-35827431D01*
X195709913Y-35702113D01*
X195661287Y-35677337D01*
X195526403Y-35608610D01*
X195524789Y-35607665D01*
X195519945Y-35605319D01*
X195317182Y-35539437D01*
X195176793Y-35517202D01*
X195106605Y-35506085D01*
X195106601Y-35506085D01*
X194893399Y-35506085D01*
X194893395Y-35506085D01*
X194823206Y-35517201D01*
X194823206Y-35517202D01*
X194692460Y-35537911D01*
X194692452Y-35537911D01*
X194692453Y-35537912D01*
X194682812Y-35539438D01*
X194480053Y-35605319D01*
X194475209Y-35607665D01*
X194473595Y-35608610D01*
X194290085Y-35702113D01*
X194183852Y-35779296D01*
X194117601Y-35827432D01*
X194117598Y-35827434D01*
X193966848Y-35978184D01*
X193841528Y-36150670D01*
X193748025Y-36334180D01*
X193747080Y-36335794D01*
X193744734Y-36340638D01*
X193678853Y-36543397D01*
X193677327Y-36553038D01*
X193677326Y-36553045D01*
X193645500Y-36753984D01*
X119184500Y-36753984D01*
X119151147Y-36543406D01*
X119151146Y-36543402D01*
X119151146Y-36543401D01*
X119085265Y-36340640D01*
X119085264Y-36340638D01*
X119082919Y-36335796D01*
X119081973Y-36334180D01*
X118988471Y-36150671D01*
X118986106Y-36147416D01*
X118967819Y-36122245D01*
X118967819Y-36122246D01*
X118863154Y-35978188D01*
X118712397Y-35827431D01*
X118539913Y-35702113D01*
X118491287Y-35677337D01*
X118356403Y-35608610D01*
X118354789Y-35607665D01*
X118349945Y-35605319D01*
X118147182Y-35539437D01*
X118006793Y-35517202D01*
X117936605Y-35506085D01*
X117936601Y-35506085D01*
X117723399Y-35506085D01*
X117723395Y-35506085D01*
X117653206Y-35517201D01*
X117653206Y-35517202D01*
X117522460Y-35537911D01*
X117522452Y-35537911D01*
X117522453Y-35537912D01*
X117512812Y-35539438D01*
X117310053Y-35605319D01*
X117305209Y-35607665D01*
X117303595Y-35608610D01*
X117120085Y-35702113D01*
X117013852Y-35779296D01*
X116947601Y-35827432D01*
X116947598Y-35827434D01*
X116796848Y-35978184D01*
X116671528Y-36150670D01*
X116578025Y-36334180D01*
X116577080Y-36335794D01*
X116574734Y-36340638D01*
X116508853Y-36543397D01*
X116507327Y-36553038D01*
X116507326Y-36553045D01*
X116475500Y-36753984D01*
X115887488Y-36753984D01*
X115896385Y-36618266D01*
X115897178Y-36610215D01*
X115898238Y-36602167D01*
X115899551Y-36594210D01*
X115944561Y-36367935D01*
X115946395Y-36360073D01*
X115948495Y-36352241D01*
X115950845Y-36344495D01*
X116024985Y-36126089D01*
X116027840Y-36118502D01*
X116027857Y-36118461D01*
X116030953Y-36110988D01*
X116034277Y-36103652D01*
X116136312Y-35896745D01*
X116140105Y-35889647D01*
X116144192Y-35882568D01*
X116148438Y-35875741D01*
X116276619Y-35683905D01*
X116281305Y-35677367D01*
X116286266Y-35670902D01*
X116291366Y-35664687D01*
X116443490Y-35491223D01*
X116449007Y-35485333D01*
X116454750Y-35479591D01*
X116460638Y-35474075D01*
X116634096Y-35321956D01*
X116640321Y-35316847D01*
X116646781Y-35311891D01*
X116653326Y-35307201D01*
X116845156Y-35179023D01*
X116851983Y-35174777D01*
X116859062Y-35170690D01*
X116866160Y-35166897D01*
X117073067Y-35064862D01*
X117080412Y-35061533D01*
X117087920Y-35058423D01*
X117095504Y-35055570D01*
X117095510Y-35055568D01*
X117313915Y-34981428D01*
X117321656Y-34979080D01*
X117322244Y-34978922D01*
X117329488Y-34976980D01*
X117337350Y-34975146D01*
X117563620Y-34930137D01*
X117571593Y-34928821D01*
X117577820Y-34928001D01*
X117579642Y-34927762D01*
X117587703Y-34926968D01*
X117823908Y-34911483D01*
X117827967Y-34911284D01*
X117832041Y-34911151D01*
X117836087Y-34911085D01*
X194934106Y-34911085D01*
X194934110Y-34911086D01*
G37*
%TD.AperFunction*%
%TD*%
%TA.AperFunction,Conductor*%
%TO.N,+3V3*%
G36*
X123484477Y-45073685D02*
G01*
X123505119Y-45090319D01*
X123788081Y-45373281D01*
X123821566Y-45434604D01*
X123824400Y-45460962D01*
X123824400Y-47034638D01*
X123804715Y-47101677D01*
X123788081Y-47122319D01*
X123505119Y-47405281D01*
X123443796Y-47438766D01*
X123417438Y-47441600D01*
X121690799Y-47441600D01*
X120878000Y-48254399D01*
X120878000Y-48254400D01*
X120878000Y-60548000D01*
X121894000Y-61564000D01*
X123493638Y-61564000D01*
X123560677Y-61583685D01*
X123581319Y-61600319D01*
X124016681Y-62035681D01*
X124050166Y-62097004D01*
X124053000Y-62123362D01*
X124053000Y-63417638D01*
X124033315Y-63484677D01*
X124016681Y-63505319D01*
X123708319Y-63813681D01*
X123646996Y-63847166D01*
X123620638Y-63850000D01*
X121639999Y-63850000D01*
X120878000Y-64611999D01*
X120878000Y-64612000D01*
X120878000Y-73806800D01*
X121843200Y-74772000D01*
X135558638Y-74772000D01*
X135625677Y-74791685D01*
X135646319Y-74808319D01*
X136081681Y-75243681D01*
X136115166Y-75305004D01*
X136118000Y-75331362D01*
X136118000Y-77209858D01*
X136098315Y-77276897D01*
X136081677Y-77297543D01*
X135696806Y-77682380D01*
X135635482Y-77715862D01*
X135609124Y-77718695D01*
X135177419Y-77718676D01*
X135158026Y-77717149D01*
X134973357Y-77687900D01*
X134973352Y-77687900D01*
X134768648Y-77687900D01*
X134738979Y-77692599D01*
X134584139Y-77717123D01*
X134564736Y-77718650D01*
X130304326Y-77718466D01*
X130284933Y-77716939D01*
X130157596Y-77696771D01*
X130101587Y-77687900D01*
X129889013Y-77687900D01*
X129889008Y-77687900D01*
X129705833Y-77716912D01*
X129686430Y-77718439D01*
X121771902Y-77718098D01*
X121771901Y-77718098D01*
X120878000Y-78611999D01*
X120878000Y-78612000D01*
X120878000Y-88488000D01*
X121741600Y-89351600D01*
X123366638Y-89351600D01*
X123433677Y-89371285D01*
X123454319Y-89387919D01*
X123737281Y-89670881D01*
X123770766Y-89732204D01*
X123773600Y-89758562D01*
X123773600Y-91129038D01*
X123753915Y-91196077D01*
X123737281Y-91216719D01*
X123352719Y-91601281D01*
X123291396Y-91634766D01*
X123265038Y-91637600D01*
X121722399Y-91637600D01*
X120878000Y-92481999D01*
X120878000Y-92482000D01*
X120878000Y-103728000D01*
X122910000Y-105760000D01*
X123366638Y-105760000D01*
X123433677Y-105779685D01*
X123454319Y-105796319D01*
X123788081Y-106130081D01*
X123821566Y-106191404D01*
X123824400Y-106217762D01*
X123824400Y-107639038D01*
X123804715Y-107706077D01*
X123788081Y-107726719D01*
X123454319Y-108060481D01*
X123392996Y-108093966D01*
X123366638Y-108096800D01*
X119659362Y-108096800D01*
X119592323Y-108077115D01*
X119571681Y-108060481D01*
X117764719Y-106253519D01*
X117731234Y-106192196D01*
X117728400Y-106165838D01*
X117728400Y-47035762D01*
X117748085Y-46968723D01*
X117764719Y-46948081D01*
X119622481Y-45090319D01*
X119683804Y-45056834D01*
X119710162Y-45054000D01*
X123417438Y-45054000D01*
X123484477Y-45073685D01*
G37*
%TD.AperFunction*%
%TD*%
%TA.AperFunction,Conductor*%
%TO.N,+5V*%
G36*
X189406831Y-42513959D02*
G01*
X189473867Y-42533645D01*
X189494535Y-42550307D01*
X189802750Y-42858726D01*
X189836215Y-42920060D01*
X189839040Y-42946381D01*
X189839001Y-44621639D01*
X189819315Y-44688678D01*
X189802682Y-44709317D01*
X189494326Y-45017673D01*
X189433003Y-45051158D01*
X189406627Y-45053992D01*
X187426499Y-45053712D01*
X187426496Y-45053713D01*
X178536000Y-53941970D01*
X178536000Y-65323394D01*
X178516315Y-65390433D01*
X178499676Y-65411081D01*
X167068314Y-76841017D01*
X166253922Y-77655307D01*
X166192597Y-77688788D01*
X166166246Y-77691620D01*
X165134831Y-77691620D01*
X165115434Y-77690093D01*
X165101587Y-77687900D01*
X164889013Y-77687900D01*
X164875166Y-77690093D01*
X164855769Y-77691620D01*
X160256596Y-77691620D01*
X160237199Y-77690093D01*
X160223352Y-77687900D01*
X160018648Y-77687900D01*
X160004801Y-77690093D01*
X159985404Y-77691620D01*
X159663451Y-77691620D01*
X159596412Y-77671935D01*
X159575829Y-77655361D01*
X158760378Y-76841017D01*
X158726852Y-76779716D01*
X158724000Y-76753276D01*
X158724000Y-74061362D01*
X158743685Y-73994323D01*
X158760319Y-73973681D01*
X171424000Y-61310000D01*
X171424000Y-53487362D01*
X171443685Y-53420323D01*
X171460315Y-53399684D01*
X182309780Y-42550135D01*
X182371103Y-42516651D01*
X182397464Y-42513817D01*
X189406831Y-42513959D01*
G37*
%TD.AperFunction*%
%TD*%
%TA.AperFunction,Conductor*%
%TO.N,+12V*%
G36*
X180939057Y-106033620D02*
G01*
X180960132Y-106050532D01*
X185205281Y-110295681D01*
X185238766Y-110357004D01*
X185241600Y-110383362D01*
X185241600Y-115868638D01*
X185221915Y-115935677D01*
X185205281Y-115956319D01*
X184769919Y-116391681D01*
X184708596Y-116425166D01*
X184682238Y-116428000D01*
X182143362Y-116428000D01*
X182076323Y-116408315D01*
X182055681Y-116391681D01*
X181670579Y-116006579D01*
X181637094Y-115945256D01*
X181634267Y-115920203D01*
X181633724Y-115868638D01*
X181609400Y-113557800D01*
X178637600Y-110586000D01*
X168529000Y-110586000D01*
X168461961Y-110566315D01*
X168441273Y-110549635D01*
X168054917Y-110162874D01*
X168021464Y-110101534D01*
X168018644Y-110075182D01*
X168020373Y-106776522D01*
X168040093Y-106709494D01*
X168056687Y-106688912D01*
X168644695Y-106100904D01*
X168706016Y-106067421D01*
X168731857Y-106064588D01*
X180871937Y-106014214D01*
X180939057Y-106033620D01*
G37*
%TD.AperFunction*%
%TD*%
M02*
