%TF.GenerationSoftware,KiCad,Pcbnew,10.0.0*%
%TF.CreationDate,2026-04-06T18:52:01+07:00*%
%TF.ProjectId,Embedded_project_v2,456d6265-6464-4656-945f-70726f6a6563,rev?*%
%TF.SameCoordinates,Original*%
%TF.FileFunction,Legend,Top*%
%TF.FilePolarity,Positive*%
%FSLAX46Y46*%
G04 Gerber Fmt 4.6, Leading zero omitted, Abs format (unit mm)*
G04 Created by KiCad (PCBNEW 10.0.0) date 2026-04-06 18:52:01*
%MOMM*%
%LPD*%
G01*
G04 APERTURE LIST*
%ADD10C,0.100000*%
%ADD11C,0.120000*%
G04 APERTURE END LIST*
D10*
X170805637Y-120433609D02*
X171091351Y-120433609D01*
X170948494Y-120933609D02*
X170948494Y-120433609D01*
X171210398Y-120433609D02*
X171543731Y-120933609D01*
X171543731Y-120433609D02*
X171210398Y-120933609D01*
X173643255Y-120933609D02*
X173476589Y-120695514D01*
X173357541Y-120933609D02*
X173357541Y-120433609D01*
X173357541Y-120433609D02*
X173548017Y-120433609D01*
X173548017Y-120433609D02*
X173595636Y-120457419D01*
X173595636Y-120457419D02*
X173619446Y-120481228D01*
X173619446Y-120481228D02*
X173643255Y-120528847D01*
X173643255Y-120528847D02*
X173643255Y-120600276D01*
X173643255Y-120600276D02*
X173619446Y-120647895D01*
X173619446Y-120647895D02*
X173595636Y-120671704D01*
X173595636Y-120671704D02*
X173548017Y-120695514D01*
X173548017Y-120695514D02*
X173357541Y-120695514D01*
X173809922Y-120433609D02*
X174143255Y-120933609D01*
X174143255Y-120433609D02*
X173809922Y-120933609D01*
X175885636Y-120457419D02*
X175838017Y-120433609D01*
X175838017Y-120433609D02*
X175766588Y-120433609D01*
X175766588Y-120433609D02*
X175695160Y-120457419D01*
X175695160Y-120457419D02*
X175647541Y-120505038D01*
X175647541Y-120505038D02*
X175623731Y-120552657D01*
X175623731Y-120552657D02*
X175599922Y-120647895D01*
X175599922Y-120647895D02*
X175599922Y-120719323D01*
X175599922Y-120719323D02*
X175623731Y-120814561D01*
X175623731Y-120814561D02*
X175647541Y-120862180D01*
X175647541Y-120862180D02*
X175695160Y-120909800D01*
X175695160Y-120909800D02*
X175766588Y-120933609D01*
X175766588Y-120933609D02*
X175814207Y-120933609D01*
X175814207Y-120933609D02*
X175885636Y-120909800D01*
X175885636Y-120909800D02*
X175909445Y-120885990D01*
X175909445Y-120885990D02*
X175909445Y-120719323D01*
X175909445Y-120719323D02*
X175814207Y-120719323D01*
X176123731Y-120933609D02*
X176123731Y-120433609D01*
X176123731Y-120433609D02*
X176409445Y-120933609D01*
X176409445Y-120933609D02*
X176409445Y-120433609D01*
X176647541Y-120933609D02*
X176647541Y-120433609D01*
X176647541Y-120433609D02*
X176766589Y-120433609D01*
X176766589Y-120433609D02*
X176838017Y-120457419D01*
X176838017Y-120457419D02*
X176885636Y-120505038D01*
X176885636Y-120505038D02*
X176909446Y-120552657D01*
X176909446Y-120552657D02*
X176933255Y-120647895D01*
X176933255Y-120647895D02*
X176933255Y-120719323D01*
X176933255Y-120719323D02*
X176909446Y-120814561D01*
X176909446Y-120814561D02*
X176885636Y-120862180D01*
X176885636Y-120862180D02*
X176838017Y-120909800D01*
X176838017Y-120909800D02*
X176766589Y-120933609D01*
X176766589Y-120933609D02*
X176647541Y-120933609D01*
X182595137Y-120870133D02*
X182976090Y-120870133D01*
X182785613Y-121060609D02*
X182785613Y-120679657D01*
X183476090Y-121060609D02*
X183190376Y-121060609D01*
X183333233Y-121060609D02*
X183333233Y-120560609D01*
X183333233Y-120560609D02*
X183285614Y-120632038D01*
X183285614Y-120632038D02*
X183237995Y-120679657D01*
X183237995Y-120679657D02*
X183190376Y-120703466D01*
X183666566Y-120608228D02*
X183690375Y-120584419D01*
X183690375Y-120584419D02*
X183737994Y-120560609D01*
X183737994Y-120560609D02*
X183857042Y-120560609D01*
X183857042Y-120560609D02*
X183904661Y-120584419D01*
X183904661Y-120584419D02*
X183928470Y-120608228D01*
X183928470Y-120608228D02*
X183952280Y-120655847D01*
X183952280Y-120655847D02*
X183952280Y-120703466D01*
X183952280Y-120703466D02*
X183928470Y-120774895D01*
X183928470Y-120774895D02*
X183642756Y-121060609D01*
X183642756Y-121060609D02*
X183952280Y-121060609D01*
X184095137Y-120560609D02*
X184261803Y-121060609D01*
X184261803Y-121060609D02*
X184428470Y-120560609D01*
X186595136Y-120584419D02*
X186547517Y-120560609D01*
X186547517Y-120560609D02*
X186476088Y-120560609D01*
X186476088Y-120560609D02*
X186404660Y-120584419D01*
X186404660Y-120584419D02*
X186357041Y-120632038D01*
X186357041Y-120632038D02*
X186333231Y-120679657D01*
X186333231Y-120679657D02*
X186309422Y-120774895D01*
X186309422Y-120774895D02*
X186309422Y-120846323D01*
X186309422Y-120846323D02*
X186333231Y-120941561D01*
X186333231Y-120941561D02*
X186357041Y-120989180D01*
X186357041Y-120989180D02*
X186404660Y-121036800D01*
X186404660Y-121036800D02*
X186476088Y-121060609D01*
X186476088Y-121060609D02*
X186523707Y-121060609D01*
X186523707Y-121060609D02*
X186595136Y-121036800D01*
X186595136Y-121036800D02*
X186618945Y-121012990D01*
X186618945Y-121012990D02*
X186618945Y-120846323D01*
X186618945Y-120846323D02*
X186523707Y-120846323D01*
X186833231Y-121060609D02*
X186833231Y-120560609D01*
X186833231Y-120560609D02*
X187118945Y-121060609D01*
X187118945Y-121060609D02*
X187118945Y-120560609D01*
X187357041Y-121060609D02*
X187357041Y-120560609D01*
X187357041Y-120560609D02*
X187476089Y-120560609D01*
X187476089Y-120560609D02*
X187547517Y-120584419D01*
X187547517Y-120584419D02*
X187595136Y-120632038D01*
X187595136Y-120632038D02*
X187618946Y-120679657D01*
X187618946Y-120679657D02*
X187642755Y-120774895D01*
X187642755Y-120774895D02*
X187642755Y-120846323D01*
X187642755Y-120846323D02*
X187618946Y-120941561D01*
X187618946Y-120941561D02*
X187595136Y-120989180D01*
X187595136Y-120989180D02*
X187547517Y-121036800D01*
X187547517Y-121036800D02*
X187476089Y-121060609D01*
X187476089Y-121060609D02*
X187357041Y-121060609D01*
X118208133Y-47209163D02*
X118208133Y-46828211D01*
X118398609Y-47018687D02*
X118017657Y-47018687D01*
X117898609Y-46637734D02*
X117898609Y-46328210D01*
X117898609Y-46328210D02*
X118089085Y-46494877D01*
X118089085Y-46494877D02*
X118089085Y-46423448D01*
X118089085Y-46423448D02*
X118112895Y-46375829D01*
X118112895Y-46375829D02*
X118136704Y-46352020D01*
X118136704Y-46352020D02*
X118184323Y-46328210D01*
X118184323Y-46328210D02*
X118303371Y-46328210D01*
X118303371Y-46328210D02*
X118350990Y-46352020D01*
X118350990Y-46352020D02*
X118374800Y-46375829D01*
X118374800Y-46375829D02*
X118398609Y-46423448D01*
X118398609Y-46423448D02*
X118398609Y-46566305D01*
X118398609Y-46566305D02*
X118374800Y-46613924D01*
X118374800Y-46613924D02*
X118350990Y-46637734D01*
X117898609Y-46185353D02*
X118398609Y-46018687D01*
X118398609Y-46018687D02*
X117898609Y-45852020D01*
X117898609Y-45732973D02*
X117898609Y-45423449D01*
X117898609Y-45423449D02*
X118089085Y-45590116D01*
X118089085Y-45590116D02*
X118089085Y-45518687D01*
X118089085Y-45518687D02*
X118112895Y-45471068D01*
X118112895Y-45471068D02*
X118136704Y-45447259D01*
X118136704Y-45447259D02*
X118184323Y-45423449D01*
X118184323Y-45423449D02*
X118303371Y-45423449D01*
X118303371Y-45423449D02*
X118350990Y-45447259D01*
X118350990Y-45447259D02*
X118374800Y-45471068D01*
X118374800Y-45471068D02*
X118398609Y-45518687D01*
X118398609Y-45518687D02*
X118398609Y-45661544D01*
X118398609Y-45661544D02*
X118374800Y-45709163D01*
X118374800Y-45709163D02*
X118350990Y-45732973D01*
X117922419Y-49249163D02*
X117898609Y-49296782D01*
X117898609Y-49296782D02*
X117898609Y-49368211D01*
X117898609Y-49368211D02*
X117922419Y-49439639D01*
X117922419Y-49439639D02*
X117970038Y-49487258D01*
X117970038Y-49487258D02*
X118017657Y-49511068D01*
X118017657Y-49511068D02*
X118112895Y-49534877D01*
X118112895Y-49534877D02*
X118184323Y-49534877D01*
X118184323Y-49534877D02*
X118279561Y-49511068D01*
X118279561Y-49511068D02*
X118327180Y-49487258D01*
X118327180Y-49487258D02*
X118374800Y-49439639D01*
X118374800Y-49439639D02*
X118398609Y-49368211D01*
X118398609Y-49368211D02*
X118398609Y-49320592D01*
X118398609Y-49320592D02*
X118374800Y-49249163D01*
X118374800Y-49249163D02*
X118350990Y-49225354D01*
X118350990Y-49225354D02*
X118184323Y-49225354D01*
X118184323Y-49225354D02*
X118184323Y-49320592D01*
X118398609Y-49011068D02*
X117898609Y-49011068D01*
X117898609Y-49011068D02*
X118398609Y-48725354D01*
X118398609Y-48725354D02*
X117898609Y-48725354D01*
X118398609Y-48487258D02*
X117898609Y-48487258D01*
X117898609Y-48487258D02*
X117898609Y-48368210D01*
X117898609Y-48368210D02*
X117922419Y-48296782D01*
X117922419Y-48296782D02*
X117970038Y-48249163D01*
X117970038Y-48249163D02*
X118017657Y-48225353D01*
X118017657Y-48225353D02*
X118112895Y-48201544D01*
X118112895Y-48201544D02*
X118184323Y-48201544D01*
X118184323Y-48201544D02*
X118279561Y-48225353D01*
X118279561Y-48225353D02*
X118327180Y-48249163D01*
X118327180Y-48249163D02*
X118374800Y-48296782D01*
X118374800Y-48296782D02*
X118398609Y-48368210D01*
X118398609Y-48368210D02*
X118398609Y-48487258D01*
X117898609Y-51789162D02*
X117898609Y-51503448D01*
X118398609Y-51646305D02*
X117898609Y-51646305D01*
X117898609Y-51384401D02*
X118398609Y-51051068D01*
X117898609Y-51051068D02*
X118398609Y-51384401D01*
X118398609Y-54031544D02*
X118160514Y-54198210D01*
X118398609Y-54317258D02*
X117898609Y-54317258D01*
X117898609Y-54317258D02*
X117898609Y-54126782D01*
X117898609Y-54126782D02*
X117922419Y-54079163D01*
X117922419Y-54079163D02*
X117946228Y-54055353D01*
X117946228Y-54055353D02*
X117993847Y-54031544D01*
X117993847Y-54031544D02*
X118065276Y-54031544D01*
X118065276Y-54031544D02*
X118112895Y-54055353D01*
X118112895Y-54055353D02*
X118136704Y-54079163D01*
X118136704Y-54079163D02*
X118160514Y-54126782D01*
X118160514Y-54126782D02*
X118160514Y-54317258D01*
X117898609Y-53864877D02*
X118398609Y-53531544D01*
X117898609Y-53531544D02*
X118398609Y-53864877D01*
X118208133Y-63650263D02*
X118208133Y-63269311D01*
X118398609Y-63459787D02*
X118017657Y-63459787D01*
X117898609Y-63078834D02*
X117898609Y-62769310D01*
X117898609Y-62769310D02*
X118089085Y-62935977D01*
X118089085Y-62935977D02*
X118089085Y-62864548D01*
X118089085Y-62864548D02*
X118112895Y-62816929D01*
X118112895Y-62816929D02*
X118136704Y-62793120D01*
X118136704Y-62793120D02*
X118184323Y-62769310D01*
X118184323Y-62769310D02*
X118303371Y-62769310D01*
X118303371Y-62769310D02*
X118350990Y-62793120D01*
X118350990Y-62793120D02*
X118374800Y-62816929D01*
X118374800Y-62816929D02*
X118398609Y-62864548D01*
X118398609Y-62864548D02*
X118398609Y-63007405D01*
X118398609Y-63007405D02*
X118374800Y-63055024D01*
X118374800Y-63055024D02*
X118350990Y-63078834D01*
X117898609Y-62626453D02*
X118398609Y-62459787D01*
X118398609Y-62459787D02*
X117898609Y-62293120D01*
X117898609Y-62174073D02*
X117898609Y-61864549D01*
X117898609Y-61864549D02*
X118089085Y-62031216D01*
X118089085Y-62031216D02*
X118089085Y-61959787D01*
X118089085Y-61959787D02*
X118112895Y-61912168D01*
X118112895Y-61912168D02*
X118136704Y-61888359D01*
X118136704Y-61888359D02*
X118184323Y-61864549D01*
X118184323Y-61864549D02*
X118303371Y-61864549D01*
X118303371Y-61864549D02*
X118350990Y-61888359D01*
X118350990Y-61888359D02*
X118374800Y-61912168D01*
X118374800Y-61912168D02*
X118398609Y-61959787D01*
X118398609Y-61959787D02*
X118398609Y-62102644D01*
X118398609Y-62102644D02*
X118374800Y-62150263D01*
X118374800Y-62150263D02*
X118350990Y-62174073D01*
X118398609Y-66059310D02*
X117898609Y-66059310D01*
X117898609Y-66059310D02*
X117898609Y-65940262D01*
X117898609Y-65940262D02*
X117922419Y-65868834D01*
X117922419Y-65868834D02*
X117970038Y-65821215D01*
X117970038Y-65821215D02*
X118017657Y-65797405D01*
X118017657Y-65797405D02*
X118112895Y-65773596D01*
X118112895Y-65773596D02*
X118184323Y-65773596D01*
X118184323Y-65773596D02*
X118279561Y-65797405D01*
X118279561Y-65797405D02*
X118327180Y-65821215D01*
X118327180Y-65821215D02*
X118374800Y-65868834D01*
X118374800Y-65868834D02*
X118398609Y-65940262D01*
X118398609Y-65940262D02*
X118398609Y-66059310D01*
X118255752Y-65583119D02*
X118255752Y-65345024D01*
X118398609Y-65630738D02*
X117898609Y-65464072D01*
X117898609Y-65464072D02*
X118398609Y-65297405D01*
X117898609Y-65202167D02*
X117898609Y-64916453D01*
X118398609Y-65059310D02*
X117898609Y-65059310D01*
X118255752Y-64773596D02*
X118255752Y-64535501D01*
X118398609Y-64821215D02*
X117898609Y-64654549D01*
X117898609Y-64654549D02*
X118398609Y-64487882D01*
X117922419Y-68230263D02*
X117898609Y-68277882D01*
X117898609Y-68277882D02*
X117898609Y-68349311D01*
X117898609Y-68349311D02*
X117922419Y-68420739D01*
X117922419Y-68420739D02*
X117970038Y-68468358D01*
X117970038Y-68468358D02*
X118017657Y-68492168D01*
X118017657Y-68492168D02*
X118112895Y-68515977D01*
X118112895Y-68515977D02*
X118184323Y-68515977D01*
X118184323Y-68515977D02*
X118279561Y-68492168D01*
X118279561Y-68492168D02*
X118327180Y-68468358D01*
X118327180Y-68468358D02*
X118374800Y-68420739D01*
X118374800Y-68420739D02*
X118398609Y-68349311D01*
X118398609Y-68349311D02*
X118398609Y-68301692D01*
X118398609Y-68301692D02*
X118374800Y-68230263D01*
X118374800Y-68230263D02*
X118350990Y-68206454D01*
X118350990Y-68206454D02*
X118184323Y-68206454D01*
X118184323Y-68206454D02*
X118184323Y-68301692D01*
X118398609Y-67992168D02*
X117898609Y-67992168D01*
X117898609Y-67992168D02*
X118398609Y-67706454D01*
X118398609Y-67706454D02*
X117898609Y-67706454D01*
X118398609Y-67468358D02*
X117898609Y-67468358D01*
X117898609Y-67468358D02*
X117898609Y-67349310D01*
X117898609Y-67349310D02*
X117922419Y-67277882D01*
X117922419Y-67277882D02*
X117970038Y-67230263D01*
X117970038Y-67230263D02*
X118017657Y-67206453D01*
X118017657Y-67206453D02*
X118112895Y-67182644D01*
X118112895Y-67182644D02*
X118184323Y-67182644D01*
X118184323Y-67182644D02*
X118279561Y-67206453D01*
X118279561Y-67206453D02*
X118327180Y-67230263D01*
X118327180Y-67230263D02*
X118374800Y-67277882D01*
X118374800Y-67277882D02*
X118398609Y-67349310D01*
X118398609Y-67349310D02*
X118398609Y-67468358D01*
X118208133Y-77551363D02*
X118208133Y-77170411D01*
X118398609Y-77360887D02*
X118017657Y-77360887D01*
X117898609Y-76979934D02*
X117898609Y-76670410D01*
X117898609Y-76670410D02*
X118089085Y-76837077D01*
X118089085Y-76837077D02*
X118089085Y-76765648D01*
X118089085Y-76765648D02*
X118112895Y-76718029D01*
X118112895Y-76718029D02*
X118136704Y-76694220D01*
X118136704Y-76694220D02*
X118184323Y-76670410D01*
X118184323Y-76670410D02*
X118303371Y-76670410D01*
X118303371Y-76670410D02*
X118350990Y-76694220D01*
X118350990Y-76694220D02*
X118374800Y-76718029D01*
X118374800Y-76718029D02*
X118398609Y-76765648D01*
X118398609Y-76765648D02*
X118398609Y-76908505D01*
X118398609Y-76908505D02*
X118374800Y-76956124D01*
X118374800Y-76956124D02*
X118350990Y-76979934D01*
X117898609Y-76527553D02*
X118398609Y-76360887D01*
X118398609Y-76360887D02*
X117898609Y-76194220D01*
X117898609Y-76075173D02*
X117898609Y-75765649D01*
X117898609Y-75765649D02*
X118089085Y-75932316D01*
X118089085Y-75932316D02*
X118089085Y-75860887D01*
X118089085Y-75860887D02*
X118112895Y-75813268D01*
X118112895Y-75813268D02*
X118136704Y-75789459D01*
X118136704Y-75789459D02*
X118184323Y-75765649D01*
X118184323Y-75765649D02*
X118303371Y-75765649D01*
X118303371Y-75765649D02*
X118350990Y-75789459D01*
X118350990Y-75789459D02*
X118374800Y-75813268D01*
X118374800Y-75813268D02*
X118398609Y-75860887D01*
X118398609Y-75860887D02*
X118398609Y-76003744D01*
X118398609Y-76003744D02*
X118374800Y-76051363D01*
X118374800Y-76051363D02*
X118350990Y-76075173D01*
X117922419Y-79591363D02*
X117898609Y-79638982D01*
X117898609Y-79638982D02*
X117898609Y-79710411D01*
X117898609Y-79710411D02*
X117922419Y-79781839D01*
X117922419Y-79781839D02*
X117970038Y-79829458D01*
X117970038Y-79829458D02*
X118017657Y-79853268D01*
X118017657Y-79853268D02*
X118112895Y-79877077D01*
X118112895Y-79877077D02*
X118184323Y-79877077D01*
X118184323Y-79877077D02*
X118279561Y-79853268D01*
X118279561Y-79853268D02*
X118327180Y-79829458D01*
X118327180Y-79829458D02*
X118374800Y-79781839D01*
X118374800Y-79781839D02*
X118398609Y-79710411D01*
X118398609Y-79710411D02*
X118398609Y-79662792D01*
X118398609Y-79662792D02*
X118374800Y-79591363D01*
X118374800Y-79591363D02*
X118350990Y-79567554D01*
X118350990Y-79567554D02*
X118184323Y-79567554D01*
X118184323Y-79567554D02*
X118184323Y-79662792D01*
X118398609Y-79353268D02*
X117898609Y-79353268D01*
X117898609Y-79353268D02*
X118398609Y-79067554D01*
X118398609Y-79067554D02*
X117898609Y-79067554D01*
X118398609Y-78829458D02*
X117898609Y-78829458D01*
X117898609Y-78829458D02*
X117898609Y-78710410D01*
X117898609Y-78710410D02*
X117922419Y-78638982D01*
X117922419Y-78638982D02*
X117970038Y-78591363D01*
X117970038Y-78591363D02*
X118017657Y-78567553D01*
X118017657Y-78567553D02*
X118112895Y-78543744D01*
X118112895Y-78543744D02*
X118184323Y-78543744D01*
X118184323Y-78543744D02*
X118279561Y-78567553D01*
X118279561Y-78567553D02*
X118327180Y-78591363D01*
X118327180Y-78591363D02*
X118374800Y-78638982D01*
X118374800Y-78638982D02*
X118398609Y-78710410D01*
X118398609Y-78710410D02*
X118398609Y-78829458D01*
X118398609Y-82500410D02*
X117898609Y-82500410D01*
X117898609Y-82500410D02*
X117898609Y-82381362D01*
X117898609Y-82381362D02*
X117922419Y-82309934D01*
X117922419Y-82309934D02*
X117970038Y-82262315D01*
X117970038Y-82262315D02*
X118017657Y-82238505D01*
X118017657Y-82238505D02*
X118112895Y-82214696D01*
X118112895Y-82214696D02*
X118184323Y-82214696D01*
X118184323Y-82214696D02*
X118279561Y-82238505D01*
X118279561Y-82238505D02*
X118327180Y-82262315D01*
X118327180Y-82262315D02*
X118374800Y-82309934D01*
X118374800Y-82309934D02*
X118398609Y-82381362D01*
X118398609Y-82381362D02*
X118398609Y-82500410D01*
X118255752Y-82024219D02*
X118255752Y-81786124D01*
X118398609Y-82071838D02*
X117898609Y-81905172D01*
X117898609Y-81905172D02*
X118398609Y-81738505D01*
X117898609Y-81643267D02*
X117898609Y-81357553D01*
X118398609Y-81500410D02*
X117898609Y-81500410D01*
X118255752Y-81214696D02*
X118255752Y-80976601D01*
X118398609Y-81262315D02*
X117898609Y-81095649D01*
X117898609Y-81095649D02*
X118398609Y-80928982D01*
X118208133Y-91452463D02*
X118208133Y-91071511D01*
X118398609Y-91261987D02*
X118017657Y-91261987D01*
X117898609Y-90881034D02*
X117898609Y-90571510D01*
X117898609Y-90571510D02*
X118089085Y-90738177D01*
X118089085Y-90738177D02*
X118089085Y-90666748D01*
X118089085Y-90666748D02*
X118112895Y-90619129D01*
X118112895Y-90619129D02*
X118136704Y-90595320D01*
X118136704Y-90595320D02*
X118184323Y-90571510D01*
X118184323Y-90571510D02*
X118303371Y-90571510D01*
X118303371Y-90571510D02*
X118350990Y-90595320D01*
X118350990Y-90595320D02*
X118374800Y-90619129D01*
X118374800Y-90619129D02*
X118398609Y-90666748D01*
X118398609Y-90666748D02*
X118398609Y-90809605D01*
X118398609Y-90809605D02*
X118374800Y-90857224D01*
X118374800Y-90857224D02*
X118350990Y-90881034D01*
X117898609Y-90428653D02*
X118398609Y-90261987D01*
X118398609Y-90261987D02*
X117898609Y-90095320D01*
X117898609Y-89976273D02*
X117898609Y-89666749D01*
X117898609Y-89666749D02*
X118089085Y-89833416D01*
X118089085Y-89833416D02*
X118089085Y-89761987D01*
X118089085Y-89761987D02*
X118112895Y-89714368D01*
X118112895Y-89714368D02*
X118136704Y-89690559D01*
X118136704Y-89690559D02*
X118184323Y-89666749D01*
X118184323Y-89666749D02*
X118303371Y-89666749D01*
X118303371Y-89666749D02*
X118350990Y-89690559D01*
X118350990Y-89690559D02*
X118374800Y-89714368D01*
X118374800Y-89714368D02*
X118398609Y-89761987D01*
X118398609Y-89761987D02*
X118398609Y-89904844D01*
X118398609Y-89904844D02*
X118374800Y-89952463D01*
X118374800Y-89952463D02*
X118350990Y-89976273D01*
X117922419Y-93492463D02*
X117898609Y-93540082D01*
X117898609Y-93540082D02*
X117898609Y-93611511D01*
X117898609Y-93611511D02*
X117922419Y-93682939D01*
X117922419Y-93682939D02*
X117970038Y-93730558D01*
X117970038Y-93730558D02*
X118017657Y-93754368D01*
X118017657Y-93754368D02*
X118112895Y-93778177D01*
X118112895Y-93778177D02*
X118184323Y-93778177D01*
X118184323Y-93778177D02*
X118279561Y-93754368D01*
X118279561Y-93754368D02*
X118327180Y-93730558D01*
X118327180Y-93730558D02*
X118374800Y-93682939D01*
X118374800Y-93682939D02*
X118398609Y-93611511D01*
X118398609Y-93611511D02*
X118398609Y-93563892D01*
X118398609Y-93563892D02*
X118374800Y-93492463D01*
X118374800Y-93492463D02*
X118350990Y-93468654D01*
X118350990Y-93468654D02*
X118184323Y-93468654D01*
X118184323Y-93468654D02*
X118184323Y-93563892D01*
X118398609Y-93254368D02*
X117898609Y-93254368D01*
X117898609Y-93254368D02*
X118398609Y-92968654D01*
X118398609Y-92968654D02*
X117898609Y-92968654D01*
X118398609Y-92730558D02*
X117898609Y-92730558D01*
X117898609Y-92730558D02*
X117898609Y-92611510D01*
X117898609Y-92611510D02*
X117922419Y-92540082D01*
X117922419Y-92540082D02*
X117970038Y-92492463D01*
X117970038Y-92492463D02*
X118017657Y-92468653D01*
X118017657Y-92468653D02*
X118112895Y-92444844D01*
X118112895Y-92444844D02*
X118184323Y-92444844D01*
X118184323Y-92444844D02*
X118279561Y-92468653D01*
X118279561Y-92468653D02*
X118327180Y-92492463D01*
X118327180Y-92492463D02*
X118374800Y-92540082D01*
X118374800Y-92540082D02*
X118398609Y-92611510D01*
X118398609Y-92611510D02*
X118398609Y-92730558D01*
X118374800Y-96246748D02*
X118398609Y-96175320D01*
X118398609Y-96175320D02*
X118398609Y-96056272D01*
X118398609Y-96056272D02*
X118374800Y-96008653D01*
X118374800Y-96008653D02*
X118350990Y-95984844D01*
X118350990Y-95984844D02*
X118303371Y-95961034D01*
X118303371Y-95961034D02*
X118255752Y-95961034D01*
X118255752Y-95961034D02*
X118208133Y-95984844D01*
X118208133Y-95984844D02*
X118184323Y-96008653D01*
X118184323Y-96008653D02*
X118160514Y-96056272D01*
X118160514Y-96056272D02*
X118136704Y-96151510D01*
X118136704Y-96151510D02*
X118112895Y-96199129D01*
X118112895Y-96199129D02*
X118089085Y-96222939D01*
X118089085Y-96222939D02*
X118041466Y-96246748D01*
X118041466Y-96246748D02*
X117993847Y-96246748D01*
X117993847Y-96246748D02*
X117946228Y-96222939D01*
X117946228Y-96222939D02*
X117922419Y-96199129D01*
X117922419Y-96199129D02*
X117898609Y-96151510D01*
X117898609Y-96151510D02*
X117898609Y-96032463D01*
X117898609Y-96032463D02*
X117922419Y-95961034D01*
X118350990Y-95461035D02*
X118374800Y-95484844D01*
X118374800Y-95484844D02*
X118398609Y-95556273D01*
X118398609Y-95556273D02*
X118398609Y-95603892D01*
X118398609Y-95603892D02*
X118374800Y-95675320D01*
X118374800Y-95675320D02*
X118327180Y-95722939D01*
X118327180Y-95722939D02*
X118279561Y-95746749D01*
X118279561Y-95746749D02*
X118184323Y-95770558D01*
X118184323Y-95770558D02*
X118112895Y-95770558D01*
X118112895Y-95770558D02*
X118017657Y-95746749D01*
X118017657Y-95746749D02*
X117970038Y-95722939D01*
X117970038Y-95722939D02*
X117922419Y-95675320D01*
X117922419Y-95675320D02*
X117898609Y-95603892D01*
X117898609Y-95603892D02*
X117898609Y-95556273D01*
X117898609Y-95556273D02*
X117922419Y-95484844D01*
X117922419Y-95484844D02*
X117946228Y-95461035D01*
X118398609Y-95008654D02*
X118398609Y-95246749D01*
X118398609Y-95246749D02*
X117898609Y-95246749D01*
X118374800Y-98798653D02*
X118398609Y-98727225D01*
X118398609Y-98727225D02*
X118398609Y-98608177D01*
X118398609Y-98608177D02*
X118374800Y-98560558D01*
X118374800Y-98560558D02*
X118350990Y-98536749D01*
X118350990Y-98536749D02*
X118303371Y-98512939D01*
X118303371Y-98512939D02*
X118255752Y-98512939D01*
X118255752Y-98512939D02*
X118208133Y-98536749D01*
X118208133Y-98536749D02*
X118184323Y-98560558D01*
X118184323Y-98560558D02*
X118160514Y-98608177D01*
X118160514Y-98608177D02*
X118136704Y-98703415D01*
X118136704Y-98703415D02*
X118112895Y-98751034D01*
X118112895Y-98751034D02*
X118089085Y-98774844D01*
X118089085Y-98774844D02*
X118041466Y-98798653D01*
X118041466Y-98798653D02*
X117993847Y-98798653D01*
X117993847Y-98798653D02*
X117946228Y-98774844D01*
X117946228Y-98774844D02*
X117922419Y-98751034D01*
X117922419Y-98751034D02*
X117898609Y-98703415D01*
X117898609Y-98703415D02*
X117898609Y-98584368D01*
X117898609Y-98584368D02*
X117922419Y-98512939D01*
X118398609Y-98298654D02*
X117898609Y-98298654D01*
X117898609Y-98298654D02*
X117898609Y-98179606D01*
X117898609Y-98179606D02*
X117922419Y-98108178D01*
X117922419Y-98108178D02*
X117970038Y-98060559D01*
X117970038Y-98060559D02*
X118017657Y-98036749D01*
X118017657Y-98036749D02*
X118112895Y-98012940D01*
X118112895Y-98012940D02*
X118184323Y-98012940D01*
X118184323Y-98012940D02*
X118279561Y-98036749D01*
X118279561Y-98036749D02*
X118327180Y-98060559D01*
X118327180Y-98060559D02*
X118374800Y-98108178D01*
X118374800Y-98108178D02*
X118398609Y-98179606D01*
X118398609Y-98179606D02*
X118398609Y-98298654D01*
X118255752Y-97822463D02*
X118255752Y-97584368D01*
X118398609Y-97870082D02*
X117898609Y-97703416D01*
X117898609Y-97703416D02*
X118398609Y-97536749D01*
X118208133Y-107861163D02*
X118208133Y-107480211D01*
X118398609Y-107670687D02*
X118017657Y-107670687D01*
X117898609Y-107289734D02*
X117898609Y-106980210D01*
X117898609Y-106980210D02*
X118089085Y-107146877D01*
X118089085Y-107146877D02*
X118089085Y-107075448D01*
X118089085Y-107075448D02*
X118112895Y-107027829D01*
X118112895Y-107027829D02*
X118136704Y-107004020D01*
X118136704Y-107004020D02*
X118184323Y-106980210D01*
X118184323Y-106980210D02*
X118303371Y-106980210D01*
X118303371Y-106980210D02*
X118350990Y-107004020D01*
X118350990Y-107004020D02*
X118374800Y-107027829D01*
X118374800Y-107027829D02*
X118398609Y-107075448D01*
X118398609Y-107075448D02*
X118398609Y-107218305D01*
X118398609Y-107218305D02*
X118374800Y-107265924D01*
X118374800Y-107265924D02*
X118350990Y-107289734D01*
X117898609Y-106837353D02*
X118398609Y-106670687D01*
X118398609Y-106670687D02*
X117898609Y-106504020D01*
X117898609Y-106384973D02*
X117898609Y-106075449D01*
X117898609Y-106075449D02*
X118089085Y-106242116D01*
X118089085Y-106242116D02*
X118089085Y-106170687D01*
X118089085Y-106170687D02*
X118112895Y-106123068D01*
X118112895Y-106123068D02*
X118136704Y-106099259D01*
X118136704Y-106099259D02*
X118184323Y-106075449D01*
X118184323Y-106075449D02*
X118303371Y-106075449D01*
X118303371Y-106075449D02*
X118350990Y-106099259D01*
X118350990Y-106099259D02*
X118374800Y-106123068D01*
X118374800Y-106123068D02*
X118398609Y-106170687D01*
X118398609Y-106170687D02*
X118398609Y-106313544D01*
X118398609Y-106313544D02*
X118374800Y-106361163D01*
X118374800Y-106361163D02*
X118350990Y-106384973D01*
X117922419Y-110012258D02*
X117898609Y-110059877D01*
X117898609Y-110059877D02*
X117898609Y-110131306D01*
X117898609Y-110131306D02*
X117922419Y-110202734D01*
X117922419Y-110202734D02*
X117970038Y-110250353D01*
X117970038Y-110250353D02*
X118017657Y-110274163D01*
X118017657Y-110274163D02*
X118112895Y-110297972D01*
X118112895Y-110297972D02*
X118184323Y-110297972D01*
X118184323Y-110297972D02*
X118279561Y-110274163D01*
X118279561Y-110274163D02*
X118327180Y-110250353D01*
X118327180Y-110250353D02*
X118374800Y-110202734D01*
X118374800Y-110202734D02*
X118398609Y-110131306D01*
X118398609Y-110131306D02*
X118398609Y-110083687D01*
X118398609Y-110083687D02*
X118374800Y-110012258D01*
X118374800Y-110012258D02*
X118350990Y-109988449D01*
X118350990Y-109988449D02*
X118184323Y-109988449D01*
X118184323Y-109988449D02*
X118184323Y-110083687D01*
X118398609Y-109774163D02*
X117898609Y-109774163D01*
X117898609Y-109774163D02*
X118398609Y-109488449D01*
X118398609Y-109488449D02*
X117898609Y-109488449D01*
X118398609Y-109250353D02*
X117898609Y-109250353D01*
X117898609Y-109250353D02*
X117898609Y-109131305D01*
X117898609Y-109131305D02*
X117922419Y-109059877D01*
X117922419Y-109059877D02*
X117970038Y-109012258D01*
X117970038Y-109012258D02*
X118017657Y-108988448D01*
X118017657Y-108988448D02*
X118112895Y-108964639D01*
X118112895Y-108964639D02*
X118184323Y-108964639D01*
X118184323Y-108964639D02*
X118279561Y-108988448D01*
X118279561Y-108988448D02*
X118327180Y-109012258D01*
X118327180Y-109012258D02*
X118374800Y-109059877D01*
X118374800Y-109059877D02*
X118398609Y-109131305D01*
X118398609Y-109131305D02*
X118398609Y-109250353D01*
X118398609Y-112560163D02*
X117898609Y-112560163D01*
X117898609Y-112560163D02*
X117898609Y-112441115D01*
X117898609Y-112441115D02*
X117922419Y-112369687D01*
X117922419Y-112369687D02*
X117970038Y-112322068D01*
X117970038Y-112322068D02*
X118017657Y-112298258D01*
X118017657Y-112298258D02*
X118112895Y-112274449D01*
X118112895Y-112274449D02*
X118184323Y-112274449D01*
X118184323Y-112274449D02*
X118279561Y-112298258D01*
X118279561Y-112298258D02*
X118327180Y-112322068D01*
X118327180Y-112322068D02*
X118374800Y-112369687D01*
X118374800Y-112369687D02*
X118398609Y-112441115D01*
X118398609Y-112441115D02*
X118398609Y-112560163D01*
X118255752Y-112083972D02*
X118255752Y-111845877D01*
X118398609Y-112131591D02*
X117898609Y-111964925D01*
X117898609Y-111964925D02*
X118398609Y-111798258D01*
X117898609Y-111703020D02*
X117898609Y-111417306D01*
X118398609Y-111560163D02*
X117898609Y-111560163D01*
X118255752Y-111274449D02*
X118255752Y-111036354D01*
X118398609Y-111322068D02*
X117898609Y-111155402D01*
X117898609Y-111155402D02*
X118398609Y-110988735D01*
X126558419Y-55021258D02*
X126534609Y-55068877D01*
X126534609Y-55068877D02*
X126534609Y-55140306D01*
X126534609Y-55140306D02*
X126558419Y-55211734D01*
X126558419Y-55211734D02*
X126606038Y-55259353D01*
X126606038Y-55259353D02*
X126653657Y-55283163D01*
X126653657Y-55283163D02*
X126748895Y-55306972D01*
X126748895Y-55306972D02*
X126820323Y-55306972D01*
X126820323Y-55306972D02*
X126915561Y-55283163D01*
X126915561Y-55283163D02*
X126963180Y-55259353D01*
X126963180Y-55259353D02*
X127010800Y-55211734D01*
X127010800Y-55211734D02*
X127034609Y-55140306D01*
X127034609Y-55140306D02*
X127034609Y-55092687D01*
X127034609Y-55092687D02*
X127010800Y-55021258D01*
X127010800Y-55021258D02*
X126986990Y-54997449D01*
X126986990Y-54997449D02*
X126820323Y-54997449D01*
X126820323Y-54997449D02*
X126820323Y-55092687D01*
X127034609Y-54783163D02*
X126534609Y-54783163D01*
X126534609Y-54783163D02*
X126534609Y-54592687D01*
X126534609Y-54592687D02*
X126558419Y-54545068D01*
X126558419Y-54545068D02*
X126582228Y-54521258D01*
X126582228Y-54521258D02*
X126629847Y-54497449D01*
X126629847Y-54497449D02*
X126701276Y-54497449D01*
X126701276Y-54497449D02*
X126748895Y-54521258D01*
X126748895Y-54521258D02*
X126772704Y-54545068D01*
X126772704Y-54545068D02*
X126796514Y-54592687D01*
X126796514Y-54592687D02*
X126796514Y-54783163D01*
X127010800Y-54306972D02*
X127034609Y-54235544D01*
X127034609Y-54235544D02*
X127034609Y-54116496D01*
X127034609Y-54116496D02*
X127010800Y-54068877D01*
X127010800Y-54068877D02*
X126986990Y-54045068D01*
X126986990Y-54045068D02*
X126939371Y-54021258D01*
X126939371Y-54021258D02*
X126891752Y-54021258D01*
X126891752Y-54021258D02*
X126844133Y-54045068D01*
X126844133Y-54045068D02*
X126820323Y-54068877D01*
X126820323Y-54068877D02*
X126796514Y-54116496D01*
X126796514Y-54116496D02*
X126772704Y-54211734D01*
X126772704Y-54211734D02*
X126748895Y-54259353D01*
X126748895Y-54259353D02*
X126725085Y-54283163D01*
X126725085Y-54283163D02*
X126677466Y-54306972D01*
X126677466Y-54306972D02*
X126629847Y-54306972D01*
X126629847Y-54306972D02*
X126582228Y-54283163D01*
X126582228Y-54283163D02*
X126558419Y-54259353D01*
X126558419Y-54259353D02*
X126534609Y-54211734D01*
X126534609Y-54211734D02*
X126534609Y-54092687D01*
X126534609Y-54092687D02*
X126558419Y-54021258D01*
X127034609Y-69126163D02*
X126534609Y-69126163D01*
X126534609Y-69126163D02*
X126534609Y-69007115D01*
X126534609Y-69007115D02*
X126558419Y-68935687D01*
X126558419Y-68935687D02*
X126606038Y-68888068D01*
X126606038Y-68888068D02*
X126653657Y-68864258D01*
X126653657Y-68864258D02*
X126748895Y-68840449D01*
X126748895Y-68840449D02*
X126820323Y-68840449D01*
X126820323Y-68840449D02*
X126915561Y-68864258D01*
X126915561Y-68864258D02*
X126963180Y-68888068D01*
X126963180Y-68888068D02*
X127010800Y-68935687D01*
X127010800Y-68935687D02*
X127034609Y-69007115D01*
X127034609Y-69007115D02*
X127034609Y-69126163D01*
X127034609Y-68626163D02*
X126534609Y-68626163D01*
X126772704Y-68626163D02*
X126772704Y-68340449D01*
X127034609Y-68340449D02*
X126534609Y-68340449D01*
X127034609Y-67840448D02*
X127034609Y-68126162D01*
X127034609Y-67983305D02*
X126534609Y-67983305D01*
X126534609Y-67983305D02*
X126606038Y-68030924D01*
X126606038Y-68030924D02*
X126653657Y-68078543D01*
X126653657Y-68078543D02*
X126677466Y-68126162D01*
X127034609Y-67364258D02*
X127034609Y-67649972D01*
X127034609Y-67507115D02*
X126534609Y-67507115D01*
X126534609Y-67507115D02*
X126606038Y-67554734D01*
X126606038Y-67554734D02*
X126653657Y-67602353D01*
X126653657Y-67602353D02*
X126677466Y-67649972D01*
X126534609Y-83016782D02*
X127034609Y-82897734D01*
X127034609Y-82897734D02*
X126677466Y-82802496D01*
X126677466Y-82802496D02*
X127034609Y-82707258D01*
X127034609Y-82707258D02*
X126534609Y-82588211D01*
X127034609Y-82397734D02*
X126534609Y-82397734D01*
X127034609Y-82159639D02*
X126534609Y-82159639D01*
X126534609Y-82159639D02*
X127034609Y-81873925D01*
X127034609Y-81873925D02*
X126534609Y-81873925D01*
X127034609Y-81635829D02*
X126534609Y-81635829D01*
X126534609Y-81635829D02*
X126534609Y-81516781D01*
X126534609Y-81516781D02*
X126558419Y-81445353D01*
X126558419Y-81445353D02*
X126606038Y-81397734D01*
X126606038Y-81397734D02*
X126653657Y-81373924D01*
X126653657Y-81373924D02*
X126748895Y-81350115D01*
X126748895Y-81350115D02*
X126820323Y-81350115D01*
X126820323Y-81350115D02*
X126915561Y-81373924D01*
X126915561Y-81373924D02*
X126963180Y-81397734D01*
X126963180Y-81397734D02*
X127010800Y-81445353D01*
X127010800Y-81445353D02*
X127034609Y-81516781D01*
X127034609Y-81516781D02*
X127034609Y-81635829D01*
X126772704Y-99312496D02*
X126796514Y-99241068D01*
X126796514Y-99241068D02*
X126820323Y-99217258D01*
X126820323Y-99217258D02*
X126867942Y-99193449D01*
X126867942Y-99193449D02*
X126939371Y-99193449D01*
X126939371Y-99193449D02*
X126986990Y-99217258D01*
X126986990Y-99217258D02*
X127010800Y-99241068D01*
X127010800Y-99241068D02*
X127034609Y-99288687D01*
X127034609Y-99288687D02*
X127034609Y-99479163D01*
X127034609Y-99479163D02*
X126534609Y-99479163D01*
X126534609Y-99479163D02*
X126534609Y-99312496D01*
X126534609Y-99312496D02*
X126558419Y-99264877D01*
X126558419Y-99264877D02*
X126582228Y-99241068D01*
X126582228Y-99241068D02*
X126629847Y-99217258D01*
X126629847Y-99217258D02*
X126677466Y-99217258D01*
X126677466Y-99217258D02*
X126725085Y-99241068D01*
X126725085Y-99241068D02*
X126748895Y-99264877D01*
X126748895Y-99264877D02*
X126772704Y-99312496D01*
X126772704Y-99312496D02*
X126772704Y-99479163D01*
X127034609Y-98979163D02*
X126534609Y-98979163D01*
X126534609Y-98979163D02*
X126891752Y-98812496D01*
X126891752Y-98812496D02*
X126534609Y-98645830D01*
X126534609Y-98645830D02*
X127034609Y-98645830D01*
X127034609Y-98407734D02*
X126534609Y-98407734D01*
X126534609Y-98407734D02*
X126534609Y-98217258D01*
X126534609Y-98217258D02*
X126558419Y-98169639D01*
X126558419Y-98169639D02*
X126582228Y-98145829D01*
X126582228Y-98145829D02*
X126629847Y-98122020D01*
X126629847Y-98122020D02*
X126701276Y-98122020D01*
X126701276Y-98122020D02*
X126748895Y-98145829D01*
X126748895Y-98145829D02*
X126772704Y-98169639D01*
X126772704Y-98169639D02*
X126796514Y-98217258D01*
X126796514Y-98217258D02*
X126796514Y-98407734D01*
X127034609Y-97645829D02*
X127034609Y-97931543D01*
X127034609Y-97788686D02*
X126534609Y-97788686D01*
X126534609Y-97788686D02*
X126606038Y-97836305D01*
X126606038Y-97836305D02*
X126653657Y-97883924D01*
X126653657Y-97883924D02*
X126677466Y-97931543D01*
X126748895Y-97360115D02*
X126725085Y-97407734D01*
X126725085Y-97407734D02*
X126701276Y-97431544D01*
X126701276Y-97431544D02*
X126653657Y-97455353D01*
X126653657Y-97455353D02*
X126629847Y-97455353D01*
X126629847Y-97455353D02*
X126582228Y-97431544D01*
X126582228Y-97431544D02*
X126558419Y-97407734D01*
X126558419Y-97407734D02*
X126534609Y-97360115D01*
X126534609Y-97360115D02*
X126534609Y-97264877D01*
X126534609Y-97264877D02*
X126558419Y-97217258D01*
X126558419Y-97217258D02*
X126582228Y-97193449D01*
X126582228Y-97193449D02*
X126629847Y-97169639D01*
X126629847Y-97169639D02*
X126653657Y-97169639D01*
X126653657Y-97169639D02*
X126701276Y-97193449D01*
X126701276Y-97193449D02*
X126725085Y-97217258D01*
X126725085Y-97217258D02*
X126748895Y-97264877D01*
X126748895Y-97264877D02*
X126748895Y-97360115D01*
X126748895Y-97360115D02*
X126772704Y-97407734D01*
X126772704Y-97407734D02*
X126796514Y-97431544D01*
X126796514Y-97431544D02*
X126844133Y-97455353D01*
X126844133Y-97455353D02*
X126939371Y-97455353D01*
X126939371Y-97455353D02*
X126986990Y-97431544D01*
X126986990Y-97431544D02*
X127010800Y-97407734D01*
X127010800Y-97407734D02*
X127034609Y-97360115D01*
X127034609Y-97360115D02*
X127034609Y-97264877D01*
X127034609Y-97264877D02*
X127010800Y-97217258D01*
X127010800Y-97217258D02*
X126986990Y-97193449D01*
X126986990Y-97193449D02*
X126939371Y-97169639D01*
X126939371Y-97169639D02*
X126844133Y-97169639D01*
X126844133Y-97169639D02*
X126796514Y-97193449D01*
X126796514Y-97193449D02*
X126772704Y-97217258D01*
X126772704Y-97217258D02*
X126748895Y-97264877D01*
X126534609Y-96860116D02*
X126534609Y-96812497D01*
X126534609Y-96812497D02*
X126558419Y-96764878D01*
X126558419Y-96764878D02*
X126582228Y-96741068D01*
X126582228Y-96741068D02*
X126629847Y-96717259D01*
X126629847Y-96717259D02*
X126725085Y-96693449D01*
X126725085Y-96693449D02*
X126844133Y-96693449D01*
X126844133Y-96693449D02*
X126939371Y-96717259D01*
X126939371Y-96717259D02*
X126986990Y-96741068D01*
X126986990Y-96741068D02*
X127010800Y-96764878D01*
X127010800Y-96764878D02*
X127034609Y-96812497D01*
X127034609Y-96812497D02*
X127034609Y-96860116D01*
X127034609Y-96860116D02*
X127010800Y-96907735D01*
X127010800Y-96907735D02*
X126986990Y-96931544D01*
X126986990Y-96931544D02*
X126939371Y-96955354D01*
X126939371Y-96955354D02*
X126844133Y-96979163D01*
X126844133Y-96979163D02*
X126725085Y-96979163D01*
X126725085Y-96979163D02*
X126629847Y-96955354D01*
X126629847Y-96955354D02*
X126582228Y-96931544D01*
X126582228Y-96931544D02*
X126558419Y-96907735D01*
X126558419Y-96907735D02*
X126534609Y-96860116D01*
X127034609Y-113163449D02*
X126796514Y-113330115D01*
X127034609Y-113449163D02*
X126534609Y-113449163D01*
X126534609Y-113449163D02*
X126534609Y-113258687D01*
X126534609Y-113258687D02*
X126558419Y-113211068D01*
X126558419Y-113211068D02*
X126582228Y-113187258D01*
X126582228Y-113187258D02*
X126629847Y-113163449D01*
X126629847Y-113163449D02*
X126701276Y-113163449D01*
X126701276Y-113163449D02*
X126748895Y-113187258D01*
X126748895Y-113187258D02*
X126772704Y-113211068D01*
X126772704Y-113211068D02*
X126796514Y-113258687D01*
X126796514Y-113258687D02*
X126796514Y-113449163D01*
X126891752Y-112972972D02*
X126891752Y-112734877D01*
X127034609Y-113020591D02*
X126534609Y-112853925D01*
X126534609Y-112853925D02*
X127034609Y-112687258D01*
X127034609Y-112520592D02*
X126534609Y-112520592D01*
X127034609Y-112282497D02*
X126534609Y-112282497D01*
X126534609Y-112282497D02*
X127034609Y-111996783D01*
X127034609Y-111996783D02*
X126534609Y-111996783D01*
X171473884Y-114919419D02*
X171473884Y-115728942D01*
X171473884Y-115728942D02*
X171521503Y-115824180D01*
X171521503Y-115824180D02*
X171569122Y-115871800D01*
X171569122Y-115871800D02*
X171664360Y-115919419D01*
X171664360Y-115919419D02*
X171854836Y-115919419D01*
X171854836Y-115919419D02*
X171950074Y-115871800D01*
X171950074Y-115871800D02*
X171997693Y-115824180D01*
X171997693Y-115824180D02*
X172045312Y-115728942D01*
X172045312Y-115728942D02*
X172045312Y-114919419D01*
X172473884Y-115633704D02*
X172950074Y-115633704D01*
X172378646Y-115919419D02*
X172711979Y-114919419D01*
X172711979Y-114919419D02*
X173045312Y-115919419D01*
X173950074Y-115919419D02*
X173616741Y-115443228D01*
X173378646Y-115919419D02*
X173378646Y-114919419D01*
X173378646Y-114919419D02*
X173759598Y-114919419D01*
X173759598Y-114919419D02*
X173854836Y-114967038D01*
X173854836Y-114967038D02*
X173902455Y-115014657D01*
X173902455Y-115014657D02*
X173950074Y-115109895D01*
X173950074Y-115109895D02*
X173950074Y-115252752D01*
X173950074Y-115252752D02*
X173902455Y-115347990D01*
X173902455Y-115347990D02*
X173854836Y-115395609D01*
X173854836Y-115395609D02*
X173759598Y-115443228D01*
X173759598Y-115443228D02*
X173378646Y-115443228D01*
X174235789Y-114919419D02*
X174807217Y-114919419D01*
X174521503Y-115919419D02*
X174521503Y-114919419D01*
X175331027Y-114919419D02*
X175426265Y-114919419D01*
X175426265Y-114919419D02*
X175521503Y-114967038D01*
X175521503Y-114967038D02*
X175569122Y-115014657D01*
X175569122Y-115014657D02*
X175616741Y-115109895D01*
X175616741Y-115109895D02*
X175664360Y-115300371D01*
X175664360Y-115300371D02*
X175664360Y-115538466D01*
X175664360Y-115538466D02*
X175616741Y-115728942D01*
X175616741Y-115728942D02*
X175569122Y-115824180D01*
X175569122Y-115824180D02*
X175521503Y-115871800D01*
X175521503Y-115871800D02*
X175426265Y-115919419D01*
X175426265Y-115919419D02*
X175331027Y-115919419D01*
X175331027Y-115919419D02*
X175235789Y-115871800D01*
X175235789Y-115871800D02*
X175188170Y-115824180D01*
X175188170Y-115824180D02*
X175140551Y-115728942D01*
X175140551Y-115728942D02*
X175092932Y-115538466D01*
X175092932Y-115538466D02*
X175092932Y-115300371D01*
X175092932Y-115300371D02*
X175140551Y-115109895D01*
X175140551Y-115109895D02*
X175188170Y-115014657D01*
X175188170Y-115014657D02*
X175235789Y-114967038D01*
X175235789Y-114967038D02*
X175331027Y-114919419D01*
X136659979Y-52297038D02*
X136659979Y-50297038D01*
X136659979Y-50297038D02*
X137326646Y-51725609D01*
X137326646Y-51725609D02*
X137993312Y-50297038D01*
X137993312Y-50297038D02*
X137993312Y-52297038D01*
X139326645Y-50297038D02*
X139707598Y-50297038D01*
X139707598Y-50297038D02*
X139898074Y-50392276D01*
X139898074Y-50392276D02*
X140088550Y-50582752D01*
X140088550Y-50582752D02*
X140183788Y-50963704D01*
X140183788Y-50963704D02*
X140183788Y-51630371D01*
X140183788Y-51630371D02*
X140088550Y-52011323D01*
X140088550Y-52011323D02*
X139898074Y-52201800D01*
X139898074Y-52201800D02*
X139707598Y-52297038D01*
X139707598Y-52297038D02*
X139326645Y-52297038D01*
X139326645Y-52297038D02*
X139136169Y-52201800D01*
X139136169Y-52201800D02*
X138945693Y-52011323D01*
X138945693Y-52011323D02*
X138850455Y-51630371D01*
X138850455Y-51630371D02*
X138850455Y-50963704D01*
X138850455Y-50963704D02*
X138945693Y-50582752D01*
X138945693Y-50582752D02*
X139136169Y-50392276D01*
X139136169Y-50392276D02*
X139326645Y-50297038D01*
X141040931Y-52297038D02*
X141040931Y-50297038D01*
X141040931Y-50297038D02*
X141517121Y-50297038D01*
X141517121Y-50297038D02*
X141802836Y-50392276D01*
X141802836Y-50392276D02*
X141993312Y-50582752D01*
X141993312Y-50582752D02*
X142088550Y-50773228D01*
X142088550Y-50773228D02*
X142183788Y-51154180D01*
X142183788Y-51154180D02*
X142183788Y-51439895D01*
X142183788Y-51439895D02*
X142088550Y-51820847D01*
X142088550Y-51820847D02*
X141993312Y-52011323D01*
X141993312Y-52011323D02*
X141802836Y-52201800D01*
X141802836Y-52201800D02*
X141517121Y-52297038D01*
X141517121Y-52297038D02*
X141040931Y-52297038D01*
X143040931Y-50297038D02*
X143040931Y-51916085D01*
X143040931Y-51916085D02*
X143136169Y-52106561D01*
X143136169Y-52106561D02*
X143231407Y-52201800D01*
X143231407Y-52201800D02*
X143421883Y-52297038D01*
X143421883Y-52297038D02*
X143802836Y-52297038D01*
X143802836Y-52297038D02*
X143993312Y-52201800D01*
X143993312Y-52201800D02*
X144088550Y-52106561D01*
X144088550Y-52106561D02*
X144183788Y-51916085D01*
X144183788Y-51916085D02*
X144183788Y-50297038D01*
X146088550Y-52297038D02*
X145136169Y-52297038D01*
X145136169Y-52297038D02*
X145136169Y-50297038D01*
X146755217Y-51249419D02*
X147421884Y-51249419D01*
X147707598Y-52297038D02*
X146755217Y-52297038D01*
X146755217Y-52297038D02*
X146755217Y-50297038D01*
X146755217Y-50297038D02*
X147707598Y-50297038D01*
X151136170Y-50392276D02*
X150945694Y-50297038D01*
X150945694Y-50297038D02*
X150659980Y-50297038D01*
X150659980Y-50297038D02*
X150374265Y-50392276D01*
X150374265Y-50392276D02*
X150183789Y-50582752D01*
X150183789Y-50582752D02*
X150088551Y-50773228D01*
X150088551Y-50773228D02*
X149993313Y-51154180D01*
X149993313Y-51154180D02*
X149993313Y-51439895D01*
X149993313Y-51439895D02*
X150088551Y-51820847D01*
X150088551Y-51820847D02*
X150183789Y-52011323D01*
X150183789Y-52011323D02*
X150374265Y-52201800D01*
X150374265Y-52201800D02*
X150659980Y-52297038D01*
X150659980Y-52297038D02*
X150850456Y-52297038D01*
X150850456Y-52297038D02*
X151136170Y-52201800D01*
X151136170Y-52201800D02*
X151231408Y-52106561D01*
X151231408Y-52106561D02*
X151231408Y-51439895D01*
X151231408Y-51439895D02*
X150850456Y-51439895D01*
X152088551Y-52297038D02*
X152088551Y-50297038D01*
X152088551Y-50297038D02*
X152850456Y-50297038D01*
X152850456Y-50297038D02*
X153040932Y-50392276D01*
X153040932Y-50392276D02*
X153136170Y-50487514D01*
X153136170Y-50487514D02*
X153231408Y-50677990D01*
X153231408Y-50677990D02*
X153231408Y-50963704D01*
X153231408Y-50963704D02*
X153136170Y-51154180D01*
X153136170Y-51154180D02*
X153040932Y-51249419D01*
X153040932Y-51249419D02*
X152850456Y-51344657D01*
X152850456Y-51344657D02*
X152088551Y-51344657D01*
X153993313Y-52201800D02*
X154279027Y-52297038D01*
X154279027Y-52297038D02*
X154755218Y-52297038D01*
X154755218Y-52297038D02*
X154945694Y-52201800D01*
X154945694Y-52201800D02*
X155040932Y-52106561D01*
X155040932Y-52106561D02*
X155136170Y-51916085D01*
X155136170Y-51916085D02*
X155136170Y-51725609D01*
X155136170Y-51725609D02*
X155040932Y-51535133D01*
X155040932Y-51535133D02*
X154945694Y-51439895D01*
X154945694Y-51439895D02*
X154755218Y-51344657D01*
X154755218Y-51344657D02*
X154374265Y-51249419D01*
X154374265Y-51249419D02*
X154183789Y-51154180D01*
X154183789Y-51154180D02*
X154088551Y-51058942D01*
X154088551Y-51058942D02*
X153993313Y-50868466D01*
X153993313Y-50868466D02*
X153993313Y-50677990D01*
X153993313Y-50677990D02*
X154088551Y-50487514D01*
X154088551Y-50487514D02*
X154183789Y-50392276D01*
X154183789Y-50392276D02*
X154374265Y-50297038D01*
X154374265Y-50297038D02*
X154850456Y-50297038D01*
X154850456Y-50297038D02*
X155136170Y-50392276D01*
X137675979Y-93885319D02*
X138342646Y-93885319D01*
X138628360Y-94932938D02*
X137675979Y-94932938D01*
X137675979Y-94932938D02*
X137675979Y-92932938D01*
X137675979Y-92932938D02*
X138628360Y-92932938D01*
X139390265Y-94837700D02*
X139675979Y-94932938D01*
X139675979Y-94932938D02*
X140152170Y-94932938D01*
X140152170Y-94932938D02*
X140342646Y-94837700D01*
X140342646Y-94837700D02*
X140437884Y-94742461D01*
X140437884Y-94742461D02*
X140533122Y-94551985D01*
X140533122Y-94551985D02*
X140533122Y-94361509D01*
X140533122Y-94361509D02*
X140437884Y-94171033D01*
X140437884Y-94171033D02*
X140342646Y-94075795D01*
X140342646Y-94075795D02*
X140152170Y-93980557D01*
X140152170Y-93980557D02*
X139771217Y-93885319D01*
X139771217Y-93885319D02*
X139580741Y-93790080D01*
X139580741Y-93790080D02*
X139485503Y-93694842D01*
X139485503Y-93694842D02*
X139390265Y-93504366D01*
X139390265Y-93504366D02*
X139390265Y-93313890D01*
X139390265Y-93313890D02*
X139485503Y-93123414D01*
X139485503Y-93123414D02*
X139580741Y-93028176D01*
X139580741Y-93028176D02*
X139771217Y-92932938D01*
X139771217Y-92932938D02*
X140247408Y-92932938D01*
X140247408Y-92932938D02*
X140533122Y-93028176D01*
X141390265Y-94932938D02*
X141390265Y-92932938D01*
X141390265Y-92932938D02*
X142152170Y-92932938D01*
X142152170Y-92932938D02*
X142342646Y-93028176D01*
X142342646Y-93028176D02*
X142437884Y-93123414D01*
X142437884Y-93123414D02*
X142533122Y-93313890D01*
X142533122Y-93313890D02*
X142533122Y-93599604D01*
X142533122Y-93599604D02*
X142437884Y-93790080D01*
X142437884Y-93790080D02*
X142342646Y-93885319D01*
X142342646Y-93885319D02*
X142152170Y-93980557D01*
X142152170Y-93980557D02*
X141390265Y-93980557D01*
X143199789Y-92932938D02*
X144437884Y-92932938D01*
X144437884Y-92932938D02*
X143771217Y-93694842D01*
X143771217Y-93694842D02*
X144056932Y-93694842D01*
X144056932Y-93694842D02*
X144247408Y-93790080D01*
X144247408Y-93790080D02*
X144342646Y-93885319D01*
X144342646Y-93885319D02*
X144437884Y-94075795D01*
X144437884Y-94075795D02*
X144437884Y-94551985D01*
X144437884Y-94551985D02*
X144342646Y-94742461D01*
X144342646Y-94742461D02*
X144247408Y-94837700D01*
X144247408Y-94837700D02*
X144056932Y-94932938D01*
X144056932Y-94932938D02*
X143485503Y-94932938D01*
X143485503Y-94932938D02*
X143295027Y-94837700D01*
X143295027Y-94837700D02*
X143199789Y-94742461D01*
X145199789Y-93123414D02*
X145295027Y-93028176D01*
X145295027Y-93028176D02*
X145485503Y-92932938D01*
X145485503Y-92932938D02*
X145961694Y-92932938D01*
X145961694Y-92932938D02*
X146152170Y-93028176D01*
X146152170Y-93028176D02*
X146247408Y-93123414D01*
X146247408Y-93123414D02*
X146342646Y-93313890D01*
X146342646Y-93313890D02*
X146342646Y-93504366D01*
X146342646Y-93504366D02*
X146247408Y-93790080D01*
X146247408Y-93790080D02*
X145104551Y-94932938D01*
X145104551Y-94932938D02*
X146342646Y-94932938D01*
X148723599Y-94932938D02*
X148723599Y-92932938D01*
X148723599Y-92932938D02*
X149199789Y-92932938D01*
X149199789Y-92932938D02*
X149485504Y-93028176D01*
X149485504Y-93028176D02*
X149675980Y-93218652D01*
X149675980Y-93218652D02*
X149771218Y-93409128D01*
X149771218Y-93409128D02*
X149866456Y-93790080D01*
X149866456Y-93790080D02*
X149866456Y-94075795D01*
X149866456Y-94075795D02*
X149771218Y-94456747D01*
X149771218Y-94456747D02*
X149675980Y-94647223D01*
X149675980Y-94647223D02*
X149485504Y-94837700D01*
X149485504Y-94837700D02*
X149199789Y-94932938D01*
X149199789Y-94932938D02*
X148723599Y-94932938D01*
X150723599Y-93885319D02*
X151390266Y-93885319D01*
X151675980Y-94932938D02*
X150723599Y-94932938D01*
X150723599Y-94932938D02*
X150723599Y-92932938D01*
X150723599Y-92932938D02*
X151675980Y-92932938D01*
X152247409Y-92932938D02*
X152914075Y-94932938D01*
X152914075Y-94932938D02*
X153580742Y-92932938D01*
X154247409Y-94932938D02*
X154247409Y-92932938D01*
X155390266Y-94932938D02*
X154533123Y-93790080D01*
X155390266Y-92932938D02*
X154247409Y-94075795D01*
X156247409Y-94932938D02*
X156247409Y-92932938D01*
X156914076Y-92932938D02*
X158056933Y-92932938D01*
X157485504Y-94932938D02*
X157485504Y-92932938D01*
X165996979Y-52244938D02*
X165996979Y-50244938D01*
X165996979Y-50244938D02*
X166663646Y-51673509D01*
X166663646Y-51673509D02*
X167330312Y-50244938D01*
X167330312Y-50244938D02*
X167330312Y-52244938D01*
X168663645Y-50244938D02*
X169044598Y-50244938D01*
X169044598Y-50244938D02*
X169235074Y-50340176D01*
X169235074Y-50340176D02*
X169425550Y-50530652D01*
X169425550Y-50530652D02*
X169520788Y-50911604D01*
X169520788Y-50911604D02*
X169520788Y-51578271D01*
X169520788Y-51578271D02*
X169425550Y-51959223D01*
X169425550Y-51959223D02*
X169235074Y-52149700D01*
X169235074Y-52149700D02*
X169044598Y-52244938D01*
X169044598Y-52244938D02*
X168663645Y-52244938D01*
X168663645Y-52244938D02*
X168473169Y-52149700D01*
X168473169Y-52149700D02*
X168282693Y-51959223D01*
X168282693Y-51959223D02*
X168187455Y-51578271D01*
X168187455Y-51578271D02*
X168187455Y-50911604D01*
X168187455Y-50911604D02*
X168282693Y-50530652D01*
X168282693Y-50530652D02*
X168473169Y-50340176D01*
X168473169Y-50340176D02*
X168663645Y-50244938D01*
X170377931Y-52244938D02*
X170377931Y-50244938D01*
X170377931Y-50244938D02*
X170854121Y-50244938D01*
X170854121Y-50244938D02*
X171139836Y-50340176D01*
X171139836Y-50340176D02*
X171330312Y-50530652D01*
X171330312Y-50530652D02*
X171425550Y-50721128D01*
X171425550Y-50721128D02*
X171520788Y-51102080D01*
X171520788Y-51102080D02*
X171520788Y-51387795D01*
X171520788Y-51387795D02*
X171425550Y-51768747D01*
X171425550Y-51768747D02*
X171330312Y-51959223D01*
X171330312Y-51959223D02*
X171139836Y-52149700D01*
X171139836Y-52149700D02*
X170854121Y-52244938D01*
X170854121Y-52244938D02*
X170377931Y-52244938D01*
X172377931Y-50244938D02*
X172377931Y-51863985D01*
X172377931Y-51863985D02*
X172473169Y-52054461D01*
X172473169Y-52054461D02*
X172568407Y-52149700D01*
X172568407Y-52149700D02*
X172758883Y-52244938D01*
X172758883Y-52244938D02*
X173139836Y-52244938D01*
X173139836Y-52244938D02*
X173330312Y-52149700D01*
X173330312Y-52149700D02*
X173425550Y-52054461D01*
X173425550Y-52054461D02*
X173520788Y-51863985D01*
X173520788Y-51863985D02*
X173520788Y-50244938D01*
X175425550Y-52244938D02*
X174473169Y-52244938D01*
X174473169Y-52244938D02*
X174473169Y-50244938D01*
X176092217Y-51197319D02*
X176758884Y-51197319D01*
X177044598Y-52244938D02*
X176092217Y-52244938D01*
X176092217Y-52244938D02*
X176092217Y-50244938D01*
X176092217Y-50244938D02*
X177044598Y-50244938D01*
X179330313Y-52149700D02*
X179616027Y-52244938D01*
X179616027Y-52244938D02*
X180092218Y-52244938D01*
X180092218Y-52244938D02*
X180282694Y-52149700D01*
X180282694Y-52149700D02*
X180377932Y-52054461D01*
X180377932Y-52054461D02*
X180473170Y-51863985D01*
X180473170Y-51863985D02*
X180473170Y-51673509D01*
X180473170Y-51673509D02*
X180377932Y-51483033D01*
X180377932Y-51483033D02*
X180282694Y-51387795D01*
X180282694Y-51387795D02*
X180092218Y-51292557D01*
X180092218Y-51292557D02*
X179711265Y-51197319D01*
X179711265Y-51197319D02*
X179520789Y-51102080D01*
X179520789Y-51102080D02*
X179425551Y-51006842D01*
X179425551Y-51006842D02*
X179330313Y-50816366D01*
X179330313Y-50816366D02*
X179330313Y-50625890D01*
X179330313Y-50625890D02*
X179425551Y-50435414D01*
X179425551Y-50435414D02*
X179520789Y-50340176D01*
X179520789Y-50340176D02*
X179711265Y-50244938D01*
X179711265Y-50244938D02*
X180187456Y-50244938D01*
X180187456Y-50244938D02*
X180473170Y-50340176D01*
X181330313Y-52244938D02*
X181330313Y-50244938D01*
X182282694Y-52244938D02*
X182282694Y-50244938D01*
X182282694Y-50244938D02*
X182949361Y-51673509D01*
X182949361Y-51673509D02*
X183616027Y-50244938D01*
X183616027Y-50244938D02*
X183616027Y-52244938D01*
X174569360Y-89067738D02*
X173616979Y-89067738D01*
X173616979Y-89067738D02*
X173616979Y-87067738D01*
X175236027Y-89067738D02*
X175236027Y-87067738D01*
X175236027Y-87067738D02*
X175902694Y-88496309D01*
X175902694Y-88496309D02*
X176569360Y-87067738D01*
X176569360Y-87067738D02*
X176569360Y-89067738D01*
X177426503Y-87258214D02*
X177521741Y-87162976D01*
X177521741Y-87162976D02*
X177712217Y-87067738D01*
X177712217Y-87067738D02*
X178188408Y-87067738D01*
X178188408Y-87067738D02*
X178378884Y-87162976D01*
X178378884Y-87162976D02*
X178474122Y-87258214D01*
X178474122Y-87258214D02*
X178569360Y-87448690D01*
X178569360Y-87448690D02*
X178569360Y-87639166D01*
X178569360Y-87639166D02*
X178474122Y-87924880D01*
X178474122Y-87924880D02*
X177331265Y-89067738D01*
X177331265Y-89067738D02*
X178569360Y-89067738D01*
X180378884Y-87067738D02*
X179426503Y-87067738D01*
X179426503Y-87067738D02*
X179331265Y-88020119D01*
X179331265Y-88020119D02*
X179426503Y-87924880D01*
X179426503Y-87924880D02*
X179616979Y-87829642D01*
X179616979Y-87829642D02*
X180093170Y-87829642D01*
X180093170Y-87829642D02*
X180283646Y-87924880D01*
X180283646Y-87924880D02*
X180378884Y-88020119D01*
X180378884Y-88020119D02*
X180474122Y-88210595D01*
X180474122Y-88210595D02*
X180474122Y-88686785D01*
X180474122Y-88686785D02*
X180378884Y-88877261D01*
X180378884Y-88877261D02*
X180283646Y-88972500D01*
X180283646Y-88972500D02*
X180093170Y-89067738D01*
X180093170Y-89067738D02*
X179616979Y-89067738D01*
X179616979Y-89067738D02*
X179426503Y-88972500D01*
X179426503Y-88972500D02*
X179331265Y-88877261D01*
X181426503Y-89067738D02*
X181807455Y-89067738D01*
X181807455Y-89067738D02*
X181997932Y-88972500D01*
X181997932Y-88972500D02*
X182093170Y-88877261D01*
X182093170Y-88877261D02*
X182283646Y-88591547D01*
X182283646Y-88591547D02*
X182378884Y-88210595D01*
X182378884Y-88210595D02*
X182378884Y-87448690D01*
X182378884Y-87448690D02*
X182283646Y-87258214D01*
X182283646Y-87258214D02*
X182188408Y-87162976D01*
X182188408Y-87162976D02*
X181997932Y-87067738D01*
X181997932Y-87067738D02*
X181616979Y-87067738D01*
X181616979Y-87067738D02*
X181426503Y-87162976D01*
X181426503Y-87162976D02*
X181331265Y-87258214D01*
X181331265Y-87258214D02*
X181236027Y-87448690D01*
X181236027Y-87448690D02*
X181236027Y-87924880D01*
X181236027Y-87924880D02*
X181331265Y-88115357D01*
X181331265Y-88115357D02*
X181426503Y-88210595D01*
X181426503Y-88210595D02*
X181616979Y-88305833D01*
X181616979Y-88305833D02*
X181997932Y-88305833D01*
X181997932Y-88305833D02*
X182188408Y-88210595D01*
X182188408Y-88210595D02*
X182283646Y-88115357D01*
X182283646Y-88115357D02*
X182378884Y-87924880D01*
X184093170Y-87067738D02*
X183712217Y-87067738D01*
X183712217Y-87067738D02*
X183521741Y-87162976D01*
X183521741Y-87162976D02*
X183426503Y-87258214D01*
X183426503Y-87258214D02*
X183236027Y-87543928D01*
X183236027Y-87543928D02*
X183140789Y-87924880D01*
X183140789Y-87924880D02*
X183140789Y-88686785D01*
X183140789Y-88686785D02*
X183236027Y-88877261D01*
X183236027Y-88877261D02*
X183331265Y-88972500D01*
X183331265Y-88972500D02*
X183521741Y-89067738D01*
X183521741Y-89067738D02*
X183902694Y-89067738D01*
X183902694Y-89067738D02*
X184093170Y-88972500D01*
X184093170Y-88972500D02*
X184188408Y-88877261D01*
X184188408Y-88877261D02*
X184283646Y-88686785D01*
X184283646Y-88686785D02*
X184283646Y-88210595D01*
X184283646Y-88210595D02*
X184188408Y-88020119D01*
X184188408Y-88020119D02*
X184093170Y-87924880D01*
X184093170Y-87924880D02*
X183902694Y-87829642D01*
X183902694Y-87829642D02*
X183521741Y-87829642D01*
X183521741Y-87829642D02*
X183331265Y-87924880D01*
X183331265Y-87924880D02*
X183236027Y-88020119D01*
X183236027Y-88020119D02*
X183140789Y-88210595D01*
%TO.C,J8*%
D11*
X128665300Y-77768400D02*
X128665300Y-113388400D01*
X128665300Y-77768400D02*
X131325300Y-77768400D01*
X128665300Y-113388400D02*
X131325300Y-113388400D01*
X129995300Y-75168400D02*
X131325300Y-75168400D01*
X131325300Y-75168400D02*
X131325300Y-76498400D01*
X131325300Y-77768400D02*
X131325300Y-113388400D01*
%TO.C,J6*%
X119549400Y-106978400D02*
X120549400Y-106978400D01*
X119549400Y-107228400D02*
X120549400Y-107228400D01*
X119549400Y-111808400D02*
X120549400Y-111808400D01*
X120549400Y-106978400D02*
X120549400Y-112058400D01*
X120549400Y-106978400D02*
X121079400Y-107228400D01*
X120549400Y-112058400D02*
X119549400Y-112058400D01*
X121079400Y-107228400D02*
X121079400Y-111808400D01*
X121079400Y-111808400D02*
X120549400Y-112058400D01*
X124539400Y-105308400D02*
X120539400Y-105308400D01*
X124969400Y-106178400D02*
X124969400Y-107778400D01*
X124969400Y-107778400D02*
X125569400Y-107778400D01*
X124969400Y-108718400D02*
X124969400Y-110318400D01*
X124969400Y-110318400D02*
X125569400Y-110318400D01*
X124969400Y-111258400D02*
X124969400Y-112858400D01*
X124969400Y-112858400D02*
X125569400Y-112858400D01*
X125569400Y-106178400D02*
X124969400Y-106178400D01*
X125569400Y-108718400D02*
X124969400Y-108718400D01*
X125569400Y-111258400D02*
X124969400Y-111258400D01*
X119549400Y-105598400D02*
X125569400Y-105598400D01*
X125569400Y-113438400D01*
X119549400Y-113438400D01*
X119549400Y-105598400D01*
%TO.C,J2*%
X119549400Y-62735100D02*
X120549400Y-62735100D01*
X119549400Y-62985100D02*
X120549400Y-62985100D01*
X119549400Y-67565100D02*
X120549400Y-67565100D01*
X120549400Y-62735100D02*
X120549400Y-67815100D01*
X120549400Y-62735100D02*
X121079400Y-62985100D01*
X120549400Y-67815100D02*
X119549400Y-67815100D01*
X121079400Y-62985100D02*
X121079400Y-67565100D01*
X121079400Y-67565100D02*
X120549400Y-67815100D01*
X124539400Y-61065100D02*
X120539400Y-61065100D01*
X124969400Y-61935100D02*
X124969400Y-63535100D01*
X124969400Y-63535100D02*
X125569400Y-63535100D01*
X124969400Y-64475100D02*
X124969400Y-66075100D01*
X124969400Y-66075100D02*
X125569400Y-66075100D01*
X124969400Y-67015100D02*
X124969400Y-68615100D01*
X124969400Y-68615100D02*
X125569400Y-68615100D01*
X125569400Y-61935100D02*
X124969400Y-61935100D01*
X125569400Y-64475100D02*
X124969400Y-64475100D01*
X125569400Y-67015100D02*
X124969400Y-67015100D01*
X119549400Y-61355100D02*
X125569400Y-61355100D01*
X125569400Y-69195100D01*
X119549400Y-69195100D01*
X119549400Y-61355100D01*
%TO.C,U3*%
D10*
X161055300Y-38145400D02*
X189055300Y-38145400D01*
X189055300Y-64945400D01*
X161055300Y-64945400D01*
X161055300Y-38145400D01*
%TO.C,U2*%
X133411000Y-66898400D02*
X161581000Y-66898400D01*
X161581000Y-118208400D01*
X133411000Y-118208400D01*
X133411000Y-66898400D01*
%TO.C,U1*%
X168310300Y-66813200D02*
X189110300Y-66813200D01*
X189110300Y-109913200D01*
X168310300Y-109913200D01*
X168310300Y-66813200D01*
%TO.C,J1*%
D11*
X181640300Y-111485800D02*
X188880300Y-111485800D01*
X181640300Y-117705800D02*
X188880300Y-117705800D01*
X181640300Y-118805800D02*
X188880300Y-118805800D01*
X181640300Y-119325800D02*
X181640300Y-111485800D01*
X183210300Y-119325800D02*
X181640300Y-119325800D01*
X188880300Y-111485800D02*
X188880300Y-119325800D01*
X188880300Y-119325800D02*
X183810300Y-119325800D01*
X183950300Y-119935800D02*
X183070300Y-119935800D01*
X183510300Y-119325800D01*
X183950300Y-119935800D01*
G36*
X183950300Y-119935800D02*
G01*
X183070300Y-119935800D01*
X183510300Y-119325800D01*
X183950300Y-119935800D01*
G37*
%TO.C,REF\u002A\u002A*%
D10*
X129104500Y-38322400D02*
X159104500Y-38322400D01*
X159104500Y-63322400D01*
X129104500Y-63322400D01*
X129104500Y-38322400D01*
X129204500Y-45172400D02*
X133064500Y-45172400D01*
X133064500Y-57172400D01*
X129204500Y-57172400D01*
X129204500Y-45172400D01*
%TO.C,J5*%
D11*
X119549400Y-46294000D02*
X120549400Y-46294000D01*
X119549400Y-46544000D02*
X120549400Y-46544000D01*
X119549400Y-53664000D02*
X120549400Y-53664000D01*
X120549400Y-46294000D02*
X120549400Y-53914000D01*
X120549400Y-46294000D02*
X121079400Y-46544000D01*
X120549400Y-53914000D02*
X119549400Y-53914000D01*
X121079400Y-46544000D02*
X121079400Y-53664000D01*
X121079400Y-53664000D02*
X120549400Y-53914000D01*
X124539400Y-44624000D02*
X120539400Y-44624000D01*
X124969400Y-45494000D02*
X124969400Y-47094000D01*
X124969400Y-47094000D02*
X125569400Y-47094000D01*
X124969400Y-48034000D02*
X124969400Y-49634000D01*
X124969400Y-49634000D02*
X125569400Y-49634000D01*
X124969400Y-50574000D02*
X124969400Y-52174000D01*
X124969400Y-52174000D02*
X125569400Y-52174000D01*
X124969400Y-53114000D02*
X124969400Y-54714000D01*
X124969400Y-54714000D02*
X125569400Y-54714000D01*
X125569400Y-45494000D02*
X124969400Y-45494000D01*
X125569400Y-48034000D02*
X124969400Y-48034000D01*
X125569400Y-50574000D02*
X124969400Y-50574000D01*
X125569400Y-53114000D02*
X124969400Y-53114000D01*
X119549400Y-44914000D02*
X125569400Y-44914000D01*
X125569400Y-55294000D01*
X119549400Y-55294000D01*
X119549400Y-44914000D01*
%TO.C,J9*%
X163665300Y-77768400D02*
X163665300Y-113388400D01*
X163665300Y-77768400D02*
X166325300Y-77768400D01*
X163665300Y-113388400D02*
X166325300Y-113388400D01*
X164995300Y-75168400D02*
X166325300Y-75168400D01*
X166325300Y-75168400D02*
X166325300Y-76498400D01*
X166325300Y-77768400D02*
X166325300Y-113388400D01*
%TO.C,J3*%
X119549400Y-90537300D02*
X120549400Y-90537300D01*
X119549400Y-90787300D02*
X120549400Y-90787300D01*
X119549400Y-97907300D02*
X120549400Y-97907300D01*
X120549400Y-90537300D02*
X120549400Y-98157300D01*
X120549400Y-90537300D02*
X121079400Y-90787300D01*
X120549400Y-98157300D02*
X119549400Y-98157300D01*
X121079400Y-90787300D02*
X121079400Y-97907300D01*
X121079400Y-97907300D02*
X120549400Y-98157300D01*
X124539400Y-88867300D02*
X120539400Y-88867300D01*
X124969400Y-89737300D02*
X124969400Y-91337300D01*
X124969400Y-91337300D02*
X125569400Y-91337300D01*
X124969400Y-92277300D02*
X124969400Y-93877300D01*
X124969400Y-93877300D02*
X125569400Y-93877300D01*
X124969400Y-94817300D02*
X124969400Y-96417300D01*
X124969400Y-96417300D02*
X125569400Y-96417300D01*
X124969400Y-97357300D02*
X124969400Y-98957300D01*
X124969400Y-98957300D02*
X125569400Y-98957300D01*
X125569400Y-89737300D02*
X124969400Y-89737300D01*
X125569400Y-92277300D02*
X124969400Y-92277300D01*
X125569400Y-94817300D02*
X124969400Y-94817300D01*
X125569400Y-97357300D02*
X124969400Y-97357300D01*
X119549400Y-89157300D02*
X125569400Y-89157300D01*
X125569400Y-99537300D01*
X119549400Y-99537300D01*
X119549400Y-89157300D01*
%TO.C,J4*%
X119549400Y-76636200D02*
X120549400Y-76636200D01*
X119549400Y-76886200D02*
X120549400Y-76886200D01*
X119549400Y-81466200D02*
X120549400Y-81466200D01*
X120549400Y-76636200D02*
X120549400Y-81716200D01*
X120549400Y-76636200D02*
X121079400Y-76886200D01*
X120549400Y-81716200D02*
X119549400Y-81716200D01*
X121079400Y-76886200D02*
X121079400Y-81466200D01*
X121079400Y-81466200D02*
X120549400Y-81716200D01*
X124539400Y-74966200D02*
X120539400Y-74966200D01*
X124969400Y-75836200D02*
X124969400Y-77436200D01*
X124969400Y-77436200D02*
X125569400Y-77436200D01*
X124969400Y-78376200D02*
X124969400Y-79976200D01*
X124969400Y-79976200D02*
X125569400Y-79976200D01*
X124969400Y-80916200D02*
X124969400Y-82516200D01*
X124969400Y-82516200D02*
X125569400Y-82516200D01*
X125569400Y-75836200D02*
X124969400Y-75836200D01*
X125569400Y-78376200D02*
X124969400Y-78376200D01*
X125569400Y-80916200D02*
X124969400Y-80916200D01*
X119549400Y-75256200D02*
X125569400Y-75256200D01*
X125569400Y-83096200D01*
X119549400Y-83096200D01*
X119549400Y-75256200D01*
%TO.C,J10*%
X169840800Y-116820800D02*
X169840800Y-119580800D01*
X175030800Y-116820800D02*
X169840800Y-116820800D01*
X175030800Y-116820800D02*
X175030800Y-119580800D01*
X175030800Y-119580800D02*
X169840800Y-119580800D01*
X176300800Y-116820800D02*
X177680800Y-116820800D01*
X177680800Y-116820800D02*
X177680800Y-118200800D01*
%TD*%
M02*
