%TF.GenerationSoftware,KiCad,Pcbnew,10.0.0*%
%TF.CreationDate,2026-04-06T18:52:01+07:00*%
%TF.ProjectId,Embedded_project_v2,456d6265-6464-4656-945f-70726f6a6563,rev?*%
%TF.SameCoordinates,Original*%
%TF.FileFunction,Copper,L1,Top*%
%TF.FilePolarity,Positive*%
%FSLAX46Y46*%
G04 Gerber Fmt 4.6, Leading zero omitted, Abs format (unit mm)*
G04 Created by KiCad (PCBNEW 10.0.0) date 2026-04-06 18:52:01*
%MOMM*%
%LPD*%
G01*
G04 APERTURE LIST*
G04 Aperture macros list*
%AMRoundRect*
0 Rectangle with rounded corners*
0 $1 Rounding radius*
0 $2 $3 $4 $5 $6 $7 $8 $9 X,Y pos of 4 corners*
0 Add a 4 corners polygon primitive as box body*
4,1,4,$2,$3,$4,$5,$6,$7,$8,$9,$2,$3,0*
0 Add four circle primitives for the rounded corners*
1,1,$1+$1,$2,$3*
1,1,$1+$1,$4,$5*
1,1,$1+$1,$6,$7*
1,1,$1+$1,$8,$9*
0 Add four rect primitives between the rounded corners*
20,1,$1+$1,$2,$3,$4,$5,0*
20,1,$1+$1,$4,$5,$6,$7,0*
20,1,$1+$1,$6,$7,$8,$9,0*
20,1,$1+$1,$8,$9,$2,$3,0*%
G04 Aperture macros list end*
%TA.AperFunction,ComponentPad*%
%ADD10R,1.700000X1.700000*%
%TD*%
%TA.AperFunction,ComponentPad*%
%ADD11C,1.700000*%
%TD*%
%TA.AperFunction,ComponentPad*%
%ADD12RoundRect,0.250000X-0.845000X0.620000X-0.845000X-0.620000X0.845000X-0.620000X0.845000X0.620000X0*%
%TD*%
%TA.AperFunction,ComponentPad*%
%ADD13O,2.190000X1.740000*%
%TD*%
%TA.AperFunction,ComponentPad*%
%ADD14C,1.600000*%
%TD*%
%TA.AperFunction,ComponentPad*%
%ADD15R,2.540000X2.540000*%
%TD*%
%TA.AperFunction,ComponentPad*%
%ADD16RoundRect,0.250001X-0.949999X-0.949999X0.949999X-0.949999X0.949999X0.949999X-0.949999X0.949999X0*%
%TD*%
%TA.AperFunction,ComponentPad*%
%ADD17C,2.400000*%
%TD*%
%TA.AperFunction,Conductor*%
%ADD18C,0.300000*%
%TD*%
G04 APERTURE END LIST*
D10*
%TO.P,J8,1,Pin_1_1*%
%TO.N,+3V3*%
X129995300Y-76498400D03*
D11*
%TO.P,J8,2,Pin_2_2*%
%TO.N,GND*%
X129995300Y-79038400D03*
%TO.P,J8,3,Pin_3_3*%
%TO.N,Net-(J8-Pin_3)*%
X129995300Y-81578400D03*
%TO.P,J8,4,Pin_4_4*%
%TO.N,Net-(J8-Pin_4)*%
X129995300Y-84118400D03*
%TO.P,J8,5,Pin_5_5*%
%TO.N,/GPS_TX*%
X129995300Y-86658400D03*
%TO.P,J8,6,Pin_6_6*%
%TO.N,/GMS_TX*%
X129995300Y-89198400D03*
%TO.P,J8,7,Pin_7_7*%
%TO.N,/GMS_RX*%
X129995300Y-91738400D03*
%TO.P,J8,8,Pin_8_8*%
%TO.N,/GPS_RX*%
X129995300Y-94278400D03*
%TO.P,J8,9,Pin_9_9*%
%TO.N,/DHT11_DATA*%
X129995300Y-96818400D03*
%TO.P,J8,10,Pin_10_10*%
%TO.N,/WIND_DATA*%
X129995300Y-99358400D03*
%TO.P,J8,11,Pin_11_11*%
%TO.N,/BMP180_SDA*%
X129995300Y-101898400D03*
%TO.P,J8,12,Pin_12_12*%
%TO.N,/RX0*%
X129995300Y-104438400D03*
%TO.P,J8,13,Pin_13_13*%
%TO.N,/TX0*%
X129995300Y-106978400D03*
%TO.P,J8,14,Pin_14_14*%
%TO.N,/BMP180_SCL*%
X129995300Y-109518400D03*
%TO.P,J8,15,Pin_15_15*%
%TO.N,/RAIN_DATA*%
X129995300Y-112058400D03*
%TD*%
D12*
%TO.P,J6,1,Pin_1_1*%
%TO.N,+3V3*%
X122539400Y-106978400D03*
D13*
%TO.P,J6,2,Pin_2_2*%
%TO.N,GND*%
X122539400Y-109518400D03*
%TO.P,J6,3,Pin_3_3*%
%TO.N,/RAIN_DATA*%
X122539400Y-112058400D03*
%TD*%
D12*
%TO.P,J2,1,Pin_1_1*%
%TO.N,+3V3*%
X122539400Y-62735100D03*
D13*
%TO.P,J2,2,Pin_2_2*%
%TO.N,/DHT11_DATA*%
X122539400Y-65275100D03*
%TO.P,J2,3,Pin_3_3*%
%TO.N,GND*%
X122539400Y-67815100D03*
%TD*%
D14*
%TO.P,U3,1,VCC_1*%
%TO.N,+5V*%
X188003300Y-43920400D03*
%TO.P,U3,2,GND_2*%
%TO.N,GND*%
X188003300Y-46460400D03*
%TO.P,U3,3,TX_3*%
%TO.N,/GMS_TX*%
X188003300Y-49000400D03*
%TO.P,U3,4,RX_4*%
%TO.N,/GMS_RX*%
X188003300Y-51540400D03*
%TO.P,U3,5,NET_5*%
%TO.N,unconnected-(U3-NET-Pad5)*%
X188003300Y-54080400D03*
%TO.P,U3,6,PEN_6*%
%TO.N,unconnected-(U3-PEN-Pad6)*%
X188003300Y-56620400D03*
%TO.P,U3,7,DTR_7*%
%TO.N,unconnected-(U3-DTR-Pad7)*%
X188003300Y-59170400D03*
%TD*%
%TO.P,U2,1,3V3_1*%
%TO.N,+3V3*%
X134871000Y-76448400D03*
%TO.P,U2,2,GND_2*%
%TO.N,GND*%
X134871000Y-78988400D03*
%TO.P,U2,3,D15_3*%
%TO.N,Net-(J8-Pin_3)*%
X134871000Y-81528400D03*
%TO.P,U2,4,D2_4*%
%TO.N,Net-(J8-Pin_4)*%
X134871000Y-84068400D03*
%TO.P,U2,5,D4_5*%
%TO.N,/GPS_TX*%
X134871000Y-86608400D03*
%TO.P,U2,6,D16/RX2_6*%
%TO.N,/GMS_TX*%
X134871000Y-89148400D03*
%TO.P,U2,7,D17/TX2_7*%
%TO.N,/GMS_RX*%
X134871000Y-91688400D03*
%TO.P,U2,8,D5_8*%
%TO.N,/GPS_RX*%
X134871000Y-94228400D03*
%TO.P,U2,9,D18_9*%
%TO.N,/DHT11_DATA*%
X134871000Y-96768400D03*
%TO.P,U2,10,D19_10*%
%TO.N,/WIND_DATA*%
X134871000Y-99308400D03*
%TO.P,U2,11,D21_11*%
%TO.N,/BMP180_SDA*%
X134871000Y-101848400D03*
%TO.P,U2,12,D3/RX0_12*%
%TO.N,/RX0*%
X134871000Y-104388400D03*
%TO.P,U2,13,D1/TX0_13*%
%TO.N,/TX0*%
X134871000Y-106928400D03*
%TO.P,U2,14,D22_14*%
%TO.N,/BMP180_SCL*%
X134871000Y-109468400D03*
%TO.P,U2,15,D23_15*%
%TO.N,/RAIN_DATA*%
X134871000Y-112008400D03*
%TO.P,U2,16,Vin_16*%
%TO.N,+5V*%
X160121000Y-76448400D03*
%TO.P,U2,17,GND_17*%
%TO.N,GND*%
X160121000Y-78988400D03*
%TO.P,U2,18,D13_18*%
%TO.N,Net-(J9-Pin_3)*%
X160121000Y-81528400D03*
%TO.P,U2,19,D12_19*%
%TO.N,Net-(J9-Pin_4)*%
X160121000Y-84068400D03*
%TO.P,U2,20,D14_20*%
%TO.N,Net-(J9-Pin_5)*%
X160121000Y-86608400D03*
%TO.P,U2,21,D27_21*%
%TO.N,Net-(J9-Pin_6)*%
X160121000Y-89148400D03*
%TO.P,U2,22,D26_22*%
%TO.N,Net-(J9-Pin_7)*%
X160121000Y-91688400D03*
%TO.P,U2,23,D25_23*%
%TO.N,Net-(J9-Pin_8)*%
X160121000Y-94228400D03*
%TO.P,U2,24,D33_24*%
%TO.N,Net-(J9-Pin_9)*%
X160121000Y-96768400D03*
%TO.P,U2,25,D32_25*%
%TO.N,Net-(J9-Pin_10)*%
X160121000Y-99308400D03*
%TO.P,U2,26,D35_26*%
%TO.N,Net-(J9-Pin_11)*%
X160121000Y-101848400D03*
%TO.P,U2,27,D34_27*%
%TO.N,Net-(J9-Pin_12)*%
X160121000Y-104388400D03*
%TO.P,U2,28,D39/VN_28*%
%TO.N,Net-(J9-Pin_13)*%
X160121000Y-106928400D03*
%TO.P,U2,29,D36/VP_29*%
%TO.N,Net-(J9-Pin_14)*%
X160121000Y-109468400D03*
%TO.P,U2,30,EN_30*%
%TO.N,Net-(J9-Pin_15)*%
X160121000Y-112008400D03*
%TD*%
D15*
%TO.P,U1,1,IN+_1*%
%TO.N,+12V*%
X170075300Y-108178200D03*
%TO.P,U1,2,IN-_2*%
%TO.N,GND*%
X187345300Y-108178200D03*
%TO.P,U1,3,OUT+_3*%
%TO.N,+5V*%
X170075300Y-68548200D03*
%TO.P,U1,4,OUT-_4*%
%TO.N,GND*%
X187345300Y-68548200D03*
%TD*%
D16*
%TO.P,J1,1,Pin_1_1*%
%TO.N,+12V*%
X183510300Y-114705800D03*
D17*
%TO.P,J1,2,Pin_2_2*%
%TO.N,GND*%
X187010300Y-114705800D03*
%TD*%
D12*
%TO.P,J5,1,Pin_1_1*%
%TO.N,+3V3*%
X122539400Y-46294000D03*
D13*
%TO.P,J5,2,Pin_2_2*%
%TO.N,GND*%
X122539400Y-48834000D03*
%TO.P,J5,3,Pin_3_3*%
%TO.N,/GPS_TX*%
X122539400Y-51374000D03*
%TO.P,J5,4,Pin_4_4*%
%TO.N,/GPS_RX*%
X122539400Y-53914000D03*
%TD*%
D10*
%TO.P,J9,1,Pin_1_1*%
%TO.N,+5V*%
X164995300Y-76498400D03*
D11*
%TO.P,J9,2,Pin_2_2*%
%TO.N,GND*%
X164995300Y-79038400D03*
%TO.P,J9,3,Pin_3_3*%
%TO.N,Net-(J9-Pin_3)*%
X164995300Y-81578400D03*
%TO.P,J9,4,Pin_4_4*%
%TO.N,Net-(J9-Pin_4)*%
X164995300Y-84118400D03*
%TO.P,J9,5,Pin_5_5*%
%TO.N,Net-(J9-Pin_5)*%
X164995300Y-86658400D03*
%TO.P,J9,6,Pin_6_6*%
%TO.N,Net-(J9-Pin_6)*%
X164995300Y-89198400D03*
%TO.P,J9,7,Pin_7_7*%
%TO.N,Net-(J9-Pin_7)*%
X164995300Y-91738400D03*
%TO.P,J9,8,Pin_8_8*%
%TO.N,Net-(J9-Pin_8)*%
X164995300Y-94278400D03*
%TO.P,J9,9,Pin_9_9*%
%TO.N,Net-(J9-Pin_9)*%
X164995300Y-96818400D03*
%TO.P,J9,10,Pin_10_10*%
%TO.N,Net-(J9-Pin_10)*%
X164995300Y-99358400D03*
%TO.P,J9,11,Pin_11_11*%
%TO.N,Net-(J9-Pin_11)*%
X164995300Y-101898400D03*
%TO.P,J9,12,Pin_12_12*%
%TO.N,Net-(J9-Pin_12)*%
X164995300Y-104438400D03*
%TO.P,J9,13,Pin_13_13*%
%TO.N,Net-(J9-Pin_13)*%
X164995300Y-106978400D03*
%TO.P,J9,14,Pin_14_14*%
%TO.N,Net-(J9-Pin_14)*%
X164995300Y-109518400D03*
%TO.P,J9,15,Pin_15_15*%
%TO.N,Net-(J9-Pin_15)*%
X164995300Y-112058400D03*
%TD*%
D12*
%TO.P,J3,1,Pin_1_1*%
%TO.N,+3V3*%
X122539400Y-90537300D03*
D13*
%TO.P,J3,2,Pin_2_2*%
%TO.N,GND*%
X122539400Y-93077300D03*
%TO.P,J3,3,Pin_3_3*%
%TO.N,/BMP180_SCL*%
X122539400Y-95617300D03*
%TO.P,J3,4,Pin_4_4*%
%TO.N,/BMP180_SDA*%
X122539400Y-98157300D03*
%TD*%
D12*
%TO.P,J4,1,Pin_1_1*%
%TO.N,+3V3*%
X122539400Y-76636200D03*
D13*
%TO.P,J4,2,Pin_2_2*%
%TO.N,GND*%
X122539400Y-79176200D03*
%TO.P,J4,3,Pin_3_3*%
%TO.N,/WIND_DATA*%
X122539400Y-81716200D03*
%TD*%
D10*
%TO.P,J10,1,Pin_1_1*%
%TO.N,GND*%
X176300800Y-118200800D03*
D11*
%TO.P,J10,2,Pin_2_2*%
%TO.N,/RX0*%
X173760800Y-118200800D03*
%TO.P,J10,3,Pin_3_3*%
%TO.N,/TX0*%
X171220800Y-118200800D03*
%TD*%
%TO.N,GND*%
D18*
X164945300Y-78988400D02*
X164995300Y-79038400D01*
X130045300Y-78988400D02*
X129995300Y-79038400D01*
X134871000Y-78988400D02*
X130045300Y-78988400D01*
X160121000Y-78988400D02*
X164945300Y-78988400D01*
%TO.N,Net-(J8-Pin_3)*%
X130045300Y-81528400D02*
X129995300Y-81578400D01*
X134871000Y-81528400D02*
X130045300Y-81528400D01*
%TO.N,Net-(J8-Pin_4)*%
X134871000Y-84068400D02*
X130045300Y-84068400D01*
X130045300Y-84068400D02*
X129995300Y-84118400D01*
%TO.N,/GPS_TX*%
X130045300Y-86608400D02*
X129995300Y-86658400D01*
X122539400Y-51374000D02*
X124200800Y-51374000D01*
X128421000Y-86658400D02*
X129995300Y-86658400D01*
X127482000Y-54655200D02*
X127482000Y-85719400D01*
X124200800Y-51374000D02*
X127482000Y-54655200D01*
X127482000Y-85719400D02*
X128421000Y-86658400D01*
X134871000Y-86608400D02*
X130045300Y-86608400D01*
%TO.N,/GMS_TX*%
X170484200Y-58058800D02*
X139394600Y-89148400D01*
X134871000Y-89148400D02*
X130045300Y-89148400D01*
X139394600Y-89148400D02*
X134871000Y-89148400D01*
X186502200Y-49000400D02*
X177443800Y-58058800D01*
X177443800Y-58058800D02*
X170484200Y-58058800D01*
X130045300Y-89148400D02*
X129995300Y-89198400D01*
X188003300Y-49000400D02*
X186502200Y-49000400D01*
%TO.N,/GMS_RX*%
X137997600Y-91688400D02*
X134871000Y-91688400D01*
X134871000Y-91688400D02*
X130045300Y-91688400D01*
X188003300Y-51540400D02*
X186400600Y-51540400D01*
X186400600Y-51540400D02*
X178536000Y-59405000D01*
X178536000Y-59405000D02*
X170281000Y-59405000D01*
X170281000Y-59405000D02*
X137997600Y-91688400D01*
X130045300Y-91688400D02*
X129995300Y-91738400D01*
%TO.N,/GPS_RX*%
X126780200Y-56620400D02*
X126780200Y-92663000D01*
X122539400Y-53914000D02*
X124073800Y-53914000D01*
X126780200Y-92663000D02*
X128395600Y-94278400D01*
X124073800Y-53914000D02*
X126780200Y-56620400D01*
X128395600Y-94278400D02*
X129995300Y-94278400D01*
X130045300Y-94228400D02*
X129995300Y-94278400D01*
X134871000Y-94228400D02*
X130045300Y-94228400D01*
%TO.N,/DHT11_DATA*%
X128344800Y-96818400D02*
X129995300Y-96818400D01*
X125958000Y-67075800D02*
X125958000Y-94431600D01*
X134871000Y-96768400D02*
X130045300Y-96768400D01*
X124157300Y-65275100D02*
X125958000Y-67075800D01*
X125958000Y-94431600D02*
X128344800Y-96818400D01*
X130045300Y-96768400D02*
X129995300Y-96818400D01*
X122539400Y-65275100D02*
X124157300Y-65275100D01*
%TO.N,/WIND_DATA*%
X130045300Y-99308400D02*
X129995300Y-99358400D01*
X128319400Y-99358400D02*
X129995300Y-99358400D01*
X125196000Y-96235000D02*
X128319400Y-99358400D01*
X134871000Y-99308400D02*
X130045300Y-99308400D01*
X123961400Y-81716200D02*
X125196000Y-82950800D01*
X125196000Y-82950800D02*
X125196000Y-96235000D01*
X122539400Y-81716200D02*
X123961400Y-81716200D01*
%TO.N,/BMP180_SDA*%
X134871000Y-101848400D02*
X130045300Y-101848400D01*
X129995300Y-101898400D02*
X129994500Y-101899200D01*
X124730700Y-98157300D02*
X122539400Y-98157300D01*
X130045300Y-101848400D02*
X129995300Y-101898400D01*
X128472600Y-101899200D02*
X124730700Y-98157300D01*
X129994500Y-101899200D02*
X128472600Y-101899200D01*
%TO.N,/RX0*%
X171830400Y-114904000D02*
X173760800Y-116834400D01*
X144017400Y-104388400D02*
X154533000Y-114904000D01*
X134871000Y-104388400D02*
X144017400Y-104388400D01*
X173760800Y-116834400D02*
X173760800Y-118200800D01*
X134871000Y-104388400D02*
X130045300Y-104388400D01*
X154533000Y-114904000D02*
X171830400Y-114904000D01*
X130045300Y-104388400D02*
X129995300Y-104438400D01*
%TO.N,/TX0*%
X153974200Y-115640600D02*
X170128600Y-115640600D01*
X171220800Y-116732800D02*
X171220800Y-118200800D01*
X134871000Y-106928400D02*
X145262000Y-106928400D01*
X170128600Y-115640600D02*
X171220800Y-116732800D01*
X145262000Y-106928400D02*
X153974200Y-115640600D01*
X130045300Y-106928400D02*
X129995300Y-106978400D01*
X134871000Y-106928400D02*
X130045300Y-106928400D01*
%TO.N,/BMP180_SCL*%
X130045300Y-109468400D02*
X129995300Y-109518400D01*
X120420800Y-101569000D02*
X128370200Y-109518400D01*
X134871000Y-109468400D02*
X130045300Y-109468400D01*
X128370200Y-109518400D02*
X129995300Y-109518400D01*
X121444900Y-95617300D02*
X120420800Y-96641400D01*
X120420800Y-96641400D02*
X120420800Y-101569000D01*
X122539400Y-95617300D02*
X121444900Y-95617300D01*
%TO.N,/RAIN_DATA*%
X130045300Y-112008400D02*
X129995300Y-112058400D01*
X122539400Y-112058400D02*
X129995300Y-112058400D01*
X134871000Y-112008400D02*
X130045300Y-112008400D01*
%TO.N,Net-(J9-Pin_3)*%
X160121000Y-81528400D02*
X164945300Y-81528400D01*
X164945300Y-81528400D02*
X164995300Y-81578400D01*
%TO.N,Net-(J9-Pin_4)*%
X160121000Y-84068400D02*
X164945300Y-84068400D01*
X164945300Y-84068400D02*
X164995300Y-84118400D01*
%TO.N,Net-(J9-Pin_5)*%
X160121000Y-86608400D02*
X164945300Y-86608400D01*
X164945300Y-86608400D02*
X164995300Y-86658400D01*
%TO.N,Net-(J9-Pin_6)*%
X164945300Y-89148400D02*
X164995300Y-89198400D01*
X160121000Y-89148400D02*
X164945300Y-89148400D01*
%TO.N,Net-(J9-Pin_7)*%
X160121000Y-91688400D02*
X164945300Y-91688400D01*
X164945300Y-91688400D02*
X164995300Y-91738400D01*
%TO.N,Net-(J9-Pin_8)*%
X160121000Y-94228400D02*
X164945300Y-94228400D01*
X164945300Y-94228400D02*
X164995300Y-94278400D01*
%TO.N,Net-(J9-Pin_9)*%
X160121000Y-96768400D02*
X164945300Y-96768400D01*
X164945300Y-96768400D02*
X164995300Y-96818400D01*
%TO.N,Net-(J9-Pin_10)*%
X160121000Y-99308400D02*
X164945300Y-99308400D01*
X164945300Y-99308400D02*
X164995300Y-99358400D01*
%TO.N,Net-(J9-Pin_11)*%
X164945300Y-101848400D02*
X164995300Y-101898400D01*
X160121000Y-101848400D02*
X164945300Y-101848400D01*
%TO.N,Net-(J9-Pin_12)*%
X160121000Y-104388400D02*
X164945300Y-104388400D01*
X164945300Y-104388400D02*
X164995300Y-104438400D01*
%TO.N,Net-(J9-Pin_13)*%
X160121000Y-106928400D02*
X164945300Y-106928400D01*
X164945300Y-106928400D02*
X164995300Y-106978400D01*
%TO.N,Net-(J9-Pin_14)*%
X160121000Y-109468400D02*
X164945300Y-109468400D01*
X164945300Y-109468400D02*
X164995300Y-109518400D01*
%TO.N,Net-(J9-Pin_15)*%
X164945300Y-112008400D02*
X164995300Y-112058400D01*
X160121000Y-112008400D02*
X164945300Y-112008400D01*
%TD*%
%TA.AperFunction,Conductor*%
%TO.N,GND*%
G36*
X194934110Y-34911086D02*
G01*
X194995935Y-34911085D01*
X195009848Y-34915170D01*
X195244557Y-34927126D01*
X195262430Y-34929346D01*
X195496592Y-34975924D01*
X195512259Y-34980121D01*
X195738355Y-35056869D01*
X195753340Y-35063077D01*
X195930680Y-35150531D01*
X195967459Y-35168668D01*
X195981503Y-35176775D01*
X196180033Y-35309428D01*
X196192890Y-35319294D01*
X196302175Y-35415135D01*
X196372397Y-35476718D01*
X196383866Y-35488187D01*
X196541287Y-35667690D01*
X196551158Y-35680554D01*
X196649298Y-35827431D01*
X196683807Y-35879078D01*
X196691916Y-35893125D01*
X196797507Y-36107244D01*
X196803715Y-36122229D01*
X196880463Y-36348325D01*
X196884660Y-36363992D01*
X196931236Y-36598144D01*
X196933354Y-36614226D01*
X196949234Y-36856524D01*
X196949499Y-36864657D01*
X196933114Y-120925564D01*
X196933112Y-120934060D01*
X196933100Y-120934108D01*
X196933100Y-120995933D01*
X196933100Y-120995956D01*
X196933099Y-120995958D01*
X196932835Y-121004043D01*
X196917052Y-121244843D01*
X196914934Y-121260925D01*
X196868653Y-121493592D01*
X196864455Y-121509258D01*
X196788198Y-121733904D01*
X196781991Y-121748890D01*
X196677064Y-121961660D01*
X196668954Y-121975706D01*
X196537154Y-122172960D01*
X196527280Y-122185829D01*
X196370860Y-122364191D01*
X196359391Y-122375660D01*
X196181029Y-122532080D01*
X196168160Y-122541954D01*
X195970906Y-122673754D01*
X195956860Y-122681864D01*
X195744090Y-122786791D01*
X195729104Y-122792998D01*
X195504458Y-122869255D01*
X195488792Y-122873453D01*
X195256125Y-122919734D01*
X195240043Y-122921852D01*
X194999243Y-122937635D01*
X194991133Y-122937900D01*
X117834067Y-122937900D01*
X117825957Y-122937635D01*
X117585156Y-122921852D01*
X117569075Y-122919734D01*
X117537025Y-122913358D01*
X117336407Y-122873453D01*
X117320741Y-122869255D01*
X117096095Y-122792998D01*
X117081109Y-122786791D01*
X116868339Y-122681864D01*
X116854293Y-122673754D01*
X116657039Y-122541954D01*
X116644170Y-122532080D01*
X116465808Y-122375660D01*
X116454339Y-122364191D01*
X116297919Y-122185829D01*
X116288045Y-122172960D01*
X116156245Y-121975706D01*
X116148135Y-121961660D01*
X116043208Y-121748890D01*
X116037001Y-121733904D01*
X115960744Y-121509258D01*
X115956546Y-121493592D01*
X115921456Y-121317183D01*
X115910263Y-121260911D01*
X115908148Y-121244855D01*
X115892365Y-121004043D01*
X115892100Y-120995933D01*
X115892100Y-120925564D01*
X115892088Y-120925414D01*
X115892084Y-120893399D01*
X116475500Y-120893399D01*
X116475500Y-121106600D01*
X116508853Y-121317180D01*
X116508853Y-121317183D01*
X116574734Y-121519944D01*
X116574736Y-121519947D01*
X116671528Y-121709913D01*
X116796846Y-121882397D01*
X116947603Y-122033154D01*
X117120087Y-122158472D01*
X117310053Y-122255264D01*
X117310055Y-122255265D01*
X117499182Y-122316715D01*
X117512821Y-122321147D01*
X117723399Y-122354500D01*
X117723400Y-122354500D01*
X117936600Y-122354500D01*
X117936601Y-122354500D01*
X118147179Y-122321147D01*
X118147182Y-122321146D01*
X118147183Y-122321146D01*
X118349944Y-122255265D01*
X118349944Y-122255264D01*
X118349947Y-122255264D01*
X118539913Y-122158472D01*
X118712397Y-122033154D01*
X118863154Y-121882397D01*
X118988472Y-121709913D01*
X119085264Y-121519947D01*
X119151147Y-121317179D01*
X119184500Y-121106601D01*
X119184500Y-120893399D01*
X193645500Y-120893399D01*
X193645500Y-121106600D01*
X193678853Y-121317180D01*
X193678853Y-121317183D01*
X193744734Y-121519944D01*
X193744736Y-121519947D01*
X193841528Y-121709913D01*
X193966846Y-121882397D01*
X194117603Y-122033154D01*
X194290087Y-122158472D01*
X194480053Y-122255264D01*
X194480055Y-122255265D01*
X194669182Y-122316715D01*
X194682821Y-122321147D01*
X194893399Y-122354500D01*
X194893400Y-122354500D01*
X195106600Y-122354500D01*
X195106601Y-122354500D01*
X195317179Y-122321147D01*
X195317182Y-122321146D01*
X195317183Y-122321146D01*
X195519944Y-122255265D01*
X195519944Y-122255264D01*
X195519947Y-122255264D01*
X195709913Y-122158472D01*
X195882397Y-122033154D01*
X196033154Y-121882397D01*
X196158472Y-121709913D01*
X196255264Y-121519947D01*
X196321147Y-121317179D01*
X196354500Y-121106601D01*
X196354500Y-120893399D01*
X196321147Y-120682821D01*
X196321146Y-120682817D01*
X196321146Y-120682816D01*
X196255265Y-120480055D01*
X196255263Y-120480052D01*
X196158471Y-120290086D01*
X196033154Y-120117603D01*
X195882397Y-119966846D01*
X195709913Y-119841528D01*
X195519947Y-119744736D01*
X195519944Y-119744734D01*
X195317181Y-119678853D01*
X195176793Y-119656617D01*
X195106601Y-119645500D01*
X194893399Y-119645500D01*
X194823206Y-119656617D01*
X194682819Y-119678853D01*
X194682816Y-119678853D01*
X194480055Y-119744734D01*
X194480052Y-119744736D01*
X194290086Y-119841528D01*
X194117601Y-119966847D01*
X193966847Y-120117601D01*
X193841528Y-120290086D01*
X193744736Y-120480052D01*
X193744734Y-120480055D01*
X193678853Y-120682816D01*
X193678853Y-120682819D01*
X193645500Y-120893399D01*
X119184500Y-120893399D01*
X119151147Y-120682821D01*
X119151146Y-120682817D01*
X119151146Y-120682816D01*
X119085265Y-120480055D01*
X119085263Y-120480052D01*
X118988471Y-120290086D01*
X118863154Y-120117603D01*
X118712397Y-119966846D01*
X118539913Y-119841528D01*
X118349947Y-119744736D01*
X118349944Y-119744734D01*
X118147181Y-119678853D01*
X118006793Y-119656617D01*
X117936601Y-119645500D01*
X117723399Y-119645500D01*
X117653206Y-119656617D01*
X117512819Y-119678853D01*
X117512816Y-119678853D01*
X117310055Y-119744734D01*
X117310052Y-119744736D01*
X117120086Y-119841528D01*
X116947601Y-119966847D01*
X116796847Y-120117601D01*
X116671528Y-120290086D01*
X116574736Y-120480052D01*
X116574734Y-120480055D01*
X116508853Y-120682816D01*
X116508853Y-120682819D01*
X116475500Y-120893399D01*
X115892084Y-120893399D01*
X115888732Y-96577328D01*
X119770300Y-96577328D01*
X119770300Y-96577331D01*
X119770300Y-101633069D01*
X119785336Y-101708656D01*
X119795299Y-101758744D01*
X119844335Y-101877127D01*
X119893529Y-101950752D01*
X119915526Y-101983673D01*
X119915527Y-101983674D01*
X123328073Y-105396219D01*
X123361558Y-105457542D01*
X123356574Y-105527234D01*
X123314702Y-105583167D01*
X123249238Y-105607584D01*
X123240392Y-105607900D01*
X121644398Y-105607900D01*
X121644381Y-105607901D01*
X121541603Y-105618400D01*
X121541600Y-105618401D01*
X121375068Y-105673585D01*
X121375063Y-105673587D01*
X121225742Y-105765689D01*
X121101689Y-105889742D01*
X121009587Y-106039063D01*
X121009586Y-106039066D01*
X120954401Y-106205603D01*
X120954401Y-106205604D01*
X120954400Y-106205604D01*
X120943900Y-106308383D01*
X120943900Y-107648401D01*
X120943901Y-107648418D01*
X120954400Y-107751196D01*
X120954401Y-107751199D01*
X121009585Y-107917731D01*
X121009587Y-107917736D01*
X121044469Y-107974288D01*
X121101688Y-108067056D01*
X121225744Y-108191112D01*
X121375066Y-108283214D01*
X121541603Y-108338399D01*
X121644391Y-108348900D01*
X123434408Y-108348899D01*
X123537197Y-108338399D01*
X123703734Y-108283214D01*
X123853056Y-108191112D01*
X123977112Y-108067056D01*
X124069214Y-107917734D01*
X124124399Y-107751197D01*
X124134900Y-107648409D01*
X124134899Y-106502406D01*
X124154584Y-106435368D01*
X124207387Y-106389613D01*
X124276546Y-106379669D01*
X124340102Y-106408694D01*
X124346580Y-106414726D01*
X127955526Y-110023673D01*
X127955527Y-110023674D01*
X127955530Y-110023676D01*
X128060630Y-110093901D01*
X128060636Y-110093905D01*
X128062071Y-110094864D01*
X128062072Y-110094864D01*
X128062073Y-110094865D01*
X128180456Y-110143901D01*
X128180460Y-110143901D01*
X128180461Y-110143902D01*
X128306128Y-110168900D01*
X128306131Y-110168900D01*
X128735682Y-110168900D01*
X128802721Y-110188585D01*
X128836399Y-110222991D01*
X128837385Y-110222275D01*
X128965190Y-110398186D01*
X129115513Y-110548509D01*
X129287482Y-110673450D01*
X129296246Y-110677916D01*
X129347042Y-110725891D01*
X129363836Y-110793712D01*
X129341298Y-110859847D01*
X129296246Y-110898884D01*
X129287482Y-110903349D01*
X129115513Y-111028290D01*
X128965190Y-111178613D01*
X128837385Y-111354525D01*
X128836040Y-111353548D01*
X128789595Y-111395566D01*
X128735682Y-111407900D01*
X124047090Y-111407900D01*
X123980051Y-111388215D01*
X123939856Y-111343790D01*
X123939102Y-111344253D01*
X123936640Y-111340235D01*
X123936608Y-111340200D01*
X123936558Y-111340103D01*
X123936556Y-111340100D01*
X123809759Y-111165579D01*
X123657221Y-111013041D01*
X123482699Y-110886243D01*
X123290489Y-110788308D01*
X123085326Y-110721646D01*
X123085324Y-110721645D01*
X123085322Y-110721645D01*
X122872266Y-110687900D01*
X122872261Y-110687900D01*
X122206539Y-110687900D01*
X122206534Y-110687900D01*
X121993477Y-110721645D01*
X121788308Y-110788309D01*
X121596100Y-110886243D01*
X121496529Y-110958586D01*
X121421579Y-111013041D01*
X121421577Y-111013043D01*
X121421576Y-111013043D01*
X121269043Y-111165576D01*
X121269043Y-111165577D01*
X121269041Y-111165579D01*
X121214586Y-111240529D01*
X121142243Y-111340100D01*
X121044309Y-111532308D01*
X120977645Y-111737477D01*
X120943900Y-111950533D01*
X120943900Y-112166266D01*
X120976904Y-112374643D01*
X120977646Y-112379326D01*
X121044308Y-112584489D01*
X121142243Y-112776699D01*
X121269041Y-112951221D01*
X121421579Y-113103759D01*
X121596101Y-113230557D01*
X121788311Y-113328492D01*
X121993474Y-113395154D01*
X122073373Y-113407808D01*
X122206534Y-113428900D01*
X122206539Y-113428900D01*
X122872266Y-113428900D01*
X122990630Y-113410152D01*
X123085326Y-113395154D01*
X123290489Y-113328492D01*
X123482699Y-113230557D01*
X123657221Y-113103759D01*
X123809759Y-112951221D01*
X123936557Y-112776699D01*
X123936582Y-112776649D01*
X123936608Y-112776600D01*
X123936637Y-112776568D01*
X123939102Y-112772547D01*
X123939947Y-112773064D01*
X123984584Y-112725806D01*
X124047090Y-112708900D01*
X128735682Y-112708900D01*
X128802721Y-112728585D01*
X128836399Y-112762991D01*
X128837385Y-112762275D01*
X128965190Y-112938186D01*
X129115513Y-113088509D01*
X129287479Y-113213448D01*
X129287481Y-113213449D01*
X129287484Y-113213451D01*
X129476888Y-113309957D01*
X129679057Y-113375646D01*
X129889013Y-113408900D01*
X129889014Y-113408900D01*
X130101586Y-113408900D01*
X130101587Y-113408900D01*
X130311543Y-113375646D01*
X130513712Y-113309957D01*
X130703116Y-113213451D01*
X130830800Y-113120684D01*
X130875086Y-113088509D01*
X130875088Y-113088506D01*
X130875092Y-113088504D01*
X131025404Y-112938192D01*
X131025406Y-112938188D01*
X131025409Y-112938186D01*
X131085401Y-112855613D01*
X131150351Y-112766216D01*
X131152359Y-112762275D01*
X131170535Y-112726605D01*
X131218509Y-112675809D01*
X131281019Y-112658900D01*
X133672929Y-112658900D01*
X133739968Y-112678585D01*
X133773245Y-112710013D01*
X133819055Y-112773064D01*
X133879034Y-112855619D01*
X134023786Y-113000371D01*
X134145100Y-113088509D01*
X134189390Y-113120687D01*
X134305607Y-113179903D01*
X134371776Y-113213618D01*
X134371778Y-113213618D01*
X134371781Y-113213620D01*
X134423905Y-113230556D01*
X134566465Y-113276877D01*
X134631313Y-113287148D01*
X134768648Y-113308900D01*
X134768649Y-113308900D01*
X134973351Y-113308900D01*
X134973352Y-113308900D01*
X135175534Y-113276877D01*
X135370219Y-113213620D01*
X135552610Y-113120687D01*
X135645590Y-113053132D01*
X135718213Y-113000371D01*
X135718215Y-113000368D01*
X135718219Y-113000366D01*
X135862966Y-112855619D01*
X135862968Y-112855615D01*
X135862971Y-112855613D01*
X135923321Y-112772547D01*
X135983287Y-112690010D01*
X136076220Y-112507619D01*
X136139477Y-112312934D01*
X136171500Y-112110752D01*
X136171500Y-111906048D01*
X136139477Y-111703866D01*
X136076220Y-111509181D01*
X136076218Y-111509178D01*
X136076218Y-111509176D01*
X136042503Y-111443007D01*
X135983287Y-111326790D01*
X135968752Y-111306784D01*
X135862971Y-111161186D01*
X135718213Y-111016428D01*
X135552614Y-110896115D01*
X135533239Y-110886243D01*
X135459917Y-110848883D01*
X135409123Y-110800911D01*
X135392328Y-110733090D01*
X135414865Y-110666955D01*
X135459917Y-110627916D01*
X135552610Y-110580687D01*
X135596900Y-110548509D01*
X135718213Y-110460371D01*
X135718215Y-110460368D01*
X135718219Y-110460366D01*
X135862966Y-110315619D01*
X135862968Y-110315615D01*
X135862971Y-110315613D01*
X135925519Y-110229521D01*
X135983287Y-110150010D01*
X136076220Y-109967619D01*
X136139477Y-109772934D01*
X136171500Y-109570752D01*
X136171500Y-109366048D01*
X136139477Y-109163866D01*
X136076220Y-108969181D01*
X136076218Y-108969178D01*
X136076218Y-108969176D01*
X136042503Y-108903007D01*
X135983287Y-108786790D01*
X135968752Y-108766784D01*
X135862971Y-108621186D01*
X135718213Y-108476428D01*
X135552614Y-108356115D01*
X135517842Y-108338398D01*
X135459917Y-108308883D01*
X135409123Y-108260911D01*
X135392328Y-108193090D01*
X135414865Y-108126955D01*
X135459917Y-108087916D01*
X135552610Y-108040687D01*
X135596900Y-108008509D01*
X135718213Y-107920371D01*
X135718215Y-107920368D01*
X135718219Y-107920366D01*
X135862966Y-107775619D01*
X135968753Y-107630013D01*
X136024082Y-107587349D01*
X136069071Y-107578900D01*
X144941192Y-107578900D01*
X145008231Y-107598585D01*
X145028873Y-107615219D01*
X153559524Y-116145871D01*
X153559527Y-116145874D01*
X153616439Y-116183901D01*
X153666066Y-116217061D01*
X153666072Y-116217064D01*
X153666073Y-116217065D01*
X153784456Y-116266101D01*
X153784460Y-116266101D01*
X153784461Y-116266102D01*
X153910128Y-116291100D01*
X153910131Y-116291100D01*
X169807792Y-116291100D01*
X169874831Y-116310785D01*
X169895473Y-116327419D01*
X170468715Y-116900661D01*
X170502200Y-116961984D01*
X170497216Y-117031676D01*
X170455344Y-117087609D01*
X170453920Y-117088660D01*
X170341009Y-117170694D01*
X170190690Y-117321013D01*
X170065751Y-117492979D01*
X169969244Y-117682385D01*
X169903553Y-117884560D01*
X169870300Y-118094513D01*
X169870300Y-118307086D01*
X169903553Y-118517039D01*
X169969244Y-118719214D01*
X170065751Y-118908620D01*
X170190690Y-119080586D01*
X170341013Y-119230909D01*
X170512979Y-119355848D01*
X170512981Y-119355849D01*
X170512984Y-119355851D01*
X170702388Y-119452357D01*
X170904557Y-119518046D01*
X171114513Y-119551300D01*
X171114514Y-119551300D01*
X171327086Y-119551300D01*
X171327087Y-119551300D01*
X171537043Y-119518046D01*
X171739212Y-119452357D01*
X171928616Y-119355851D01*
X171950589Y-119339886D01*
X172100586Y-119230909D01*
X172100588Y-119230906D01*
X172100592Y-119230904D01*
X172250904Y-119080592D01*
X172250906Y-119080588D01*
X172250909Y-119080586D01*
X172375848Y-118908620D01*
X172375847Y-118908620D01*
X172375851Y-118908616D01*
X172380314Y-118899854D01*
X172428288Y-118849059D01*
X172496108Y-118832263D01*
X172562244Y-118854799D01*
X172601286Y-118899856D01*
X172605751Y-118908620D01*
X172730690Y-119080586D01*
X172881013Y-119230909D01*
X173052979Y-119355848D01*
X173052981Y-119355849D01*
X173052984Y-119355851D01*
X173242388Y-119452357D01*
X173444557Y-119518046D01*
X173654513Y-119551300D01*
X173654514Y-119551300D01*
X173867086Y-119551300D01*
X173867087Y-119551300D01*
X174077043Y-119518046D01*
X174279212Y-119452357D01*
X174468616Y-119355851D01*
X174490589Y-119339886D01*
X174640586Y-119230909D01*
X174640588Y-119230906D01*
X174640592Y-119230904D01*
X174790904Y-119080592D01*
X174790906Y-119080588D01*
X174790909Y-119080586D01*
X174915848Y-118908620D01*
X174915847Y-118908620D01*
X174915851Y-118908616D01*
X175012357Y-118719212D01*
X175078046Y-118517043D01*
X175111300Y-118307087D01*
X175111300Y-118094513D01*
X175078046Y-117884557D01*
X175012357Y-117682388D01*
X174915851Y-117492984D01*
X174915849Y-117492981D01*
X174915848Y-117492979D01*
X174790909Y-117321013D01*
X174640586Y-117170690D01*
X174464675Y-117042885D01*
X174465651Y-117041540D01*
X174423634Y-116995095D01*
X174411300Y-116941182D01*
X174411300Y-116770328D01*
X174386302Y-116644661D01*
X174386301Y-116644660D01*
X174386301Y-116644656D01*
X174337265Y-116526273D01*
X174266077Y-116419731D01*
X174266075Y-116419729D01*
X174266073Y-116419726D01*
X172245073Y-114398726D01*
X172245069Y-114398723D01*
X172138527Y-114327535D01*
X172020144Y-114278499D01*
X172020138Y-114278497D01*
X171894471Y-114253500D01*
X171894469Y-114253500D01*
X154853807Y-114253500D01*
X154786768Y-114233815D01*
X154766126Y-114217181D01*
X154339261Y-113790316D01*
X154254729Y-113705784D01*
X181809800Y-113705784D01*
X181809800Y-115705815D01*
X181820300Y-115808595D01*
X181820301Y-115808596D01*
X181875486Y-115975135D01*
X181875487Y-115975137D01*
X181967586Y-116124451D01*
X181967589Y-116124455D01*
X182091644Y-116248510D01*
X182091648Y-116248513D01*
X182240962Y-116340612D01*
X182240964Y-116340613D01*
X182240966Y-116340614D01*
X182407503Y-116395799D01*
X182510292Y-116406300D01*
X182510297Y-116406300D01*
X184510303Y-116406300D01*
X184510308Y-116406300D01*
X184613097Y-116395799D01*
X184779634Y-116340614D01*
X184928955Y-116248511D01*
X185053011Y-116124455D01*
X185145114Y-115975134D01*
X185200299Y-115808597D01*
X185210800Y-115705808D01*
X185210800Y-113705792D01*
X185200299Y-113603003D01*
X185145114Y-113436466D01*
X185140447Y-113428900D01*
X185053013Y-113287148D01*
X185053010Y-113287144D01*
X184928955Y-113163089D01*
X184928951Y-113163086D01*
X184779637Y-113070987D01*
X184779635Y-113070986D01*
X184696365Y-113043393D01*
X184613097Y-113015801D01*
X184613095Y-113015800D01*
X184510315Y-113005300D01*
X184510308Y-113005300D01*
X182510292Y-113005300D01*
X182510284Y-113005300D01*
X182407504Y-113015800D01*
X182407503Y-113015801D01*
X182240964Y-113070986D01*
X182240962Y-113070987D01*
X182091648Y-113163086D01*
X182091644Y-113163089D01*
X181967589Y-113287144D01*
X181967586Y-113287148D01*
X181875487Y-113436462D01*
X181875486Y-113436464D01*
X181820301Y-113603003D01*
X181820300Y-113603004D01*
X181809800Y-113705784D01*
X154254729Y-113705784D01*
X144432074Y-103883127D01*
X144432073Y-103883126D01*
X144432069Y-103883123D01*
X144325527Y-103811935D01*
X144207144Y-103762899D01*
X144207138Y-103762897D01*
X144081471Y-103737900D01*
X144081469Y-103737900D01*
X136069071Y-103737900D01*
X136002032Y-103718215D01*
X135968754Y-103686786D01*
X135862966Y-103541181D01*
X135718219Y-103396434D01*
X135718213Y-103396428D01*
X135552614Y-103276115D01*
X135546006Y-103272748D01*
X135459917Y-103228883D01*
X135409123Y-103180911D01*
X135392328Y-103113090D01*
X135414865Y-103046955D01*
X135459917Y-103007916D01*
X135552610Y-102960687D01*
X135596900Y-102928509D01*
X135718213Y-102840371D01*
X135718215Y-102840368D01*
X135718219Y-102840366D01*
X135862966Y-102695619D01*
X135862968Y-102695615D01*
X135862971Y-102695613D01*
X135915732Y-102622990D01*
X135983287Y-102530010D01*
X136076220Y-102347619D01*
X136139477Y-102152934D01*
X136171500Y-101950752D01*
X136171500Y-101746048D01*
X136139477Y-101543866D01*
X136076220Y-101349181D01*
X136076218Y-101349178D01*
X136076218Y-101349176D01*
X136042503Y-101283007D01*
X135983287Y-101166790D01*
X135968752Y-101146784D01*
X135862971Y-101001186D01*
X135718213Y-100856428D01*
X135552614Y-100736115D01*
X135546006Y-100732748D01*
X135459917Y-100688883D01*
X135409123Y-100640911D01*
X135392328Y-100573090D01*
X135414865Y-100506955D01*
X135459917Y-100467916D01*
X135552610Y-100420687D01*
X135596900Y-100388509D01*
X135718213Y-100300371D01*
X135718215Y-100300368D01*
X135718219Y-100300366D01*
X135862966Y-100155619D01*
X135862968Y-100155615D01*
X135862971Y-100155613D01*
X135925519Y-100069521D01*
X135983287Y-99990010D01*
X136076220Y-99807619D01*
X136139477Y-99612934D01*
X136171500Y-99410752D01*
X136171500Y-99206048D01*
X136139477Y-99003866D01*
X136076220Y-98809181D01*
X136076218Y-98809178D01*
X136076218Y-98809176D01*
X136039118Y-98736364D01*
X135983287Y-98626790D01*
X135968752Y-98606784D01*
X135862971Y-98461186D01*
X135718213Y-98316428D01*
X135552614Y-98196115D01*
X135546006Y-98192748D01*
X135459917Y-98148883D01*
X135409123Y-98100911D01*
X135392328Y-98033090D01*
X135414865Y-97966955D01*
X135459917Y-97927916D01*
X135552610Y-97880687D01*
X135596900Y-97848509D01*
X135718213Y-97760371D01*
X135718215Y-97760368D01*
X135718219Y-97760366D01*
X135862966Y-97615619D01*
X135862968Y-97615615D01*
X135862971Y-97615613D01*
X135923866Y-97531797D01*
X135983287Y-97450010D01*
X136076220Y-97267619D01*
X136139477Y-97072934D01*
X136171500Y-96870752D01*
X136171500Y-96666048D01*
X136139477Y-96463866D01*
X136135511Y-96451661D01*
X136110127Y-96373537D01*
X136076220Y-96269181D01*
X136076218Y-96269178D01*
X136076218Y-96269176D01*
X136042503Y-96203007D01*
X135983287Y-96086790D01*
X135921592Y-96001873D01*
X135862971Y-95921186D01*
X135718213Y-95776428D01*
X135552614Y-95656115D01*
X135546006Y-95652748D01*
X135459917Y-95608883D01*
X135409123Y-95560911D01*
X135392328Y-95493090D01*
X135414865Y-95426955D01*
X135459917Y-95387916D01*
X135552610Y-95340687D01*
X135596900Y-95308509D01*
X135718213Y-95220371D01*
X135718215Y-95220368D01*
X135718219Y-95220366D01*
X135862966Y-95075619D01*
X135862968Y-95075615D01*
X135862971Y-95075613D01*
X135925519Y-94989521D01*
X135983287Y-94910010D01*
X136076220Y-94727619D01*
X136139477Y-94532934D01*
X136171500Y-94330752D01*
X136171500Y-94126048D01*
X136139477Y-93923866D01*
X136076220Y-93729181D01*
X136076218Y-93729178D01*
X136076218Y-93729176D01*
X136032598Y-93643569D01*
X135983287Y-93546790D01*
X135968752Y-93526784D01*
X135862971Y-93381186D01*
X135718213Y-93236428D01*
X135552614Y-93116115D01*
X135546006Y-93112748D01*
X135459917Y-93068883D01*
X135409123Y-93020911D01*
X135392328Y-92953090D01*
X135414865Y-92886955D01*
X135459917Y-92847916D01*
X135552610Y-92800687D01*
X135596900Y-92768509D01*
X135718213Y-92680371D01*
X135718215Y-92680368D01*
X135718219Y-92680366D01*
X135862966Y-92535619D01*
X135968753Y-92390013D01*
X136024082Y-92347349D01*
X136069071Y-92338900D01*
X138061671Y-92338900D01*
X138146215Y-92322082D01*
X138187344Y-92313901D01*
X138305727Y-92264865D01*
X138330472Y-92248331D01*
X138412269Y-92193677D01*
X143841276Y-86764670D01*
X149179899Y-81426048D01*
X158820500Y-81426048D01*
X158820500Y-81630751D01*
X158852522Y-81832934D01*
X158915781Y-82027623D01*
X158974240Y-82142354D01*
X159001477Y-82195809D01*
X159008715Y-82210013D01*
X159129028Y-82375613D01*
X159273786Y-82520371D01*
X159428749Y-82632956D01*
X159439390Y-82640687D01*
X159530840Y-82687283D01*
X159532080Y-82687915D01*
X159582876Y-82735890D01*
X159599671Y-82803711D01*
X159577134Y-82869846D01*
X159532080Y-82908885D01*
X159439386Y-82956115D01*
X159273786Y-83076428D01*
X159129028Y-83221186D01*
X159008715Y-83386786D01*
X158915781Y-83569176D01*
X158852522Y-83763865D01*
X158820500Y-83966048D01*
X158820500Y-84170751D01*
X158852522Y-84372934D01*
X158915781Y-84567623D01*
X158979691Y-84693053D01*
X159001477Y-84735809D01*
X159008715Y-84750013D01*
X159129028Y-84915613D01*
X159273786Y-85060371D01*
X159395100Y-85148509D01*
X159439390Y-85180687D01*
X159530840Y-85227283D01*
X159532080Y-85227915D01*
X159582876Y-85275890D01*
X159599671Y-85343711D01*
X159577134Y-85409846D01*
X159532080Y-85448885D01*
X159439386Y-85496115D01*
X159273786Y-85616428D01*
X159129028Y-85761186D01*
X159008715Y-85926786D01*
X158915781Y-86109176D01*
X158852522Y-86303865D01*
X158820500Y-86506048D01*
X158820500Y-86710751D01*
X158852522Y-86912934D01*
X158915781Y-87107623D01*
X158979691Y-87233053D01*
X159005600Y-87283901D01*
X159008715Y-87290013D01*
X159129028Y-87455613D01*
X159273786Y-87600371D01*
X159395100Y-87688509D01*
X159439390Y-87720687D01*
X159530840Y-87767283D01*
X159532080Y-87767915D01*
X159582876Y-87815890D01*
X159599671Y-87883711D01*
X159577134Y-87949846D01*
X159532080Y-87988885D01*
X159439386Y-88036115D01*
X159273786Y-88156428D01*
X159129028Y-88301186D01*
X159008715Y-88466786D01*
X158915781Y-88649176D01*
X158852522Y-88843865D01*
X158820500Y-89046048D01*
X158820500Y-89250751D01*
X158852522Y-89452934D01*
X158915781Y-89647623D01*
X158975334Y-89764500D01*
X159001477Y-89815809D01*
X159008715Y-89830013D01*
X159129028Y-89995613D01*
X159273786Y-90140371D01*
X159395100Y-90228509D01*
X159439390Y-90260687D01*
X159530840Y-90307283D01*
X159532080Y-90307915D01*
X159582876Y-90355890D01*
X159599671Y-90423711D01*
X159577134Y-90489846D01*
X159532080Y-90528885D01*
X159439386Y-90576115D01*
X159273786Y-90696428D01*
X159129028Y-90841186D01*
X159008715Y-91006786D01*
X158915781Y-91189176D01*
X158852522Y-91383865D01*
X158820500Y-91586048D01*
X158820500Y-91790751D01*
X158852522Y-91992934D01*
X158915781Y-92187623D01*
X158979691Y-92313053D01*
X159007969Y-92368550D01*
X159008715Y-92370013D01*
X159129028Y-92535613D01*
X159273786Y-92680371D01*
X159395100Y-92768509D01*
X159439390Y-92800687D01*
X159530840Y-92847283D01*
X159532080Y-92847915D01*
X159582876Y-92895890D01*
X159599671Y-92963711D01*
X159577134Y-93029846D01*
X159532080Y-93068885D01*
X159439386Y-93116115D01*
X159273786Y-93236428D01*
X159129028Y-93381186D01*
X159008715Y-93546786D01*
X158915781Y-93729176D01*
X158852522Y-93923865D01*
X158820500Y-94126048D01*
X158820500Y-94330751D01*
X158852522Y-94532934D01*
X158915781Y-94727623D01*
X158979691Y-94853053D01*
X159005600Y-94903901D01*
X159008715Y-94910013D01*
X159129028Y-95075613D01*
X159273786Y-95220371D01*
X159395100Y-95308509D01*
X159439390Y-95340687D01*
X159530840Y-95387283D01*
X159532080Y-95387915D01*
X159582876Y-95435890D01*
X159599671Y-95503711D01*
X159577134Y-95569846D01*
X159532080Y-95608885D01*
X159439386Y-95656115D01*
X159273786Y-95776428D01*
X159129028Y-95921186D01*
X159008715Y-96086786D01*
X158915781Y-96269176D01*
X158852522Y-96463865D01*
X158820500Y-96666048D01*
X158820500Y-96870751D01*
X158852522Y-97072934D01*
X158915781Y-97267623D01*
X158979691Y-97393053D01*
X159005600Y-97443901D01*
X159008715Y-97450013D01*
X159129028Y-97615613D01*
X159273786Y-97760371D01*
X159395100Y-97848509D01*
X159439390Y-97880687D01*
X159530840Y-97927283D01*
X159532080Y-97927915D01*
X159582876Y-97975890D01*
X159599671Y-98043711D01*
X159577134Y-98109846D01*
X159532080Y-98148885D01*
X159439386Y-98196115D01*
X159273786Y-98316428D01*
X159129028Y-98461186D01*
X159008715Y-98626786D01*
X158915781Y-98809176D01*
X158852522Y-99003865D01*
X158820500Y-99206048D01*
X158820500Y-99410751D01*
X158852522Y-99612934D01*
X158915781Y-99807623D01*
X158979691Y-99933053D01*
X159005600Y-99983901D01*
X159008715Y-99990013D01*
X159129028Y-100155613D01*
X159273786Y-100300371D01*
X159395100Y-100388509D01*
X159439390Y-100420687D01*
X159530840Y-100467283D01*
X159532080Y-100467915D01*
X159582876Y-100515890D01*
X159599671Y-100583711D01*
X159577134Y-100649846D01*
X159532080Y-100688885D01*
X159439386Y-100736115D01*
X159273786Y-100856428D01*
X159129028Y-101001186D01*
X159008715Y-101166786D01*
X158915781Y-101349176D01*
X158852522Y-101543865D01*
X158820500Y-101746048D01*
X158820500Y-101950751D01*
X158852522Y-102152934D01*
X158915781Y-102347623D01*
X158979691Y-102473053D01*
X159006008Y-102524702D01*
X159008715Y-102530013D01*
X159129028Y-102695613D01*
X159273786Y-102840371D01*
X159395100Y-102928509D01*
X159439390Y-102960687D01*
X159530840Y-103007283D01*
X159532080Y-103007915D01*
X159582876Y-103055890D01*
X159599671Y-103123711D01*
X159577134Y-103189846D01*
X159532080Y-103228885D01*
X159439386Y-103276115D01*
X159273786Y-103396428D01*
X159129028Y-103541186D01*
X159008715Y-103706786D01*
X158915781Y-103889176D01*
X158852522Y-104083865D01*
X158820500Y-104286048D01*
X158820500Y-104490751D01*
X158852522Y-104692934D01*
X158915781Y-104887623D01*
X158979691Y-105013053D01*
X159001477Y-105055809D01*
X159008715Y-105070013D01*
X159129028Y-105235613D01*
X159273786Y-105380371D01*
X159395100Y-105468509D01*
X159439390Y-105500687D01*
X159530840Y-105547283D01*
X159532080Y-105547915D01*
X159582876Y-105595890D01*
X159599671Y-105663711D01*
X159577134Y-105729846D01*
X159532080Y-105768885D01*
X159439386Y-105816115D01*
X159273786Y-105936428D01*
X159129028Y-106081186D01*
X159008715Y-106246786D01*
X158915781Y-106429176D01*
X158852522Y-106623865D01*
X158820500Y-106826048D01*
X158820500Y-107030751D01*
X158852522Y-107232934D01*
X158915781Y-107427623D01*
X158979691Y-107553053D01*
X159001477Y-107595809D01*
X159008715Y-107610013D01*
X159129028Y-107775613D01*
X159273786Y-107920371D01*
X159395100Y-108008509D01*
X159439390Y-108040687D01*
X159530840Y-108087283D01*
X159532080Y-108087915D01*
X159582876Y-108135890D01*
X159599671Y-108203711D01*
X159577134Y-108269846D01*
X159532080Y-108308885D01*
X159439386Y-108356115D01*
X159273786Y-108476428D01*
X159129028Y-108621186D01*
X159008715Y-108786786D01*
X158915781Y-108969176D01*
X158852522Y-109163865D01*
X158820500Y-109366048D01*
X158820500Y-109570751D01*
X158852522Y-109772934D01*
X158915781Y-109967623D01*
X158979691Y-110093053D01*
X159005600Y-110143901D01*
X159008715Y-110150013D01*
X159129028Y-110315613D01*
X159273786Y-110460371D01*
X159395100Y-110548509D01*
X159439390Y-110580687D01*
X159530840Y-110627283D01*
X159532080Y-110627915D01*
X159582876Y-110675890D01*
X159599671Y-110743711D01*
X159577134Y-110809846D01*
X159532080Y-110848885D01*
X159439386Y-110896115D01*
X159273786Y-111016428D01*
X159129028Y-111161186D01*
X159008715Y-111326786D01*
X158915781Y-111509176D01*
X158852522Y-111703865D01*
X158820500Y-111906048D01*
X158820500Y-112110751D01*
X158852522Y-112312934D01*
X158915781Y-112507623D01*
X158954947Y-112584489D01*
X159001477Y-112675809D01*
X159008715Y-112690013D01*
X159129028Y-112855613D01*
X159273786Y-113000371D01*
X159395100Y-113088509D01*
X159439390Y-113120687D01*
X159555607Y-113179903D01*
X159621776Y-113213618D01*
X159621778Y-113213618D01*
X159621781Y-113213620D01*
X159673905Y-113230556D01*
X159816465Y-113276877D01*
X159881313Y-113287148D01*
X160018648Y-113308900D01*
X160018649Y-113308900D01*
X160223351Y-113308900D01*
X160223352Y-113308900D01*
X160425534Y-113276877D01*
X160620219Y-113213620D01*
X160802610Y-113120687D01*
X160895590Y-113053132D01*
X160968213Y-113000371D01*
X160968215Y-113000368D01*
X160968219Y-113000366D01*
X161112966Y-112855619D01*
X161218753Y-112710013D01*
X161274082Y-112667349D01*
X161319071Y-112658900D01*
X163709581Y-112658900D01*
X163776620Y-112678585D01*
X163820065Y-112726605D01*
X163840247Y-112766214D01*
X163840248Y-112766215D01*
X163965190Y-112938186D01*
X164115513Y-113088509D01*
X164287479Y-113213448D01*
X164287481Y-113213449D01*
X164287484Y-113213451D01*
X164476888Y-113309957D01*
X164679057Y-113375646D01*
X164889013Y-113408900D01*
X164889014Y-113408900D01*
X165101586Y-113408900D01*
X165101587Y-113408900D01*
X165311543Y-113375646D01*
X165513712Y-113309957D01*
X165703116Y-113213451D01*
X165830800Y-113120684D01*
X165875086Y-113088509D01*
X165875088Y-113088506D01*
X165875092Y-113088504D01*
X166025404Y-112938192D01*
X166025406Y-112938188D01*
X166025409Y-112938186D01*
X166150348Y-112766220D01*
X166150347Y-112766220D01*
X166150351Y-112766216D01*
X166246857Y-112576812D01*
X166312546Y-112374643D01*
X166345800Y-112164687D01*
X166345800Y-111952113D01*
X166312546Y-111742157D01*
X166246857Y-111539988D01*
X166150351Y-111350584D01*
X166150349Y-111350581D01*
X166150348Y-111350579D01*
X166025409Y-111178613D01*
X165875086Y-111028290D01*
X165703120Y-110903351D01*
X165702415Y-110902991D01*
X165694354Y-110898885D01*
X165643559Y-110850912D01*
X165626763Y-110783092D01*
X165649299Y-110716956D01*
X165694354Y-110677915D01*
X165703116Y-110673451D01*
X165725089Y-110657486D01*
X165875086Y-110548509D01*
X165875088Y-110548506D01*
X165875092Y-110548504D01*
X166025404Y-110398192D01*
X166025406Y-110398188D01*
X166025409Y-110398186D01*
X166150348Y-110226220D01*
X166150347Y-110226220D01*
X166150351Y-110226216D01*
X166246857Y-110036812D01*
X166312546Y-109834643D01*
X166345800Y-109624687D01*
X166345800Y-109412113D01*
X166312546Y-109202157D01*
X166246857Y-108999988D01*
X166150351Y-108810584D01*
X166150349Y-108810581D01*
X166150348Y-108810579D01*
X166025409Y-108638613D01*
X165875086Y-108488290D01*
X165703120Y-108363351D01*
X165702415Y-108362991D01*
X165694354Y-108358885D01*
X165643559Y-108310912D01*
X165626763Y-108243092D01*
X165649299Y-108176956D01*
X165694354Y-108137915D01*
X165703116Y-108133451D01*
X165725089Y-108117486D01*
X165875086Y-108008509D01*
X165875088Y-108008506D01*
X165875092Y-108008504D01*
X166025404Y-107858192D01*
X166025406Y-107858188D01*
X166025409Y-107858186D01*
X166150348Y-107686220D01*
X166150347Y-107686220D01*
X166150351Y-107686216D01*
X166246857Y-107496812D01*
X166312546Y-107294643D01*
X166345800Y-107084687D01*
X166345800Y-106872113D01*
X166343935Y-106860335D01*
X168304800Y-106860335D01*
X168304800Y-109496070D01*
X168304801Y-109496076D01*
X168311208Y-109555683D01*
X168361502Y-109690528D01*
X168361506Y-109690535D01*
X168447752Y-109805744D01*
X168447755Y-109805747D01*
X168562964Y-109891993D01*
X168562971Y-109891997D01*
X168697817Y-109942291D01*
X168697816Y-109942291D01*
X168704744Y-109943035D01*
X168757427Y-109948700D01*
X171393172Y-109948699D01*
X171452783Y-109942291D01*
X171587631Y-109891996D01*
X171702846Y-109805746D01*
X171789096Y-109690531D01*
X171839391Y-109555683D01*
X171845800Y-109496073D01*
X171845799Y-106860328D01*
X171839391Y-106800717D01*
X171789096Y-106665869D01*
X171789095Y-106665868D01*
X171789093Y-106665864D01*
X171702847Y-106550655D01*
X171702844Y-106550652D01*
X171587635Y-106464406D01*
X171587628Y-106464402D01*
X171452782Y-106414108D01*
X171452783Y-106414108D01*
X171393183Y-106407701D01*
X171393181Y-106407700D01*
X171393173Y-106407700D01*
X171393164Y-106407700D01*
X168757429Y-106407700D01*
X168757423Y-106407701D01*
X168697816Y-106414108D01*
X168562971Y-106464402D01*
X168562964Y-106464406D01*
X168447755Y-106550652D01*
X168447752Y-106550655D01*
X168361506Y-106665864D01*
X168361502Y-106665871D01*
X168311208Y-106800717D01*
X168304801Y-106860316D01*
X168304801Y-106860323D01*
X168304800Y-106860335D01*
X166343935Y-106860335D01*
X166312546Y-106662157D01*
X166246857Y-106459988D01*
X166150351Y-106270584D01*
X166150349Y-106270581D01*
X166150348Y-106270579D01*
X166025409Y-106098613D01*
X165875086Y-105948290D01*
X165703120Y-105823351D01*
X165702415Y-105822991D01*
X165694354Y-105818885D01*
X165643559Y-105770912D01*
X165626763Y-105703092D01*
X165649299Y-105636956D01*
X165694354Y-105597915D01*
X165703116Y-105593451D01*
X165725089Y-105577486D01*
X165875086Y-105468509D01*
X165875088Y-105468506D01*
X165875092Y-105468504D01*
X166025404Y-105318192D01*
X166025406Y-105318188D01*
X166025409Y-105318186D01*
X166150348Y-105146220D01*
X166150347Y-105146220D01*
X166150351Y-105146216D01*
X166246857Y-104956812D01*
X166312546Y-104754643D01*
X166345800Y-104544687D01*
X166345800Y-104332113D01*
X166312546Y-104122157D01*
X166246857Y-103919988D01*
X166150351Y-103730584D01*
X166150349Y-103730581D01*
X166150348Y-103730579D01*
X166025409Y-103558613D01*
X165875086Y-103408290D01*
X165703120Y-103283351D01*
X165702415Y-103282991D01*
X165694354Y-103278885D01*
X165643559Y-103230912D01*
X165626763Y-103163092D01*
X165649299Y-103096956D01*
X165694354Y-103057915D01*
X165703116Y-103053451D01*
X165725089Y-103037486D01*
X165875086Y-102928509D01*
X165875088Y-102928506D01*
X165875092Y-102928504D01*
X166025404Y-102778192D01*
X166025406Y-102778188D01*
X166025409Y-102778186D01*
X166150348Y-102606220D01*
X166150347Y-102606220D01*
X166150351Y-102606216D01*
X166246857Y-102416812D01*
X166312546Y-102214643D01*
X166345800Y-102004687D01*
X166345800Y-101792113D01*
X166312546Y-101582157D01*
X166246857Y-101379988D01*
X166150351Y-101190584D01*
X166150349Y-101190581D01*
X166150348Y-101190579D01*
X166025409Y-101018613D01*
X165875086Y-100868290D01*
X165703120Y-100743351D01*
X165702415Y-100742991D01*
X165694354Y-100738885D01*
X165643559Y-100690912D01*
X165626763Y-100623092D01*
X165649299Y-100556956D01*
X165694354Y-100517915D01*
X165703116Y-100513451D01*
X165725089Y-100497486D01*
X165875086Y-100388509D01*
X165875088Y-100388506D01*
X165875092Y-100388504D01*
X166025404Y-100238192D01*
X166025406Y-100238188D01*
X166025409Y-100238186D01*
X166150348Y-100066220D01*
X166150347Y-100066220D01*
X166150351Y-100066216D01*
X166246857Y-99876812D01*
X166312546Y-99674643D01*
X166345800Y-99464687D01*
X166345800Y-99252113D01*
X166312546Y-99042157D01*
X166246857Y-98839988D01*
X166150351Y-98650584D01*
X166150349Y-98650581D01*
X166150348Y-98650579D01*
X166025409Y-98478613D01*
X165875086Y-98328290D01*
X165703120Y-98203351D01*
X165702415Y-98202991D01*
X165694354Y-98198885D01*
X165643559Y-98150912D01*
X165626763Y-98083092D01*
X165649299Y-98016956D01*
X165694354Y-97977915D01*
X165703116Y-97973451D01*
X165725089Y-97957486D01*
X165875086Y-97848509D01*
X165875088Y-97848506D01*
X165875092Y-97848504D01*
X166025404Y-97698192D01*
X166025406Y-97698188D01*
X166025409Y-97698186D01*
X166150348Y-97526220D01*
X166150347Y-97526220D01*
X166150351Y-97526216D01*
X166246857Y-97336812D01*
X166312546Y-97134643D01*
X166345800Y-96924687D01*
X166345800Y-96712113D01*
X166312546Y-96502157D01*
X166246857Y-96299988D01*
X166150351Y-96110584D01*
X166150349Y-96110581D01*
X166150348Y-96110579D01*
X166025409Y-95938613D01*
X165875086Y-95788290D01*
X165703120Y-95663351D01*
X165702415Y-95662991D01*
X165694354Y-95658885D01*
X165643559Y-95610912D01*
X165626763Y-95543092D01*
X165649299Y-95476956D01*
X165694354Y-95437915D01*
X165703116Y-95433451D01*
X165726213Y-95416670D01*
X165875086Y-95308509D01*
X165875088Y-95308506D01*
X165875092Y-95308504D01*
X166025404Y-95158192D01*
X166025406Y-95158188D01*
X166025409Y-95158186D01*
X166150348Y-94986220D01*
X166150347Y-94986220D01*
X166150351Y-94986216D01*
X166246857Y-94796812D01*
X166312546Y-94594643D01*
X166345800Y-94384687D01*
X166345800Y-94172113D01*
X166312546Y-93962157D01*
X166246857Y-93759988D01*
X166150351Y-93570584D01*
X166150349Y-93570581D01*
X166150348Y-93570579D01*
X166025409Y-93398613D01*
X165875086Y-93248290D01*
X165703120Y-93123351D01*
X165702415Y-93122991D01*
X165694354Y-93118885D01*
X165643559Y-93070912D01*
X165626763Y-93003092D01*
X165649299Y-92936956D01*
X165694354Y-92897915D01*
X165703116Y-92893451D01*
X165725089Y-92877486D01*
X165875086Y-92768509D01*
X165875088Y-92768506D01*
X165875092Y-92768504D01*
X166025404Y-92618192D01*
X166025406Y-92618188D01*
X166025409Y-92618186D01*
X166150348Y-92446220D01*
X166150347Y-92446220D01*
X166150351Y-92446216D01*
X166246857Y-92256812D01*
X166312546Y-92054643D01*
X166345800Y-91844687D01*
X166345800Y-91632113D01*
X166312546Y-91422157D01*
X166246857Y-91219988D01*
X166150351Y-91030584D01*
X166150349Y-91030581D01*
X166150348Y-91030579D01*
X166025409Y-90858613D01*
X165875086Y-90708290D01*
X165703120Y-90583351D01*
X165702415Y-90582991D01*
X165694354Y-90578885D01*
X165643559Y-90530912D01*
X165626763Y-90463092D01*
X165649299Y-90396956D01*
X165694354Y-90357915D01*
X165703116Y-90353451D01*
X165725089Y-90337486D01*
X165875086Y-90228509D01*
X165875088Y-90228506D01*
X165875092Y-90228504D01*
X166025404Y-90078192D01*
X166025406Y-90078188D01*
X166025409Y-90078186D01*
X166150348Y-89906220D01*
X166150347Y-89906220D01*
X166150351Y-89906216D01*
X166246857Y-89716812D01*
X166312546Y-89514643D01*
X166345800Y-89304687D01*
X166345800Y-89092113D01*
X166312546Y-88882157D01*
X166246857Y-88679988D01*
X166150351Y-88490584D01*
X166150349Y-88490581D01*
X166150348Y-88490579D01*
X166025409Y-88318613D01*
X165875086Y-88168290D01*
X165703120Y-88043351D01*
X165702415Y-88042991D01*
X165694354Y-88038885D01*
X165643559Y-87990912D01*
X165626763Y-87923092D01*
X165649299Y-87856956D01*
X165694354Y-87817915D01*
X165703116Y-87813451D01*
X165725089Y-87797486D01*
X165875086Y-87688509D01*
X165875088Y-87688506D01*
X165875092Y-87688504D01*
X166025404Y-87538192D01*
X166025406Y-87538188D01*
X166025409Y-87538186D01*
X166150348Y-87366220D01*
X166150347Y-87366220D01*
X166150351Y-87366216D01*
X166246857Y-87176812D01*
X166312546Y-86974643D01*
X166345800Y-86764687D01*
X166345800Y-86552113D01*
X166312546Y-86342157D01*
X166246857Y-86139988D01*
X166150351Y-85950584D01*
X166150349Y-85950581D01*
X166150348Y-85950579D01*
X166025409Y-85778613D01*
X165875086Y-85628290D01*
X165703120Y-85503351D01*
X165702415Y-85502991D01*
X165694354Y-85498885D01*
X165643559Y-85450912D01*
X165626763Y-85383092D01*
X165649299Y-85316956D01*
X165694354Y-85277915D01*
X165703116Y-85273451D01*
X165725089Y-85257486D01*
X165875086Y-85148509D01*
X165875088Y-85148506D01*
X165875092Y-85148504D01*
X166025404Y-84998192D01*
X166025406Y-84998188D01*
X166025409Y-84998186D01*
X166150348Y-84826220D01*
X166150347Y-84826220D01*
X166150351Y-84826216D01*
X166246857Y-84636812D01*
X166312546Y-84434643D01*
X166345800Y-84224687D01*
X166345800Y-84012113D01*
X166312546Y-83802157D01*
X166246857Y-83599988D01*
X166150351Y-83410584D01*
X166150349Y-83410581D01*
X166150348Y-83410579D01*
X166025409Y-83238613D01*
X165875086Y-83088290D01*
X165703120Y-82963351D01*
X165702415Y-82962991D01*
X165694354Y-82958885D01*
X165643559Y-82910912D01*
X165626763Y-82843092D01*
X165649299Y-82776956D01*
X165694354Y-82737915D01*
X165703116Y-82733451D01*
X165725089Y-82717486D01*
X165875086Y-82608509D01*
X165875088Y-82608506D01*
X165875092Y-82608504D01*
X166025404Y-82458192D01*
X166025406Y-82458188D01*
X166025409Y-82458186D01*
X166150348Y-82286220D01*
X166150347Y-82286220D01*
X166150351Y-82286216D01*
X166246857Y-82096812D01*
X166312546Y-81894643D01*
X166345800Y-81684687D01*
X166345800Y-81472113D01*
X166312546Y-81262157D01*
X166246857Y-81059988D01*
X166150351Y-80870584D01*
X166150349Y-80870581D01*
X166150348Y-80870579D01*
X166025409Y-80698613D01*
X165875086Y-80548290D01*
X165703120Y-80423351D01*
X165513714Y-80326844D01*
X165513713Y-80326843D01*
X165513712Y-80326843D01*
X165311543Y-80261154D01*
X165311541Y-80261153D01*
X165311540Y-80261153D01*
X165150257Y-80235608D01*
X165101587Y-80227900D01*
X164889013Y-80227900D01*
X164840342Y-80235608D01*
X164679060Y-80261153D01*
X164476885Y-80326844D01*
X164287479Y-80423351D01*
X164115513Y-80548290D01*
X163965192Y-80698611D01*
X163896873Y-80792647D01*
X163872070Y-80826785D01*
X163816742Y-80869451D01*
X163771753Y-80877900D01*
X161319071Y-80877900D01*
X161252032Y-80858215D01*
X161218754Y-80826786D01*
X161112966Y-80681181D01*
X160968219Y-80536434D01*
X160968213Y-80536428D01*
X160802613Y-80416115D01*
X160802612Y-80416114D01*
X160802610Y-80416113D01*
X160730645Y-80379445D01*
X160620223Y-80323181D01*
X160425534Y-80259922D01*
X160250995Y-80232278D01*
X160223352Y-80227900D01*
X160018648Y-80227900D01*
X159994329Y-80231751D01*
X159816465Y-80259922D01*
X159621776Y-80323181D01*
X159439386Y-80416115D01*
X159273786Y-80536428D01*
X159129028Y-80681186D01*
X159008715Y-80846786D01*
X158915781Y-81029176D01*
X158852522Y-81223865D01*
X158820500Y-81426048D01*
X149179899Y-81426048D01*
X149272452Y-81333495D01*
X154259899Y-76346048D01*
X158820500Y-76346048D01*
X158820500Y-76550751D01*
X158852522Y-76752934D01*
X158915781Y-76947623D01*
X159008715Y-77130013D01*
X159129028Y-77295613D01*
X159273786Y-77440371D01*
X159428749Y-77552956D01*
X159439390Y-77560687D01*
X159555607Y-77619903D01*
X159621776Y-77653618D01*
X159621778Y-77653618D01*
X159621781Y-77653620D01*
X159726137Y-77687527D01*
X159816465Y-77716877D01*
X159917557Y-77732888D01*
X160018648Y-77748900D01*
X160018649Y-77748900D01*
X160223351Y-77748900D01*
X160223352Y-77748900D01*
X160425534Y-77716877D01*
X160620219Y-77653620D01*
X160802610Y-77560687D01*
X160946862Y-77455883D01*
X160968213Y-77440371D01*
X160968215Y-77440368D01*
X160968219Y-77440366D01*
X161112966Y-77295619D01*
X161112968Y-77295615D01*
X161112971Y-77295613D01*
X161165732Y-77222990D01*
X161233287Y-77130010D01*
X161326220Y-76947619D01*
X161389477Y-76752934D01*
X161421500Y-76550752D01*
X161421500Y-76346048D01*
X161389477Y-76143866D01*
X161326220Y-75949181D01*
X161326218Y-75949178D01*
X161326218Y-75949176D01*
X161233287Y-75766790D01*
X161163032Y-75670091D01*
X161163031Y-75670088D01*
X161112971Y-75601187D01*
X161112967Y-75601182D01*
X161112320Y-75600535D01*
X163644800Y-75600535D01*
X163644800Y-77396270D01*
X163644801Y-77396276D01*
X163651208Y-77455883D01*
X163701502Y-77590728D01*
X163701506Y-77590735D01*
X163787752Y-77705944D01*
X163787755Y-77705947D01*
X163902964Y-77792193D01*
X163902971Y-77792197D01*
X164037817Y-77842491D01*
X164037816Y-77842491D01*
X164044744Y-77843235D01*
X164097427Y-77848900D01*
X165893172Y-77848899D01*
X165952783Y-77842491D01*
X166087631Y-77792196D01*
X166202846Y-77705946D01*
X166289096Y-77590731D01*
X166339391Y-77455883D01*
X166345800Y-77396273D01*
X166345799Y-75600528D01*
X166339391Y-75540917D01*
X166295593Y-75423489D01*
X166289097Y-75406071D01*
X166289093Y-75406064D01*
X166202847Y-75290855D01*
X166202844Y-75290852D01*
X166087635Y-75204606D01*
X166087628Y-75204602D01*
X165952782Y-75154308D01*
X165952783Y-75154308D01*
X165893183Y-75147901D01*
X165893181Y-75147900D01*
X165893173Y-75147900D01*
X165893164Y-75147900D01*
X164097429Y-75147900D01*
X164097423Y-75147901D01*
X164037816Y-75154308D01*
X163902971Y-75204602D01*
X163902964Y-75204606D01*
X163787755Y-75290852D01*
X163787752Y-75290855D01*
X163701506Y-75406064D01*
X163701502Y-75406071D01*
X163651208Y-75540917D01*
X163650496Y-75547544D01*
X163644801Y-75600523D01*
X163644800Y-75600535D01*
X161112320Y-75600535D01*
X160968213Y-75456428D01*
X160802613Y-75336115D01*
X160802612Y-75336114D01*
X160802610Y-75336113D01*
X160745653Y-75307091D01*
X160620223Y-75243181D01*
X160425534Y-75179922D01*
X160250995Y-75152278D01*
X160223352Y-75147900D01*
X160018648Y-75147900D01*
X159994329Y-75151751D01*
X159816465Y-75179922D01*
X159621776Y-75243181D01*
X159439386Y-75336115D01*
X159273786Y-75456428D01*
X159129028Y-75601186D01*
X159008715Y-75766786D01*
X158915781Y-75949176D01*
X158852522Y-76143865D01*
X158820500Y-76346048D01*
X154259899Y-76346048D01*
X154352452Y-76253495D01*
X163375611Y-67230335D01*
X168304800Y-67230335D01*
X168304800Y-69866070D01*
X168304801Y-69866076D01*
X168311208Y-69925683D01*
X168361502Y-70060528D01*
X168361506Y-70060535D01*
X168447752Y-70175744D01*
X168447755Y-70175747D01*
X168562964Y-70261993D01*
X168562971Y-70261997D01*
X168697817Y-70312291D01*
X168697816Y-70312291D01*
X168704744Y-70313035D01*
X168757427Y-70318700D01*
X171393172Y-70318699D01*
X171452783Y-70312291D01*
X171587631Y-70261996D01*
X171702846Y-70175746D01*
X171789096Y-70060531D01*
X171839391Y-69925683D01*
X171845800Y-69866073D01*
X171845799Y-67230328D01*
X171839391Y-67170717D01*
X171789096Y-67035869D01*
X171789095Y-67035868D01*
X171789093Y-67035864D01*
X171702847Y-66920655D01*
X171702844Y-66920652D01*
X171587635Y-66834406D01*
X171587628Y-66834402D01*
X171452782Y-66784108D01*
X171452783Y-66784108D01*
X171393183Y-66777701D01*
X171393181Y-66777700D01*
X171393173Y-66777700D01*
X171393164Y-66777700D01*
X168757429Y-66777700D01*
X168757423Y-66777701D01*
X168697816Y-66784108D01*
X168562971Y-66834402D01*
X168562964Y-66834406D01*
X168447755Y-66920652D01*
X168447752Y-66920655D01*
X168361506Y-67035864D01*
X168361502Y-67035871D01*
X168311208Y-67170717D01*
X168304801Y-67230316D01*
X168304801Y-67230323D01*
X168304800Y-67230335D01*
X163375611Y-67230335D01*
X163466621Y-67139325D01*
X170514127Y-60091819D01*
X170575450Y-60058334D01*
X170601808Y-60055500D01*
X178600071Y-60055500D01*
X178684615Y-60038682D01*
X178725744Y-60030501D01*
X178844127Y-59981465D01*
X178950669Y-59910277D01*
X186633727Y-52227219D01*
X186695050Y-52193734D01*
X186721408Y-52190900D01*
X186805229Y-52190900D01*
X186872268Y-52210585D01*
X186905545Y-52242013D01*
X187011330Y-52387613D01*
X187011334Y-52387619D01*
X187156086Y-52532371D01*
X187275838Y-52619374D01*
X187321690Y-52652687D01*
X187392935Y-52688988D01*
X187414380Y-52699915D01*
X187465176Y-52747890D01*
X187481971Y-52815711D01*
X187459434Y-52881846D01*
X187414380Y-52920885D01*
X187321686Y-52968115D01*
X187156086Y-53088428D01*
X187011328Y-53233186D01*
X186891015Y-53398786D01*
X186798081Y-53581176D01*
X186734822Y-53775865D01*
X186702800Y-53978048D01*
X186702800Y-54182752D01*
X186711952Y-54240532D01*
X186734823Y-54384934D01*
X186734822Y-54384934D01*
X186798081Y-54579623D01*
X186891015Y-54762013D01*
X187011328Y-54927613D01*
X187156086Y-55072371D01*
X187309857Y-55184090D01*
X187321690Y-55192687D01*
X187413140Y-55239283D01*
X187414380Y-55239915D01*
X187465176Y-55287890D01*
X187481971Y-55355711D01*
X187459434Y-55421846D01*
X187414380Y-55460885D01*
X187321686Y-55508115D01*
X187156086Y-55628428D01*
X187011328Y-55773186D01*
X186891015Y-55938786D01*
X186798081Y-56121176D01*
X186734822Y-56315865D01*
X186702800Y-56518048D01*
X186702800Y-56722751D01*
X186734822Y-56924934D01*
X186798081Y-57119623D01*
X186891015Y-57302013D01*
X187011328Y-57467613D01*
X187156086Y-57612371D01*
X187311049Y-57724956D01*
X187321690Y-57732687D01*
X187420885Y-57783229D01*
X187424193Y-57784915D01*
X187474989Y-57832890D01*
X187491784Y-57900711D01*
X187469247Y-57966846D01*
X187424193Y-58005885D01*
X187321686Y-58058115D01*
X187156086Y-58178428D01*
X187011328Y-58323186D01*
X186891015Y-58488786D01*
X186798081Y-58671176D01*
X186734822Y-58865865D01*
X186702800Y-59068048D01*
X186702800Y-59272751D01*
X186734822Y-59474934D01*
X186798081Y-59669623D01*
X186891015Y-59852013D01*
X187011328Y-60017613D01*
X187156086Y-60162371D01*
X187311049Y-60274956D01*
X187321690Y-60282687D01*
X187437907Y-60341903D01*
X187504076Y-60375618D01*
X187504078Y-60375618D01*
X187504081Y-60375620D01*
X187608437Y-60409527D01*
X187698765Y-60438877D01*
X187799857Y-60454888D01*
X187900948Y-60470900D01*
X187900949Y-60470900D01*
X188105651Y-60470900D01*
X188105652Y-60470900D01*
X188307834Y-60438877D01*
X188502519Y-60375620D01*
X188684910Y-60282687D01*
X188777890Y-60215132D01*
X188850513Y-60162371D01*
X188850515Y-60162368D01*
X188850519Y-60162366D01*
X188995266Y-60017619D01*
X188995268Y-60017615D01*
X188995271Y-60017613D01*
X189073254Y-59910277D01*
X189115587Y-59852010D01*
X189208520Y-59669619D01*
X189271777Y-59474934D01*
X189303800Y-59272752D01*
X189303800Y-59068048D01*
X189271777Y-58865866D01*
X189208520Y-58671181D01*
X189208518Y-58671178D01*
X189208518Y-58671176D01*
X189174803Y-58605007D01*
X189115587Y-58488790D01*
X189107856Y-58478149D01*
X188995271Y-58323186D01*
X188850513Y-58178428D01*
X188684914Y-58058115D01*
X188677337Y-58054254D01*
X188582404Y-58005883D01*
X188531610Y-57957911D01*
X188514815Y-57890090D01*
X188537352Y-57823955D01*
X188582404Y-57784916D01*
X188684910Y-57732687D01*
X188706070Y-57717313D01*
X188850513Y-57612371D01*
X188850515Y-57612368D01*
X188850519Y-57612366D01*
X188995266Y-57467619D01*
X188995268Y-57467615D01*
X188995271Y-57467613D01*
X189048032Y-57394990D01*
X189115587Y-57302010D01*
X189208520Y-57119619D01*
X189271777Y-56924934D01*
X189303800Y-56722752D01*
X189303800Y-56518048D01*
X189271777Y-56315866D01*
X189208520Y-56121181D01*
X189208518Y-56121178D01*
X189208518Y-56121176D01*
X189174803Y-56055007D01*
X189115587Y-55938790D01*
X189107856Y-55928149D01*
X188995271Y-55773186D01*
X188850513Y-55628428D01*
X188684914Y-55508115D01*
X188678306Y-55504748D01*
X188592217Y-55460883D01*
X188541423Y-55412911D01*
X188524628Y-55345090D01*
X188547165Y-55278955D01*
X188592217Y-55239916D01*
X188684910Y-55192687D01*
X188706070Y-55177313D01*
X188850513Y-55072371D01*
X188850515Y-55072368D01*
X188850519Y-55072366D01*
X188995266Y-54927619D01*
X188995268Y-54927615D01*
X188995271Y-54927613D01*
X189048032Y-54854990D01*
X189115587Y-54762010D01*
X189208520Y-54579619D01*
X189271777Y-54384934D01*
X189303800Y-54182752D01*
X189303800Y-53978048D01*
X189271777Y-53775866D01*
X189208520Y-53581181D01*
X189208518Y-53581178D01*
X189208518Y-53581176D01*
X189174803Y-53515007D01*
X189115587Y-53398790D01*
X189071083Y-53337535D01*
X188995271Y-53233186D01*
X188850513Y-53088428D01*
X188684914Y-52968115D01*
X188678306Y-52964748D01*
X188592217Y-52920883D01*
X188541423Y-52872911D01*
X188524628Y-52805090D01*
X188547165Y-52738955D01*
X188592217Y-52699916D01*
X188684910Y-52652687D01*
X188815815Y-52557580D01*
X188850513Y-52532371D01*
X188850515Y-52532368D01*
X188850519Y-52532366D01*
X188995266Y-52387619D01*
X188995268Y-52387615D01*
X188995271Y-52387613D01*
X189048032Y-52314990D01*
X189115587Y-52222010D01*
X189208520Y-52039619D01*
X189271777Y-51844934D01*
X189303800Y-51642752D01*
X189303800Y-51438048D01*
X189271777Y-51235866D01*
X189208520Y-51041181D01*
X189208518Y-51041178D01*
X189208518Y-51041176D01*
X189144176Y-50914899D01*
X189115587Y-50858790D01*
X189071083Y-50797535D01*
X188995271Y-50693186D01*
X188850513Y-50548428D01*
X188684914Y-50428115D01*
X188678306Y-50424748D01*
X188592217Y-50380883D01*
X188541423Y-50332911D01*
X188524628Y-50265090D01*
X188547165Y-50198955D01*
X188592217Y-50159916D01*
X188684910Y-50112687D01*
X188706070Y-50097313D01*
X188850513Y-49992371D01*
X188850515Y-49992368D01*
X188850519Y-49992366D01*
X188995266Y-49847619D01*
X188995268Y-49847615D01*
X188995271Y-49847613D01*
X189093888Y-49711876D01*
X189115587Y-49682010D01*
X189208520Y-49499619D01*
X189271777Y-49304934D01*
X189303800Y-49102752D01*
X189303800Y-48898048D01*
X189271777Y-48695866D01*
X189208520Y-48501181D01*
X189208518Y-48501178D01*
X189208518Y-48501176D01*
X189144176Y-48374899D01*
X189115587Y-48318790D01*
X189101053Y-48298785D01*
X188995271Y-48153186D01*
X188850513Y-48008428D01*
X188684913Y-47888115D01*
X188684912Y-47888114D01*
X188684910Y-47888113D01*
X188627953Y-47859091D01*
X188502523Y-47795181D01*
X188307834Y-47731922D01*
X188133295Y-47704278D01*
X188105652Y-47699900D01*
X187900948Y-47699900D01*
X187876629Y-47703751D01*
X187698765Y-47731922D01*
X187504076Y-47795181D01*
X187321686Y-47888115D01*
X187156086Y-48008428D01*
X187011334Y-48153180D01*
X187011330Y-48153186D01*
X186905546Y-48298786D01*
X186850218Y-48341451D01*
X186805229Y-48349900D01*
X186438129Y-48349900D01*
X186312461Y-48374897D01*
X186312455Y-48374899D01*
X186194075Y-48423933D01*
X186194066Y-48423938D01*
X186087531Y-48495123D01*
X186087527Y-48495126D01*
X177210673Y-57371981D01*
X177149350Y-57405466D01*
X177122992Y-57408300D01*
X170420129Y-57408300D01*
X170294461Y-57433297D01*
X170294455Y-57433299D01*
X170176074Y-57482334D01*
X170069526Y-57553526D01*
X170069525Y-57553527D01*
X139161473Y-88461581D01*
X139100150Y-88495066D01*
X139073792Y-88497900D01*
X136069071Y-88497900D01*
X136002032Y-88478215D01*
X135968754Y-88446786D01*
X135862966Y-88301181D01*
X135718219Y-88156434D01*
X135718213Y-88156428D01*
X135552614Y-88036115D01*
X135546006Y-88032748D01*
X135459917Y-87988883D01*
X135409123Y-87940911D01*
X135392328Y-87873090D01*
X135414865Y-87806955D01*
X135459917Y-87767916D01*
X135552610Y-87720687D01*
X135596900Y-87688509D01*
X135718213Y-87600371D01*
X135718215Y-87600368D01*
X135718219Y-87600366D01*
X135862966Y-87455619D01*
X135862968Y-87455615D01*
X135862971Y-87455613D01*
X135915732Y-87382990D01*
X135983287Y-87290010D01*
X136076220Y-87107619D01*
X136139477Y-86912934D01*
X136171500Y-86710752D01*
X136171500Y-86506048D01*
X136139477Y-86303866D01*
X136076220Y-86109181D01*
X136076218Y-86109178D01*
X136076218Y-86109176D01*
X136042503Y-86043007D01*
X135983287Y-85926790D01*
X135968752Y-85906784D01*
X135862971Y-85761186D01*
X135718213Y-85616428D01*
X135552614Y-85496115D01*
X135533298Y-85486273D01*
X135459917Y-85448883D01*
X135409123Y-85400911D01*
X135392328Y-85333090D01*
X135414865Y-85266955D01*
X135459917Y-85227916D01*
X135552610Y-85180687D01*
X135596900Y-85148509D01*
X135718213Y-85060371D01*
X135718215Y-85060368D01*
X135718219Y-85060366D01*
X135862966Y-84915619D01*
X135862968Y-84915615D01*
X135862971Y-84915613D01*
X135925519Y-84829521D01*
X135983287Y-84750010D01*
X136076220Y-84567619D01*
X136139477Y-84372934D01*
X136171500Y-84170752D01*
X136171500Y-83966048D01*
X136139477Y-83763866D01*
X136076220Y-83569181D01*
X136076218Y-83569178D01*
X136076218Y-83569176D01*
X135999138Y-83417900D01*
X135983287Y-83386790D01*
X135968752Y-83366784D01*
X135862971Y-83221186D01*
X135718213Y-83076428D01*
X135552614Y-82956115D01*
X135546006Y-82952748D01*
X135459917Y-82908883D01*
X135409123Y-82860911D01*
X135392328Y-82793090D01*
X135414865Y-82726955D01*
X135459917Y-82687916D01*
X135552610Y-82640687D01*
X135596192Y-82609023D01*
X135718213Y-82520371D01*
X135718215Y-82520368D01*
X135718219Y-82520366D01*
X135862966Y-82375619D01*
X135862968Y-82375615D01*
X135862971Y-82375613D01*
X135915732Y-82302990D01*
X135983287Y-82210010D01*
X136076220Y-82027619D01*
X136139477Y-81832934D01*
X136171500Y-81630752D01*
X136171500Y-81426048D01*
X136139477Y-81223866D01*
X136128509Y-81190111D01*
X136076218Y-81029176D01*
X135999138Y-80877900D01*
X135983287Y-80846790D01*
X135966276Y-80823376D01*
X135862971Y-80681186D01*
X135718213Y-80536428D01*
X135552613Y-80416115D01*
X135552612Y-80416114D01*
X135552610Y-80416113D01*
X135480645Y-80379445D01*
X135370223Y-80323181D01*
X135175534Y-80259922D01*
X135000995Y-80232278D01*
X134973352Y-80227900D01*
X134768648Y-80227900D01*
X134744329Y-80231751D01*
X134566465Y-80259922D01*
X134371776Y-80323181D01*
X134189386Y-80416115D01*
X134023786Y-80536428D01*
X133879034Y-80681180D01*
X133822597Y-80758860D01*
X133773246Y-80826786D01*
X133717918Y-80869451D01*
X133672929Y-80877900D01*
X131218847Y-80877900D01*
X131151808Y-80858215D01*
X131118530Y-80826785D01*
X131025408Y-80698613D01*
X131025407Y-80698611D01*
X130875086Y-80548290D01*
X130703120Y-80423351D01*
X130513714Y-80326844D01*
X130513713Y-80326843D01*
X130513712Y-80326843D01*
X130311543Y-80261154D01*
X130311541Y-80261153D01*
X130311540Y-80261153D01*
X130150257Y-80235608D01*
X130101587Y-80227900D01*
X129889013Y-80227900D01*
X129840342Y-80235608D01*
X129679060Y-80261153D01*
X129476885Y-80326844D01*
X129287479Y-80423351D01*
X129115513Y-80548290D01*
X128965190Y-80698613D01*
X128840251Y-80870579D01*
X128743744Y-81059985D01*
X128678053Y-81262160D01*
X128644800Y-81472113D01*
X128644800Y-81684686D01*
X128666875Y-81824066D01*
X128678054Y-81894643D01*
X128724348Y-82037122D01*
X128743744Y-82096814D01*
X128840251Y-82286220D01*
X128965190Y-82458186D01*
X129115513Y-82608509D01*
X129287482Y-82733450D01*
X129296246Y-82737916D01*
X129347042Y-82785891D01*
X129363836Y-82853712D01*
X129341298Y-82919847D01*
X129296246Y-82958884D01*
X129287482Y-82963349D01*
X129115513Y-83088290D01*
X128965190Y-83238613D01*
X128840251Y-83410579D01*
X128743744Y-83599985D01*
X128678053Y-83802160D01*
X128644800Y-84012113D01*
X128644800Y-84224686D01*
X128678053Y-84434639D01*
X128743744Y-84636814D01*
X128840251Y-84826220D01*
X128965190Y-84998186D01*
X129115513Y-85148509D01*
X129287482Y-85273450D01*
X129296246Y-85277916D01*
X129347042Y-85325891D01*
X129363836Y-85393712D01*
X129341298Y-85459847D01*
X129296246Y-85498884D01*
X129287482Y-85503349D01*
X129115513Y-85628290D01*
X128965190Y-85778613D01*
X128838429Y-85953088D01*
X128783100Y-85995754D01*
X128713486Y-86001733D01*
X128651691Y-85969128D01*
X128650430Y-85967884D01*
X128168819Y-85486273D01*
X128135334Y-85424950D01*
X128132500Y-85398592D01*
X128132500Y-75600535D01*
X128644800Y-75600535D01*
X128644800Y-77396270D01*
X128644801Y-77396276D01*
X128651208Y-77455883D01*
X128701502Y-77590728D01*
X128701506Y-77590735D01*
X128787752Y-77705944D01*
X128787755Y-77705947D01*
X128902964Y-77792193D01*
X128902971Y-77792197D01*
X129037817Y-77842491D01*
X129037816Y-77842491D01*
X129044744Y-77843235D01*
X129097427Y-77848900D01*
X130893172Y-77848899D01*
X130952783Y-77842491D01*
X131087631Y-77792196D01*
X131202846Y-77705946D01*
X131289096Y-77590731D01*
X131339391Y-77455883D01*
X131345800Y-77396273D01*
X131345799Y-76346048D01*
X133570500Y-76346048D01*
X133570500Y-76550751D01*
X133602522Y-76752934D01*
X133665781Y-76947623D01*
X133758715Y-77130013D01*
X133879028Y-77295613D01*
X134023786Y-77440371D01*
X134178749Y-77552956D01*
X134189390Y-77560687D01*
X134305607Y-77619903D01*
X134371776Y-77653618D01*
X134371778Y-77653618D01*
X134371781Y-77653620D01*
X134476137Y-77687527D01*
X134566465Y-77716877D01*
X134667557Y-77732888D01*
X134768648Y-77748900D01*
X134768649Y-77748900D01*
X134973351Y-77748900D01*
X134973352Y-77748900D01*
X135175534Y-77716877D01*
X135370219Y-77653620D01*
X135552610Y-77560687D01*
X135696862Y-77455883D01*
X135718213Y-77440371D01*
X135718215Y-77440368D01*
X135718219Y-77440366D01*
X135862966Y-77295619D01*
X135862968Y-77295615D01*
X135862971Y-77295613D01*
X135915732Y-77222990D01*
X135983287Y-77130010D01*
X136076220Y-76947619D01*
X136139477Y-76752934D01*
X136171500Y-76550752D01*
X136171500Y-76346048D01*
X136139477Y-76143866D01*
X136076220Y-75949181D01*
X136076218Y-75949178D01*
X136076218Y-75949176D01*
X136032512Y-75863400D01*
X135983287Y-75766790D01*
X135975556Y-75756149D01*
X135862971Y-75601186D01*
X135718213Y-75456428D01*
X135552613Y-75336115D01*
X135552612Y-75336114D01*
X135552610Y-75336113D01*
X135495653Y-75307091D01*
X135370223Y-75243181D01*
X135175534Y-75179922D01*
X135000995Y-75152278D01*
X134973352Y-75147900D01*
X134768648Y-75147900D01*
X134744329Y-75151751D01*
X134566465Y-75179922D01*
X134371776Y-75243181D01*
X134189386Y-75336115D01*
X134023786Y-75456428D01*
X133879028Y-75601186D01*
X133758715Y-75766786D01*
X133665781Y-75949176D01*
X133602522Y-76143865D01*
X133570500Y-76346048D01*
X131345799Y-76346048D01*
X131345799Y-75600528D01*
X131339391Y-75540917D01*
X131295593Y-75423489D01*
X131289097Y-75406071D01*
X131289093Y-75406064D01*
X131202847Y-75290855D01*
X131202844Y-75290852D01*
X131087635Y-75204606D01*
X131087628Y-75204602D01*
X130952782Y-75154308D01*
X130952783Y-75154308D01*
X130893183Y-75147901D01*
X130893181Y-75147900D01*
X130893173Y-75147900D01*
X130893164Y-75147900D01*
X129097429Y-75147900D01*
X129097423Y-75147901D01*
X129037816Y-75154308D01*
X128902971Y-75204602D01*
X128902964Y-75204606D01*
X128787755Y-75290852D01*
X128787752Y-75290855D01*
X128701506Y-75406064D01*
X128701502Y-75406071D01*
X128651208Y-75540917D01*
X128650496Y-75547544D01*
X128644801Y-75600523D01*
X128644800Y-75600535D01*
X128132500Y-75600535D01*
X128132500Y-54591128D01*
X128107502Y-54465461D01*
X128107501Y-54465460D01*
X128107501Y-54465456D01*
X128074148Y-54384934D01*
X128058466Y-54347074D01*
X127987277Y-54240531D01*
X127987272Y-54240525D01*
X124615473Y-50868726D01*
X124615469Y-50868723D01*
X124508927Y-50797535D01*
X124390544Y-50748499D01*
X124390538Y-50748497D01*
X124264871Y-50723500D01*
X124264869Y-50723500D01*
X124047090Y-50723500D01*
X123980051Y-50703815D01*
X123939856Y-50659390D01*
X123939102Y-50659853D01*
X123936640Y-50655835D01*
X123936608Y-50655800D01*
X123936558Y-50655703D01*
X123936556Y-50655700D01*
X123809759Y-50481179D01*
X123657221Y-50328641D01*
X123482699Y-50201843D01*
X123290489Y-50103908D01*
X123085326Y-50037246D01*
X123085324Y-50037245D01*
X123085322Y-50037245D01*
X122872266Y-50003500D01*
X122872261Y-50003500D01*
X122206539Y-50003500D01*
X122206534Y-50003500D01*
X121993477Y-50037245D01*
X121788308Y-50103909D01*
X121596100Y-50201843D01*
X121509049Y-50265090D01*
X121421579Y-50328641D01*
X121421577Y-50328643D01*
X121421576Y-50328643D01*
X121269043Y-50481176D01*
X121269043Y-50481177D01*
X121269041Y-50481179D01*
X121220182Y-50548428D01*
X121142243Y-50655700D01*
X121044309Y-50847908D01*
X120977645Y-51053077D01*
X120943900Y-51266133D01*
X120943900Y-51481866D01*
X120969382Y-51642751D01*
X120977646Y-51694926D01*
X121044308Y-51900089D01*
X121142243Y-52092299D01*
X121269041Y-52266821D01*
X121421579Y-52419359D01*
X121542854Y-52507471D01*
X121592694Y-52543682D01*
X121635359Y-52599012D01*
X121641338Y-52668626D01*
X121608732Y-52730421D01*
X121592694Y-52744318D01*
X121421579Y-52868641D01*
X121421577Y-52868643D01*
X121421576Y-52868643D01*
X121269043Y-53021176D01*
X121269043Y-53021177D01*
X121269041Y-53021179D01*
X121220182Y-53088428D01*
X121142243Y-53195700D01*
X121044309Y-53387908D01*
X120977645Y-53593077D01*
X120943900Y-53806133D01*
X120943900Y-54021866D01*
X120969382Y-54182751D01*
X120977646Y-54234926D01*
X121026387Y-54384935D01*
X121044309Y-54440091D01*
X121057233Y-54465456D01*
X121142243Y-54632299D01*
X121269041Y-54806821D01*
X121421579Y-54959359D01*
X121596101Y-55086157D01*
X121788311Y-55184092D01*
X121993474Y-55250754D01*
X122073373Y-55263408D01*
X122206534Y-55284500D01*
X122206539Y-55284500D01*
X122872266Y-55284500D01*
X122990630Y-55265752D01*
X123085326Y-55250754D01*
X123290489Y-55184092D01*
X123482699Y-55086157D01*
X123657221Y-54959359D01*
X123809759Y-54806821D01*
X123824116Y-54787059D01*
X123879445Y-54744393D01*
X123949058Y-54738412D01*
X124010854Y-54771017D01*
X124012116Y-54772262D01*
X126093381Y-56853527D01*
X126126866Y-56914850D01*
X126129700Y-56941208D01*
X126129700Y-66028191D01*
X126110015Y-66095230D01*
X126057211Y-66140985D01*
X125988053Y-66150929D01*
X125924497Y-66121904D01*
X125918019Y-66115872D01*
X124571973Y-64769826D01*
X124540821Y-64749011D01*
X124465427Y-64698635D01*
X124347044Y-64649599D01*
X124347038Y-64649597D01*
X124221371Y-64624600D01*
X124221369Y-64624600D01*
X124047090Y-64624600D01*
X123980051Y-64604915D01*
X123939856Y-64560490D01*
X123939102Y-64560953D01*
X123936640Y-64556935D01*
X123936608Y-64556900D01*
X123936558Y-64556803D01*
X123936556Y-64556800D01*
X123809759Y-64382279D01*
X123667775Y-64240295D01*
X123634290Y-64178972D01*
X123639274Y-64109280D01*
X123681146Y-64053347D01*
X123703057Y-64040229D01*
X123703722Y-64039917D01*
X123703734Y-64039914D01*
X123853056Y-63947812D01*
X123977112Y-63823756D01*
X124069214Y-63674434D01*
X124124399Y-63507897D01*
X124134900Y-63405109D01*
X124134899Y-62065092D01*
X124124399Y-61962303D01*
X124069214Y-61795766D01*
X123977112Y-61646444D01*
X123853056Y-61522388D01*
X123703734Y-61430286D01*
X123537197Y-61375101D01*
X123537195Y-61375100D01*
X123434410Y-61364600D01*
X121644398Y-61364600D01*
X121644381Y-61364601D01*
X121541603Y-61375100D01*
X121541600Y-61375101D01*
X121375068Y-61430285D01*
X121375063Y-61430287D01*
X121225742Y-61522389D01*
X121101689Y-61646442D01*
X121009587Y-61795763D01*
X121009586Y-61795766D01*
X120954401Y-61962303D01*
X120954401Y-61962304D01*
X120954400Y-61962304D01*
X120943900Y-62065083D01*
X120943900Y-63405101D01*
X120943901Y-63405118D01*
X120954400Y-63507896D01*
X120954401Y-63507899D01*
X121009585Y-63674431D01*
X121009586Y-63674434D01*
X121101688Y-63823756D01*
X121225744Y-63947812D01*
X121375066Y-64039914D01*
X121375068Y-64039914D01*
X121375069Y-64039915D01*
X121375748Y-64040232D01*
X121376135Y-64040573D01*
X121381213Y-64043705D01*
X121380677Y-64044572D01*
X121428187Y-64086404D01*
X121447339Y-64153598D01*
X121427123Y-64220479D01*
X121411025Y-64240295D01*
X121269040Y-64382280D01*
X121142243Y-64556800D01*
X121044309Y-64749008D01*
X120977645Y-64954177D01*
X120943900Y-65167233D01*
X120943900Y-65382966D01*
X120977645Y-65596022D01*
X120977646Y-65596026D01*
X121044308Y-65801189D01*
X121142243Y-65993399D01*
X121269041Y-66167921D01*
X121421579Y-66320459D01*
X121596101Y-66447257D01*
X121788311Y-66545192D01*
X121993474Y-66611854D01*
X122073373Y-66624508D01*
X122206534Y-66645600D01*
X122206539Y-66645600D01*
X122872266Y-66645600D01*
X122990630Y-66626852D01*
X123085326Y-66611854D01*
X123290489Y-66545192D01*
X123482699Y-66447257D01*
X123657221Y-66320459D01*
X123809759Y-66167921D01*
X123859257Y-66099792D01*
X123914582Y-66057129D01*
X123984196Y-66051149D01*
X124045991Y-66083755D01*
X124047253Y-66084999D01*
X125271181Y-67308927D01*
X125304666Y-67370250D01*
X125307500Y-67396608D01*
X125307500Y-81842991D01*
X125287815Y-81910030D01*
X125235011Y-81955785D01*
X125165853Y-81965729D01*
X125102297Y-81936704D01*
X125095819Y-81930672D01*
X124376073Y-81210926D01*
X124344921Y-81190111D01*
X124269527Y-81139735D01*
X124151144Y-81090699D01*
X124151138Y-81090697D01*
X124023958Y-81065399D01*
X123962047Y-81033014D01*
X123939120Y-81002041D01*
X123939102Y-81002053D01*
X123938969Y-81001836D01*
X123937663Y-81000071D01*
X123936557Y-80997901D01*
X123809759Y-80823379D01*
X123657221Y-80670841D01*
X123482699Y-80544043D01*
X123290489Y-80446108D01*
X123085326Y-80379446D01*
X123085324Y-80379445D01*
X123085322Y-80379445D01*
X122872266Y-80345700D01*
X122872261Y-80345700D01*
X122206539Y-80345700D01*
X122206534Y-80345700D01*
X121993477Y-80379445D01*
X121788308Y-80446109D01*
X121596100Y-80544043D01*
X121496529Y-80616386D01*
X121421579Y-80670841D01*
X121421577Y-80670843D01*
X121421576Y-80670843D01*
X121269043Y-80823376D01*
X121269043Y-80823377D01*
X121269041Y-80823379D01*
X121229429Y-80877900D01*
X121142243Y-80997900D01*
X121044309Y-81190108D01*
X120977645Y-81395277D01*
X120943900Y-81608333D01*
X120943900Y-81824066D01*
X120977645Y-82037122D01*
X120977646Y-82037126D01*
X121044308Y-82242289D01*
X121142243Y-82434499D01*
X121269041Y-82609021D01*
X121421579Y-82761559D01*
X121596101Y-82888357D01*
X121788311Y-82986292D01*
X121993474Y-83052954D01*
X122073373Y-83065608D01*
X122206534Y-83086700D01*
X122206539Y-83086700D01*
X122872266Y-83086700D01*
X122990630Y-83067952D01*
X123085326Y-83052954D01*
X123290489Y-82986292D01*
X123482699Y-82888357D01*
X123657221Y-82761559D01*
X123784336Y-82634444D01*
X123845659Y-82600959D01*
X123915351Y-82605943D01*
X123959698Y-82634444D01*
X124509181Y-83183927D01*
X124542666Y-83245250D01*
X124545500Y-83271608D01*
X124545500Y-96299070D01*
X124552304Y-96333273D01*
X124566319Y-96403731D01*
X124570499Y-96424744D01*
X124619535Y-96543127D01*
X124690723Y-96649669D01*
X124690726Y-96649673D01*
X127904725Y-99863672D01*
X127904732Y-99863678D01*
X128011263Y-99934859D01*
X128011267Y-99934861D01*
X128011274Y-99934866D01*
X128069298Y-99958900D01*
X128069299Y-99958900D01*
X128069300Y-99958901D01*
X128110120Y-99975809D01*
X128129656Y-99983901D01*
X128129660Y-99983901D01*
X128129661Y-99983902D01*
X128255328Y-100008900D01*
X128255331Y-100008900D01*
X128383469Y-100008900D01*
X128735682Y-100008900D01*
X128802721Y-100028585D01*
X128836399Y-100062991D01*
X128837385Y-100062275D01*
X128965190Y-100238186D01*
X129115513Y-100388509D01*
X129287482Y-100513450D01*
X129296246Y-100517916D01*
X129347042Y-100565891D01*
X129363836Y-100633712D01*
X129341298Y-100699847D01*
X129296246Y-100738884D01*
X129287482Y-100743349D01*
X129115513Y-100868290D01*
X128965194Y-101018609D01*
X128859805Y-101163665D01*
X128804475Y-101206330D01*
X128734861Y-101212309D01*
X128673067Y-101179703D01*
X128671806Y-101178460D01*
X125145374Y-97652027D01*
X125145373Y-97652026D01*
X125145369Y-97652023D01*
X125038827Y-97580835D01*
X124920444Y-97531799D01*
X124920438Y-97531797D01*
X124794771Y-97506800D01*
X124794769Y-97506800D01*
X124047090Y-97506800D01*
X123980051Y-97487115D01*
X123939856Y-97442690D01*
X123939102Y-97443153D01*
X123936640Y-97439135D01*
X123936608Y-97439100D01*
X123936558Y-97439003D01*
X123936557Y-97439001D01*
X123809759Y-97264479D01*
X123657221Y-97111941D01*
X123486104Y-96987617D01*
X123443440Y-96932288D01*
X123437461Y-96862674D01*
X123470067Y-96800880D01*
X123486102Y-96786984D01*
X123657221Y-96662659D01*
X123809759Y-96510121D01*
X123936557Y-96335599D01*
X124034492Y-96143389D01*
X124101154Y-95938226D01*
X124116152Y-95843530D01*
X124134900Y-95725166D01*
X124134900Y-95509433D01*
X124101154Y-95296377D01*
X124101154Y-95296374D01*
X124034492Y-95091211D01*
X123936557Y-94899001D01*
X123809759Y-94724479D01*
X123657221Y-94571941D01*
X123482699Y-94445143D01*
X123290489Y-94347208D01*
X123085326Y-94280546D01*
X123085324Y-94280545D01*
X123085322Y-94280545D01*
X122872266Y-94246800D01*
X122872261Y-94246800D01*
X122206539Y-94246800D01*
X122206534Y-94246800D01*
X121993477Y-94280545D01*
X121788308Y-94347209D01*
X121596100Y-94445143D01*
X121496529Y-94517486D01*
X121421579Y-94571941D01*
X121421577Y-94571943D01*
X121421576Y-94571943D01*
X121269043Y-94724476D01*
X121269043Y-94724477D01*
X121269041Y-94724479D01*
X121266760Y-94727619D01*
X121142243Y-94899000D01*
X121046226Y-95087445D01*
X121023422Y-95118831D01*
X119915527Y-96226725D01*
X119915524Y-96226728D01*
X119867188Y-96299070D01*
X119844335Y-96333272D01*
X119795299Y-96451655D01*
X119795297Y-96451661D01*
X119770300Y-96577328D01*
X115888732Y-96577328D01*
X115887807Y-89867283D01*
X120943900Y-89867283D01*
X120943900Y-91207301D01*
X120943901Y-91207318D01*
X120954400Y-91310096D01*
X120954401Y-91310099D01*
X120991534Y-91422157D01*
X121009586Y-91476634D01*
X121101688Y-91625956D01*
X121225744Y-91750012D01*
X121375066Y-91842114D01*
X121541603Y-91897299D01*
X121644391Y-91907800D01*
X123434408Y-91907799D01*
X123537197Y-91897299D01*
X123703734Y-91842114D01*
X123853056Y-91750012D01*
X123977112Y-91625956D01*
X124069214Y-91476634D01*
X124124399Y-91310097D01*
X124134900Y-91207309D01*
X124134899Y-89867292D01*
X124124399Y-89764503D01*
X124069214Y-89597966D01*
X123977112Y-89448644D01*
X123853056Y-89324588D01*
X123733348Y-89250752D01*
X123703736Y-89232487D01*
X123703731Y-89232485D01*
X123702262Y-89231998D01*
X123537197Y-89177301D01*
X123537195Y-89177300D01*
X123434410Y-89166800D01*
X121644398Y-89166800D01*
X121644381Y-89166801D01*
X121541603Y-89177300D01*
X121541600Y-89177301D01*
X121375068Y-89232485D01*
X121375063Y-89232487D01*
X121225742Y-89324589D01*
X121101689Y-89448642D01*
X121009587Y-89597963D01*
X121009585Y-89597968D01*
X120993131Y-89647623D01*
X120954401Y-89764503D01*
X120954401Y-89764504D01*
X120954400Y-89764504D01*
X120943900Y-89867283D01*
X115887807Y-89867283D01*
X115885891Y-75966183D01*
X120943900Y-75966183D01*
X120943900Y-77306201D01*
X120943901Y-77306218D01*
X120954400Y-77408996D01*
X120954401Y-77408999D01*
X121009585Y-77575531D01*
X121009587Y-77575536D01*
X121018962Y-77590735D01*
X121101688Y-77724856D01*
X121225744Y-77848912D01*
X121375066Y-77941014D01*
X121541603Y-77996199D01*
X121644391Y-78006700D01*
X123434408Y-78006699D01*
X123537197Y-77996199D01*
X123703734Y-77941014D01*
X123853056Y-77848912D01*
X123977112Y-77724856D01*
X124069214Y-77575534D01*
X124124399Y-77408997D01*
X124134900Y-77306209D01*
X124134899Y-75966192D01*
X124124399Y-75863403D01*
X124069214Y-75696866D01*
X123977112Y-75547544D01*
X123853056Y-75423488D01*
X123703734Y-75331386D01*
X123537197Y-75276201D01*
X123537195Y-75276200D01*
X123434410Y-75265700D01*
X121644398Y-75265700D01*
X121644381Y-75265701D01*
X121541603Y-75276200D01*
X121541600Y-75276201D01*
X121375068Y-75331385D01*
X121375063Y-75331387D01*
X121225742Y-75423489D01*
X121101689Y-75547542D01*
X121009587Y-75696863D01*
X121009586Y-75696866D01*
X120954401Y-75863403D01*
X120954401Y-75863404D01*
X120954400Y-75863404D01*
X120943900Y-75966183D01*
X115885891Y-75966183D01*
X115881708Y-45623983D01*
X120943900Y-45623983D01*
X120943900Y-46964001D01*
X120943901Y-46964018D01*
X120954400Y-47066796D01*
X120954401Y-47066799D01*
X121009585Y-47233331D01*
X121009586Y-47233334D01*
X121101688Y-47382656D01*
X121225744Y-47506712D01*
X121375066Y-47598814D01*
X121541603Y-47653999D01*
X121644391Y-47664500D01*
X123434408Y-47664499D01*
X123537197Y-47653999D01*
X123703734Y-47598814D01*
X123853056Y-47506712D01*
X123977112Y-47382656D01*
X124069214Y-47233334D01*
X124124399Y-47066797D01*
X124134900Y-46964009D01*
X124134899Y-45623992D01*
X124124399Y-45521203D01*
X124069214Y-45354666D01*
X123977112Y-45205344D01*
X123853056Y-45081288D01*
X123703734Y-44989186D01*
X123537197Y-44934001D01*
X123537195Y-44934000D01*
X123434410Y-44923500D01*
X121644398Y-44923500D01*
X121644381Y-44923501D01*
X121541603Y-44934000D01*
X121541600Y-44934001D01*
X121375068Y-44989185D01*
X121375063Y-44989187D01*
X121225742Y-45081289D01*
X121101689Y-45205342D01*
X121009587Y-45354663D01*
X121009586Y-45354666D01*
X120954401Y-45521203D01*
X120954401Y-45521204D01*
X120954400Y-45521204D01*
X120943900Y-45623983D01*
X115881708Y-45623983D01*
X115881459Y-43818048D01*
X186702800Y-43818048D01*
X186702800Y-44022751D01*
X186734822Y-44224934D01*
X186798081Y-44419623D01*
X186891015Y-44602013D01*
X187011328Y-44767613D01*
X187156086Y-44912371D01*
X187311049Y-45024956D01*
X187321690Y-45032687D01*
X187417075Y-45081288D01*
X187504076Y-45125618D01*
X187504078Y-45125618D01*
X187504081Y-45125620D01*
X187608437Y-45159527D01*
X187698765Y-45188877D01*
X187799857Y-45204888D01*
X187900948Y-45220900D01*
X187900949Y-45220900D01*
X188105651Y-45220900D01*
X188105652Y-45220900D01*
X188307834Y-45188877D01*
X188502519Y-45125620D01*
X188684910Y-45032687D01*
X188820741Y-44934001D01*
X188850513Y-44912371D01*
X188850515Y-44912368D01*
X188850519Y-44912366D01*
X188995266Y-44767619D01*
X188995268Y-44767615D01*
X188995271Y-44767613D01*
X189048032Y-44694990D01*
X189115587Y-44602010D01*
X189208520Y-44419619D01*
X189271777Y-44224934D01*
X189303800Y-44022752D01*
X189303800Y-43818048D01*
X189271777Y-43615866D01*
X189208520Y-43421181D01*
X189208518Y-43421178D01*
X189208518Y-43421176D01*
X189174803Y-43355007D01*
X189115587Y-43238790D01*
X189107856Y-43228149D01*
X188995271Y-43073186D01*
X188850513Y-42928428D01*
X188684913Y-42808115D01*
X188684912Y-42808114D01*
X188684910Y-42808113D01*
X188627953Y-42779091D01*
X188502523Y-42715181D01*
X188307834Y-42651922D01*
X188133295Y-42624278D01*
X188105652Y-42619900D01*
X187900948Y-42619900D01*
X187876629Y-42623751D01*
X187698765Y-42651922D01*
X187504076Y-42715181D01*
X187321686Y-42808115D01*
X187156086Y-42928428D01*
X187011328Y-43073186D01*
X186891015Y-43238786D01*
X186798081Y-43421176D01*
X186734822Y-43615865D01*
X186702800Y-43818048D01*
X115881459Y-43818048D01*
X115880500Y-36864627D01*
X115880766Y-36856524D01*
X115887488Y-36753984D01*
X116475500Y-36753984D01*
X116475500Y-36967185D01*
X116508853Y-37177765D01*
X116508853Y-37177768D01*
X116574734Y-37380529D01*
X116574736Y-37380532D01*
X116671528Y-37570498D01*
X116796846Y-37742982D01*
X116947603Y-37893739D01*
X117120087Y-38019057D01*
X117310053Y-38115849D01*
X117310055Y-38115850D01*
X117499182Y-38177300D01*
X117512821Y-38181732D01*
X117723399Y-38215085D01*
X117723400Y-38215085D01*
X117936600Y-38215085D01*
X117936601Y-38215085D01*
X118147179Y-38181732D01*
X118147182Y-38181731D01*
X118147183Y-38181731D01*
X118349944Y-38115850D01*
X118349944Y-38115849D01*
X118349947Y-38115849D01*
X118539913Y-38019057D01*
X118712397Y-37893739D01*
X118863154Y-37742982D01*
X118988472Y-37570498D01*
X119085264Y-37380532D01*
X119151147Y-37177764D01*
X119184500Y-36967186D01*
X119184500Y-36753984D01*
X193645500Y-36753984D01*
X193645500Y-36967185D01*
X193678853Y-37177765D01*
X193678853Y-37177768D01*
X193744734Y-37380529D01*
X193744736Y-37380532D01*
X193841528Y-37570498D01*
X193966846Y-37742982D01*
X194117603Y-37893739D01*
X194290087Y-38019057D01*
X194480053Y-38115849D01*
X194480055Y-38115850D01*
X194669182Y-38177300D01*
X194682821Y-38181732D01*
X194893399Y-38215085D01*
X194893400Y-38215085D01*
X195106600Y-38215085D01*
X195106601Y-38215085D01*
X195317179Y-38181732D01*
X195317182Y-38181731D01*
X195317183Y-38181731D01*
X195519944Y-38115850D01*
X195519944Y-38115849D01*
X195519947Y-38115849D01*
X195709913Y-38019057D01*
X195882397Y-37893739D01*
X196033154Y-37742982D01*
X196158472Y-37570498D01*
X196255264Y-37380532D01*
X196321147Y-37177764D01*
X196354500Y-36967186D01*
X196354500Y-36753984D01*
X196321147Y-36543406D01*
X196321146Y-36543402D01*
X196321146Y-36543401D01*
X196255265Y-36340640D01*
X196255263Y-36340637D01*
X196158471Y-36150671D01*
X196137819Y-36122246D01*
X196033154Y-35978188D01*
X195882397Y-35827431D01*
X195709913Y-35702113D01*
X195519947Y-35605321D01*
X195519944Y-35605319D01*
X195317181Y-35539438D01*
X195176793Y-35517202D01*
X195106601Y-35506085D01*
X194893399Y-35506085D01*
X194823206Y-35517202D01*
X194682819Y-35539438D01*
X194682816Y-35539438D01*
X194480055Y-35605319D01*
X194480052Y-35605321D01*
X194290086Y-35702113D01*
X194117601Y-35827432D01*
X193966847Y-35978186D01*
X193841528Y-36150671D01*
X193744736Y-36340637D01*
X193744734Y-36340640D01*
X193678853Y-36543401D01*
X193678853Y-36543404D01*
X193645500Y-36753984D01*
X119184500Y-36753984D01*
X119151147Y-36543406D01*
X119151146Y-36543402D01*
X119151146Y-36543401D01*
X119085265Y-36340640D01*
X119085263Y-36340637D01*
X118988471Y-36150671D01*
X118967819Y-36122246D01*
X118863154Y-35978188D01*
X118712397Y-35827431D01*
X118539913Y-35702113D01*
X118349947Y-35605321D01*
X118349944Y-35605319D01*
X118147181Y-35539438D01*
X118006793Y-35517202D01*
X117936601Y-35506085D01*
X117723399Y-35506085D01*
X117653206Y-35517202D01*
X117512819Y-35539438D01*
X117512816Y-35539438D01*
X117310055Y-35605319D01*
X117310052Y-35605321D01*
X117120086Y-35702113D01*
X116947601Y-35827432D01*
X116796847Y-35978186D01*
X116671528Y-36150671D01*
X116574736Y-36340637D01*
X116574734Y-36340640D01*
X116508853Y-36543401D01*
X116508853Y-36543404D01*
X116475500Y-36753984D01*
X115887488Y-36753984D01*
X115896649Y-36614234D01*
X115898766Y-36598160D01*
X115945347Y-36363987D01*
X115949542Y-36348334D01*
X116026292Y-36122239D01*
X116032494Y-36107268D01*
X116138098Y-35893125D01*
X116146201Y-35879090D01*
X116278857Y-35680558D01*
X116288714Y-35667712D01*
X116446149Y-35488192D01*
X116457607Y-35476734D01*
X116637130Y-35319297D01*
X116649973Y-35309442D01*
X116848505Y-35176786D01*
X116862540Y-35168683D01*
X117076683Y-35063079D01*
X117091654Y-35056877D01*
X117317749Y-34980127D01*
X117333402Y-34975932D01*
X117567580Y-34929350D01*
X117583651Y-34927234D01*
X117825947Y-34911350D01*
X117834058Y-34911085D01*
X117895897Y-34911085D01*
X130464108Y-34911085D01*
X194934106Y-34911085D01*
X194934110Y-34911086D01*
G37*
%TD.AperFunction*%
%TD*%
M02*
